<?xml version="1.0" standalone="no"?>
<!DOCTYPE svg PUBLIC "-//W3C//DTD SVG 20010904//EN"
 "http://www.w3.org/TR/2001/REC-SVG-20010904/DTD/svg10.dtd">
<svg version="1.0" xmlns="http://www.w3.org/2000/svg"
 width="640.000000pt" height="640.000000pt" viewBox="0 0 640.000000 640.000000"
 preserveAspectRatio="xMidYMid meet">
<metadata>
Created by potrace 1.11, written by Peter Selinger 2001-2013
</metadata>
<g transform="translate(0.000000,640.000000) scale(0.100000,-0.100000)"
fill="#000000" stroke="none">
<path d="M3499 5855 c-2 -2 -36 -7 -74 -10 -39 -4 -73 -9 -76 -10 -3 -2 -28
-7 -55 -10 -27 -4 -85 -16 -129 -26 -44 -11 -91 -22 -105 -25 -14 -3 -34 -8
-45 -11 -21 -7 -29 -9 -60 -16 -87 -21 -506 -204 -521 -228 -3 -5 2 -21 10
-34 9 -14 14 -25 11 -25 -4 0 3 -13 14 -29 12 -16 21 -34 21 -40 0 -6 4 -11 9
-11 5 0 12 -9 16 -19 10 -32 27 -30 95 8 76 43 234 111 259 111 9 0 22 5 29
12 21 21 320 102 417 112 17 2 55 8 85 14 30 6 93 12 140 14 l85 3 0 -97 c1
-54 3 -100 6 -102 4 -4 112 -8 170 -7 36 1 47 31 43 118 -3 63 -1 74 15 83 11
5 26 8 33 5 7 -3 40 -7 73 -10 115 -10 141 -13 170 -18 17 -4 48 -9 70 -12 22
-3 62 -12 90 -21 27 -8 66 -17 85 -20 19 -3 41 -11 48 -16 6 -6 12 -8 12 -5 0
10 219 -70 330 -121 116 -53 382 -213 426 -256 6 -6 23 -20 39 -31 28 -20 82
-64 123 -100 12 -11 22 -23 22 -27 0 -3 -155 -161 -344 -351 -385 -384 -383
-381 -333 -455 13 -20 44 -57 67 -82 52 -56 120 -146 120 -160 0 -5 4 -10 9
-10 22 0 153 -286 167 -366 3 -15 9 -34 13 -43 5 -9 12 -36 16 -61 4 -25 9
-54 11 -65 9 -45 17 -143 16 -185 -1 -83 -11 -245 -16 -265 -64 -275 -130
-421 -296 -648 -26 -36 -135 -141 -206 -198 -152 -124 -372 -228 -579 -275
-85 -19 -115 -22 -275 -25 -104 -2 -137 1 -235 18 -16 3 -37 5 -45 5 -8 0 -67
16 -130 35 -111 34 -278 109 -339 152 -16 12 -31 21 -34 21 -3 0 -16 9 -29 20
-12 10 -51 43 -86 72 -139 117 -141 117 -211 110 -21 -3 -797 -780 -813 -816
-22 -46 -6 -86 60 -153 75 -75 121 -115 247 -209 33 -25 67 -50 75 -57 86 -68
310 -191 500 -275 97 -43 359 -124 450 -139 41 -7 72 -13 130 -23 30 -6 78
-12 105 -15 28 -3 64 -7 80 -11 52 -10 417 -13 480 -4 33 5 89 11 125 14 36 3
76 8 90 11 14 3 48 10 75 15 74 15 85 17 145 35 30 8 68 18 85 21 16 3 54 15
85 27 30 12 58 22 63 23 4 1 8 2 10 4 1 1 9 3 17 5 29 7 90 31 96 38 4 4 13 7
21 7 16 0 213 97 270 133 24 15 45 27 48 27 3 0 11 5 18 10 7 6 44 30 82 55
39 24 75 48 80 52 6 4 37 28 70 52 107 79 168 133 285 250 241 243 417 499
566 826 21 47 105 287 110 315 3 14 11 45 19 70 7 25 16 61 19 80 3 19 8 46
11 60 38 177 50 303 50 520 -1 162 -7 284 -20 370 -28 178 -64 338 -99 440
-14 38 -22 70 -19 70 3 0 1 6 -5 13 -6 7 -23 46 -38 87 -54 151 -195 416 -285
537 -21 29 -39 55 -39 58 0 3 -10 16 -23 28 -12 12 -31 35 -41 51 -71 112
-355 390 -496 486 -19 13 -37 27 -40 31 -9 11 -172 114 -255 161 -139 79 -261
133 -415 185 -41 14 -84 29 -95 34 -11 5 -35 11 -53 14 -18 3 -52 12 -75 20
-23 8 -52 15 -64 15 -12 0 -24 4 -27 9 -3 4 -27 11 -53 14 -26 4 -62 9 -78 12
-30 5 -57 9 -160 21 -59 7 -511 15 -516 9z"/>
<path d="M1508 5636 c-14 -10 -16 -32 -15 -159 0 -95 5 -147 11 -148 6 0 51
-2 99 -4 77 -2 89 0 98 16 5 11 8 80 7 161 l-3 142 -90 2 c-59 2 -96 -2 -107
-10z"/>
<path d="M1067 5432 c-37 -37 -67 -72 -67 -77 0 -13 194 -205 206 -205 12 0
144 135 144 146 0 13 -193 204 -205 204 -6 0 -41 -30 -78 -68z"/>
<path d="M1949 5400 c-83 -82 -98 -102 -90 -117 12 -23 126 -133 138 -133 13
0 203 194 203 207 0 15 -126 143 -140 143 -6 0 -56 -45 -111 -100z"/>
<path d="M4461 5198 c-16 -35 -40 -90 -54 -123 -89 -220 -139 -337 -161 -382
-14 -29 -26 -57 -26 -63 0 -5 -12 -35 -27 -67 -15 -32 -28 -62 -29 -68 -1 -5
-18 -46 -37 -90 -185 -429 -209 -485 -212 -495 -1 -3 -5 -17 -9 -32 -9 -31
-41 -63 -55 -54 -9 6 -12 27 -11 81 5 331 2 657 -6 665 -6 6 -50 11 -99 11
-67 0 -92 -3 -100 -14 -7 -10 -10 -132 -10 -366 0 -194 -2 -356 -5 -360 -3 -4
-67 -7 -142 -7 -170 1 -169 1 -172 -114 -1 -54 -6 -84 -15 -89 -7 -5 -54 -9
-104 -9 -51 -1 -99 -3 -107 -5 -44 -10 -62 -21 -77 -50 -15 -28 -17 -74 -18
-362 -1 -181 2 -342 6 -358 17 -62 58 -80 183 -79 56 0 108 -4 116 -8 11 -6
14 -34 16 -123 1 -100 4 -119 23 -145 12 -17 31 -34 43 -38 28 -8 653 -8 704
0 74 13 90 57 84 235 -3 75 7 81 134 79 129 -2 159 11 180 80 8 27 10 52 5 58
-5 6 -6 13 -3 17 3 3 5 32 5 64 -1 32 -1 67 -1 78 5 337 0 474 -19 507 -25 45
-44 49 -265 51 -160 2 -158 1 -124 89 33 89 109 269 144 345 19 39 34 75 34
80 0 5 9 25 20 46 11 20 17 37 14 37 -4 0 -2 6 4 13 5 6 33 68 61 137 64 154
70 168 88 203 8 15 12 27 9 27 -3 0 10 35 30 78 19 42 64 147 100 232 36 85
73 174 84 196 25 56 17 81 -31 96 -22 6 -39 15 -39 20 0 4 -8 8 -18 8 -10 0
-22 4 -27 9 -6 5 -20 12 -32 15 -20 6 -26 0 -52 -56z"/>
<path d="M1253 5106 c-70 -23 -83 -64 -80 -248 1 -97 -2 -151 -9 -158 -8 -8
-83 -12 -225 -12 -269 -1 -257 5 -330 -158 -28 -63 -60 -133 -70 -154 -11 -22
-19 -45 -19 -52 0 -6 -7 -17 -15 -24 -8 -7 -15 -18 -15 -25 0 -8 -16 -49 -36
-92 -48 -103 -58 -127 -56 -135 1 -5 -2 -8 -7 -8 -7 0 -14 -13 -25 -50 -6 -19
-62 -152 -76 -180 -10 -19 -31 -64 -46 -100 l-28 -65 -1 -643 c-1 -536 -4
-645 -15 -652 -8 -5 -34 -7 -59 -6 -55 3 -97 -16 -122 -58 -18 -29 -19 -50
-18 -274 1 -234 2 -244 23 -268 11 -14 37 -29 57 -33 20 -5 173 -8 339 -8
l303 0 28 -41 c15 -22 36 -49 46 -60 10 -10 26 -28 35 -38 33 -36 55 -54 66
-54 7 0 12 -3 12 -8 0 -19 158 -91 242 -109 53 -11 271 -4 294 9 5 3 27 11 49
18 90 29 142 63 243 163 63 62 103 122 137 205 31 75 35 100 40 231 3 84 0
116 -15 158 -10 28 -16 53 -14 55 2 2 -17 44 -41 92 -61 123 -60 123 102 125
154 2 163 3 174 24 12 21 18 162 8 178 -5 9 -38 13 -106 14 l-98 0 -1 412 c-1
226 3 417 7 424 6 10 56 13 201 14 106 0 198 3 204 7 17 11 17 183 0 197 -8 6
-90 12 -212 13 l-199 3 0 315 0 316 465 -1 c423 0 466 1 481 16 14 14 16 25 9
53 -9 39 -6 41 61 36 42 -2 50 18 47 121 l-3 94 -528 0 c-290 0 -528 2 -528 5
-1 3 -2 80 -3 172 -2 182 -7 202 -59 233 -28 17 -58 19 -309 19 -153 1 -290
-3 -305 -8z"/>
<path d="M3218 4682 c-10 -2 -18 -13 -19 -25 -4 -88 0 -82 -46 -79 -55 4 -62
-11 -61 -121 2 -97 -5 -90 88 -89 113 0 123 5 125 58 1 37 2 38 50 49 46 9 50
12 55 45 5 28 5 134 1 161 -1 6 -166 7 -193 1z"/>
<path d="M2560 3706 c-4 -11 -5 -24 -1 -29 4 -4 4 -31 1 -60 -3 -29 -3 -64 0
-78 6 -23 8 -24 108 -24 62 0 102 4 103 10 4 32 5 182 1 193 -3 9 -31 12 -104
11 -92 -1 -100 -3 -108 -23z"/>
<path d="M2379 2663 c-9 -2 -20 -14 -26 -26 -9 -22 -10 -173 -1 -183 3 -2 45
-6 94 -7 116 -4 120 0 118 116 -1 49 -4 91 -8 94 -6 6 -153 11 -177 6z"/>
</g>
</svg>
