<svg xmlns="http://www.w3.org/2000/svg" width="53.61" height="83.03" viewBox="0 0 53.61 83.03"><title>l011</title><path d="M15.91,57.25l-6.7-3.16,15-31.86a11,11,0,0,0,6.64,3.13l-15,31.89M7,54.87l-.69,1.47L16,60.89l.69-1.47,1.48.69,16.43-35A11,11,0,0,0,32,3.34h0a11,11,0,0,0-9.92,15.87l-16.5,35,1.47.7M32,80.46h0a11.06,11.06,0,1,0-11-11,11.06,11.06,0,0,0,11,11m16.43.94H5.19a3.56,3.56,0,0,1-3.56-3.57V5.2A3.56,3.56,0,0,1,5.19,1.63H48.43v0A3.56,3.56,0,0,1,52,5.2V77.83a3.56,3.56,0,0,1-3.55,3.57" fill="#ecc66d"/><path d="M48.43,83H5.19A5.19,5.19,0,0,1,0,77.83V5.2A5.2,5.2,0,0,1,5.19,0H48.43V1.63H5.19A3.56,3.56,0,0,0,1.63,5.2V77.83A3.57,3.57,0,0,0,5.19,81.4H48.43A3.57,3.57,0,0,0,52,77.83V5.2a3.56,3.56,0,0,0-3.55-3.57V0a5.19,5.19,0,0,1,5.18,5.2V77.83A5.19,5.19,0,0,1,48.43,83" fill="#6b685e"/><path d="M32,23v-.83a7.79,7.79,0,1,1,7.78-7.8A7.81,7.81,0,0,1,32,22.16V23" fill="#e5b53d"/><path d="M34.6,25.1l.35-.74-1.47-.69a9.44,9.44,0,1,0-9.59-4.53l-1.46-.69-.35.76A11,11,0,0,1,32,3.34h0A11,11,0,0,1,34.6,25.1m-3.72.26a11,11,0,0,1-6.63-3.13L25,20.65a9.37,9.37,0,0,0,6.64,3.13l-.75,1.58" fill="#6b685e"/><path d="M31.63,23.78A9.41,9.41,0,0,1,25,20.65l.38-.81-1.49-.7a9.41,9.41,0,1,1,9.6,4.53L32,23h0v-.83a7.79,7.79,0,1,0-7.79-7.8A7.81,7.81,0,0,0,32,22.16V23l-.37.79" fill="#6b6658"/><path d="M32,78.83V77.2a7.8,7.8,0,1,1,7.78-7.79A7.8,7.8,0,0,1,32,77.2v1.63" fill="#e5b53d"/><path d="M32,80.46a11.06,11.06,0,1,1,11-11,11.05,11.05,0,0,1-11,11V78.83a9.43,9.43,0,1,0-9.42-9.42A9.41,9.41,0,0,0,32,78.83v1.63" fill="#6b685e"/><path d="M32,78.83a9.43,9.43,0,1,1,9.41-9.42A9.42,9.42,0,0,1,32,78.83V77.2a7.8,7.8,0,1,0-7.79-7.79A7.79,7.79,0,0,0,32,77.2v1.63" fill="#6b6658"/><path d="M9.21,54.09,7.74,53.4,23.08,20.88a10.68,10.68,0,0,0,1.17,1.35l-15,31.86M7,54.87l-1.47-.7,16.5-35a11.23,11.23,0,0,0,1,1.67L7.74,53.4,7,54.87" fill="#6b685e"/><path d="M23.08,20.88a11.77,11.77,0,0,1-1-1.67l.36-.76,1.45.69v0l-.81,1.72m1.17,1.35a11.56,11.56,0,0,1-1.17-1.35l.81-1.72A10.05,10.05,0,0,0,25,20.65l-.74,1.58" fill="#3a3937"/><path d="M25,20.65a9.33,9.33,0,0,1-1.09-1.49h0s0,0,0,0l1.49.7-.38.81" fill="#393835"/><polyline points="7.74 53.4 7.74 53.4 23.09 20.88 7.74 53.4" fill="#6b6658"/><polygon points="23.08 20.88 23.08 20.88 23.89 19.16 23.08 20.88" fill="#5e5950"/><polygon points="23.9 19.16 23.9 19.16 23.9 19.15 23.9 19.16" fill="#5d594f"/><path d="M15.22,58.73l-6.7-3.17.69-1.47,6.7,3.16ZM16,60.89,6.35,56.34l.7-1.47,1.47.69,6.7,3.17h0l1.47.69L16,60.89" fill="#6b685e"/><polygon points="8.52 55.56 7.04 54.87 7.74 53.4 7.04 54.87 7.74 53.4 9.21 54.09 8.52 55.56 7.04 54.87 8.52 55.56" fill="#3a3937"/><path d="M7,54.87l.7-1.47Z" fill="#393835"/><path d="M15.22,58.72l-6.7-3.16Z" fill="#6b6658"/><polyline points="8.52 55.56 7.04 54.87 8.52 55.56" fill="#5e5950"/><path d="M17.39,58l-1.48-.7,15-31.89c.36,0,.73.05,1.11.05l.66,0L17.39,58m.78,2.16-1.48-.69h0l.7-1.46h0L32.66,25.39a11.2,11.2,0,0,0,1.94-.29l-16.43,35" fill="#6b685e"/><path d="M32.67,25.39l.8-1.72h0l1.47.69-.35.74a11.23,11.23,0,0,1-1.93.29m-.67,0V23.78a8.93,8.93,0,0,0,1.47-.11l-.8,1.72c-.23,0-.45,0-.67,0m0,0c-.38,0-.75,0-1.12-.05l.75-1.58H32v1.63" fill="#3a3937"/><path d="M32,23.78V23l1.48.7h0a10.17,10.17,0,0,1-1.47.11m0,0h-.37L32,23v.79" fill="#393835"/><path d="M16.69,59.42l-1.47-.7.69-1.47,1.47.69-.68,1.47Zm0,0-1.47-.69h0l1.47.7" fill="#3a3937"/><path d="M16.69,59.42l-1.47-.7Z" fill="#393835"/><polygon points="16.7 59.41 17.38 57.95 17.39 57.95 16.7 59.41" fill="#3a3937"/><path d="M17.38,57.94h0L32.67,25.39Zm-.69,1.48h0" fill="#6b6658"/><path d="M32.67,25.39l.8-1.72Z" fill="#5e5950"/><path d="M33.47,23.67Z" fill="#5d594f"/><path d="M16.7,59.41l.68-1.47Z" fill="#5e5950"/></svg>