<svg xmlns="http://www.w3.org/2000/svg" xmlns:xlink="http://www.w3.org/1999/xlink" width="87.41" height="89.74" viewBox="0 0 87.41 89.74"><defs><clipPath id="a" transform="translate(0 0)"><rect x="2.46" y="2.91" width="83.52" height="85.39" fill="none"/></clipPath><clipPath id="c" transform="translate(0 0)"><rect width="87.41" height="89.74" fill="none"/></clipPath><clipPath id="d" transform="translate(0 0)"><rect width="87.41" height="89.74" fill="none"/></clipPath><clipPath id="e" transform="translate(0 0)"><rect x="60.32" y="37.47" width="3.22" height="8.69" fill="none"/></clipPath><clipPath id="f" transform="translate(0 0)"><rect x="58.97" y="36.97" width="5.91" height="9.69" fill="none"/></clipPath><clipPath id="g" transform="translate(0 0)"><rect x="58.97" y="36.97" width="5.91" height="9.69" fill="none"/></clipPath><clipPath id="h" transform="translate(0 0)"><rect x="33.18" y="60.55" width="2.21" height="2.19" fill="none"/></clipPath><clipPath id="j" transform="translate(0 0)"><rect x="33.18" y="59.12" width="3.64" height="3.62" fill="none"/></clipPath><clipPath id="l" transform="translate(0 0)"><rect x="33.18" y="62.84" width="2.21" height="2.22" fill="none"/></clipPath><clipPath id="m" transform="translate(0 0)"><rect x="33.18" y="62.84" width="2.21" height="2.22" fill="none"/></clipPath><clipPath id="n" transform="translate(0 0)"><rect x="33.18" y="62.84" width="3.64" height="3.65" fill="none"/></clipPath><clipPath id="o" transform="translate(0 0)"><rect x="33.18" y="62.84" width="3.64" height="3.65" fill="none"/></clipPath><clipPath id="p" transform="translate(0 0)"><rect x="29.65" y="67.25" width="0.89" height="1.74" fill="none"/></clipPath><clipPath id="r" transform="translate(0 0)"><rect x="28.22" y="66.12" width="3.2" height="2.96" fill="none"/></clipPath><clipPath id="s" transform="translate(0 0)"><rect x="28.22" y="66.12" width="3.2" height="2.97" fill="none"/></clipPath><clipPath id="t" transform="translate(0 0)"><rect x="29.65" y="70.66" width="2.94" height="3.19" fill="none"/></clipPath><clipPath id="u" transform="translate(0 0)"><rect x="29.65" y="70.66" width="2.94" height="3.19" fill="none"/></clipPath><clipPath id="v" transform="translate(0 0)"><rect x="28.22" y="70.64" width="4.46" height="4.64" fill="none"/></clipPath><clipPath id="w" transform="translate(0 0)"><rect x="28.22" y="70.64" width="4.46" height="4.64" fill="none"/></clipPath><clipPath id="x" transform="translate(0 0)"><rect x="30.97" y="56.2" width="3.7" height="4.35" fill="none"/></clipPath><clipPath id="y" transform="translate(0 0)"><rect x="30.97" y="56.21" width="3.7" height="4.34" fill="none"/></clipPath><clipPath id="z" transform="translate(0 0)"><rect x="29.54" y="54.79" width="5.37" height="5.76" fill="none"/></clipPath><clipPath id="ab" transform="translate(0 0)"><rect x="57.6" y="30.57" width="2.72" height="7.89" fill="none"/></clipPath><clipPath id="ac" transform="translate(0 0)"><rect x="56.11" y="30.53" width="4.71" height="10.01" fill="none"/></clipPath><clipPath id="ae" transform="translate(0 0)"><rect x="57.82" y="30.57" width="5.23" height="6.89" fill="none"/></clipPath><clipPath id="af" transform="translate(0 0)"><rect x="56.76" y="29.62" width="8.76" height="9.19" fill="none"/></clipPath><clipPath id="ah" transform="translate(0 0)"><rect x="34.67" y="50.54" width="33.49" height="5.67" fill="none"/></clipPath><clipPath id="ai" transform="translate(0 0)"><rect x="34.44" y="49.12" width="33.97" height="8.5" fill="none"/></clipPath><clipPath id="ak" transform="translate(0 0)"><rect x="63.67" y="73.64" width="14.75" height="0.21" fill="none"/></clipPath><clipPath id="al" transform="translate(0 0)"><path d="M63.67,73.85h0Z" fill="none"/></clipPath><clipPath id="am" transform="translate(0 0)"><rect x="63.67" y="72.41" width="14.75" height="2.87" fill="none"/></clipPath><clipPath id="an" transform="translate(0 0)"><rect x="63.67" y="72.42" width="14.75" height="2.87" fill="none"/></clipPath><clipPath id="ao" transform="translate(0 0)"><rect x="63.67" y="69.22" width="14.75" height="0.21" fill="none"/></clipPath><clipPath id="ap" transform="translate(0 0)"><path d="M63.67,69.43h0Z" fill="none"/></clipPath><clipPath id="aq" transform="translate(0 0)"><rect x="63.67" y="68" width="14.75" height="2.87" fill="none"/></clipPath><clipPath id="as" transform="translate(0 0)"><rect x="42.68" y="58.94" width="21.04" height="21.03" fill="none"/></clipPath><clipPath id="at" transform="translate(0 0)"><rect x="42.68" y="58.94" width="21.04" height="21.03" fill="none"/></clipPath><clipPath id="au" transform="translate(0 0)"><rect x="41.24" y="57.51" width="23.91" height="23.89" fill="none"/></clipPath><clipPath id="aw" transform="translate(0 0)"><rect x="32.59" y="73.64" width="10.08" height="0.21" fill="none"/></clipPath><clipPath id="ax" transform="translate(0 0)"><path d="M32.59,73.85h0Z" fill="none"/></clipPath><clipPath id="ay" transform="translate(0 0)"><rect x="32.59" y="72.41" width="10.08" height="2.87" fill="none"/></clipPath><clipPath id="az" transform="translate(0 0)"><rect x="32.59" y="72.42" width="10.08" height="2.87" fill="none"/></clipPath><clipPath id="ba" transform="translate(0 0)"><rect x="30.97" y="69.22" width="11.7" height="0.21" fill="none"/></clipPath><clipPath id="bb" transform="translate(0 0)"><path d="M31,69.43h0Z" fill="none"/></clipPath><clipPath id="bc" transform="translate(0 0)"><rect x="30.97" y="68" width="11.7" height="2.87" fill="none"/></clipPath><clipPath id="bd" transform="translate(0 0)"><rect x="30.97" y="68" width="11.7" height="2.87" fill="none"/></clipPath><clipPath id="be" transform="translate(0 0)"><rect x="29.65" y="68.99" width="0.21" height="1.67" fill="none"/></clipPath><clipPath id="bf" transform="translate(0 0)"><polygon points="29.65 70.66 29.65 70.66 29.65 68.99 29.65 70.66" fill="none"/></clipPath><clipPath id="bg" transform="translate(0 0)"><rect x="28.22" y="68.99" width="2.87" height="1.67" fill="none"/></clipPath><clipPath id="bi" transform="translate(0 0)"><rect x="30.97" y="60.34" width="2.2" height="0.21" fill="none"/></clipPath><clipPath id="bj" transform="translate(0 0)"><path d="M31,60.55h0Z" fill="none"/></clipPath><clipPath id="bk" transform="translate(0 0)"><rect x="30.97" y="59.12" width="2.2" height="2.87" fill="none"/></clipPath><clipPath id="bl" transform="translate(0 0)"><rect x="30.97" y="59.12" width="2.2" height="2.87" fill="none"/></clipPath><clipPath id="bm" transform="translate(0 0)"><rect x="30.97" y="64.85" width="2.2" height="0.21" fill="none"/></clipPath><clipPath id="bn" transform="translate(0 0)"><path d="M31,65.06h0Z" fill="none"/></clipPath><clipPath id="bo" transform="translate(0 0)"><rect x="30.97" y="63.62" width="2.2" height="2.87" fill="none"/></clipPath><clipPath id="bp" transform="translate(0 0)"><rect x="30.97" y="63.63" width="2.2" height="2.87" fill="none"/></clipPath><clipPath id="bq" transform="translate(0 0)"><rect x="30.54" y="67.04" width="0.43" height="0.21" fill="none"/></clipPath><clipPath id="br" transform="translate(0 0)"><path d="M30.54,67.25h0Z" fill="none"/></clipPath><clipPath id="bs" transform="translate(0 0)"><rect x="30.54" y="66.17" width="0.43" height="2.15" fill="none"/></clipPath><clipPath id="bu" transform="translate(0 0)"><rect x="35.38" y="62.74" width="0.21" height="0.1" fill="none"/></clipPath><clipPath id="bv" transform="translate(0 0)"><polygon points="35.38 62.84 35.38 62.84 35.38 62.74 35.38 62.84" fill="none"/></clipPath><clipPath id="bw" transform="translate(0 0)"><rect x="33.95" y="62.74" width="2.87" height="0.1" fill="none"/></clipPath><clipPath id="by" transform="translate(0 0)"><rect x="30.97" y="60.55" width="0.21" height="8.88" fill="none"/></clipPath><clipPath id="bz" transform="translate(0 0)"><polygon points="30.97 69.43 30.97 69.43 30.97 60.55 30.97 69.43" fill="none"/></clipPath><clipPath id="ca" transform="translate(0 0)"><rect x="29.54" y="60.55" width="2.87" height="8.88" fill="none"/></clipPath><clipPath id="cb" transform="translate(0 0)"><rect x="29.54" y="60.55" width="2.87" height="8.89" fill="none"/></clipPath><clipPath id="cc" transform="translate(0 0)"><rect x="42.68" y="69.43" width="0.21" height="4.41" fill="none"/></clipPath><clipPath id="cd" transform="translate(0 0)"><polygon points="42.67 73.85 42.67 73.85 42.67 69.43 42.67 73.85" fill="none"/></clipPath><clipPath id="ce" transform="translate(0 0)"><rect x="41.24" y="69.43" width="2.87" height="4.41" fill="none"/></clipPath><clipPath id="cf" transform="translate(0 0)"><rect x="41.24" y="69.44" width="2.87" height="4.41" fill="none"/></clipPath><clipPath id="cg" transform="translate(0 0)"><rect x="63.67" y="69.43" width="0.21" height="4.41" fill="none"/></clipPath><clipPath id="ch" transform="translate(0 0)"><polygon points="63.67 73.85 63.67 73.85 63.67 69.43 63.67 73.85" fill="none"/></clipPath><clipPath id="ci" transform="translate(0 0)"><rect x="62.24" y="69.43" width="2.87" height="4.41" fill="none"/></clipPath><clipPath id="cj" transform="translate(0 0)"><rect x="62.24" y="69.44" width="2.87" height="4.41" fill="none"/></clipPath><clipPath id="ck" transform="translate(0 0)"><rect x="68.16" y="33.98" width="12.37" height="16.55" fill="none"/></clipPath><clipPath id="cl" transform="translate(0 0)"><rect x="67.01" y="33.13" width="14.66" height="18.27" fill="none"/></clipPath><clipPath id="cm" transform="translate(0 0)"><rect x="67.01" y="33.13" width="14.66" height="18.27" fill="none"/></clipPath><clipPath id="cn" transform="translate(0 0)"><rect x="75.6" y="33.98" width="4.93" height="15.27" fill="none"/></clipPath><clipPath id="co" transform="translate(0 0)"><rect x="74.23" y="33.54" width="7.66" height="16.15" fill="none"/></clipPath><clipPath id="cq" transform="translate(0 0)"><rect x="68.16" y="49.25" width="7.44" height="1.29" fill="none"/></clipPath><clipPath id="cr" transform="translate(0 0)"><rect x="67.92" y="47.84" width="7.93" height="4.11" fill="none"/></clipPath><clipPath id="cs" transform="translate(0 0)"><rect x="67.92" y="47.84" width="7.93" height="4.11" fill="none"/></clipPath><clipPath id="ct" transform="translate(0 0)"><rect x="34.67" y="47.25" width="32.73" height="8.95" fill="none"/></clipPath><clipPath id="cu" transform="translate(0 0)"><rect x="34.3" y="45.87" width="33.49" height="11.72" fill="none"/></clipPath><clipPath id="cv" transform="translate(0 0)"><rect x="34.3" y="45.87" width="33.49" height="11.72" fill="none"/></clipPath><clipPath id="cw" transform="translate(0 0)"><rect x="24.72" y="18.14" width="3.25" height="3.26" fill="none"/></clipPath><clipPath id="cx" transform="translate(0 0)"><rect x="24.72" y="18.14" width="3.25" height="3.25" fill="none"/></clipPath><clipPath id="cy" transform="translate(0 0)"><rect x="23.65" y="17.07" width="5.4" height="5.4" fill="none"/></clipPath><clipPath id="cz" transform="translate(0 0)"><rect x="23.65" y="17.07" width="5.4" height="5.4" fill="none"/></clipPath><clipPath id="da" transform="translate(0 0)"><rect x="26.35" y="10.96" width="17.16" height="30.27" fill="none"/></clipPath><clipPath id="db" transform="translate(0 0)"><rect x="25.1" y="10.26" width="19.66" height="31.68" fill="none"/></clipPath><clipPath id="dc" transform="translate(0 0)"><rect x="25.1" y="10.26" width="19.66" height="31.68" fill="none"/></clipPath><clipPath id="dd" transform="translate(0 0)"><rect x="9.24" y="10.96" width="17.11" height="30.27" fill="none"/></clipPath><clipPath id="de" transform="translate(0 0)"><rect x="7.99" y="10.26" width="19.61" height="31.68" fill="none"/></clipPath><clipPath id="df" transform="translate(0 0)"><rect x="7.99" y="10.26" width="19.61" height="31.68" fill="none"/></clipPath><clipPath id="dg" transform="translate(0 0)"><rect x="9.24" y="41.02" width="17.11" height="0.21" fill="none"/></clipPath><clipPath id="dh" transform="translate(0 0)"><path d="M9.24,41.23h0Z" fill="none"/></clipPath><clipPath id="di" transform="translate(0 0)"><rect x="9.24" y="39.8" width="17.11" height="2.87" fill="none"/></clipPath><clipPath id="dk" transform="translate(0 0)"><rect x="26.35" y="41.02" width="17.16" height="0.21" fill="none"/></clipPath><clipPath id="dl" transform="translate(0 0)"><path d="M26.35,41.23h0Z" fill="none"/></clipPath><clipPath id="dm" transform="translate(0 0)"><rect x="26.35" y="39.8" width="17.16" height="2.87" fill="none"/></clipPath><clipPath id="do" transform="translate(0 0)"><rect x="25.61" y="29.67" width="0.21" height="0.42" fill="none"/></clipPath><clipPath id="dp" transform="translate(0 0)"><polygon points="25.61 30.09 25.61 30.09 25.61 29.67 25.61 30.09" fill="none"/></clipPath><clipPath id="dq" transform="translate(0 0)"><rect x="24.54" y="29.67" width="2.15" height="0.42" fill="none"/></clipPath><clipPath id="dr" transform="translate(0 0)"><rect x="24.54" y="29.67" width="2.15" height="0.42" fill="none"/></clipPath><clipPath id="ds" transform="translate(0 0)"><rect x="21.21" y="30.09" width="4.4" height="8.08" fill="none"/></clipPath><clipPath id="dt" transform="translate(0 0)"><rect x="20.27" y="29.58" width="6.29" height="9.11" fill="none"/></clipPath><clipPath id="dv" transform="translate(0 0)"><rect x="21.21" y="37.96" width="1.45" height="0.21" fill="none"/></clipPath><clipPath id="dw" transform="translate(0 0)"><path d="M21.21,38.18h0Z" fill="none"/></clipPath><clipPath id="dx" transform="translate(0 0)"><rect x="21.21" y="37.1" width="1.45" height="2.15" fill="none"/></clipPath><clipPath id="dy" transform="translate(0 0)"><rect x="21.21" y="37.1" width="1.45" height="2.15" fill="none"/></clipPath><clipPath id="dz" transform="translate(0 0)"><rect x="23.58" y="30.54" width="3.65" height="6.79" fill="none"/></clipPath><clipPath id="ea" transform="translate(0 0)"><rect x="22.64" y="30.03" width="5.55" height="7.81" fill="none"/></clipPath><clipPath id="ec" transform="translate(0 0)"><rect x="27.23" y="30.54" width="4.04" height="7.4" fill="none"/></clipPath><clipPath id="ed" transform="translate(0 0)"><rect x="26.29" y="30.03" width="5.93" height="8.43" fill="none"/></clipPath><clipPath id="ef" transform="translate(0 0)"><rect x="28.96" y="30.28" width="3.08" height="5.63" fill="none"/></clipPath><clipPath id="eg" transform="translate(0 0)"><rect x="28.01" y="29.77" width="4.97" height="6.67" fill="none"/></clipPath><clipPath id="ei" transform="translate(0 0)"><rect x="28.96" y="29.61" width="0.21" height="0.68" fill="none"/></clipPath><clipPath id="ej" transform="translate(0 0)"><polygon points="28.96 30.29 28.96 30.29 28.96 29.61 28.96 30.29" fill="none"/></clipPath><clipPath id="ek" transform="translate(0 0)"><rect x="27.88" y="29.61" width="2.15" height="0.68" fill="none"/></clipPath><clipPath id="el" transform="translate(0 0)"><rect x="27.88" y="29.61" width="2.15" height="0.67" fill="none"/></clipPath><clipPath id="em" transform="translate(0 0)"><rect x="25.61" y="29.61" width="3.35" height="0.06" fill="none"/></clipPath><clipPath id="en" transform="translate(0 0)"><rect x="25.59" y="28.53" width="3.39" height="2.21" fill="none"/></clipPath><clipPath id="ep" transform="translate(0 0)"><rect x="25.61" y="25.71" width="0.21" height="3.48" fill="none"/></clipPath><clipPath id="eq" transform="translate(0 0)"><polygon points="25.61 29.19 25.61 29.19 25.61 25.71 25.61 29.19" fill="none"/></clipPath><clipPath id="er" transform="translate(0 0)"><rect x="24.54" y="25.71" width="2.15" height="3.48" fill="none"/></clipPath><clipPath id="es" transform="translate(0 0)"><rect x="24.54" y="25.71" width="2.15" height="3.48" fill="none"/></clipPath><clipPath id="et" transform="translate(0 0)"><rect x="23.53" y="25.71" width="2.08" height="2.86" fill="none"/></clipPath><clipPath id="eu" transform="translate(0 0)"><rect x="22.66" y="25.08" width="3.82" height="4.13" fill="none"/></clipPath><clipPath id="ew" transform="translate(0 0)"><rect x="21.83" y="22.46" width="4.13" height="6.31" fill="none"/></clipPath><clipPath id="ex" transform="translate(0 0)"><rect x="20.93" y="21.87" width="5.94" height="7.49" fill="none"/></clipPath><clipPath id="ez" transform="translate(0 0)"><rect x="26.62" y="21.83" width="0.84" height="0.21" fill="none"/></clipPath><clipPath id="fa" transform="translate(0 0)"><path d="M26.62,22h0Z" fill="none"/></clipPath><clipPath id="fb" transform="translate(0 0)"><rect x="26.62" y="20.97" width="0.84" height="2.15" fill="none"/></clipPath><clipPath id="fd" transform="translate(0 0)"><rect x="28.15" y="22.23" width="3.04" height="2.45" fill="none"/></clipPath><clipPath id="fe" transform="translate(0 0)"><rect x="27.48" y="21.39" width="4.39" height="4.13" fill="none"/></clipPath><clipPath id="fg" transform="translate(0 0)"><rect x="31.63" y="25.62" width="0.21" height="2.51" fill="none"/></clipPath><clipPath id="fh" transform="translate(0 0)"><polygon points="31.63 28.13 31.63 28.13 31.63 25.62 31.63 28.13" fill="none"/></clipPath><clipPath id="fi" transform="translate(0 0)"><rect x="30.55" y="25.62" width="2.15" height="2.51" fill="none"/></clipPath><clipPath id="fk" transform="translate(0 0)"><rect x="30.28" y="25.87" width="0.21" height="3.19" fill="none"/></clipPath><clipPath id="fl" transform="translate(0 0)"><polygon points="30.28 29.06 30.28 29.06 30.28 25.87 30.28 29.06" fill="none"/></clipPath><clipPath id="fm" transform="translate(0 0)"><rect x="29.2" y="25.87" width="2.15" height="3.19" fill="none"/></clipPath><clipPath id="fn" transform="translate(0 0)"><rect x="29.2" y="25.87" width="2.15" height="3.19" fill="none"/></clipPath><clipPath id="fo" transform="translate(0 0)"><rect x="28.96" y="24.74" width="1.32" height="1.13" fill="none"/></clipPath><clipPath id="fp" transform="translate(0 0)"><rect x="28.26" y="23.93" width="2.72" height="2.76" fill="none"/></clipPath><clipPath id="fq" transform="translate(0 0)"><rect x="28.26" y="23.93" width="2.72" height="2.76" fill="none"/></clipPath><clipPath id="fr" transform="translate(0 0)"><rect x="28.96" y="24.74" width="0.21" height="4.44" fill="none"/></clipPath><clipPath id="fs" transform="translate(0 0)"><polygon points="28.96 29.19 28.96 29.19 28.96 24.74 28.96 29.19" fill="none"/></clipPath><clipPath id="ft" transform="translate(0 0)"><rect x="27.88" y="24.74" width="2.15" height="4.44" fill="none"/></clipPath><clipPath id="fv" transform="translate(0 0)"><rect x="25.61" y="28.98" width="3.35" height="0.21" fill="none"/></clipPath><clipPath id="fw" transform="translate(0 0)"><path d="M25.61,29.19h0Z" fill="none"/></clipPath><clipPath id="fx" transform="translate(0 0)"><rect x="25.61" y="28.11" width="3.35" height="2.15" fill="none"/></clipPath><clipPath id="fy" transform="translate(0 0)"><rect x="25.61" y="28.11" width="3.35" height="2.15" fill="none"/></clipPath><clipPath id="fz" transform="translate(0 0)"><rect x="22.67" y="37.33" width="0.92" height="0.84" fill="none"/></clipPath><clipPath id="ga" transform="translate(0 0)"><rect x="21.94" y="36.54" width="2.37" height="2.42" fill="none"/></clipPath><clipPath id="gc" transform="translate(0 0)"><rect x="31.81" y="35.92" width="0.23" height="2.06" fill="none"/></clipPath><clipPath id="gd" transform="translate(0 0)"><rect x="30.74" y="35.8" width="2.37" height="2.29" fill="none"/></clipPath><clipPath id="ge" transform="translate(0 0)"><rect x="30.74" y="35.8" width="2.37" height="2.3" fill="none"/></clipPath><clipPath id="gf" transform="translate(0 0)"><rect x="31.28" y="37.95" width="0.53" height="0.03" fill="none"/></clipPath><clipPath id="gg" transform="translate(0 0)"><rect x="31.21" y="36.87" width="0.66" height="2.18" fill="none"/></clipPath><clipPath id="gh" transform="translate(0 0)"><rect x="31.21" y="36.87" width="0.66" height="2.18" fill="none"/></clipPath><clipPath id="gi" transform="translate(0 0)"><rect x="31.2" y="24.68" width="0.43" height="0.93" fill="none"/></clipPath><clipPath id="gj" transform="translate(0 0)"><rect x="30.22" y="24.23" width="2.38" height="1.84" fill="none"/></clipPath><clipPath id="gk" transform="translate(0 0)"><rect x="30.22" y="24.23" width="2.38" height="1.84" fill="none"/></clipPath><clipPath id="gl" transform="translate(0 0)"><rect x="30.28" y="28.12" width="1.35" height="0.93" fill="none"/></clipPath><clipPath id="gm" transform="translate(0 0)"><rect x="29.67" y="27.24" width="2.57" height="2.71" fill="none"/></clipPath><clipPath id="gn" transform="translate(0 0)"><rect x="29.67" y="27.24" width="2.58" height="2.7" fill="none"/></clipPath><clipPath id="go" transform="translate(0 0)"><rect x="22.08" y="28.57" width="1.45" height="0.61" fill="none"/></clipPath><clipPath id="gp" transform="translate(0 0)"><rect x="21.67" y="27.59" width="2.29" height="2.59" fill="none"/></clipPath><clipPath id="gq" transform="translate(0 0)"><rect x="21.67" y="27.59" width="2.29" height="2.59" fill="none"/></clipPath><clipPath id="gr" transform="translate(0 0)"><rect x="21.83" y="28.77" width="0.26" height="0.42" fill="none"/></clipPath><clipPath id="gs" transform="translate(0 0)"><rect x="20.91" y="28.2" width="2.09" height="1.55" fill="none"/></clipPath><clipPath id="gu" transform="translate(0 0)"><rect x="27.46" y="22.04" width="0.69" height="0.19" fill="none"/></clipPath><clipPath id="gv" transform="translate(0 0)"><rect x="27.17" y="21.01" width="1.27" height="2.26" fill="none"/></clipPath><clipPath id="gw" transform="translate(0 0)"><rect x="27.17" y="21" width="1.27" height="2.27" fill="none"/></clipPath><clipPath id="gx" transform="translate(0 0)"><rect x="25.96" y="22.04" width="0.66" height="0.42" fill="none"/></clipPath><clipPath id="gy" transform="translate(0 0)"><rect x="25.39" y="21.13" width="1.81" height="2.24" fill="none"/></clipPath><clipPath id="ha" transform="translate(0 0)"><rect x="34.85" y="17.92" width="15.44" height="27.27" fill="none"/></clipPath><clipPath id="hb" transform="translate(0 0)"><rect x="33.6" y="17.21" width="17.93" height="28.68" fill="none"/></clipPath><clipPath id="hd" transform="translate(0 0)"><rect x="15.58" y="44.98" width="34.71" height="0.21" fill="none"/></clipPath><clipPath id="he" transform="translate(0 0)"><path d="M15.58,45.19h0Z" fill="none"/></clipPath><clipPath id="hf" transform="translate(0 0)"><rect x="15.58" y="43.76" width="34.71" height="2.87" fill="none"/></clipPath></defs><title>l14</title><g opacity="0.7"><g clip-path="url(#a)"><g clip-path="url(#a)"><path d="M24.37,88.31h52.8A8.8,8.8,0,0,0,86,79.51V26.71a8.79,8.79,0,0,0-8.81-8.79H34.85l-8.5-15L2.46,45.19H15.58V79.51a8.79,8.79,0,0,0,8.79,8.8" transform="translate(0 0)" fill="#afec93"/></g></g></g><g opacity="0.7"><g clip-path="url(#c)"><g clip-path="url(#d)"><path d="M24.37,88.31h52.8A8.8,8.8,0,0,0,86,79.51V26.71a8.79,8.79,0,0,0-8.81-8.79H34.85l-8.5-15L2.46,45.19H15.58V79.51a8.79,8.79,0,0,0,8.79,8.8" transform="translate(0 0)" fill="none" stroke="#487f1e" stroke-width="2.87"/></g></g></g><g opacity="0.7"><g clip-path="url(#e)"><path d="M60.32,37.47l3.22,8.69Z" transform="translate(0 0)" fill="#afec93"/></g></g><g opacity="0.7"><g clip-path="url(#f)"><g clip-path="url(#g)"><line x1="63.54" y1="46.16" x2="60.32" y2="37.46" fill="none" stroke="#487f1e" stroke-width="2.87"/></g></g></g><g opacity="0.7"><g clip-path="url(#h)"><g clip-path="url(#h)"><path d="M35.38,62.74a2.22,2.22,0,0,0-2.2-2.19" transform="translate(0 0)" fill="#afec93"/></g></g></g><g opacity="0.7"><g clip-path="url(#j)"><g clip-path="url(#j)"><path d="M35.38,62.74a2.22,2.22,0,0,0-2.2-2.19" transform="translate(0 0)" fill="none" stroke="#487f1e" stroke-width="2.87"/></g></g></g><g opacity="0.7"><g clip-path="url(#l)"><g clip-path="url(#m)"><path d="M33.18,65.06a2.22,2.22,0,0,0,2.2-2.22" transform="translate(0 0)" fill="#afec93"/></g></g></g><g opacity="0.7"><g clip-path="url(#n)"><g clip-path="url(#o)"><path d="M33.18,65.06a2.22,2.22,0,0,0,2.2-2.22" transform="translate(0 0)" fill="none" stroke="#487f1e" stroke-width="2.87"/></g></g></g><g opacity="0.7"><g clip-path="url(#p)"><g clip-path="url(#p)"><path d="M30.54,67.25A2.38,2.38,0,0,0,29.65,69" transform="translate(0 0)" fill="#afec93"/></g></g></g><g opacity="0.7"><g clip-path="url(#r)"><g clip-path="url(#s)"><path d="M30.54,67.25A2.38,2.38,0,0,0,29.65,69" transform="translate(0 0)" fill="none" stroke="#487f1e" stroke-width="2.87"/></g></g></g><g opacity="0.7"><g clip-path="url(#t)"><g clip-path="url(#u)"><path d="M29.65,70.66a3.15,3.15,0,0,0,2.94,3.19" transform="translate(0 0)" fill="#afec93"/></g></g></g><g opacity="0.7"><g clip-path="url(#v)"><g clip-path="url(#w)"><path d="M29.65,70.66a3.15,3.15,0,0,0,2.94,3.19" transform="translate(0 0)" fill="none" stroke="#487f1e" stroke-width="2.87"/></g></g></g><g opacity="0.7"><g clip-path="url(#x)"><g clip-path="url(#y)"><path d="M34.67,56.21A4.39,4.39,0,0,0,31,60.55" transform="translate(0 0)" fill="#afec93"/></g></g></g><g opacity="0.7"><g clip-path="url(#z)"><g clip-path="url(#z)"><path d="M34.67,56.21A4.39,4.39,0,0,0,31,60.55" transform="translate(0 0)" fill="none" stroke="#487f1e" stroke-width="2.87"/></g></g></g><g opacity="0.7"><g clip-path="url(#ab)"><polygon points="57.82 30.57 57.6 38.46 57.6 38.46 60.32 37.46 57.82 30.57" fill="#afec93"/></g></g><g opacity="0.7"><g clip-path="url(#ac)"><g clip-path="url(#ac)"><polyline points="57.82 30.57 57.6 38.46 60.32 37.46" fill="none" stroke="#487f1e" stroke-width="2.87"/></g></g></g><g opacity="0.7"><g clip-path="url(#ae)"><polygon points="60.32 37.46 63.05 36.43 57.82 30.57 60.32 37.46" fill="#afec93"/></g></g><g opacity="0.7"><g clip-path="url(#af)"><g clip-path="url(#af)"><polyline points="57.82 30.57 63.06 36.43 60.32 37.46" fill="none" stroke="#487f1e" stroke-width="2.87"/></g></g></g><g opacity="0.7"><g clip-path="url(#ah)"><path d="M68.16,50.54,34.67,56.21Z" transform="translate(0 0)" fill="#afec93"/></g></g><g opacity="0.7"><g clip-path="url(#ai)"><g clip-path="url(#ai)"><line x1="34.67" y1="56.2" x2="68.16" y2="50.53" fill="none" stroke="#487f1e" stroke-width="2.87"/></g></g></g><g opacity="0.7"><g clip-path="url(#ak)"><g clip-path="url(#al)"><line x1="63.67" y1="73.85" x2="78.41" y2="73.85" fill="#afec93"/></g></g></g><g opacity="0.7"><g clip-path="url(#am)"><g clip-path="url(#an)"><line x1="63.67" y1="73.85" x2="78.41" y2="73.85" fill="none" stroke="#487f1e" stroke-width="2.87"/></g></g></g><g opacity="0.7"><g clip-path="url(#ao)"><g clip-path="url(#ap)"><line x1="78.41" y1="69.43" x2="63.67" y2="69.43" fill="#afec93"/></g></g></g><g opacity="0.7"><g clip-path="url(#aq)"><g clip-path="url(#aq)"><line x1="78.41" y1="69.43" x2="63.67" y2="69.43" fill="none" stroke="#487f1e" stroke-width="2.87"/></g></g></g><g opacity="0.7"><g clip-path="url(#as)"><g clip-path="url(#at)"><path d="M53.2,80A10.52,10.52,0,1,0,42.67,69.44,10.52,10.52,0,0,0,53.2,80" transform="translate(0 0)" fill="#afec93"/></g></g></g><g opacity="0.7"><g clip-path="url(#au)"><g clip-path="url(#au)"><path d="M53.2,80A10.52,10.52,0,1,0,42.67,69.44,10.52,10.52,0,0,0,53.2,80" transform="translate(0 0)" fill="none" stroke="#487f1e" stroke-width="2.87"/></g></g></g><g opacity="0.7"><g clip-path="url(#aw)"><g clip-path="url(#ax)"><line x1="32.59" y1="73.85" x2="42.67" y2="73.85" fill="#afec93"/></g></g></g><g opacity="0.7"><g clip-path="url(#ay)"><g clip-path="url(#az)"><line x1="32.59" y1="73.85" x2="42.67" y2="73.85" fill="none" stroke="#487f1e" stroke-width="2.87"/></g></g></g><g opacity="0.7"><g clip-path="url(#ba)"><g clip-path="url(#bb)"><line x1="42.67" y1="69.43" x2="30.97" y2="69.43" fill="#afec93"/></g></g></g><g opacity="0.7"><g clip-path="url(#bc)"><g clip-path="url(#bd)"><line x1="42.67" y1="69.43" x2="30.97" y2="69.43" fill="none" stroke="#487f1e" stroke-width="2.87"/></g></g></g><g opacity="0.7"><g clip-path="url(#be)"><g clip-path="url(#bf)"><line x1="29.65" y1="68.98" x2="29.65" y2="70.66" fill="#afec93"/></g></g></g><g opacity="0.7"><g clip-path="url(#bg)"><g clip-path="url(#bg)"><line x1="29.65" y1="68.98" x2="29.65" y2="70.66" fill="none" stroke="#487f1e" stroke-width="2.87"/></g></g></g><g opacity="0.7"><g clip-path="url(#bi)"><g clip-path="url(#bj)"><line x1="33.18" y1="60.55" x2="30.97" y2="60.55" fill="#afec93"/></g></g></g><g opacity="0.7"><g clip-path="url(#bk)"><g clip-path="url(#bl)"><line x1="33.18" y1="60.55" x2="30.97" y2="60.55" fill="none" stroke="#487f1e" stroke-width="2.87"/></g></g></g><g opacity="0.7"><g clip-path="url(#bm)"><g clip-path="url(#bn)"><line x1="33.18" y1="65.06" x2="30.97" y2="65.06" fill="#afec93"/></g></g></g><g opacity="0.7"><g clip-path="url(#bo)"><g clip-path="url(#bp)"><line x1="33.18" y1="65.06" x2="30.97" y2="65.06" fill="none" stroke="#487f1e" stroke-width="2.87"/></g></g></g><g opacity="0.7"><g clip-path="url(#bq)"><g clip-path="url(#br)"><line x1="30.97" y1="67.25" x2="30.54" y2="67.25" fill="#afec93"/></g></g></g><g opacity="0.7"><g clip-path="url(#bs)"><g clip-path="url(#bs)"><line x1="30.97" y1="67.25" x2="30.54" y2="67.25" fill="none" stroke="#487f1e" stroke-width="2.15"/></g></g></g><g opacity="0.7"><g clip-path="url(#bu)"><g clip-path="url(#bv)"><line x1="35.38" y1="62.84" x2="35.38" y2="62.74" fill="#afec93"/></g></g></g><g opacity="0.7"><g clip-path="url(#bw)"><g clip-path="url(#bw)"><line x1="35.38" y1="62.84" x2="35.38" y2="62.74" fill="none" stroke="#487f1e" stroke-width="2.87"/></g></g></g><g opacity="0.7"><g clip-path="url(#by)"><g clip-path="url(#bz)"><line x1="30.97" y1="69.43" x2="30.97" y2="60.55" fill="#afec93"/></g></g></g><g opacity="0.7"><g clip-path="url(#ca)"><g clip-path="url(#cb)"><line x1="30.97" y1="69.43" x2="30.97" y2="60.55" fill="none" stroke="#487f1e" stroke-width="2.87"/></g></g></g><g opacity="0.7"><g clip-path="url(#cc)"><g clip-path="url(#cd)"><line x1="42.67" y1="73.85" x2="42.67" y2="69.43" fill="#afec93"/></g></g></g><g opacity="0.7"><g clip-path="url(#ce)"><g clip-path="url(#cf)"><line x1="42.67" y1="73.85" x2="42.67" y2="69.43" fill="none" stroke="#487f1e" stroke-width="2.87"/></g></g></g><g opacity="0.7"><g clip-path="url(#cg)"><g clip-path="url(#ch)"><line x1="63.67" y1="69.43" x2="63.67" y2="73.85" fill="#afec93"/></g></g></g><g opacity="0.7"><g clip-path="url(#ci)"><g clip-path="url(#cj)"><line x1="63.67" y1="69.43" x2="63.67" y2="73.85" fill="none" stroke="#487f1e" stroke-width="2.87"/></g></g></g><g opacity="0.7"><g clip-path="url(#ck)"><path d="M80.53,34,68.16,50.54Z" transform="translate(0 0)" fill="#afec93"/></g></g><g opacity="0.7"><g clip-path="url(#cl)"><g clip-path="url(#cm)"><line x1="68.16" y1="50.53" x2="80.53" y2="33.98" fill="none" stroke="#487f1e" stroke-width="2.87"/></g></g></g><g opacity="0.7"><g clip-path="url(#cn)"><path d="M80.53,34,75.6,49.25Z" transform="translate(0 0)" fill="#afec93"/></g></g><g opacity="0.7"><g clip-path="url(#co)"><g clip-path="url(#co)"><line x1="75.6" y1="49.25" x2="80.53" y2="33.98" fill="none" stroke="#487f1e" stroke-width="2.87"/></g></g></g><g opacity="0.7"><g clip-path="url(#cq)"><path d="M68.16,50.54l7.44-1.29Z" transform="translate(0 0)" fill="#afec93"/></g></g><g opacity="0.7"><g clip-path="url(#cr)"><g clip-path="url(#cs)"><line x1="68.16" y1="50.53" x2="75.6" y2="49.25" fill="none" stroke="#487f1e" stroke-width="2.87"/></g></g></g><g opacity="0.7"><g clip-path="url(#ct)"><path d="M67.4,47.25l-32.73,9Z" transform="translate(0 0)" fill="#afec93"/></g></g><g opacity="0.7"><g clip-path="url(#cu)"><g clip-path="url(#cv)"><line x1="34.67" y1="56.2" x2="67.4" y2="47.25" fill="none" stroke="#487f1e" stroke-width="2.87"/></g></g></g><g opacity="0.7"><g clip-path="url(#cw)"><g clip-path="url(#cx)"><path d="M26.35,21.4A1.64,1.64,0,0,0,28,19.76a1.63,1.63,0,0,0-3.26,0,1.64,1.64,0,0,0,1.63,1.64" transform="translate(0 0)" fill="#afec93"/></g></g></g><g opacity="0.7"><g clip-path="url(#cy)"><g clip-path="url(#cz)"><path d="M26.35,21.4A1.64,1.64,0,0,0,28,19.76a1.63,1.63,0,0,0-3.26,0,1.64,1.64,0,0,0,1.63,1.64" transform="translate(0 0)" fill="none" stroke="#487f1e" stroke-width="2.15"/></g></g></g><g opacity="0.7"><g clip-path="url(#da)"><path d="M43.51,41.23,26.35,11Z" transform="translate(0 0)" fill="#afec93"/></g></g><g opacity="0.7"><g clip-path="url(#db)"><g clip-path="url(#dc)"><line x1="43.51" y1="41.23" x2="26.35" y2="10.96" fill="none" stroke="#487f1e" stroke-width="2.87"/></g></g></g><g opacity="0.7"><g clip-path="url(#dd)"><path d="M26.35,11,9.24,41.23Z" transform="translate(0 0)" fill="#afec93"/></g></g><g opacity="0.7"><g clip-path="url(#de)"><g clip-path="url(#df)"><line x1="26.35" y1="10.96" x2="9.24" y2="41.23" fill="none" stroke="#487f1e" stroke-width="2.87"/></g></g></g><g opacity="0.7"><g clip-path="url(#dg)"><g clip-path="url(#dh)"><line x1="9.24" y1="41.23" x2="26.35" y2="41.23" fill="#afec93"/></g></g></g><g opacity="0.7"><g clip-path="url(#di)"><g clip-path="url(#di)"><line x1="9.24" y1="41.23" x2="26.35" y2="41.23" fill="none" stroke="#487f1e" stroke-width="2.87"/></g></g></g><g opacity="0.7"><g clip-path="url(#dk)"><g clip-path="url(#dl)"><line x1="26.35" y1="41.23" x2="43.51" y2="41.23" fill="#afec93"/></g></g></g><g opacity="0.7"><g clip-path="url(#dm)"><g clip-path="url(#dm)"><line x1="26.35" y1="41.23" x2="43.51" y2="41.23" fill="none" stroke="#487f1e" stroke-width="2.87"/></g></g></g><g opacity="0.7"><g clip-path="url(#do)"><g clip-path="url(#dp)"><line x1="25.61" y1="29.67" x2="25.61" y2="30.09" fill="#afec93"/></g></g></g><g opacity="0.7"><g clip-path="url(#dq)"><g clip-path="url(#dr)"><line x1="25.61" y1="29.67" x2="25.61" y2="30.09" fill="none" stroke="#487f1e" stroke-width="2.15"/></g></g></g><g opacity="0.7"><g clip-path="url(#ds)"><path d="M25.61,30.09l-4.4,8.08Z" transform="translate(0 0)" fill="#afec93"/></g></g><g opacity="0.7"><g clip-path="url(#dt)"><g clip-path="url(#dt)"><line x1="25.61" y1="30.09" x2="21.21" y2="38.17" fill="none" stroke="#487f1e" stroke-width="2.15"/></g></g></g><g opacity="0.7"><g clip-path="url(#dv)"><g clip-path="url(#dw)"><line x1="21.21" y1="38.17" x2="22.66" y2="38.17" fill="#afec93"/></g></g></g><g opacity="0.7"><g clip-path="url(#dx)"><g clip-path="url(#dy)"><line x1="21.21" y1="38.17" x2="22.66" y2="38.17" fill="none" stroke="#487f1e" stroke-width="2.15"/></g></g></g><g opacity="0.7"><g clip-path="url(#dz)"><path d="M27.24,30.54l-3.66,6.8Z" transform="translate(0 0)" fill="#afec93"/></g></g><g opacity="0.7"><g clip-path="url(#ea)"><g clip-path="url(#ea)"><line x1="23.58" y1="37.33" x2="27.24" y2="30.54" fill="none" stroke="#487f1e" stroke-width="2.15"/></g></g></g><g opacity="0.7"><g clip-path="url(#ec)"><path d="M27.24,30.54l4,7.41Z" transform="translate(0 0)" fill="#afec93"/></g></g><g opacity="0.7"><g clip-path="url(#ed)"><g clip-path="url(#ed)"><line x1="27.24" y1="30.54" x2="31.28" y2="37.95" fill="none" stroke="#487f1e" stroke-width="2.15"/></g></g></g><g opacity="0.7"><g clip-path="url(#ef)"><path d="M29,30.28,32,35.92Z" transform="translate(0 0)" fill="#afec93"/></g></g><g opacity="0.7"><g clip-path="url(#eg)"><g clip-path="url(#eg)"><line x1="32.03" y1="35.92" x2="28.96" y2="30.28" fill="none" stroke="#487f1e" stroke-width="2.15"/></g></g></g><g opacity="0.7"><g clip-path="url(#ei)"><g clip-path="url(#ej)"><line x1="28.96" y1="30.28" x2="28.96" y2="29.61" fill="#afec93"/></g></g></g><g opacity="0.7"><g clip-path="url(#ek)"><g clip-path="url(#el)"><line x1="28.96" y1="30.28" x2="28.96" y2="29.61" fill="none" stroke="#487f1e" stroke-width="2.15"/></g></g></g><g opacity="0.7"><g clip-path="url(#em)"><path d="M29,29.61l-3.35.06Z" transform="translate(0 0)" fill="#afec93"/></g></g><g opacity="0.7"><g clip-path="url(#en)"><g clip-path="url(#en)"><line x1="28.96" y1="29.61" x2="25.61" y2="29.67" fill="none" stroke="#487f1e" stroke-width="2.15"/></g></g></g><g opacity="0.7"><g clip-path="url(#ep)"><g clip-path="url(#eq)"><line x1="25.61" y1="29.19" x2="25.61" y2="25.71" fill="#afec93"/></g></g></g><g opacity="0.7"><g clip-path="url(#er)"><g clip-path="url(#es)"><line x1="25.61" y1="29.19" x2="25.61" y2="25.71" fill="none" stroke="#487f1e" stroke-width="2.15"/></g></g></g><g opacity="0.7"><g clip-path="url(#et)"><path d="M25.61,25.71l-2.08,2.86Z" transform="translate(0 0)" fill="#afec93"/></g></g><g opacity="0.7"><g clip-path="url(#eu)"><g clip-path="url(#eu)"><line x1="25.61" y1="25.71" x2="23.53" y2="28.57" fill="none" stroke="#487f1e" stroke-width="2.15"/></g></g></g><g opacity="0.7"><g clip-path="url(#ew)"><path d="M26,22.46l-4.14,6.31Z" transform="translate(0 0)" fill="#afec93"/></g></g><g opacity="0.7"><g clip-path="url(#ex)"><g clip-path="url(#ex)"><line x1="21.82" y1="28.77" x2="25.96" y2="22.45" fill="none" stroke="#487f1e" stroke-width="2.15"/></g></g></g><g opacity="0.7"><g clip-path="url(#ez)"><g clip-path="url(#fa)"><line x1="26.62" y1="22.04" x2="27.46" y2="22.04" fill="#afec93"/></g></g></g><g opacity="0.7"><g clip-path="url(#fb)"><g clip-path="url(#fb)"><line x1="26.62" y1="22.04" x2="27.46" y2="22.04" fill="none" stroke="#487f1e" stroke-width="2.15"/></g></g></g><g opacity="0.7"><g clip-path="url(#fd)"><path d="M28.15,22.23l3.05,2.45Z" transform="translate(0 0)" fill="#afec93"/></g></g><g opacity="0.7"><g clip-path="url(#fe)"><g clip-path="url(#fe)"><line x1="28.15" y1="22.23" x2="31.2" y2="24.68" fill="none" stroke="#487f1e" stroke-width="2.15"/></g></g></g><g opacity="0.7"><g clip-path="url(#fg)"><g clip-path="url(#fh)"><line x1="31.63" y1="25.61" x2="31.63" y2="28.12" fill="#afec93"/></g></g></g><g opacity="0.7"><g clip-path="url(#fi)"><g clip-path="url(#fi)"><line x1="31.63" y1="25.61" x2="31.63" y2="28.12" fill="none" stroke="#487f1e" stroke-width="2.15"/></g></g></g><g opacity="0.7"><g clip-path="url(#fk)"><g clip-path="url(#fl)"><line x1="30.28" y1="29.06" x2="30.28" y2="25.87" fill="#afec93"/></g></g></g><g opacity="0.7"><g clip-path="url(#fm)"><g clip-path="url(#fn)"><line x1="30.28" y1="29.06" x2="30.28" y2="25.87" fill="none" stroke="#487f1e" stroke-width="2.15"/></g></g></g><g opacity="0.7"><g clip-path="url(#fo)"><path d="M29,24.75l1.31,1.12Z" transform="translate(0 0)" fill="#afec93"/></g></g><g opacity="0.7"><g clip-path="url(#fp)"><g clip-path="url(#fq)"><line x1="30.28" y1="25.87" x2="28.96" y2="24.74" fill="none" stroke="#487f1e" stroke-width="2.15"/></g></g></g><g opacity="0.7"><g clip-path="url(#fr)"><g clip-path="url(#fs)"><line x1="28.96" y1="24.74" x2="28.96" y2="29.18" fill="#afec93"/></g></g></g><g opacity="0.7"><g clip-path="url(#ft)"><g clip-path="url(#ft)"><line x1="28.96" y1="24.74" x2="28.96" y2="29.18" fill="none" stroke="#487f1e" stroke-width="2.15"/></g></g></g><g opacity="0.7"><g clip-path="url(#fv)"><g clip-path="url(#fw)"><line x1="28.96" y1="29.19" x2="25.61" y2="29.19" fill="#afec93"/></g></g></g><g opacity="0.7"><g clip-path="url(#fx)"><g clip-path="url(#fy)"><line x1="28.96" y1="29.19" x2="25.61" y2="29.19" fill="none" stroke="#487f1e" stroke-width="2.15"/></g></g></g><g opacity="0.7"><g clip-path="url(#fz)"><path d="M22.67,38.17l.91-.83Z" transform="translate(0 0)" fill="#afec93"/></g></g><g opacity="0.7"><g clip-path="url(#ga)"><g clip-path="url(#ga)"><line x1="22.66" y1="38.17" x2="23.58" y2="37.33" fill="none" stroke="#487f1e" stroke-width="2.15"/></g></g></g><g opacity="0.7"><g clip-path="url(#gc)"><path d="M32,35.92,31.81,38Z" transform="translate(0 0)" fill="#afec93"/></g></g><g opacity="0.7"><g clip-path="url(#gd)"><g clip-path="url(#ge)"><line x1="31.81" y1="37.98" x2="32.03" y2="35.92" fill="none" stroke="#487f1e" stroke-width="2.15"/></g></g></g><g opacity="0.7"><g clip-path="url(#gf)"><path d="M31.28,38l.53,0Z" transform="translate(0 0)" fill="#afec93"/></g></g><g opacity="0.7"><g clip-path="url(#gg)"><g clip-path="url(#gh)"><line x1="31.81" y1="37.98" x2="31.28" y2="37.94" fill="none" stroke="#487f1e" stroke-width="2.15"/></g></g></g><g opacity="0.7"><g clip-path="url(#gi)"><path d="M31.2,24.68l.43.93Z" transform="translate(0 0)" fill="#afec93"/></g></g><g opacity="0.7"><g clip-path="url(#gj)"><g clip-path="url(#gk)"><line x1="31.19" y1="24.68" x2="31.63" y2="25.61" fill="none" stroke="#487f1e" stroke-width="2.15"/></g></g></g><g opacity="0.7"><g clip-path="url(#gl)"><path d="M31.63,28.12l-1.35.94Z" transform="translate(0 0)" fill="#afec93"/></g></g><g opacity="0.7"><g clip-path="url(#gm)"><g clip-path="url(#gn)"><line x1="30.28" y1="29.06" x2="31.63" y2="28.12" fill="none" stroke="#487f1e" stroke-width="2.15"/></g></g></g><g opacity="0.7"><g clip-path="url(#go)"><path d="M23.53,28.58l-1.45.61Z" transform="translate(0 0)" fill="#afec93"/></g></g><g opacity="0.7"><g clip-path="url(#gp)"><g clip-path="url(#gq)"><line x1="22.08" y1="29.19" x2="23.53" y2="28.57" fill="none" stroke="#487f1e" stroke-width="2.15"/></g></g></g><g opacity="0.7"><g clip-path="url(#gr)"><path d="M21.83,28.77l.26.42Z" transform="translate(0 0)" fill="#afec93"/></g></g><g opacity="0.7"><g clip-path="url(#gs)"><g clip-path="url(#gs)"><line x1="21.82" y1="28.77" x2="22.08" y2="29.19" fill="none" stroke="#487f1e" stroke-width="2.15"/></g></g></g><g opacity="0.7"><g clip-path="url(#gu)"><path d="M27.47,22l.68.19Z" transform="translate(0 0)" fill="#afec93"/></g></g><g opacity="0.7"><g clip-path="url(#gv)"><g clip-path="url(#gw)"><line x1="28.15" y1="22.23" x2="27.46" y2="22.04" fill="none" stroke="#487f1e" stroke-width="2.15"/></g></g></g><g opacity="0.7"><g clip-path="url(#gx)"><path d="M26.62,22l-.65.42Z" transform="translate(0 0)" fill="#afec93"/></g></g><g opacity="0.7"><g clip-path="url(#gy)"><g clip-path="url(#gy)"><line x1="26.62" y1="22.04" x2="25.96" y2="22.46" fill="none" stroke="#487f1e" stroke-width="2.15"/></g></g></g><g opacity="0.7"><g clip-path="url(#ha)"><path d="M34.85,17.92,50.29,45.19Z" transform="translate(0 0)" fill="#afec93"/></g></g><g opacity="0.7"><g clip-path="url(#hb)"><g clip-path="url(#hb)"><line x1="34.85" y1="17.92" x2="50.29" y2="45.19" fill="none" stroke="#487f1e" stroke-width="2.87"/></g></g></g><g opacity="0.7"><g clip-path="url(#hd)"><g clip-path="url(#he)"><line x1="50.29" y1="45.19" x2="15.58" y2="45.19" fill="#afec93"/></g></g></g><g opacity="0.7"><g clip-path="url(#hf)"><g clip-path="url(#hf)"><line x1="50.29" y1="45.19" x2="15.58" y2="45.19" fill="none" stroke="#487f1e" stroke-width="2.87"/></g></g></g></svg>