<svg xmlns="http://www.w3.org/2000/svg" width="49.68" height="87.77" viewBox="0 0 49.68 87.77"><title>l15</title><path d="M2.93,65.31h0M24.8,85A22.05,22.05,0,0,1,2.93,65.31a23.56,23.56,0,0,1,0-4.75V27.19c-.08-.8-.12-1.59-.12-2.38A22,22,0,0,1,22.48,2.94h0a23.66,23.66,0,0,1,2.37-.12A22,22,0,0,1,46.74,22.47h0a21.49,21.49,0,0,1,0,4.72V60.57a21.7,21.7,0,0,1,.13,2.4A22,22,0,0,1,27.2,84.84c-.81.08-1.61.13-2.4.13" fill="#c2d8ad"/><path d="M1.54,60.42a24.87,24.87,0,0,0,0,5A23.43,23.43,0,0,0,24.8,86.37a24.51,24.51,0,0,0,2.55-.14A23.44,23.44,0,0,0,48.14,60.42V27.34A23.43,23.43,0,0,0,24.87,1.4a24.51,24.51,0,0,0-2.55.14A23.43,23.43,0,0,0,1.54,27.34V60.42M24.8,87.77A24.85,24.85,0,0,1,.14,65.6h0A26.46,26.46,0,0,1,0,62.94c0-.87,0-1.73.12-2.59V27.42A25.62,25.62,0,0,1,0,24.81,24.84,24.84,0,0,1,22.18.14C23.08.05,24,0,24.87,0A24.84,24.84,0,0,1,49.53,22.17h0a23.58,23.58,0,0,1,.15,2.66,24.82,24.82,0,0,1-.14,2.59V60.34A26.05,26.05,0,0,1,49.68,63,24.81,24.81,0,0,1,24.8,87.77" fill="#729a51"/><path d="M2.93,65.3h0m0,0A22,22,0,0,0,24.8,85a21.7,21.7,0,0,0,2.4-.13A22,22,0,0,0,46.87,63a21.7,21.7,0,0,0-.13-2.4V27.19a21.49,21.49,0,0,0,0-4.72h0A22,22,0,0,0,24.87,2.81a23.66,23.66,0,0,0-2.37.12h0A22,22,0,0,0,2.81,24.81c0,.79,0,1.58.12,2.39V60.56a23.56,23.56,0,0,0-.12,2.38,23.16,23.16,0,0,0,.12,2.36M24.8,86.37A23.44,23.44,0,0,1,1.54,65.45a24.87,24.87,0,0,1,0-5V27.34A23.43,23.43,0,0,1,22.32,1.54a24.51,24.51,0,0,1,2.55-.14A23.43,23.43,0,0,1,48.14,27.34V60.42A23.44,23.44,0,0,1,27.35,86.23a24.51,24.51,0,0,1-2.55.14" fill="#729a51"/></svg>