<svg xmlns="http://www.w3.org/2000/svg" width="50.81" height="87.89" viewBox="0 0 50.81 87.89"><title>l16</title><path d="M24,83.65H6.23a2,2,0,0,1-2-2.09V73.62a2,2,0,0,1,2-2.07H24A12.45,12.45,0,0,0,36.37,59V28.91A12.43,12.43,0,0,0,24,16.39H6.23a2.07,2.07,0,0,1-2-2.09v-8a2.08,2.08,0,0,1,2-2.07H24A22.38,22.38,0,0,1,40,11a23.19,23.19,0,0,1,6.63,16.29v33.3A23.22,23.22,0,0,1,40,76.91a22.44,22.44,0,0,1-16,6.74" fill="#bbc99e"/><path d="M6.23,69.43a4.14,4.14,0,0,0-4.12,4.19v7.94a4.14,4.14,0,0,0,4.12,4.21H24A25,25,0,0,0,48.73,60.62V27.32A25,25,0,0,0,24,2.14H6.23A4.16,4.16,0,0,0,2.11,6.33v8a4.14,4.14,0,0,0,4.12,4.21H24a10.3,10.3,0,0,1,10.22,10.4V59A10.32,10.32,0,0,1,24,69.43H6.23M24,87.89H6.23A6.3,6.3,0,0,1,0,81.56V73.62a6.31,6.31,0,0,1,6.23-6.33H24A8.21,8.21,0,0,0,32.17,59V28.91A8.23,8.23,0,0,0,24,20.63H6.23A6.3,6.3,0,0,1,0,14.3v-8A6.32,6.32,0,0,1,6.23,0H24A27.13,27.13,0,0,1,50.81,27.32v33.3A27.06,27.06,0,0,1,24,87.89" fill="#71a358"/><path d="M6.23,71.55a2,2,0,0,0-2,2.07v7.94a2.05,2.05,0,0,0,2,2.09H24a22.48,22.48,0,0,0,16-6.74,23.24,23.24,0,0,0,6.63-16.29V27.32A23.19,23.19,0,0,0,40,11,22.38,22.38,0,0,0,24,4.26H6.23a2.08,2.08,0,0,0-2,2.07v8a2.07,2.07,0,0,0,2,2.09H24A12.43,12.43,0,0,1,36.37,28.91V59A12.45,12.45,0,0,1,24,71.55H6.23M24,85.77H6.23a4.14,4.14,0,0,1-4.12-4.21V73.62a4.14,4.14,0,0,1,4.12-4.19H24A10.32,10.32,0,0,0,34.26,59V28.91A10.3,10.3,0,0,0,24,18.51H6.23A4.14,4.14,0,0,1,2.11,14.3v-8A4.15,4.15,0,0,1,6.23,2.15H24A25,25,0,0,1,48.73,27.32v33.3A25,25,0,0,1,24,85.77" fill="#71a358"/></svg>