<svg xmlns="http://www.w3.org/2000/svg" width="97.55" height="50.07" viewBox="0 0 97.55 50.07"><title>l19</title><rect x="1.5" y="1.5" width="94.55" height="47.08" rx="3" ry="3" fill="#e1e586" stroke="#211e21" stroke-width="3"/><path d="M40.14,25.36a8.64,8.64,0,1,0,8.63-8.64A8.64,8.64,0,0,0,40.14,25.36Zm14.39,0a5.76,5.76,0,1,1-5.76-5.76A5.76,5.76,0,0,1,54.53,25.36Z"/><path d="M19,41.18a23.32,23.32,0,0,1-5.91-15.73A23.29,23.29,0,0,1,19,9.72l-1.3-1.43a25.43,25.43,0,0,0-6.44,17.16,25.46,25.46,0,0,0,6.44,17.16Z"/><path d="M26.76,37.16a17.23,17.23,0,0,1,0-26L25.47,10a18.78,18.78,0,0,0,0,28.31Z"/><path d="M34.81,34.88c-3.37-2.56-5.23-6-5.23-9.6s1.86-7,5.23-9.6l-1.15-.87C30,17.61,28,21.33,28,25.28s2,7.68,5.7,10.48Z"/><path d="M40.14,32.55a10,10,0,0,1,0-15.24l-.78-.69a10.93,10.93,0,0,0,0,16.62Z"/><path d="M78.52,8.9a23.28,23.28,0,0,1,5.9,15.73,23.3,23.3,0,0,1-5.9,15.73l1.3,1.43a25.46,25.46,0,0,0,6.44-17.16A25.43,25.43,0,0,0,79.82,7.47Z"/><path d="M70.79,12.91a17.23,17.23,0,0,1,0,26l1.29,1.18a18.79,18.79,0,0,0,0-28.32Z"/><path d="M62.74,15.19c3.37,2.56,5.23,6,5.23,9.6s-1.86,7-5.23,9.6l1.15.87c3.67-2.8,5.7-6.51,5.7-10.47s-2-7.68-5.7-10.47Z"/><path d="M57.41,17.52a10,10,0,0,1,0,15.24l.77.69a10.91,10.91,0,0,0,0-16.62Z"/></svg>