<svg xmlns="http://www.w3.org/2000/svg" width="96.76" height="27.85" viewBox="0 0 96.76 27.85"><title>l04</title><polyline points="78.82 5.53 94.79 5.52 94.81 22.69 78.83 22.7" fill="#adbed5"/><polyline points="78.82 7.48 92.85 7.47 92.86 20.75 78.83 20.76 78.83 24.65 96.76 24.64 96.74 3.58 78.81 3.59 78.82 7.48" fill="#45669c"/><polyline points="1.96 22.76 1.94 5.59 5.51 1.99 74.93 1.95 78.82 5.53 78.83 22.7 74.95 25.85 5.53 25.9 1.96 22.76" fill="#adbed5"/><polyline points="1.96 22.76 3.9 22.76 3.89 6.39 6.32 3.94 74.17 3.89 76.88 6.38 76.89 21.78 74.25 23.91 6.26 23.95 3.24 21.3 1.96 22.76 3.9 22.76 1.96 22.76 0.67 24.22 4.8 27.85 75.63 27.79 80.78 23.63 80.76 4.68 75.69 0 4.7 0.05 0 4.79 0.01 23.64 0.67 24.22 1.96 22.76" fill="#45669c"/><polyline points="75.18 24.98 75.16 1.95 73.6 1.95 73.62 24.98" fill="#45669c"/><polyline points="7.44 25.03 7.42 1.99 5.86 1.99 5.89 25.03" fill="#45669c"/></svg>