<svg xmlns="http://www.w3.org/2000/svg" width="101.48" height="12.74" viewBox="0 0 101.48 12.74"><title>l05</title><polyline points="50.65 1.71 8.2 1.77 8.22 11.03 50.65 10.97 50.65 1.71" fill="#96d3bd"/><polyline points="50.65 1.71 50.64 0 6.5 0.06 6.52 12.74 52.36 12.67 52.34 0 50.64 0 50.65 1.71 48.94 1.71 48.95 9.27 9.92 9.33 9.91 3.47 50.65 3.41 50.65 1.71 48.94 1.71 50.65 1.71" fill="#33b98e"/><polyline points="99.76 2.42 93.26 2.43 93.27 10.12 99.77 10.12 99.76 2.42" fill="#96d3bd"/><polyline points="99.76 2.42 99.76 0.71 91.56 0.72 91.57 11.83 101.48 11.81 101.46 0.71 99.76 0.71 99.76 2.42 98.05 2.42 98.06 8.42 94.98 8.42 94.97 4.13 99.76 4.12 99.76 2.42 98.05 2.42 99.76 2.42" fill="#33b98e"/><polyline points="8.21 2.55 1.71 2.56 1.72 10.26 8.22 10.25 8.21 2.55" fill="#96d3bd"/><polyline points="8.21 2.55 8.2 0.85 0 0.86 0.02 11.96 9.92 11.95 9.91 0.85 8.2 0.85 8.21 2.55 6.5 2.56 6.51 8.55 3.42 8.55 3.42 4.26 8.21 4.26 8.21 2.55 6.5 2.56 8.21 2.55" fill="#33b98e"/><polyline points="92.94 4.15 50.5 4.21 50.51 8.47 92.94 8.41 92.94 4.15" fill="#96d3bd"/><polyline points="92.94 4.15 92.93 2.44 48.8 2.51 48.8 10.17 94.65 10.1 94.64 2.44 92.93 2.44 92.94 4.15 91.23 4.15 91.23 6.71 52.21 6.76 52.2 5.91 92.94 5.85 92.94 4.15 91.23 4.15 92.94 4.15" fill="#33b98e"/></svg>