<svg xmlns="http://www.w3.org/2000/svg" width="99.84" height="64.39" viewBox="0 0 99.84 64.39"><title>l06</title><path d="M6.4,1.5A4.91,4.91,0,0,0,1.5,6.4V58a4.91,4.91,0,0,0,4.9,4.9h87a4.91,4.91,0,0,0,4.9-4.9V6.4a4.91,4.91,0,0,0-4.9-4.9H6.4" fill="#e1e782"/><path d="M6.4,1.5V0A6.41,6.41,0,0,0,0,6.4V58a6.43,6.43,0,0,0,6.4,6.41h87A6.43,6.43,0,0,0,99.84,58V6.4A6.42,6.42,0,0,0,93.44,0H6.4V3h87a3.44,3.44,0,0,1,3.4,3.4V58a3.43,3.43,0,0,1-3.4,3.4H6.4A3.43,3.43,0,0,1,3,58V6.4A3.44,3.44,0,0,1,6.4,3V1.5" fill="#1c181c"/><path d="M9.82,5.21V4.3A5.34,5.34,0,0,0,4.4,9.52V54.9a5.32,5.32,0,0,0,5.42,5.21H90a5.34,5.34,0,0,0,5.43-5.21V9.52A5.35,5.35,0,0,0,90,4.3H9.82V6.11H90a3.53,3.53,0,0,1,3.62,3.41V54.9A3.53,3.53,0,0,1,90,58.31H9.82A3.53,3.53,0,0,1,6.2,54.9V9.52A3.53,3.53,0,0,1,9.82,6.11v-.9" fill="#1c181c"/><path d="M77.91,58.85V48.47A3.47,3.47,0,0,1,79,46a4.94,4.94,0,0,1,3.52-1.19H94A.9.9,0,0,0,94,43H82.49a6.71,6.71,0,0,0-4.77,1.7,5.25,5.25,0,0,0-1.61,3.82V58.85a.9.9,0,1,0,1.8,0" fill="#1c181c"/><path d="M23.76,58.85V48.47a5.25,5.25,0,0,0-1.61-3.81A6.66,6.66,0,0,0,17.38,43H5.86a.9.9,0,0,0,0,1.8H17.38A5,5,0,0,1,20.91,46,3.45,3.45,0,0,1,22,48.47V58.85a.9.9,0,1,0,1.8,0" fill="#1c181c"/><path d="M85.79,47.45v-.9a5.1,5.1,0,1,0,5.09,5.1,5.1,5.1,0,0,0-5.09-5.1v1.8a3.3,3.3,0,1,1-3.3,3.3,3.31,3.31,0,0,1,3.3-3.3v-.9" fill="#1c181c"/><path d="M14,47.45v-.9a5.1,5.1,0,1,0,5.09,5.1A5.1,5.1,0,0,0,14,46.55v1.8a3.3,3.3,0,1,1-3.3,3.3,3.29,3.29,0,0,1,3.3-3.3v-.9" fill="#1c181c"/></svg>