<svg xmlns="http://www.w3.org/2000/svg" width="41.65" height="89.31" viewBox="0 0 41.65 89.31"><title>l09</title><path d="M38.89,81.69a6,6,0,0,1-6,6H7.62a6,6,0,0,1-6-6V22.22a6,6,0,0,1,6-6H32.87a6,6,0,0,1,6,6V81.69" fill="#c2d8ad"/><path d="M38.89,81.69H37.3a4.43,4.43,0,0,1-4.43,4.43H7.62a4.43,4.43,0,0,1-4.43-4.43V22.22a4.44,4.44,0,0,1,4.43-4.44H32.87a4.44,4.44,0,0,1,4.43,4.44V81.69h3.19V22.22a7.62,7.62,0,0,0-7.62-7.62H7.62A7.62,7.62,0,0,0,0,22.22V81.69a7.62,7.62,0,0,0,7.62,7.62H32.87a7.62,7.62,0,0,0,7.62-7.62h-1.6" fill="#729a51"/><path d="M31.25,16.75V11.83l-.1-.27,0,.09h0l0-.09h0l0,.09h0v0s0-.15.56-.38a8.91,8.91,0,0,1,3.16-.43l-.24,0h0a4.67,4.67,0,0,0,.78.06,5.88,5.88,0,0,0,3.44-1.06,5.06,5.06,0,0,0,1.62-2,7.56,7.56,0,0,0,.61-3.15V.53H37.93V4.6a4.44,4.44,0,0,1-.32,1.85,1.79,1.79,0,0,1-1,1,3,3,0,0,1-1.18.23h-.31l0,.39.07-.38h0l-.12,0h-.13c-2.53,0-4.16.4-5.33,1.18a3.73,3.73,0,0,0-1.26,1.41A3.33,3.33,0,0,0,28,11.65a7.36,7.36,0,0,0,.08,1.25l0-.46,0-.32v4.07h3.18" fill="#c2d8ad" stroke="#729a51" stroke-miterlimit="10" stroke-width="1.06"/></svg>