<?xml version="1.0" encoding="utf-8"?>
<!-- Generator: Adobe Illustrator 15.1.0, SVG Export Plug-In . SVG Version: 6.00 Build 0)  -->
<!DOCTYPE svg PUBLIC "-//W3C//DTD SVG 1.1//EN" "http://www.w3.org/Graphics/SVG/1.1/DTD/svg11.dtd">
<svg version="1.1" xmlns="http://www.w3.org/2000/svg" xmlns:xlink="http://www.w3.org/1999/xlink" x="0px" y="0px" width="1260px"
	 height="100px" viewBox="0 0 1260 100" enable-background="new 0 0 1260 100" xml:space="preserve">
<g id="Capa_2" display="none">
	<rect x="840" display="inline" fill="#878484" width="110.783" height="100"/>
	<rect x="700" display="inline" fill="#878484" width="110.783" height="100"/>
	<rect x="420" display="inline" fill="#878484" width="110.783" height="100"/>
	<rect x="140" display="inline" fill="#878484" width="110.783" height="100"/>
	<rect display="inline" fill="#878484" width="110" height="100"/>
	<rect x="280" display="inline" fill="#878484" width="110.783" height="100"/>
	<rect x="560" display="inline" fill="#878484" width="110.783" height="100"/>
	<rect x="980" display="inline" fill="#878484" width="110.783" height="99.999"/>
	<rect x="1120" display="inline" fill="#878484" width="110.783" height="99.998"/>
</g>
<g id="Capa_1">
	<g>
		<path fill="#8FCBE3" d="M68.923,48.438c-0.021,21.312-6.096,38.573-13.567,38.556c-7.478-0.012-13.514-17.299-13.493-38.606
			c0.023-21.312,6.096-38.573,13.569-38.556C62.905,9.843,68.941,27.129,68.923,48.438"/>
		<path fill="#415BA9" d="M68.923,48.438l-1.5-0.003c-0.002,1.321-0.028,2.625-0.075,3.911c-0.349,9.586-1.961,18.111-4.287,24.107
			c-1.159,2.999-2.501,5.357-3.864,6.878c-0.677,0.763-1.356,1.312-1.998,1.66c-0.643,0.35-1.236,0.502-1.841,0.504l-0.002-0.001
			l-0.116-0.003c-0.636-0.024-1.272-0.224-1.964-0.647c-1.204-0.734-2.515-2.208-3.714-4.341c-1.812-3.194-3.386-7.813-4.479-13.328
			c-1.097-5.519-1.727-11.94-1.719-18.787c0.001-1.319,0.025-2.621,0.073-3.908c0.349-9.587,1.962-18.112,4.289-24.11
			c1.158-2.997,2.5-5.355,3.861-6.876c0.681-0.762,1.357-1.312,2-1.66c0.642-0.348,1.238-0.502,1.841-0.501l0.118,0.002
			c0.634,0.025,1.273,0.223,1.964,0.645c1.204,0.736,2.515,2.212,3.716,4.346c1.81,3.191,3.383,7.811,4.478,13.327
			c1.097,5.517,1.727,11.939,1.72,18.783L68.923,48.438l1.499,0.002c0.008-10.718-1.482-20.43-3.961-27.622
			c-1.245-3.596-2.731-6.569-4.488-8.751c-0.881-1.091-1.834-1.988-2.887-2.639c-1.05-0.65-2.216-1.049-3.43-1.091l-0.224-0.005
			h-0.006h0.008c-1.15-0.005-2.265,0.312-3.28,0.864c-1.784,0.979-3.287,2.627-4.626,4.763c-2.001,3.206-3.628,7.563-4.849,12.748
			c-1.213,5.184-2.004,11.194-2.241,17.662c-0.049,1.32-0.072,2.657-0.076,4.018c-0.007,10.716,1.483,20.427,3.963,27.62
			c1.245,3.597,2.729,6.569,4.485,8.753c0.882,1.092,1.834,1.986,2.887,2.637c1.051,0.652,2.217,1.049,3.432,1.095l0.224,0.005
			l-0.021-0.001h0.02c1.147,0.004,2.268-0.313,3.283-0.867c1.779-0.976,3.286-2.626,4.623-4.76c2-3.208,3.63-7.562,4.848-12.75
			c1.214-5.185,2.003-11.192,2.24-17.662c0.048-1.322,0.076-2.661,0.077-4.016L68.923,48.438"/>
	</g>
	<g>
		<polyline fill="#3CC1CE" points="237.496,51.842 155.036,51.249 155.039,41.809 237.503,42.403 237.496,51.842 		"/>
		<polyline fill="#3C75BB" points="237.496,51.842 237.51,50.342 156.537,49.763 156.538,43.318 236.002,43.889 235.997,51.841 
			237.496,51.842 237.51,50.342 237.496,51.842 238.997,51.843 239.004,40.913 153.539,40.298 153.535,52.739 238.996,53.354 
			238.997,51.843 237.496,51.842 		"/>
	</g>
	<g>
		<rect x="301.976" y="9.551" fill="#E1E782" width="66.83" height="82.555"/>
		<polyline fill="#1C181C" points="368.808,92.104 368.808,90.705 303.374,90.705 303.374,10.949 367.401,10.949 367.401,92.104 
			368.808,92.104 368.808,90.705 368.808,92.104 370.206,92.104 370.206,9.551 369.798,8.562 368.808,8.151 301.976,8.151 
			300.985,8.562 300.577,9.551 300.577,92.104 300.985,93.094 301.976,93.503 368.808,93.503 369.798,93.094 370.206,92.104 
			368.808,92.104 		"/>
		<path fill="#1C181C" d="M302.985,73.076h10.943c0.547,0,1.049-0.318,1.277-0.815l3.605-7.922l3.883,17.056
			c0.145,0.633,0.711,1.084,1.365,1.084c0.656,0,1.221-0.451,1.363-1.084l3.439-15.101l3.439,15.101
			c0.146,0.633,0.711,1.084,1.361,1.084c0.656,0,1.223-0.451,1.367-1.084l3.439-15.101l3.43,15.101
			c0.15,0.633,0.717,1.084,1.371,1.084c0.652,0,1.217-0.451,1.363-1.088l3.498-15.394l1.512,6.022
			c0.16,0.623,0.715,1.057,1.357,1.057h17.547c0.775,0,1.404-0.624,1.404-1.398c0-0.771-0.629-1.398-1.404-1.398h-16.453
			l-2.68-10.633c-0.158-0.623-0.727-1.064-1.371-1.061c-0.646,0.01-1.207,0.464-1.348,1.094l-3.426,15.092l-3.439-15.092
			c-0.146-0.639-0.711-1.094-1.361-1.094c-0.662,0-1.223,0.455-1.367,1.094l-3.439,15.096l-3.436-15.096
			c-0.15-0.639-0.709-1.094-1.365-1.094c-0.652,0-1.217,0.455-1.367,1.094l-3.436,15.096l-3.434-15.096
			c-0.137-0.589-0.625-1.021-1.227-1.084c-0.596-0.061-1.166,0.269-1.416,0.813l-4.951,10.87h-10.047
			c-0.773,0-1.396,0.628-1.396,1.397C301.589,72.452,302.212,73.076,302.985,73.076"/>
		<polyline fill="#1C181C" points="327.526,43.023 327.526,44.423 359.603,44.423 360.591,44.013 361.005,43.023 361.005,28.587 
			360.591,27.599 359.603,27.189 327.526,27.189 326.534,27.599 326.124,28.587 326.124,43.023 326.534,44.013 327.526,44.423 
			327.526,43.023 328.921,43.023 328.921,29.985 358.204,29.985 358.204,41.624 327.526,41.624 327.526,43.023 328.921,43.023 
			327.526,43.023 		"/>
		<path fill="#1C181C" d="M360.296,37.207h8.484c0.768,0,1.398-0.625,1.398-1.399c0-0.773-0.631-1.397-1.398-1.397h-8.484
			c-0.771,0-1.4,0.624-1.4,1.397C358.896,36.582,359.524,37.207,360.296,37.207"/>
		<path fill="#1C181C" d="M319.046,37.207h8.48c0.771,0,1.395-0.625,1.395-1.399c0-0.773-0.623-1.397-1.395-1.397h-8.48
			c-0.777,0-1.408,0.624-1.408,1.397C317.638,36.582,318.269,37.207,319.046,37.207"/>
		<path fill="#1C181C" d="M302.759,37.207h10.789c0.768,0,1.4-0.625,1.4-1.399c0-0.773-0.633-1.397-1.4-1.397h-10.789
			c-0.77,0-1.398,0.624-1.398,1.397C301.36,36.582,301.989,37.207,302.759,37.207"/>
		<path fill="#1C181C" d="M320.548,46.519V25.094c0-0.775-0.623-1.399-1.398-1.399s-1.398,0.624-1.398,1.399v21.425
			c0,0.773,0.623,1.397,1.398,1.397S320.548,47.292,320.548,46.519"/>
		<path fill="#1C181C" d="M315.278,46.519V25.094c0-0.775-0.629-1.399-1.404-1.399c-0.773,0-1.398,0.624-1.398,1.399v21.425
			c0,0.773,0.625,1.397,1.398,1.397C314.649,47.916,315.278,47.292,315.278,46.519"/>
	</g>
	<g>
		<polyline fill="#96D3BD" points="617.195,48.515 574.753,48.575 574.769,57.842 617.203,57.781 617.195,48.515 		"/>
		<polyline fill="#33B98E" points="617.195,48.515 617.19,46.811 573.047,46.873 573.066,59.548 618.914,59.48 618.892,46.809 
			617.19,46.811 617.195,48.515 615.491,48.518 615.497,56.079 576.469,56.135 576.46,50.276 617.195,50.219 617.195,48.515 
			615.491,48.518 617.195,48.515 		"/>
		<polyline fill="#96D3BD" points="666.309,49.227 659.812,49.236 659.822,56.932 666.322,56.925 666.309,49.227 		"/>
		<polyline fill="#33B98E" points="666.309,49.227 666.307,47.523 658.105,47.534 658.123,58.639 668.028,58.624 668.011,47.521 
			666.307,47.523 666.309,49.227 664.604,49.229 664.613,55.225 661.526,55.229 661.521,50.938 666.311,50.932 666.309,49.227 
			664.604,49.229 666.309,49.227 		"/>
		<polyline fill="#96D3BD" points="574.756,49.362 568.256,49.372 568.271,57.066 574.767,57.057 574.756,49.362 		"/>
		<polyline fill="#33B98E" points="574.756,49.362 574.753,47.659 566.55,47.669 566.572,58.773 576.474,58.758 576.457,47.656 
			574.753,47.659 574.756,49.362 573.052,49.367 573.06,55.355 569.974,55.363 569.965,51.073 574.758,51.066 574.756,49.362 
			573.052,49.367 574.756,49.362 		"/>
		<polyline fill="#96D3BD" points="659.485,50.956 617.051,51.021 617.055,55.277 659.492,55.217 659.485,50.956 		"/>
		<polyline fill="#33B98E" points="659.485,50.956 659.481,49.251 615.346,49.318 615.351,56.982 661.199,56.913 661.185,49.247 
			659.481,49.251 659.485,50.956 657.781,50.958 657.785,53.514 618.76,53.572 618.755,52.723 659.488,52.66 659.485,50.956 
			657.781,50.958 659.485,50.956 		"/>
	</g>
	<g>
		<path fill="#E1E782" d="M712.559,16.133c-2.698,0-4.898,2.203-4.898,4.896v51.584c0,2.697,2.2,4.902,4.898,4.902h87.038
			c2.693,0,4.9-2.205,4.9-4.902V21.029c0-2.693-2.207-4.896-4.9-4.896H712.559"/>
		<path fill="#1C181C" d="M712.559,16.133v-1.502c-3.531,0.006-6.396,2.871-6.4,6.398v51.584c0.006,3.529,2.866,6.397,6.4,6.406
			h87.038c3.53-0.009,6.396-2.873,6.402-6.406V21.029c-0.006-3.529-2.872-6.393-6.402-6.398h-87.038v3.004h87.038
			c1.857,0.004,3.396,1.537,3.398,3.395v51.584c-0.003,1.86-1.541,3.397-3.398,3.399h-87.038c-1.861-0.002-3.395-1.537-3.396-3.399
			V21.029c0.003-1.857,1.535-3.391,3.396-3.395V16.133"/>
		<path fill="#1C181C" d="M715.975,19.836v-0.902c-2.955,0.004-5.409,2.307-5.419,5.215v45.38c0.009,2.912,2.464,5.21,5.419,5.216
			h80.207c2.952-0.006,5.41-2.302,5.422-5.216V24.148c-0.012-2.908-2.467-5.211-5.422-5.215h-80.207v1.805h80.207
			c2.014,0,3.615,1.57,3.618,3.41v45.381c-0.003,1.844-1.604,3.412-3.618,3.412h-80.207c-2.019,0-3.614-1.568-3.617-3.412V24.148
			c0.003-1.84,1.6-3.41,3.617-3.41V19.836"/>
		<path fill="#1C181C" d="M784.067,73.479c0,0,0-8.063,0-10.373c0.003-0.93,0.347-1.838,1.06-2.521s1.831-1.188,3.521-1.19
			c3.743,0,11.523,0,11.523,0c0.499,0,0.901-0.404,0.901-0.9c0-0.498-0.402-0.9-0.901-0.9c0,0-7.78,0-11.523,0
			c-2.058-0.006-3.683,0.643-4.769,1.693c-1.091,1.041-1.613,2.443-1.613,3.82c0,2.309,0,10.373,0,10.373
			c0,0.5,0.401,0.901,0.9,0.901S784.067,73.979,784.067,73.479"/>
		<path fill="#1C181C" d="M729.922,73.479c0,0,0-8.063,0-10.373c0-1.377-0.52-2.778-1.609-3.819
			c-1.09-1.052-2.715-1.699-4.773-1.693c-3.744,0-11.507,0-11.516,0c-0.499,0-0.907,0.402-0.907,0.9
			c0,0.495,0.408,0.899,0.907,0.899c0,0,7.771,0,11.516,0c1.695,0.004,2.811,0.508,3.526,1.191c0.713,0.682,1.051,1.588,1.057,2.521
			c0,2.309,0,10.373,0,10.373c0,0.5,0.401,0.901,0.896,0.901C729.515,74.38,729.922,73.979,729.922,73.479"/>
		<path fill="#1C181C" d="M791.945,62.08v-0.9c-2.819,0-5.103,2.283-5.103,5.1c0,2.812,2.282,5.095,5.103,5.095
			c2.812,0,5.091-2.283,5.094-5.095c-0.003-2.813-2.28-5.096-5.094-5.1v1.803c1.812,0.002,3.283,1.479,3.289,3.297
			c-0.006,1.812-1.477,3.289-3.289,3.291c-1.825-0.002-3.295-1.479-3.298-3.291c0.003-1.817,1.473-3.295,3.298-3.297V62.08"/>
		<path fill="#1C181C" d="M720.176,62.08v-0.9c-2.812,0-5.097,2.285-5.097,5.1c0,2.812,2.283,5.095,5.097,5.095
			c2.819,0,5.09-2.283,5.09-5.095c-0.006-2.813-2.271-5.1-5.09-5.1v1.803c1.818,0.002,3.289,1.476,3.289,3.297
			c-0.003,1.816-1.471,3.289-3.289,3.291c-1.818-0.002-3.289-1.479-3.295-3.291c0.006-1.817,1.477-3.295,3.295-3.297V62.08"/>
	</g>
	<g>
		<polyline fill="#AF90AE" points="908.356,67.123 908.356,13.16 890.369,31.15 890.369,59.344 		"/>
		<polyline fill="#8D4792" points="910.248,67.123 910.248,8.592 888.479,30.367 888.479,59.344 892.262,59.344 892.262,31.934 
			906.464,17.729 906.464,67.123 910.248,67.123 		"/>
		<path fill="#AF90AE" d="M908.356,67.123c0,8.857-7.186,16.043-16.044,16.043c-8.856,0-16.041-7.186-16.041-16.043
			s7.185-16.043,16.041-16.043C901.172,51.08,908.356,58.266,908.356,67.123"/>
		<path fill="#8D4792" d="M908.356,67.123h-1.894c0,3.914-1.581,7.439-4.143,10.008c-2.572,2.561-6.095,4.143-10.008,4.143
			c-3.914,0-7.438-1.582-10.004-4.143c-2.567-2.568-4.146-6.094-4.146-10.008s1.579-7.439,4.146-10.004
			c2.564-2.564,6.09-4.146,10.004-4.146c3.913,0,7.436,1.582,10.008,4.146c2.562,2.564,4.143,6.09,4.143,10.004h3.784
			c0-9.904-8.03-17.936-17.935-17.936c-9.905,0-17.936,8.031-17.936,17.936c0,9.904,8.03,17.934,17.936,17.934
			c9.904,0,17.935-8.029,17.935-17.934H908.356"/>
	</g>
	<g>
		<path fill="#99D5C4" d="M1051.43,84.402c0,3.13-2.535,5.668-5.668,5.668h-23.772c-3.133,0-5.672-2.538-5.672-5.668V28.415
			c0-3.133,2.539-5.672,5.672-5.672h23.772c3.134,0,5.668,2.539,5.668,5.672V84.402"/>
		<path fill="#62B295" d="M1051.43,84.402h-1.5c-0.004,2.302-1.866,4.164-4.168,4.168h-23.772c-2.301-0.004-4.168-1.866-4.172-4.168
			V28.415c0.004-2.301,1.871-4.168,4.172-4.172h23.772c2.302,0.004,4.164,1.871,4.168,4.172v55.987h3V28.415
			c0-3.961-3.207-7.168-7.168-7.172h-23.772c-3.961,0.004-7.172,3.211-7.172,7.172v55.987c0,3.962,3.211,7.168,7.172,7.168h23.772
			c3.961,0,7.168-3.206,7.168-7.168H1051.43"/>
		<path fill="#62B295" d="M1044.238,22.743v-4.105l-0.099-0.258l-0.594,0.223l0.625-0.133l-0.031-0.09l-0.594,0.223l0.625-0.133
			v-0.004l0.004-0.023c0.013-0.008,0.039-0.141,0.535-0.355c0.488-0.202,1.431-0.409,2.969-0.405v-1.5l-0.229,1.48
			c0.059,0.008,0.332,0.051,0.742,0.051c0.75-0.008,2.022-0.117,3.237-0.996c0.603-0.441,1.156-1.085,1.523-1.909
			c0.375-0.827,0.574-1.815,0.574-2.971V8.003h-3v3.834c0,0.819-0.138,1.37-0.306,1.733c-0.254,0.538-0.547,0.753-0.918,0.929
			c-0.367,0.164-0.815,0.215-1.113,0.215l-0.241-0.012l-0.047-0.004l-0.048,0.367l0.06-0.363l-0.012-0.004l-0.048,0.367l0.06-0.363
			l-0.113-0.02h-0.121c-2.383,0.004-3.918,0.379-5.012,1.113c-0.543,0.362-0.949,0.839-1.188,1.327
			c-0.237,0.492-0.312,0.968-0.312,1.343c0.004,0.516,0.125,0.855,0.164,0.969l1.406-0.527h-1.5v3.836H1044.238"/>
	</g>
	<g>
		<polyline fill="#ADBED5" points="505.833,38.436 521.807,38.421 521.826,55.596 505.844,55.605 		"/>
		<polyline fill="#45669C" points="505.833,40.381 519.866,40.369 519.877,53.654 505.844,53.662 505.848,57.552 523.771,57.541 
			523.751,36.477 505.828,36.492 505.833,40.381 		"/>
		<polyline fill="#ADBED5" points="428.972,55.664 428.957,38.489 432.523,34.896 501.939,34.848 505.833,38.436 505.844,55.605 
			501.959,58.751 432.539,58.805 428.972,55.664 		"/>
		<polyline fill="#45669C" points="428.972,55.664 430.917,55.664 430.902,39.291 433.333,36.841 501.181,36.796 503.888,39.286 
			503.899,54.682 501.268,56.809 433.275,56.855 430.256,54.205 428.972,55.664 430.917,55.664 428.972,55.664 427.685,57.122 
			431.81,60.749 502.646,60.695 507.788,56.534 507.776,37.585 502.699,32.902 431.711,32.951 427.013,37.688 427.028,56.545 
			427.685,57.122 428.972,55.664 		"/>
		<polyline fill="#45669C" points="502.19,57.886 502.171,34.848 500.614,34.851 500.637,57.886 		"/>
		<polyline fill="#45669C" points="434.453,57.932 434.431,34.896 432.873,34.896 432.899,57.932 		"/>
	</g>
	<g>
		<path fill="#F8AF82" d="M1224.219,34.459c0-4.26-3.508-7.73-7.789-7.73h-82.062c-4.295,0-7.806,3.471-7.806,7.73v24.729
			c0,4.254,3.511,7.732,7.806,7.732h82.062c4.281,0,7.789-3.479,7.789-7.732V34.459"/>
		<path fill="none" stroke="#F36C24" stroke-width="1.5" stroke-linecap="round" stroke-linejoin="round" d="M1224.219,34.459
			c0-4.26-3.508-7.73-7.789-7.73h-82.062c-4.295,0-7.806,3.471-7.806,7.73v24.729c0,4.254,3.511,7.732,7.806,7.732h82.062
			c4.281,0,7.789-3.479,7.789-7.732V34.459z"/>
	</g>
</g>
</svg>
