<?xml version="1.0" encoding="utf-8"?>
<svg version="1.2" baseProfile="tiny" id="Capa_1" xmlns="http://www.w3.org/2000/svg" xmlns:xlink="http://www.w3.org/1999/xlink"
	 x="0px" y="0px" viewBox="0 0 481.4 403.2" xml:space="preserve">
<path fill="#DADFE3" d="M209.9,362.5v-8.4c0,0-0.3-5,6.7-5c7,0,20.6,2.4,24.4,1.7c3.8-0.7,8.9-2.9,13.2,3.1c0,0-6-10.6,3.1-22.1
	c9.1-11.5,10.5-20.6,11.7-23.7c1.2-3.1,4.6-6.5,9.4-6v-7.9c0,0-6.5-5.7-5.5-12.5c1-6.9,4.8-8.9,8.7-4.1c3.9,4.8,10.3,17.8,4.3,17.2
	l-0.2,9.6c0,0,5.8,4.8,2.4,9.6c-3.4,4.8-10.5,16.8-12.9,30.2c-2.4,13.4-7.2,28.3-9.9,29.3c-2.7,1-10.1,2.2-25.2,0
	c-15.1-2.2-25.6-3.4-28.1-3.6C209.3,369.7,206.4,366,209.9,362.5"/>
<path fill="#8F99A7" d="M209.9,362.5h0.8v-8.4l0,0l-0.3,0l0.3,0l0,0l-0.3,0l0.3,0l0-0.1c0-0.3,0.1-1.3,0.8-2.2
	c0.4-0.5,0.9-0.9,1.7-1.3c0.8-0.3,1.9-0.6,3.5-0.6c3,0,7.3,0.5,11.5,0.9c4.2,0.5,8.3,0.9,11,0.9c0.8,0,1.4,0,2-0.1
	c1.8-0.3,3.8-1,5.8-1c1.1,0,2.2,0.2,3.3,0.8c1.1,0.6,2.2,1.5,3.3,3l1.3-0.8l0,0c-0.1-0.1-1.8-3.4-1.8-8.2c0-3.7,1.1-8.3,4.9-13.1
	c4.6-5.8,7.2-11,8.9-15.2c0.8-2.1,1.4-3.9,1.8-5.4c0.4-1.5,0.8-2.6,1-3.3c0.5-1.3,1.5-2.7,2.8-3.8c1.3-1.1,3-1.8,5-1.8
	c0.3,0,0.6,0,0.9,0l0.8,0.1v-9.1l-0.3-0.2l0,0c-0.1-0.1-1.5-1.3-2.8-3.2c-1.3-1.9-2.5-4.5-2.5-7.2c0-0.5,0-0.9,0.1-1.4
	c0.3-2.1,0.9-3.7,1.6-4.7c0.3-0.5,0.7-0.9,1.1-1.1c0.4-0.2,0.7-0.3,1.1-0.3c0.5,0,1,0.2,1.6,0.5c0.6,0.4,1.3,1,2,1.8
	c1.3,1.6,3,4.3,4.3,7c0.7,1.4,1.2,2.7,1.6,4c0.4,1.3,0.6,2.4,0.6,3.2c0,0.6-0.1,1.1-0.3,1.3c-0.1,0.1-0.2,0.2-0.3,0.3
	c-0.1,0.1-0.3,0.1-0.6,0.1c-0.1,0-0.2,0-0.4,0l-0.8-0.1l-0.2,10.8l0.3,0.2l0,0c0.1,0.1,0.9,0.8,1.7,1.8c0.8,1.1,1.5,2.5,1.5,4
	c0,0.9-0.2,1.8-0.9,2.8c-3.5,4.9-10.6,16.9-13,30.5c-1.2,6.7-3,13.7-4.8,19.2c-0.9,2.7-1.8,5.1-2.7,6.8c-0.4,0.8-0.8,1.5-1.2,2
	c-0.4,0.5-0.7,0.7-0.8,0.8c-1.5,0.6-4.6,1.2-9.9,1.2c-3.8,0-8.7-0.3-14.9-1.3c-7.6-1.1-13.9-2-18.8-2.6c-4.8-0.6-8.1-0.9-9.4-1
	c-0.6,0-1.4-0.4-2-1c-0.6-0.6-1-1.4-1-2.3c0-0.8,0.3-1.8,1.3-2.8l0.2-0.2v-0.3H209.9l-0.5-0.5c-1.2,1.2-1.8,2.6-1.8,3.9
	c0,1.3,0.6,2.5,1.4,3.3c0.8,0.8,1.9,1.4,3,1.5c1.2,0.1,4.5,0.4,9.3,1c4.8,0.6,11.2,1.5,18.7,2.6c6.3,0.9,11.3,1.3,15.2,1.3
	c5.4,0,8.7-0.7,10.4-1.3c0.6-0.2,1-0.7,1.5-1.3c0.8-1,1.5-2.6,2.4-4.5c2.4-5.8,5-15.3,6.6-24.1c2.4-13.2,9.4-25.2,12.7-29.9
	c0.9-1.2,1.2-2.5,1.2-3.7c0-2-1-3.7-1.9-5c-0.9-1.2-1.8-2-1.9-2l-0.5,0.6l0.8,0l0.2-9.6l-0.8,0l-0.1,0.7c0.2,0,0.4,0,0.5,0
	c0.4,0,0.9-0.1,1.2-0.2c0.6-0.2,1-0.7,1.2-1.2c0.2-0.5,0.3-1.1,0.3-1.7c0-1.1-0.3-2.3-0.7-3.7c-1.3-4-4.1-8.9-6.2-11.5
	c-0.8-0.9-1.6-1.7-2.3-2.1c-0.8-0.5-1.6-0.8-2.4-0.8c-0.7,0-1.3,0.2-1.9,0.6c-0.9,0.5-1.6,1.4-2.1,2.6c-0.6,1.1-1,2.6-1.2,4.2
	c-0.1,0.5-0.1,1.1-0.1,1.6c0,3.3,1.5,6.2,2.9,8.3c1.5,2.1,2.9,3.3,2.9,3.3l0.5-0.6h-0.8v7.9h0.8l0.1-0.7c-0.4,0-0.7-0.1-1-0.1
	c-2.3,0-4.3,0.9-5.9,2.1c-1.6,1.2-2.7,2.9-3.3,4.4c-0.3,0.8-0.6,2-1.1,3.4c-1.3,4.4-3.7,11.5-10.5,20c-4,5.1-5.2,10.1-5.2,14.1
	c0,5.3,2,8.8,2,8.9l0.7-0.4l0.6-0.4c-1.2-1.7-2.5-2.8-3.8-3.5c-1.3-0.7-2.7-0.9-4-0.9c-2.3,0-4.4,0.7-6.1,1c-0.4,0.1-1,0.1-1.7,0.1
	c-2.5,0-6.6-0.5-10.8-0.9c-4.2-0.5-8.5-0.9-11.7-0.9c-1.7,0-3,0.3-4,0.7c-1.6,0.7-2.5,1.7-2.9,2.7c-0.5,1-0.5,1.8-0.5,2.2
	c0,0.1,0,0.1,0,0.2l0.7-0.1h-0.8v8.4H209.9l-0.5-0.5L209.9,362.5"/>
<path fill="#DADFE3" d="M324.3,347.1c0,0-18.4-4.6-26.2-4.6c-7.9,0-9.6,4.8-10.1,8.1c-0.5,3.3,0.7,5.5,6.3,8.7
	c5.7,3.3,19.7,3.6,23.5,3.4c3.8-0.2,23.7,0.7,26.6-6.2c2.9-6.9,8.1-19.2,13.2-29c5.1-9.8,17.7-31.2,13.4-33.6l0.2-2.7
	c0,0,2.6-3.8,1.2-7c-1.4-3.3-3.6-6.9-6.5-7.5c-2.9-0.7-5.1,3.1-4.5,8.9c0.7,5.8,3.9,5.7,3.9,5.7v2.7c0,0-9.4,0.9-14.1,6.5
	c-4.6,5.7-9.3,15.8-14.9,23.8C330.6,332.3,325.8,336.3,324.3,347.1"/>
<path fill="#8F99A7" d="M324.3,347.1l0.2-0.7c0,0-4.6-1.2-10.2-2.3c-5.6-1.2-12.2-2.3-16.2-2.3c-4.1,0-6.8,1.3-8.4,3.1
	c-1.6,1.8-2.2,3.9-2.5,5.6c-0.1,0.5-0.1,0.9-0.1,1.4c0,1.5,0.5,2.8,1.6,4.1c1.1,1.3,2.8,2.6,5.3,4c2.7,1.5,6.8,2.4,10.9,2.9
	c4.2,0.5,8.3,0.7,11,0.7c0.8,0,1.5,0,2,0c0.9,0,2.9,0,5.3-0.1c3.7-0.1,8.5-0.3,12.7-1.2c2.1-0.4,4.1-1,5.7-1.9
	c1.6-0.8,2.9-2,3.6-3.5c2.9-6.9,8.1-19.2,13.2-28.9c2.2-4.2,5.8-10.5,8.8-16.6c1.5-3,2.9-6,3.9-8.7c1-2.6,1.6-4.9,1.7-6.6
	c0-0.6-0.1-1.1-0.3-1.6c-0.2-0.5-0.5-0.9-1-1.2l-0.4,0.7l0.7,0l0.2-2.7l-0.7,0l0.6,0.4c0,0,0.4-0.6,0.9-1.6c0.4-1,0.9-2.3,0.9-3.7
	c0-0.8-0.1-1.6-0.5-2.4c-0.7-1.7-1.6-3.4-2.8-4.9c-1.2-1.5-2.5-2.7-4.3-3.1c-0.3-0.1-0.6-0.1-0.8-0.1c-0.7,0-1.4,0.2-2,0.6
	c-0.9,0.6-1.5,1.6-2,2.8c-0.5,1.2-0.7,2.7-0.7,4.3c0,0.7,0,1.4,0.1,2.2c0.3,2.9,1.3,4.5,2.3,5.4c1,0.9,2,0.9,2.3,0.9h0.1l0-0.8h-0.8
	v2.7h0.8l-0.1-0.7c0,0-2.4,0.2-5.5,1.2c-3,0.9-6.7,2.6-9.1,5.6c-2.4,2.9-4.7,6.9-7.1,11.1c-2.4,4.2-5,8.8-7.8,12.8
	c-2.8,4-5.4,7-7.6,10.4c-2.1,3.4-3.8,7.2-4.6,12.7L324.3,347.1l0.2-0.7L324.3,347.1l0.7,0.1c0.8-5.3,2.3-8.9,4.4-12.1
	c2.1-3.3,4.7-6.3,7.5-10.3c2.9-4.1,5.4-8.6,7.9-12.9c2.4-4.2,4.7-8.2,7-10.9c2.2-2.7,5.6-4.2,8.4-5.1c1.4-0.4,2.7-0.7,3.7-0.9
	c0.5-0.1,0.8-0.1,1.1-0.2c0.1,0,0.2,0,0.3,0l0.1,0l0.7-0.1v-4.2l-0.8,0l0,0.4l0-0.4l0,0l0,0.4l0-0.4h0c-0.1,0-0.7,0-1.4-0.6
	c-0.7-0.6-1.5-1.8-1.8-4.4c-0.1-0.7-0.1-1.4-0.1-2c0-2,0.4-3.6,1-4.7c0.3-0.5,0.7-0.9,1-1.2c0.4-0.2,0.7-0.4,1.1-0.4
	c0.2,0,0.3,0,0.5,0.1c1.2,0.3,2.4,1.2,3.4,2.5c1,1.3,1.9,3,2.6,4.6c0.2,0.6,0.3,1.2,0.3,1.8c0,1.1-0.4,2.3-0.7,3.1
	c-0.2,0.4-0.4,0.8-0.5,1c-0.1,0.1-0.1,0.2-0.2,0.3l0,0.1l0,0l-0.1,0.2l-0.2,3.4l0.4,0.2c0.1,0.1,0.2,0.2,0.3,0.4
	c0.1,0.2,0.2,0.6,0.2,1c0,1.4-0.6,3.5-1.6,6.1c-2.9,7.7-9.3,18.8-12.6,25.1c-5.2,9.8-10.3,22.2-13.2,29c-0.3,0.7-0.8,1.3-1.6,1.9
	c-1.3,1-3.3,1.8-5.6,2.3c-3.4,0.8-7.5,1.2-11,1.3c-3.5,0.1-6.5,0.1-7.8,0.1c-0.5,0-1.1,0-1.9,0c-2.6,0-6.8-0.2-10.8-0.7
	c-4.1-0.5-8.1-1.4-10.4-2.7c-2.4-1.4-4-2.6-4.9-3.6c-0.9-1.1-1.2-2-1.2-3.2c0-0.4,0-0.7,0.1-1.2c0.2-1.6,0.8-3.4,2.1-4.9
	c1.3-1.4,3.5-2.6,7.3-2.6c3.8,0,10.4,1.1,15.9,2.3c2.8,0.6,5.3,1.2,7.2,1.6c0.9,0.2,1.7,0.4,2.2,0.5c0.5,0.1,0.8,0.2,0.8,0.2
	l0.8,0.2l0.1-0.8L324.3,347.1"/>
<path fill="#8F99A7" d="M210,362.6L210,362.6c0.2-0.6,2-5.2,11.8-5.2c1.4,0,3,0.1,4.8,0.3c8.9,1.1,16.9,2.2,23.2,2.2
	c4.2,0,7.6-0.5,9.9-1.9c3.1-2,6-3.4,8.2-3.4c1.7,0,3.1,0.8,4.1,2.8l0.3-0.1c-1-2.1-2.6-3-4.4-3c-2.4,0-5.2,1.5-8.4,3.4
	c-2.2,1.4-5.5,1.9-9.7,1.9c-6.2,0-14.2-1.1-23.1-2.2c-1.8-0.2-3.4-0.3-4.9-0.3c-10.5,0-12.1,5.4-12.1,5.4L210,362.6"/>
<path fill="#8F99A7" d="M254,354c0,0,2.6,3.3,3.9,5l0.2-0.2c-0.7-0.9-1.7-2.1-2.5-3.1c-0.8-1-1.5-1.8-1.5-1.8L254,354"/>
<path fill="#8F99A7" d="M260.9,356.2c0,0,0-0.3,0-0.8c0-3.2,0.4-15.7,6.2-23.7c6.7-9.3,9.5-27,9.5-27l-0.3,0c0,0-0.2,1.1-0.5,2.9
	c-1.1,5.4-3.9,17.1-8.9,24c-5.8,8.1-6.2,20.6-6.2,23.9c0,0.5,0,0.8,0,0.8L260.9,356.2"/>
<path fill="#8F99A7" d="M278.3,302.3c0,0,0.3,0,0.7,0.1c1.3,0.1,4.2,0.6,6.6,2.1l0.2-0.3c-3.3-2.1-7.4-2.3-7.5-2.3L278.3,302.3"/>
<path fill="#8F99A7" d="M296.1,344c0,0,1.1,0.1,2.9,0.4c5.4,0.9,17.1,3.3,24.7,8.5l0.2-0.2c-10.2-6.9-27.7-8.9-27.7-8.9L296.1,344"
	/>
<path fill="#8F99A7" d="M365.3,294.1c0,0,0.1,0,0.2,0c0.4-0.1,1.3-0.3,2.5-0.3c0.8,0,1.8,0.1,2.9,0.3l0.1-0.3
	c-1.1-0.2-2.1-0.3-2.9-0.3c-1.7,0-2.8,0.3-2.8,0.3L365.3,294.1"/>
<path fill="#DADFE3" d="M370.8,172c-8.4-0.7-12.8,1.2-17.6,3.6c-4.8,2.4-16.2,4.6-24.6,6.5c-8.4,1.9-7.7-5.5-7.7-5.5
	c-26.3,0.7-32.5-17.8-32.5-17.8V54.6c0,0,6.3-18.6,32.5-17.8c0,0-0.7-7.5,7.7-5.5c8.4,1.9,19.8,4.1,24.6,6.5s9.2,4.3,17.6,3.6V172"
	/>
<path fill="#8F99A7" d="M370.8,172l0.1-0.7c-1.2-0.1-2.4-0.2-3.5-0.2c-6.4,0-10.4,1.8-14.5,3.8c-2.3,1.2-6.3,2.3-10.8,3.4
	c-4.5,1.1-9.4,2.1-13.6,3.1c-0.9,0.2-1.7,0.3-2.4,0.3c-1.1,0-1.9-0.2-2.5-0.6c-0.9-0.5-1.4-1.3-1.6-2.1c-0.3-0.8-0.3-1.6-0.3-2.1
	c0-0.1,0-0.2,0-0.3l0-0.1l0,0l0.1-0.8l-0.8,0c-0.5,0-1,0-1.5,0c-12.3,0-19.9-4.4-24.4-8.7c-2.3-2.2-3.8-4.3-4.7-6
	c-0.5-0.8-0.8-1.5-1-2c-0.1-0.2-0.2-0.4-0.2-0.5l-0.1-0.1l0,0l-0.7,0.2h0.8V54.6h-0.8l0.7,0.2l0,0c0.2-0.5,1.8-4.8,6.4-9
	c4.6-4.2,12-8.3,24-8.3c0.5,0,1,0,1.5,0l0.8,0l-0.1-0.8l0,0c0,0,0-0.2,0-0.3c0-0.6,0.1-1.8,0.7-2.8c0.3-0.5,0.7-0.9,1.3-1.3
	c0.6-0.3,1.4-0.6,2.5-0.6c0.7,0,1.5,0.1,2.4,0.3c4.2,1,9.2,2,13.6,3.1c4.5,1.1,8.5,2.2,10.8,3.4c4.1,2.1,8.1,3.9,14.5,3.8
	c1.1,0,2.2-0.1,3.5-0.2l-0.1-0.7H370V172H370.8l0.1-0.7L370.8,172h0.8V40.5l-0.8,0.1c-1.2,0.1-2.3,0.2-3.4,0.2
	c-6.1,0-9.7-1.6-13.8-3.7c-2.5-1.3-6.6-2.4-11.1-3.5c-4.5-1.1-9.5-2.1-13.7-3.1c-1-0.2-1.9-0.3-2.7-0.3c-1.3,0-2.4,0.3-3.2,0.8
	c-1.3,0.7-2,1.8-2.3,2.9c-0.4,1-0.4,2-0.4,2.6c0,0.3,0,0.5,0,0.5l0.7-0.1l0-0.8c-0.5,0-1,0-1.5,0c-12.7,0-20.7,4.6-25.4,9.1
	c-4.8,4.6-6.3,9.2-6.3,9.2l0,0.1v104.4l0,0.1c0,0.1,1.6,4.6,6.3,9.2c4.8,4.6,12.7,9.1,25.4,9.1c0.5,0,1,0,1.5,0l0-0.7l-0.7-0.1
	c0,0,0,0.2,0,0.5c0,0.7,0.1,2.2,0.9,3.6c0.4,0.7,1,1.3,1.8,1.8c0.8,0.5,1.9,0.8,3.2,0.8c0.8,0,1.7-0.1,2.7-0.3c4.2-1,9.2-2,13.7-3.1
	c4.5-1.1,8.6-2.2,11.1-3.5c4.1-2.1,7.7-3.7,13.8-3.7c1,0,2.2,0,3.4,0.2l0.8,0.1V172H370.8"/>
<path fill="#DADFE3" d="M209.1,161.1c0,0-0.9,10.1,8.5,10.1c0,0,27.9,1.6,32.9-0.5c0,0,6,1.2,12.7,1.2c6.7,0,11.8,0.2,15.9-1.4
	c4.1-1.6,7.4-6.5,7.4-12.4c0,0,1.2-1.6,1.2-4.4v-15.9c0-2.8-1.2-4.4-1.2-4.4c0-6-3.2-10.8-7.4-12.4c-4.1-1.6-9.2-1.4-15.9-1.4
	c-6.7,0-12.7,1.2-12.7,1.2c-5.1-2.1-32.9-0.5-32.9-0.5c-9.4,0-8.5,10.1-8.5,10.1V161.1"/>
<path fill="#8F99A7" d="M209.1,161.1l-0.7-0.1c0,0,0,0.3,0,0.8c0,1.2,0.2,3.7,1.4,5.9c0.6,1.1,1.5,2.2,2.8,3c1.3,0.8,3,1.3,5.1,1.3
	v-0.8l0,0.7c0,0,10.3,0.6,19.6,0.6c3,0,5.8-0.1,8.2-0.2c1.2-0.1,2.3-0.2,3.2-0.3c0.9-0.1,1.7-0.3,2.3-0.6l-0.3-0.7l-0.1,0.7
	c0,0,6,1.2,12.8,1.2c1.5,0,2.9,0,4.2,0c4.7,0,8.5-0.1,11.9-1.4c4.5-1.8,7.8-6.9,7.9-13.1h-0.8l0.6,0.4c0.1-0.1,1.3-1.8,1.3-4.8
	v-15.9c0-3-1.2-4.7-1.3-4.8l-0.6,0.4h0.8c0-6.3-3.4-11.4-7.9-13.1c-3.4-1.3-7.3-1.4-11.9-1.4c-1.3,0-2.7,0-4.2,0
	c-6.8,0-12.8,1.2-12.8,1.2l0.1,0.7l0.3-0.7c-0.6-0.2-1.3-0.4-2.3-0.6c-2.7-0.4-6.9-0.6-11.4-0.6c-9.3,0-19.6,0.6-19.6,0.6l0,0.7
	v-0.8c-2.1,0-3.8,0.5-5.1,1.3c-2,1.2-3,3-3.6,4.7c-0.6,1.7-0.7,3.3-0.7,4.2c0,0.5,0,0.8,0,0.8l0.7-0.1h-0.7v30.6H209.1l-0.7-0.1
	L209.1,161.1h0.8v-30.7l0,0l0,0c0-0.1,0-0.3,0-0.6c0-1.1,0.2-3.3,1.2-5.2c0.5-0.9,1.3-1.8,2.3-2.4c1-0.6,2.4-1,4.3-1h0l0,0
	c0,0,0.6,0,1.8-0.1c3.3-0.2,10.9-0.5,17.8-0.5c3,0,5.8,0.1,8.1,0.2c1.2,0.1,2.2,0.2,3.1,0.3c0.9,0.1,1.5,0.3,1.9,0.5l0.2,0.1l0.2,0
	c0,0,0.1,0,0.3,0c1.2-0.2,6.5-1.1,12.3-1.1c1.5,0,2.9,0,4.2,0c4.7,0,8.4,0.2,11.4,1.3c3.8,1.5,6.9,6,6.9,11.7v0.2l0.1,0.2l0.2-0.2
	l-0.2,0.2l0,0l0.2-0.2l-0.2,0.2c0,0,1,1.5,1,3.9v15.9c0,1.3-0.3,2.3-0.5,3c-0.1,0.3-0.3,0.6-0.4,0.8l-0.1,0.2l0,0l0,0l0.2,0.2
	l-0.2-0.2l0,0l0.2,0.2l-0.2-0.2l-0.1,0.2v0.2c0,5.7-3.1,10.3-6.9,11.7c-3.1,1.2-6.7,1.3-11.4,1.3c-1.3,0-2.7,0-4.2,0
	c-3.3,0-6.4-0.3-8.8-0.6c-1.2-0.1-2.1-0.3-2.8-0.4c-0.3-0.1-0.6-0.1-0.8-0.1c-0.2,0-0.3,0-0.3,0l-0.2,0l-0.2,0.1
	c-0.4,0.2-1.1,0.3-1.9,0.5c-2.6,0.4-6.8,0.5-11.2,0.5c-4.6,0-9.5-0.1-13.2-0.3c-1.9-0.1-3.4-0.1-4.6-0.2c-1.1-0.1-1.8-0.1-1.8-0.1h0
	h0c-1.9,0-3.2-0.4-4.3-1c-1.6-0.9-2.4-2.4-2.9-3.9c-0.5-1.5-0.6-2.9-0.6-3.8c0-0.2,0-0.4,0-0.5l0-0.1l0,0l0,0v0H209.1"/>
<path fill="#8F99A7" d="M285.1,158c0,0-7.8,0.7-10.1,0.9c-0.1,0-0.3,0-0.4,0c-1,0-1.6-0.4-2-1c-0.4-0.6-0.6-1.5-0.6-2.6v-19.1
	c0-1.1,0.2-2,0.6-2.6c0.4-0.6,1.1-1,2-1c0.1,0,0.3,0,0.4,0c2.3,0.2,10.1,0.9,10.1,0.9l0-0.3c0,0-2-0.2-4.2-0.4
	c-2.2-0.2-4.8-0.4-5.9-0.5c-0.2,0-0.3,0-0.4,0c-1,0-1.8,0.4-2.3,1.1c-0.5,0.7-0.7,1.7-0.7,2.7v19.1c0,1.1,0.2,2.1,0.7,2.7
	c0.5,0.7,1.2,1.1,2.3,1.1c0.1,0,0.3,0,0.4,0c1.2-0.1,3.7-0.3,5.9-0.5c2.2-0.2,4.2-0.4,4.2-0.4L285.1,158"/>
<path fill="#8F99A7" d="M250.7,170.8c0,0,0-0.1,0.1-0.3c0.5-1.2,2.8-6.3,8.4-9.1l0.1,0v-31.3l-0.1,0c-3.2-1.6-5.3-3.9-6.6-5.9
	c-0.7-1-1.1-1.8-1.4-2.5c-0.1-0.3-0.3-0.6-0.3-0.7c-0.1-0.2-0.1-0.3-0.1-0.3l-0.3,0.1c0,0,2.1,6.3,8.6,9.5l0.1-0.1H259v31.1h0.2
	l-0.1-0.1c-6.5,3.3-8.6,9.5-8.6,9.5L250.7,170.8"/>
<path fill="#DADFE3" d="M209.1,83.4c0,0-0.9,10.1,8.5,10.1c0,0,27.9,1.6,32.9-0.5c0,0,6,1.2,12.7,1.2c6.7,0,11.8,0.2,15.9-1.4
	c4.1-1.6,7.4-6.5,7.4-12.4c0,0,1.2-1.6,1.2-4.4V60.1c0-2.8-1.2-4.4-1.2-4.4c0-6-3.2-10.8-7.4-12.4c-4.1-1.6-9.2-1.4-15.9-1.4
	c-6.7,0-12.7,1.2-12.7,1.2c-5.1-2.1-32.9-0.5-32.9-0.5c-9.4,0-8.5,10.1-8.5,10.1V83.4"/>
<path fill="#8F99A7" d="M209.1,83.4l-0.7-0.1c0,0,0,0.3,0,0.8c0,1.2,0.2,3.7,1.4,5.9c0.6,1.1,1.5,2.2,2.8,3c1.3,0.8,3,1.3,5.1,1.3
	v-0.8l0,0.7c0,0,10.3,0.6,19.6,0.6c3,0,5.8-0.1,8.2-0.2c1.2-0.1,2.3-0.2,3.2-0.3c0.9-0.1,1.7-0.3,2.3-0.6l-0.3-0.7l-0.1,0.7
	c0,0,6,1.2,12.8,1.2c1.5,0,2.9,0,4.2,0c4.7,0,8.5-0.1,11.9-1.4c4.5-1.8,7.8-6.9,7.9-13.1h-0.8l0.6,0.4c0.1-0.1,1.3-1.8,1.3-4.8V60.1
	c0-3-1.2-4.7-1.3-4.8l-0.6,0.4h0.8c0-6.3-3.4-11.4-7.9-13.1c-3.4-1.3-7.3-1.4-11.9-1.4c-1.3,0-2.7,0-4.2,0c-6.8,0-12.8,1.2-12.8,1.2
	l0.1,0.7l0.3-0.7c-0.6-0.2-1.3-0.4-2.3-0.6c-2.7-0.4-6.9-0.6-11.4-0.6c-9.3,0-19.6,0.6-19.6,0.6l0,0.7v-0.8c-2.1,0-3.8,0.5-5.1,1.3
	c-2,1.2-3,3-3.6,4.7c-0.6,1.7-0.7,3.3-0.7,4.2c0,0.5,0,0.8,0,0.8l0.7-0.1h-0.7v30.6H209.1l-0.7-0.1L209.1,83.4h0.8V52.7l0,0l0,0
	c0-0.1,0-0.3,0-0.6c0-1.1,0.2-3.3,1.2-5.2c0.5-0.9,1.3-1.8,2.3-2.4c1-0.6,2.4-1,4.3-1h0l0,0c0,0,0.6,0,1.8-0.1
	c3.3-0.2,10.9-0.5,17.8-0.5c3,0,5.8,0.1,8.1,0.2c1.2,0.1,2.2,0.2,3.1,0.3c0.9,0.1,1.5,0.3,1.9,0.5l0.2,0.1l0.2,0c0,0,0.1,0,0.3,0
	c1.2-0.2,6.5-1.1,12.3-1.1c1.5,0,2.9,0,4.2,0c4.7,0,8.4,0.2,11.4,1.3c3.8,1.5,6.9,6,6.9,11.7V56l0.1,0.2l0.2-0.2l-0.2,0.2l0,0
	l0.2-0.2l-0.2,0.2c0,0,1,1.5,1,3.9V76c0,1.3-0.3,2.3-0.5,3c-0.1,0.3-0.3,0.6-0.4,0.8l-0.1,0.2l0,0l0,0l0.2,0.2l-0.2-0.2l0,0l0.2,0.2
	l-0.2-0.2l-0.1,0.2v0.2c0,5.7-3.1,10.3-6.9,11.7c-3.1,1.2-6.7,1.3-11.4,1.3c-1.3,0-2.7,0-4.2,0c-3.3,0-6.4-0.3-8.8-0.6
	c-1.2-0.1-2.1-0.3-2.8-0.4c-0.3-0.1-0.6-0.1-0.8-0.1c-0.2,0-0.3,0-0.3,0l-0.2,0l-0.2,0.1c-0.4,0.2-1.1,0.3-1.9,0.5
	c-2.6,0.4-6.8,0.5-11.2,0.5c-4.6,0-9.5-0.1-13.2-0.3c-1.9-0.1-3.4-0.1-4.6-0.2c-1.1-0.1-1.8-0.1-1.8-0.1l0,0h0c-1.9,0-3.2-0.4-4.3-1
	c-1.6-0.9-2.4-2.4-2.9-3.9c-0.5-1.5-0.6-2.9-0.6-3.8c0-0.2,0-0.4,0-0.5l0-0.1l0,0l0,0v0H209.1"/>
<path fill="#8F99A7" d="M285.1,80.3c0,0-7.8,0.7-10.1,0.9c-0.1,0-0.3,0-0.4,0c-1,0-1.6-0.4-2-1c-0.4-0.6-0.6-1.5-0.6-2.6V58.5
	c0-1.1,0.2-2,0.6-2.6c0.4-0.6,1.1-1,2-1c0.1,0,0.3,0,0.4,0c2.3,0.2,10.1,0.9,10.1,0.9l0-0.3c0,0-2-0.2-4.2-0.4
	c-2.2-0.2-4.8-0.4-5.9-0.5c-0.2,0-0.3,0-0.4,0c-1,0-1.8,0.4-2.3,1.1c-0.5,0.7-0.7,1.7-0.7,2.7v19.1c0,1.1,0.2,2.1,0.7,2.7
	c0.5,0.7,1.2,1.1,2.3,1.1c0.1,0,0.3,0,0.4,0c1.2-0.1,3.7-0.3,5.9-0.5c2.2-0.2,4.2-0.4,4.2-0.4L285.1,80.3"/>
<path fill="#8F99A7" d="M250.7,93.1c0,0,0-0.1,0.1-0.3c0.5-1.2,2.8-6.3,8.4-9.1l0.1,0V52.4l-0.1,0c-3.2-1.6-5.3-3.9-6.6-5.9
	c-0.7-1-1.1-1.8-1.4-2.5c-0.1-0.3-0.3-0.6-0.3-0.7c-0.1-0.2-0.1-0.3-0.1-0.3l-0.3,0.1c0,0,2.1,6.3,8.6,9.5l0.1-0.1H259v31.1h0.2
	l-0.1-0.1c-6.5,3.3-8.6,9.5-8.6,9.5L250.7,93.1"/>
<path fill="#8F99A7" d="M320.8,36.8c0,0,6.5,12.3,15.5,18.1l0.2-0.3c-4.4-2.9-8.3-7.4-11-11.2c-1.4-1.9-2.5-3.6-3.2-4.8
	c-0.7-1.2-1.2-2-1.2-2L320.8,36.8"/>
<path fill="#8F99A7" d="M321,176.6c0,0,0.4-0.8,1.2-2c2.2-3.7,7.6-11.7,14.2-16l-0.2-0.3c-9,5.8-15.5,18.1-15.5,18.1L321,176.6"/>
<path fill="#8F99A7" d="M369.2,165.6c0,0-7-3.4-12.8-3.6c-2.9-0.1-8-0.4-12.4-1.5c-2.2-0.5-4.2-1.3-5.6-2.3c-1.4-1-2.3-2.2-2.3-3.8
	V58.9c0-1.6,0.9-2.8,2.3-3.8c4.3-3,13.7-3.6,18-3.8c5.8-0.2,12.8-3.6,12.8-3.6l-0.1-0.3c0,0-0.4,0.2-1.2,0.5
	c-2.2,1-7.2,2.9-11.5,3.1c-2.9,0.1-8,0.4-12.4,1.5c-2.2,0.5-4.2,1.3-5.7,2.3c-1.5,1-2.5,2.4-2.5,4v95.5c0,1.7,1,3,2.5,4
	c4.5,3.1,13.8,3.6,18.2,3.8c2.9,0.1,6.1,1,8.5,1.9c1.2,0.4,2.3,0.9,3,1.2c0.7,0.3,1.2,0.5,1.2,0.5L369.2,165.6"/>
<path fill="#8F99A7" d="M368.1,148.7c0,0-0.3,0.2-0.7,0.5c-1.3,0.9-4.3,2.7-6.3,2.7c-0.7,0-1.3-0.2-1.7-0.7
	c-0.4-0.5-0.7-1.2-0.7-2.4v-14c0-1.2,0.3-1.9,0.7-2.4c0.4-0.5,1-0.7,1.7-0.7c1.4,0,3.2,0.8,4.6,1.6c0.7,0.4,1.3,0.8,1.8,1.1
	c0.4,0.3,0.7,0.5,0.7,0.5l0.2-0.2c0,0-1.1-0.8-2.5-1.6c-1.4-0.8-3.2-1.6-4.7-1.6c-0.7,0-1.4,0.2-1.9,0.8c-0.5,0.5-0.8,1.4-0.8,2.6
	v14c0,1.2,0.3,2.1,0.8,2.6c0.5,0.5,1.2,0.8,1.9,0.8c1.5,0,3.3-0.8,4.7-1.6c1.4-0.8,2.5-1.6,2.5-1.6L368.1,148.7"/>
<path fill="#8F99A7" d="M368.1,77.3c0,0-0.3,0.2-0.7,0.5c-1.3,0.9-4.3,2.7-6.3,2.7c-0.7,0-1.3-0.2-1.7-0.7c-0.4-0.5-0.7-1.2-0.7-2.4
	v-14c0-1.2,0.3-1.9,0.7-2.4c0.4-0.5,1-0.7,1.7-0.7c1.4,0,3.2,0.8,4.6,1.6c0.7,0.4,1.3,0.8,1.8,1.1c0.4,0.3,0.7,0.5,0.7,0.5l0.2-0.2
	c0,0-1.1-0.8-2.5-1.6c-1.4-0.8-3.2-1.6-4.7-1.6c-0.7,0-1.4,0.2-1.9,0.8c-0.5,0.5-0.8,1.4-0.8,2.6v14c0,1.2,0.3,2.1,0.8,2.6
	c0.5,0.5,1.2,0.8,1.9,0.8c1.5,0,3.3-0.8,4.7-1.6c1.4-0.8,2.5-1.6,2.5-1.6L368.1,77.3"/>
<rect x="337.5" y="94.7" fill="#8F99A7" width="33" height="0.3"/>
<rect x="337.5" y="117.6" fill="#8F99A7" width="33" height="0.3"/>
<g id="c8-02">
	<path fill="#99D5C4" d="M340.9,366.6c0.4-0.9,0.7-1.9,1-3c5.1-18.2,22.4-35.2,27.8-40.6c2.2-2.2,4.5-5.9,6.3-9.4
		c1.8-3.5,3-6.9,3.2-8c0-0.1,0-0.1,0-0.1c0-1.4,1.1-2.5,2.5-2.5c1.4,0,2.5,1.1,2.5,2.5c0,1.3-0.4,2.5-1,4.1
		c-0.6,1.6-1.4,3.5-2.4,5.5c-2,4-4.6,8.4-7.6,11.4c-5.3,5.2-22.1,22.2-26.5,38.4c-0.3,1-0.6,2-0.9,2.9"/>
	<path fill="#62B295" d="M341.6,366.9c0.4-0.9,0.7-1.9,1-3c2.5-8.9,8.1-17.7,13.7-24.8c5.6-7.2,11.2-12.8,13.9-15.5l-0.5-0.5
		l0.5,0.5c2.3-2.3,4.6-6,6.4-9.6l0,0v0c0.9-1.8,1.7-3.5,2.2-5c0.3-0.7,0.5-1.4,0.7-1.9c0.2-0.6,0.3-1,0.3-1.3l-0.7-0.1l0.7,0.1
		c0-0.2,0-0.2,0-0.3c0-1,0.8-1.7,1.8-1.7c1,0,1.7,0.8,1.7,1.7h0.8l-0.7,0c0,1.2-0.4,2.3-1,3.9l0.7,0.2l-0.7-0.3
		c-0.6,1.6-1.4,3.5-2.3,5.4c-2,4-4.5,8.3-7.4,11.2l0,0h0c-2.7,2.6-8.2,8.2-13.6,15.2c-5.4,7-10.8,15.3-13.1,23.6
		c-0.3,1-0.6,1.9-0.9,2.8l1.4,0.5c0.3-0.9,0.6-1.9,0.9-2.9c2.2-7.9,7.4-16.2,12.8-23.1c5.4-6.9,10.9-12.4,13.5-15l0,0l0,0
		c3.1-3.1,5.7-7.5,7.7-11.6c1-2,1.8-4,2.4-5.6l0,0l0,0c0.6-1.7,1-2.9,1-4.4v0c0-1.8-1.5-3.2-3.2-3.2c-1.8,0-3.2,1.5-3.3,3.2h0.6
		l-0.5-0.1l0,0.1h0.6l-0.5-0.1l0,0.1l0,0l0,0c0,0.2-0.1,0.6-0.3,1.1c-0.5,1.5-1.5,4.1-2.8,6.7l0,0c-1.7,3.4-4.1,7.1-6.1,9.2l0,0l0,0
		c-2.7,2.7-8.4,8.4-14,15.6c-5.7,7.3-11.3,16.1-13.9,25.3c-0.3,1-0.6,2-1,2.9L341.6,366.9"/>
	<path fill="#99D5C4" d="M313.4,379.5c0,0-7.2-0.5-8.4-6.8c-1.2-6.3-0.8-9.5,7.1-8.9c7.9,0.5,30-0.3,45.5-3.3c15.5-3,7.6,4,6.5,5.5
		C363.1,367.6,351.5,374.7,313.4,379.5"/>
	<path fill="#62B295" d="M313.4,379.5l0-0.7l0,0c-0.2,0-1.9-0.2-3.6-1c-0.9-0.4-1.8-1-2.5-1.9c-0.7-0.8-1.3-1.9-1.6-3.3
		c-0.3-1.6-0.5-3-0.5-4.1c0-0.7,0.1-1.3,0.3-1.8c0.3-0.7,0.7-1.2,1.4-1.6c0.8-0.4,1.9-0.6,3.6-0.6c0.5,0,1,0,1.5,0.1
		c1.5,0.1,3.4,0.1,5.7,0.1c10.2,0,27.3-1,40-3.4c2.6-0.5,4.6-0.7,5.9-0.7c1.2,0,2,0.2,2.3,0.4c0.2,0.1,0.2,0.2,0.3,0.2
		c0,0.1,0.1,0.1,0.1,0.3c0,0.2-0.1,0.5-0.3,0.9c-0.3,0.6-0.8,1.2-1.3,1.8c-0.2,0.3-0.5,0.6-0.7,0.8c-0.2,0.2-0.4,0.5-0.5,0.7
		c0,0.1-0.3,0.3-0.7,0.6c-1.6,1.1-5.7,3.2-13.5,5.5c-7.8,2.3-19.4,4.8-36,7L313.4,379.5l0-0.7L313.4,379.5l0.1,0.7
		c19.1-2.4,31.5-5.4,39.4-8c3.9-1.3,6.7-2.5,8.6-3.5c0.9-0.5,1.7-0.9,2.2-1.3c0.5-0.4,0.9-0.7,1.1-1c0.1-0.1,0.3-0.4,0.6-0.8
		c0.5-0.5,1-1.2,1.5-1.9c0.5-0.7,0.9-1.5,0.9-2.4c0-0.3-0.1-0.7-0.3-1c-0.3-0.5-0.8-0.8-1.4-1c-0.6-0.2-1.4-0.3-2.4-0.3
		c-1.5,0-3.5,0.2-6.2,0.7c-12.5,2.4-29.6,3.4-39.7,3.4c-2.3,0-4.2-0.1-5.6-0.1c-0.6,0-1.1-0.1-1.6-0.1c-2.4,0-4.1,0.4-5.2,1.4
		c-0.6,0.5-1,1.1-1.2,1.8c-0.2,0.7-0.3,1.5-0.3,2.3c0,1.3,0.2,2.7,0.5,4.4c0.3,1.7,1.1,3.1,2,4.1c1.4,1.5,3.2,2.3,4.6,2.8
		c1.4,0.4,2.5,0.5,2.5,0.5l0.1,0l0.1,0L313.4,379.5"/>
</g>
<g id="c8-01">
	<path fill="#99D5C4" d="M342.8,140.7c1.1,1.3,2.2,2.5,3.4,3.4c2.1,1.7,4.2,2.7,6.5,2.9c3.8,0.3,7.2,2.4,10,5.3
		c2.9,2.8,5.4,6.4,7.6,10.2c4.4,7.6,7.3,15.7,7.8,20c0.1,0.9,0.3,0.9,0.3,1c0.1,0.1,0.5,0.2,1.3,0.3c1.7,0.2,4.4-0.3,7.4,1.2
		c2,1,3.5,3.1,4.1,6c0.3,1.3-0.5,2.7-1.9,3c-0.2,0-0.4,0.1-0.6,0.1c-1.1,0-2.2-0.8-2.4-1.9c-0.3-1.3-0.7-1.9-1.1-2.3
		c-0.4-0.4-0.7-0.6-1.3-0.7c-1.2-0.4-3.1-0.2-5.2-0.4c-1.4-0.1-3.2-0.6-4.5-2.3c-0.7-0.9-1.1-2-1.2-3.3c-0.3-2.2-1.9-7.4-4.4-12.7
		c-2.5-5.3-5.9-11-9.6-14.5c-2.4-2.4-4.9-3.7-6.9-3.9c-3.6-0.3-6.7-1.8-9.3-4c-1.5-1.3-3-2.8-4.3-4.4"/>
	<path fill="#62B295" d="M342.2,141.2c1.1,1.3,2.3,2.5,3.5,3.5l0,0l0,0c2.2,1.8,4.4,2.9,6.9,3.1c3.6,0.3,6.8,2.3,9.6,5h0
		c2.8,2.8,5.3,6.3,7.5,10.1l0,0c2.2,3.8,4,7.7,5.3,11.1c1.3,3.5,2.2,6.5,2.4,8.6l0,0l0,0c0.1,0.5,0.2,0.8,0.3,1
		c0.1,0.1,0.2,0.2,0.2,0.3l0.1,0l0,0l0,0h0l0,0l0,0l0.4-0.5l-0.6,0.4l0.1,0.1l0.4-0.5l-0.6,0.4l0,0.1l0,0c0.1,0.1,0.2,0.1,0.2,0.2
		c0.2,0.1,0.4,0.2,0.6,0.2c0.3,0.1,0.6,0.1,1,0.1l0-0.8l-0.1,0.7c0.9,0.1,2,0,3.2,0.1c1.2,0.1,2.5,0.3,3.9,1l0,0h0
		c1.7,0.9,3.2,2.8,3.8,5.5l0,0l0,0c0,0.1,0,0.3,0,0.4c0,0.8-0.5,1.5-1.3,1.7c-0.1,0-0.3,0-0.4,0c-0.8,0-1.5-0.5-1.7-1.3l0,0
		c-0.3-1.3-0.8-2.1-1.2-2.6l0,0l0,0c-0.4-0.5-1-0.8-1.6-0.9l-0.2,0.7l0.2-0.7c-0.7-0.2-1.5-0.2-2.4-0.3c-0.9,0-1.9,0-2.9-0.1h0h0
		c-0.6-0.1-1.4-0.2-2.1-0.5c-0.7-0.3-1.4-0.8-1.9-1.5c-0.6-0.8-0.9-1.8-1.1-2.9v0c-0.1-1.2-0.6-3.1-1.4-5.4
		c-0.8-2.3-1.8-4.9-3.1-7.6l0,0l0,0c-2.5-5.4-6-11.1-9.7-14.7l0,0l0,0c-2.5-2.4-5.1-3.9-7.4-4.1h0c-3.4-0.3-6.3-1.7-8.9-3.9
		c-1.5-1.2-2.9-2.7-4.2-4.3l-1.2,1c1.4,1.6,2.8,3.1,4.4,4.5c2.7,2.2,6,3.9,9.7,4.2h0c1.8,0.1,4.1,1.3,6.5,3.6l0,0
		c3.5,3.4,7,9,9.4,14.3l0,0c1.2,2.6,2.3,5.2,3,7.4c0.7,2.2,1.2,4,1.3,5l0,0v0c0.2,1.3,0.6,2.6,1.4,3.6c0.7,1,1.6,1.6,2.5,2
		c0.9,0.4,1.8,0.6,2.5,0.6l0,0c1.1,0.1,2.1,0.1,3,0.1c0.9,0,1.6,0.1,2,0.2l0,0l0,0c0.5,0.2,0.7,0.3,1,0.5l0.5-0.5l-0.5,0.5
		c0.2,0.3,0.6,0.8,0.9,1.9l0,0c0.4,1.5,1.7,2.5,3.2,2.5c0.2,0,0.5,0,0.8-0.1c1.5-0.4,2.5-1.7,2.5-3.2c0-0.2,0-0.5-0.1-0.8l-0.7,0.2
		l0.7-0.2c-0.7-3-2.3-5.3-4.5-6.5l0,0h0c-1.6-0.8-3.1-1.1-4.4-1.2c-1.3-0.1-2.5,0-3.2-0.1l0,0h0c-0.4,0-0.7-0.1-0.8-0.1l-0.2,0l0,0
		l-0.1,0.3l0.2-0.3l0,0l-0.1,0.3l0.2-0.3l-0.3,0.5l0.5-0.4l-0.1-0.1l-0.3,0.5l0.5-0.4l-0.5,0.5l0.6-0.4c-0.1-0.1-0.2-0.2-0.2-0.2
		l0,0l-0.3,0.4l0.4-0.3l-0.1-0.1l-0.3,0.4l0.4-0.3l-0.3,0.2l0.3-0.2l0,0l-0.3,0.2l0.3-0.2L379,183l0.1,0l0,0L379,183l0.1,0
		c0,0-0.1-0.2-0.1-0.6l-0.7,0.1l0.7-0.1c-0.3-2.2-1.2-5.4-2.5-8.9c-1.4-3.5-3.2-7.5-5.4-11.3l0,0c-2.2-3.8-4.8-7.5-7.8-10.4l0,0
		c-3-2.9-6.4-5.1-10.5-5.5c-2.2-0.2-4.1-1.1-6.1-2.7l0,0l0,0c-1.1-0.9-2.2-2-3.3-3.3L342.2,141.2"/>
	<path fill="#99D5C4" d="M366.6,145.7c-18,1.3-19.1,2.4-20.4,2.4h-38.1c-1.3,0-2.4-1.1-2.4-2.4V67c0-1.3,1.1-2.4,2.4-2.4h38.1
		c1.3,0,2.4,1.1,20.4,2.4V145.7"/>
	<path fill="#62B295" d="M366.6,145.7l-0.1-0.7c-9,0.7-13.8,1.2-16.5,1.7c-1.4,0.2-2.2,0.4-2.8,0.5c-0.6,0.1-0.8,0.2-1,0.2h-38.1
		c-0.9,0-1.6-0.7-1.6-1.6V67c0-0.9,0.7-1.6,1.6-1.6h38.1c0.2,0,0.5,0,1,0.2c0.9,0.2,2.3,0.5,5.2,0.9c2.9,0.4,7.3,0.8,14.1,1.3
		l0.1-0.7h-0.8v78.8H366.6l-0.1-0.7L366.6,145.7h0.8V66.3l-0.7-0.1c-9-0.6-13.7-1.2-16.4-1.7c-1.3-0.2-2.1-0.4-2.7-0.5
		c-0.6-0.1-0.9-0.2-1.4-0.2h-38.1c-1.7,0-3.1,1.4-3.1,3.1v78.8c0,1.7,1.4,3.1,3.1,3.1h38.1c0.4,0,0.8-0.1,1.4-0.2
		c0.8-0.2,2.2-0.5,5.1-0.8c2.9-0.4,7.2-0.8,14-1.3l0.7-0.1v-0.7H366.6"/>
</g>
<g id="c3-03">
	<rect x="92.3" y="317.4" fill="#E1E782" width="14.3" height="17.7"/>
	<polyline fill="#1C181C" points="106.6,335.1 106.6,334.8 92.6,334.8 92.6,317.7 106.3,317.7 106.3,335.1 106.6,335.1 106.6,334.8
		106.6,335.1 106.9,335.1 106.9,317.4 106.8,317.2 106.6,317.1 92.3,317.1 92.1,317.2 92,317.4 92,335.1 92.1,335.3 92.3,335.4
		106.6,335.4 106.8,335.3 106.9,335.1 106.6,335.1 	"/>
	<polyline fill="#1C181C" points="97.8,324.6 97.8,324.9 104.6,324.9 104.8,324.8 104.9,324.6 104.9,321.5 104.8,321.3 104.6,321.2
		97.8,321.2 97.5,321.3 97.5,321.5 97.5,324.6 97.5,324.8 97.8,324.9 97.8,324.6 98,324.6 98,321.8 104.3,321.8 104.3,324.3
		97.8,324.3 97.8,324.6 98,324.6 97.8,324.6 	"/>
	<path fill="#1C181C" d="M92.5,331h2.3c0.1,0,0.2-0.1,0.3-0.2l0.8-1.7l0.8,3.7c0,0.1,0.2,0.2,0.3,0.2c0.1,0,0.3-0.1,0.3-0.2l0.7-3.2
		l0.7,3.2c0,0.1,0.2,0.2,0.3,0.2c0.1,0,0.3-0.1,0.3-0.2l0.7-3.2l0.7,3.2c0,0.1,0.2,0.2,0.3,0.2c0.1,0,0.3-0.1,0.3-0.2l0.8-3.3
		l0.3,1.3c0,0.1,0.2,0.2,0.3,0.2h3.8c0.2,0,0.3-0.1,0.3-0.3c0-0.2-0.1-0.3-0.3-0.3H103l-0.6-2.3c0-0.1-0.2-0.2-0.3-0.2
		c-0.1,0-0.3,0.1-0.3,0.2l-0.7,3.2l-0.7-3.2c0-0.1-0.2-0.2-0.3-0.2c-0.1,0-0.3,0.1-0.3,0.2l-0.7,3.2l-0.7-3.2c0-0.1-0.2-0.2-0.3-0.2
		c-0.1,0-0.3,0.1-0.3,0.2l-0.7,3.2l-0.7-3.2c0-0.1-0.1-0.2-0.3-0.2c-0.1,0-0.2,0.1-0.3,0.2l-1.1,2.3h-2.2c-0.2,0-0.3,0.1-0.3,0.3
		C92.2,330.9,92.3,331,92.5,331"/>
	<path fill="#1C181C" d="M104.8,323.3h1.8c0.2,0,0.3-0.1,0.3-0.3c0-0.2-0.1-0.3-0.3-0.3h-1.8c-0.2,0-0.3,0.1-0.3,0.3
		C104.5,323.2,104.6,323.3,104.8,323.3"/>
	<path fill="#1C181C" d="M95.9,323.3h1.8c0.2,0,0.3-0.1,0.3-0.3c0-0.2-0.1-0.3-0.3-0.3h-1.8c-0.2,0-0.3,0.1-0.3,0.3
		C95.6,323.2,95.8,323.3,95.9,323.3"/>
	<path fill="#1C181C" d="M92.4,323.3h2.3c0.2,0,0.3-0.1,0.3-0.3c0-0.2-0.1-0.3-0.3-0.3h-2.3c-0.2,0-0.3,0.1-0.3,0.3
		C92.1,323.2,92.3,323.3,92.4,323.3"/>
	<path fill="#1C181C" d="M96.3,325.3v-4.6c0-0.2-0.1-0.3-0.3-0.3c-0.2,0-0.3,0.1-0.3,0.3v4.6c0,0.2,0.1,0.3,0.3,0.3
		C96.1,325.6,96.3,325.5,96.3,325.3"/>
	<path fill="#1C181C" d="M95.1,325.3v-4.6c0-0.2-0.1-0.3-0.3-0.3c-0.2,0-0.3,0.1-0.3,0.3v4.6c0,0.2,0.1,0.3,0.3,0.3
		C95,325.6,95.1,325.5,95.1,325.3"/>
</g>
<g id="c3-04">
	<rect x="189.6" y="352.6" fill="#E1E782" width="14.3" height="17.7"/>
	<polyline fill="#1C181C" points="203.9,370.3 203.9,370 189.9,370 189.9,352.9 203.6,352.9 203.6,370.3 203.9,370.3 203.9,370
		203.9,370.3 204.2,370.3 204.2,352.6 204.1,352.4 203.9,352.3 189.6,352.3 189.4,352.4 189.3,352.6 189.3,370.3 189.4,370.5
		189.6,370.6 203.9,370.6 204.1,370.5 204.2,370.3 203.9,370.3 	"/>
	<polyline fill="#1C181C" points="195.1,359.8 195.1,360.1 201.9,360.1 202.1,360 202.2,359.8 202.2,356.7 202.1,356.5 201.9,356.4
		195.1,356.4 194.8,356.5 194.8,356.7 194.8,359.8 194.8,360 195.1,360.1 195.1,359.8 195.4,359.8 195.4,357 201.6,357 201.6,359.5
		195.1,359.5 195.1,359.8 195.4,359.8 195.1,359.8 	"/>
	<path fill="#1C181C" d="M202.1,358.5h1.8c0.2,0,0.3-0.1,0.3-0.3c0-0.2-0.1-0.3-0.3-0.3h-1.8c-0.2,0-0.3,0.1-0.3,0.3
		C201.8,358.4,201.9,358.5,202.1,358.5"/>
	<path fill="#1C181C" d="M193.2,358.5h1.8c0.2,0,0.3-0.1,0.3-0.3c0-0.2-0.1-0.3-0.3-0.3h-1.8c-0.2,0-0.3,0.1-0.3,0.3
		C192.9,358.4,193.1,358.5,193.2,358.5"/>
	<path fill="#1C181C" d="M189.8,366.2h2.3c0.1,0,0.2-0.1,0.3-0.2l0.8-1.7l0.8,3.7c0,0.1,0.2,0.2,0.3,0.2c0.1,0,0.3-0.1,0.3-0.2
		l0.7-3.2l0.7,3.2c0,0.1,0.2,0.2,0.3,0.2c0.1,0,0.3-0.1,0.3-0.2l0.7-3.2l0.7,3.2c0,0.1,0.2,0.2,0.3,0.2c0.1,0,0.3-0.1,0.3-0.2
		l0.8-3.3l0.3,1.3c0,0.1,0.2,0.2,0.3,0.2h3.8c0.2,0,0.3-0.1,0.3-0.3c0-0.2-0.1-0.3-0.3-0.3h-3.5l-0.6-2.3c0-0.1-0.2-0.2-0.3-0.2
		c-0.1,0-0.3,0.1-0.3,0.2l-0.7,3.2l-0.7-3.2c0-0.1-0.2-0.2-0.3-0.2c-0.1,0-0.3,0.1-0.3,0.2l-0.7,3.2l-0.7-3.2c0-0.1-0.2-0.2-0.3-0.2
		s-0.3,0.1-0.3,0.2l-0.7,3.2l-0.7-3.2c0-0.1-0.1-0.2-0.3-0.2c-0.1,0-0.2,0.1-0.3,0.2l-1.1,2.3h-2.2c-0.2,0-0.3,0.1-0.3,0.3
		C189.5,366.1,189.6,366.2,189.8,366.2"/>
	<path fill="#1C181C" d="M189.8,358.5h2.3c0.2,0,0.3-0.1,0.3-0.3c0-0.2-0.1-0.3-0.3-0.3h-2.3c-0.2,0-0.3,0.1-0.3,0.3
		C189.5,358.4,189.6,358.5,189.8,358.5"/>
	<path fill="#1C181C" d="M193.6,360.5v-4.6c0-0.2-0.1-0.3-0.3-0.3c-0.2,0-0.3,0.1-0.3,0.3v4.6c0,0.2,0.1,0.3,0.3,0.3
		C193.4,360.8,193.6,360.7,193.6,360.5"/>
	<path fill="#1C181C" d="M192.4,360.5v-4.6c0-0.2-0.1-0.3-0.3-0.3c-0.2,0-0.3,0.1-0.3,0.3v4.6c0,0.2,0.1,0.3,0.3,0.3
		C192.3,360.8,192.4,360.7,192.4,360.5"/>
</g>
<g id="c3-01">
	<rect x="189.6" y="98.3" fill="#E1E782" width="14.3" height="17.7"/>
	<polyline fill="#1C181C" points="203.9,116 203.9,115.7 189.9,115.7 189.9,98.6 203.6,98.6 203.6,116 203.9,116 203.9,115.7
		203.9,116 204.2,116 204.2,98.3 204.1,98.1 203.9,98 189.6,98 189.4,98.1 189.3,98.3 189.3,116 189.4,116.2 189.6,116.3
		203.9,116.3 204.1,116.2 204.2,116 203.9,116 	"/>
	<path fill="#1C181C" d="M189.8,111.9h2.3c0.1,0,0.2-0.1,0.3-0.2l0.8-1.7l0.8,3.7c0,0.1,0.2,0.2,0.3,0.2c0.1,0,0.3-0.1,0.3-0.2
		l0.7-3.2l0.7,3.2c0,0.1,0.2,0.2,0.3,0.2c0.1,0,0.3-0.1,0.3-0.2l0.7-3.2l0.7,3.2c0,0.1,0.2,0.2,0.3,0.2c0.1,0,0.3-0.1,0.3-0.2
		l0.8-3.3l0.3,1.3c0,0.1,0.2,0.2,0.3,0.2h3.8c0.2,0,0.3-0.1,0.3-0.3c0-0.2-0.1-0.3-0.3-0.3h-3.5l-0.6-2.3c0-0.1-0.2-0.2-0.3-0.2
		c-0.1,0-0.3,0.1-0.3,0.2l-0.7,3.2l-0.7-3.2c0-0.1-0.2-0.2-0.3-0.2c-0.1,0-0.3,0.1-0.3,0.2l-0.7,3.2l-0.7-3.2c0-0.1-0.2-0.2-0.3-0.2
		s-0.3,0.1-0.3,0.2l-0.7,3.2l-0.7-3.2c0-0.1-0.1-0.2-0.3-0.2c-0.1,0-0.2,0.1-0.3,0.2l-1.1,2.3h-2.2c-0.2,0-0.3,0.1-0.3,0.3
		C189.5,111.8,189.6,111.9,189.8,111.9"/>
	<polyline fill="#1C181C" points="195.1,105.5 195.1,105.8 201.9,105.8 202.1,105.7 202.2,105.5 202.2,102.4 202.1,102.2
		201.9,102.1 195.1,102.1 194.8,102.2 194.8,102.4 194.8,105.5 194.8,105.7 195.1,105.8 195.1,105.5 195.4,105.5 195.4,102.7
		201.6,102.7 201.6,105.2 195.1,105.2 195.1,105.5 195.4,105.5 195.1,105.5 	"/>
	<path fill="#1C181C" d="M202.1,104.2h1.8c0.2,0,0.3-0.1,0.3-0.3c0-0.2-0.1-0.3-0.3-0.3h-1.8c-0.2,0-0.3,0.1-0.3,0.3
		C201.8,104.1,201.9,104.2,202.1,104.2"/>
	<path fill="#1C181C" d="M193.2,104.2h1.8c0.2,0,0.3-0.1,0.3-0.3c0-0.2-0.1-0.3-0.3-0.3h-1.8c-0.2,0-0.3,0.1-0.3,0.3
		C192.9,104.1,193.1,104.2,193.2,104.2"/>
	<path fill="#1C181C" d="M189.8,104.2h2.3c0.2,0,0.3-0.1,0.3-0.3c0-0.2-0.1-0.3-0.3-0.3h-2.3c-0.2,0-0.3,0.1-0.3,0.3
		C189.5,104.1,189.6,104.2,189.8,104.2"/>
	<path fill="#1C181C" d="M193.6,106.2v-4.6c0-0.2-0.1-0.3-0.3-0.3c-0.2,0-0.3,0.1-0.3,0.3v4.6c0,0.2,0.1,0.3,0.3,0.3
		C193.4,106.5,193.6,106.4,193.6,106.2"/>
	<path fill="#1C181C" d="M192.4,106.2v-4.6c0-0.2-0.1-0.3-0.3-0.3c-0.2,0-0.3,0.1-0.3,0.3v4.6c0,0.2,0.1,0.3,0.3,0.3
		C192.3,106.5,192.4,106.4,192.4,106.2"/>
</g>
<g id="c3-02">
	<rect x="91.3" y="154.2" fill="#E1E782" width="14.3" height="17.7"/>
	<polyline fill="#1C181C" points="105.6,171.9 105.6,171.6 91.6,171.6 91.6,154.5 105.3,154.5 105.3,171.9 105.6,171.9 105.6,171.6
		105.6,171.9 105.9,171.9 105.9,154.2 105.8,154 105.6,153.9 91.3,153.9 91.1,154 91,154.2 91,171.9 91.1,172.1 91.3,172.2
		105.6,172.2 105.8,172.1 105.9,171.9 105.6,171.9 	"/>
	<path fill="#1C181C" d="M91.5,167.8h2.3c0.1,0,0.2-0.1,0.3-0.2l0.8-1.7l0.8,3.7c0,0.1,0.2,0.2,0.3,0.2c0.1,0,0.3-0.1,0.3-0.2
		l0.7-3.2l0.7,3.2c0,0.1,0.2,0.2,0.3,0.2c0.1,0,0.3-0.1,0.3-0.2l0.7-3.2l0.7,3.2c0,0.1,0.2,0.2,0.3,0.2c0.1,0,0.3-0.1,0.3-0.2
		l0.8-3.3l0.3,1.3c0,0.1,0.2,0.2,0.3,0.2h3.8c0.2,0,0.3-0.1,0.3-0.3c0-0.2-0.1-0.3-0.3-0.3H102l-0.6-2.3c0-0.1-0.2-0.2-0.3-0.2
		c-0.1,0-0.3,0.1-0.3,0.2l-0.7,3.2l-0.7-3.2c0-0.1-0.2-0.2-0.3-0.2c-0.1,0-0.3,0.1-0.3,0.2l-0.7,3.2l-0.7-3.2c0-0.1-0.2-0.2-0.3-0.2
		c-0.1,0-0.3,0.1-0.3,0.2l-0.7,3.2l-0.7-3.2c0-0.1-0.1-0.2-0.3-0.2c-0.1,0-0.2,0.1-0.3,0.2l-1.1,2.3h-2.2c-0.2,0-0.3,0.1-0.3,0.3
		C91.2,167.7,91.3,167.8,91.5,167.8"/>
	<polyline fill="#1C181C" points="96.7,161.4 96.7,161.7 103.6,161.7 103.8,161.6 103.9,161.4 103.9,158.3 103.8,158.1 103.6,158
		96.7,158 96.5,158.1 96.4,158.3 96.4,161.4 96.5,161.6 96.7,161.7 96.7,161.4 97,161.4 97,158.6 103.3,158.6 103.3,161.1
		96.7,161.1 96.7,161.4 97,161.4 96.7,161.4 	"/>
	<path fill="#1C181C" d="M103.8,160.1h1.8c0.2,0,0.3-0.1,0.3-0.3s-0.1-0.3-0.3-0.3h-1.8c-0.2,0-0.3,0.1-0.3,0.3
		S103.6,160.1,103.8,160.1"/>
	<path fill="#1C181C" d="M94.9,160.1h1.8c0.2,0,0.3-0.1,0.3-0.3s-0.1-0.3-0.3-0.3h-1.8c-0.2,0-0.3,0.1-0.3,0.3
		S94.8,160.1,94.9,160.1"/>
	<path fill="#1C181C" d="M91.4,160.1h2.3c0.2,0,0.3-0.1,0.3-0.3s-0.1-0.3-0.3-0.3h-2.3c-0.2,0-0.3,0.1-0.3,0.3
		S91.3,160.1,91.4,160.1"/>
	<path fill="#1C181C" d="M95.2,162.1v-4.6c0-0.2-0.1-0.3-0.3-0.3c-0.2,0-0.3,0.1-0.3,0.3v4.6c0,0.2,0.1,0.3,0.3,0.3
		C95.1,162.4,95.2,162.3,95.2,162.1"/>
	<path fill="#1C181C" d="M94.1,162.1v-4.6c0-0.2-0.1-0.3-0.3-0.3c-0.2,0-0.3,0.1-0.3,0.3v4.6c0,0.2,0.1,0.3,0.3,0.3
		C94,162.4,94.1,162.3,94.1,162.1"/>
</g>
<g id="c6-02">
	<path fill="#E1E782" d="M56.9,332c0,0.9,0.7,1.6,1.6,1.6h28.3c0.9,0,1.6-0.7,1.6-1.6v-12.4c0-0.9-0.7-1.6-1.6-1.6H58.6
		c-0.9,0-1.6,0.7-1.6,1.6V332"/>
	<path fill="#1C181C" d="M56.9,332h-0.5c0,1.2,1,2.1,2.1,2.1h28.3c1.2,0,2.1-1,2.1-2.1v-12.4c0-1.2-1-2.1-2.1-2.1H58.6
		c-1.2,0-2.1,1-2.1,2.1V332h1v-12.4c0-0.6,0.5-1.1,1.1-1.1h28.3c0.6,0,1.1,0.5,1.1,1.1V332c0,0.6-0.5,1.1-1.1,1.1H58.6
		c-0.6,0-1.1-0.5-1.1-1.1H56.9"/>
</g>
<g id="c6-01">
	<path fill="#E1E782" d="M86.2,173.2c0.9,0,1.7-0.7,1.7-1.6l0.6-17.2c0-0.9-0.7-1.7-1.6-1.7l-29-1c-0.9,0-1.7,0.7-1.7,1.6l-0.6,17.2
		c0,0.9,0.7,1.7,1.6,1.7L86.2,173.2"/>
	<path fill="#1C181C" d="M86.2,173.2l0,0.5l0.1,0c1.1,0,2.1-0.9,2.1-2.1l0.6-17.2l0-0.1c0-1.1-0.9-2.1-2.1-2.1l-29-1l-0.1,0
		c-1.1,0-2.1,0.9-2.1,2.1l-0.6,17.2l0,0.1c0,1.1,0.9,2.1,2.1,2.1l29,1L86.2,173.2l0-0.5l-29-1c-0.6,0-1.1-0.5-1.1-1.1l0,0l0.6-17.2
		c0-0.6,0.5-1.1,1.1-1.1l0,0h0l29,1c0.6,0,1.1,0.5,1.1,1.1v0l-0.6,17.2c0,0.6-0.5,1.1-1.1,1.1l0,0h0L86.2,173.2"/>
	<path fill="#1C181C" d="M85.1,171.9l0,0.3h0.1c1,0,1.8-0.7,1.8-1.7l0.5-15.1l0-0.1c0-0.9-0.8-1.7-1.7-1.7l-26.7-0.9l-0.1,0
		c-1,0-1.8,0.7-1.8,1.7l-0.5,15.1l0,0.1c0,0.9,0.8,1.7,1.7,1.7l26.7,0.9L85.1,171.9l0-0.3l-26.7-0.9c-0.7,0-1.2-0.5-1.2-1.1v0
		l0.5-15.1c0-0.6,0.5-1.1,1.2-1.1h0l26.7,0.9c0.7,0,1.2,0.5,1.2,1.1v0l-0.5,15.1c0,0.6-0.5,1.1-1.2,1.1h0L85.1,171.9"/>
	<path fill="#1C181C" d="M63.1,153.3c0,0-0.1,2.7-0.1,3.5c0,0.3-0.1,0.6-0.4,0.8c-0.2,0.2-0.6,0.4-1.1,0.4l-0.1,0h0
		c-1.2,0-3.8-0.1-3.8-0.1c-0.2,0-0.3,0.1-0.3,0.3c0,0.2,0.1,0.3,0.3,0.3c0,0,2.6,0.1,3.8,0.1l0.1,0c0.6,0,1.2-0.2,1.5-0.5
		c0.4-0.3,0.5-0.8,0.5-1.2c0-0.8,0.1-3.4,0.1-3.5c0-0.2-0.1-0.3-0.3-0.3C63.2,153,63.1,153.1,63.1,153.3"/>
	<path fill="#1C181C" d="M81.1,153.9c0,0-0.1,2.7-0.1,3.5l0,0.1c0,0.4,0.2,0.9,0.5,1.3c0.3,0.3,0.9,0.6,1.5,0.6
		c1.2,0,3.8,0.1,3.8,0.1c0.2,0,0.3-0.1,0.3-0.3c0-0.2-0.1-0.3-0.3-0.3c0,0-2.6-0.1-3.8-0.1c-0.6,0-0.9-0.2-1.1-0.4
		c-0.2-0.2-0.3-0.5-0.3-0.8v0c0-0.8,0.1-3.4,0.1-3.5c0-0.2-0.1-0.3-0.3-0.3C81.2,153.6,81.1,153.7,81.1,153.9"/>
	<path fill="#1C181C" d="M60.3,157l0,0.3l0.1,0c0.9,0,1.7-0.7,1.7-1.6l0-0.1c0-0.9-0.7-1.7-1.6-1.7h0h-0.1c-0.9,0-1.7,0.7-1.7,1.6
		l0,0.1c0,0.9,0.7,1.7,1.6,1.7L60.3,157l0-0.3c-0.6,0-1.1-0.5-1.1-1.1v0c0-0.6,0.5-1.1,1.1-1.1h0c0.6,0,1.1,0.5,1.1,1.1v0
		c0,0.6-0.5,1.1-1.1,1.1l0,0L60.3,157"/>
	<path fill="#1C181C" d="M84.2,157.8l0,0.3l0.1,0c0.9,0,1.7-0.7,1.7-1.6l0-0.1c0-0.9-0.7-1.7-1.6-1.7h0l-0.1,0
		c-0.9,0-1.7,0.7-1.7,1.6l0,0.1c0,0.9,0.7,1.7,1.6,1.7L84.2,157.8l0-0.3c-0.6,0-1.1-0.5-1.1-1.1l0,0c0-0.6,0.5-1.1,1.1-1.1h0
		c0.6,0,1.1,0.5,1.1,1.1l0,0c0,0.6-0.5,1.1-1.1,1.1l0,0L84.2,157.8"/>
</g>
<g id="c7-01">
	<path fill="#AF90AE" d="M273.7,27.7c0,2.3-1.9,4.2-4.2,4.2c-2.3,0-4.2-1.9-4.2-4.2c0-2.3,1.9-4.2,4.2-4.2
		C271.8,23.4,273.7,25.3,273.7,27.7"/>
	<path fill="#8D4792" d="M273.7,27.7h-0.5c0,1-0.4,2-1.1,2.6c-0.7,0.7-1.6,1.1-2.6,1.1c-1,0-2-0.4-2.6-1.1c-0.7-0.7-1.1-1.6-1.1-2.6
		c0-1,0.4-2,1.1-2.6c0.7-0.7,1.6-1.1,2.6-1.1c1,0,2,0.4,2.6,1.1c0.7,0.7,1.1,1.6,1.1,2.6h1c0-2.6-2.1-4.7-4.7-4.7
		c-2.6,0-4.7,2.1-4.7,4.7c0,2.6,2.1,4.7,4.7,4.7c2.6,0,4.7-2.1,4.7-4.7H273.7"/>
	<polyline fill="#EF4337" points="262.5,34.7 263.2,34.7 263.2,21.2 275.9,21.2 275.9,33.9 262.5,33.9 262.5,34.7 263.2,34.7
		262.5,34.7 262.5,35.4 277.4,35.4 277.4,19.7 261.7,19.7 261.7,35.4 262.5,35.4 262.5,34.7 	"/>
</g>
<g id="c7-03">
	<polyline fill="#AF90AE" points="273.7,364.6 273.7,350.3 269,355.1 269,362.5 	"/>
	<polyline fill="#8D4792" points="274.2,364.6 274.2,349.1 268.5,354.9 268.5,362.5 269.5,362.5 269.5,355.3 273.2,351.5
		273.2,364.6 274.2,364.6 	"/>
	<path fill="#AF90AE" d="M273.7,364.6c0,2.3-1.9,4.2-4.2,4.2c-2.3,0-4.2-1.9-4.2-4.2c0-2.3,1.9-4.2,4.2-4.2
		C271.8,360.3,273.7,362.2,273.7,364.6"/>
	<path fill="#8D4792" d="M273.7,364.6h-0.5c0,1-0.4,2-1.1,2.6c-0.7,0.7-1.6,1.1-2.6,1.1c-1,0-2-0.4-2.6-1.1
		c-0.7-0.7-1.1-1.6-1.1-2.6s0.4-2,1.1-2.6c0.7-0.7,1.6-1.1,2.6-1.1c1,0,2,0.4,2.6,1.1c0.7,0.7,1.1,1.6,1.1,2.6h1
		c0-2.6-2.1-4.7-4.7-4.7c-2.6,0-4.7,2.1-4.7,4.7c0,2.6,2.1,4.7,4.7,4.7c2.6,0,4.7-2.1,4.7-4.7H273.7"/>
	<polyline fill="#EF4337" points="262,371.5 262.7,371.5 262.7,346.6 276.5,346.6 276.5,370.8 262,370.8 262,371.5 262.7,371.5
		262,371.5 262,372.3 278,372.3 278,345.1 261.2,345.1 261.2,372.3 262,372.3 262,371.5 	"/>
</g>
<g id="c2-02">
	<polyline fill="#3CC1CE" points="337.8,334.2 279.8,313.5 281.4,309 339.3,329.8 337.8,334.2 	"/>
	<polyline fill="#3C75BB" points="337.8,334.2 338,333.5 280.8,313 281.8,310 338.4,330.2 337.1,334 337.8,334.2 338,333.5
		337.8,334.2 338.5,334.5 340.3,329.3 280.9,308.1 278.9,314 338.2,335.2 338.5,334.5 337.8,334.2 	"/>
</g>
<g id="c2-01">
	<polyline fill="#3CC1CE" points="258.5,342.2 169.2,322 170.1,317.4 259.5,337.6 258.5,342.2 	"/>
	<polyline fill="#3C75BB" points="258.5,342.2 258.6,341.5 170.1,321.4 170.7,318.3 258.6,338.2 257.7,342 258.5,342.2 258.6,341.5
		258.5,342.2 259.2,342.4 260.3,337 169.6,316.5 168.3,322.6 259,343.1 259.2,342.4 258.5,342.2 	"/>
</g>
<g id="c7-02">
	<path fill="#AF90AE" d="M273.7,186.7c0-2.3-1.9-4.2-4.2-4.2c-2.3,0-4.2,1.9-4.2,4.2c0,2.3,1.9,4.2,4.2,4.2
		C271.8,191,273.7,189.1,273.7,186.7"/>
	<path fill="#8D4792" d="M273.7,186.7h0.5c0-2.6-2.1-4.7-4.7-4.7c-2.6,0-4.7,2.1-4.7,4.7s2.1,4.7,4.7,4.7c2.6,0,4.7-2.1,4.7-4.7h-1
		c0,1-0.4,2-1.1,2.6c-0.7,0.7-1.6,1.1-2.6,1.1c-1,0-2-0.4-2.6-1.1c-0.7-0.7-1.1-1.6-1.1-2.6c0-1,0.4-2,1.1-2.6
		c0.7-0.7,1.6-1.1,2.6-1.1c1,0,2,0.4,2.6,1.1c0.7,0.7,1.1,1.6,1.1,2.6H273.7"/>
	<polyline fill="#EF4337" points="262.5,179.8 261.7,179.8 261.7,194.7 277.4,194.7 277.4,179 261.7,179 261.7,179.8 262.5,179.8
		262.5,180.5 275.9,180.5 275.9,193.2 263.2,193.2 263.2,179.8 262.5,179.8 262.5,180.5 262.5,179.8 	"/>
</g>
<path fill="#07030B" d="M378,369.7h-0.2c0,1.5-1.2,2.7-2.7,2.7c-1.5,0-2.7-1.2-2.7-2.7c0-1.5,1.2-2.7,2.7-2.7c1.5,0,2.7,1.2,2.7,2.7
	h0.3c0-1.7-1.3-3-3-3c-1.6,0-3,1.3-3,3c0,1.7,1.3,3,3,3c1.7,0,3-1.3,3-3H378"/>
<path fill="#07030B" d="M376.7,364.3h-0.2c0,0.8-0.6,1.4-1.4,1.4c-0.8,0-1.4-0.6-1.4-1.4c0-0.8,0.6-1.4,1.4-1.4
	c0.8,0,1.4,0.6,1.4,1.4h0.3c0-1-0.8-1.7-1.7-1.7c-1,0-1.7,0.8-1.7,1.7c0,1,0.8,1.7,1.7,1.7c1,0,1.7-0.8,1.7-1.7H376.7"/>
<path fill="#07030B" d="M398,369.7h-0.2c0,6.3-2.5,12-6.7,16.1c-4.1,4.1-9.8,6.7-16.1,6.7c-6.3,0-12-2.5-16.1-6.7
	c-4.1-4.1-6.7-9.8-6.7-16.1c0-6.3,2.5-12,6.7-16.1c4.1-4.1,9.8-6.7,16.1-6.7c6.3,0,12,2.5,16.1,6.7c4.1,4.1,6.7,9.8,6.7,16.1h0.3
	c0-12.7-10.3-23-23-23c-12.7,0-23,10.3-23,23c0,12.7,10.3,23,23,23c12.7,0,23-10.3,23-23H398"/>
<path fill="#07030B" d="M335.4,361.6c3.9-17.4,20.2-30.4,39.7-30.4c20.7,0,37.8,14.7,40.3,33.6l0.1,0l-0.2,0c0,0,0.2,2.1,0.3,4.5
	c0.2,2.4,0.3,5.3,0.3,6.8h0.3c0-3.1-0.6-11.3-0.6-11.3v0c-2.6-19.1-19.8-33.9-40.6-33.9c-19.6,0-36,13.1-40,30.6L335.4,361.6"/>
<path fill="#07030B" d="M333.2,360c5.1-17.9,21.9-31,41.9-31c22.1,0,40.4,16.1,43.1,36.9l0.1,0l-0.1,0c0,0,0.2,2.3,0.3,4.9
	c0.2,2.7,0.3,5.8,0.3,7.5h0.3c0-3.4-0.7-12.4-0.7-12.4l0,0v0c-2.7-21-21.1-37.2-43.4-37.2c-20.1,0-37,13.2-42.1,31.2L333.2,360"/>
<path fill="#07030B" d="M408.1,369.7h-0.5c0,9-3.6,17.1-9.5,23c-5.9,5.9-14,9.5-23,9.5c-9,0-17.1-3.6-23-9.5c-5.9-5.9-9.5-14-9.5-23
	c0-9,3.6-17.1,9.5-23c5.9-5.9,14-9.5,23-9.5c9,0,17.1,3.6,23,9.5c5.9,5.9,9.5,14,9.5,23h1c0-18.5-15-33.5-33.5-33.5
	c-18.5,0-33.5,15-33.5,33.5c0,18.5,15,33.5,33.5,33.5c18.5,0,33.5-15,33.5-33.5H408.1"/>
<path fill="#07030B" d="M370.4,366.5l0,0.1c0.6,0.2,1,0.8,1,1.4c0,0.1,0,0.3-0.1,0.4c-0.2,0.6-0.8,1-1.4,1c-0.1,0-0.3,0-0.4-0.1
	c-0.6-0.2-1-0.8-1-1.4c0-0.1,0-0.3,0.1-0.4c0.2-0.6,0.8-1,1.4-1c0.1,0,0.3,0,0.4,0.1L370.4,366.5l0-0.1c-0.2-0.1-0.4-0.1-0.5-0.1
	c-0.7,0-1.4,0.5-1.7,1.2c-0.1,0.2-0.1,0.4-0.1,0.5c0,0.7,0.5,1.4,1.2,1.7c0.2,0.1,0.4,0.1,0.5,0.1c0.7,0,1.4-0.5,1.7-1.2
	c0.1-0.2,0.1-0.4,0.1-0.5c0-0.7-0.5-1.4-1.2-1.7L370.4,366.5"/>
<path fill="#07030B" d="M370.7,373.2l0.1,0.1c0.3-0.4,0.7-0.6,1.2-0.6c0.3,0,0.6,0.1,0.8,0.3c0.4,0.3,0.6,0.7,0.6,1.2
	c0,0.3-0.1,0.6-0.3,0.8c-0.3,0.4-0.7,0.6-1.2,0.6c-0.3,0-0.6-0.1-0.8-0.3c-0.4-0.3-0.6-0.7-0.6-1.2c0-0.3,0.1-0.6,0.3-0.8
	L370.7,373.2l-0.1-0.1c-0.2,0.3-0.3,0.7-0.3,1c0,0.5,0.2,1.1,0.7,1.4c0.3,0.2,0.7,0.3,1,0.3c0.5,0,1.1-0.2,1.4-0.7
	c0.2-0.3,0.3-0.7,0.3-1c0-0.5-0.2-1.1-0.7-1.4c-0.3-0.2-0.7-0.3-1-0.3c-0.5,0-1.1,0.2-1.4,0.7L370.7,373.2"/>
<path fill="#07030B" d="M377.1,375.1l0.1-0.1c-0.2-0.3-0.3-0.6-0.3-0.8c0-0.4,0.2-0.9,0.6-1.2c0.3-0.2,0.6-0.3,0.8-0.3
	c0.4,0,0.9,0.2,1.2,0.6c0.2,0.3,0.3,0.6,0.3,0.8c0,0.4-0.2,0.9-0.6,1.2c-0.3,0.2-0.6,0.3-0.8,0.3c-0.4,0-0.9-0.2-1.2-0.6
	L377.1,375.1l-0.1,0.1c0.3,0.5,0.9,0.7,1.4,0.7c0.4,0,0.7-0.1,1-0.3c0.5-0.3,0.7-0.9,0.7-1.4c0-0.4-0.1-0.7-0.3-1
	c-0.3-0.5-0.9-0.7-1.4-0.7c-0.4,0-0.7,0.1-1,0.3c-0.5,0.3-0.7,0.9-0.7,1.4c0,0.4,0.1,0.7,0.3,1L377.1,375.1"/>
<path fill="#07030B" d="M380.9,369.5l0-0.1c-0.1,0-0.3,0.1-0.4,0.1c-0.6,0-1.2-0.4-1.4-1c0-0.1-0.1-0.3-0.1-0.4c0-0.6,0.4-1.2,1-1.4
	c0.1,0,0.3-0.1,0.4-0.1c0.6,0,1.2,0.4,1.4,1c0,0.1,0.1,0.3,0.1,0.4c0,0.6-0.4,1.2-1,1.4L380.9,369.5l0,0.1c0.7-0.2,1.2-0.9,1.2-1.7
	c0-0.2,0-0.4-0.1-0.5c-0.2-0.7-0.9-1.2-1.7-1.2c-0.2,0-0.4,0-0.5,0.1c-0.7,0.2-1.2,0.9-1.2,1.7c0,0.2,0,0.4,0.1,0.5
	c0.2,0.7,0.9,1.2,1.7,1.2c0.2,0,0.4,0,0.5-0.1L380.9,369.5"/>
<path fill="#07030B" d="M364.2,384.8l0.1-0.1c-1.8-1.3-3.3-2.9-4.5-4.6l-0.1,0.1l0.1,0.1c2.2-1.5,4.3-2.5,5.9-3.2
	c0.8-0.3,1.4-0.6,1.9-0.8c0.4-0.2,0.7-0.2,0.7-0.2l0-0.1l0,0.1c0.1,0,0.3,0,0.4,0c0.6,0,1.1,0.2,1.6,0.5c0.6,0.4,1,1.1,1.1,1.8
	l0.1,0l-0.1,0v0c0,0.5,0,4.5-1.4,9.3l0.1,0l0-0.1c-2-0.6-4-1.5-5.8-2.8L364.2,384.8l-0.1,0.1c1.8,1.3,3.8,2.3,5.9,2.9l0.1,0l0-0.1
	c1.3-4.8,1.4-8.8,1.4-9.3v-0.1l0,0c-0.1-0.8-0.5-1.5-1.2-2c-0.5-0.4-1.2-0.6-1.8-0.6c-0.2,0-0.3,0-0.5,0l0,0l0,0
	c0,0-4.1,1.3-8.5,4.2l-0.1,0.1l0.1,0.1c1.2,1.8,2.7,3.4,4.6,4.7L364.2,384.8"/>
<path fill="#07030B" d="M369.9,387.6c0,0-0.9,2.8-1.3,4.1l0.3,0.1c0.4-1.2,1.3-4,1.3-4L369.9,387.6"/>
<path fill="#07030B" d="M359.5,380.1c0,0-2.4,1.7-3.5,2.4l0.2,0.2c1.1-0.7,3.5-2.4,3.5-2.4L359.5,380.1"/>
<path fill="#07030B" d="M386.2,384.8l-0.1-0.1c-1.8,1.3-3.8,2.3-5.8,2.8l0,0.1l0.1,0c-1.3-4.7-1.4-8.8-1.4-9.3v0l-0.1,0l0.1,0
	c0.1-0.7,0.5-1.3,1.1-1.8c0.5-0.3,1-0.5,1.6-0.5c0.1,0,0.3,0,0.4,0l0-0.1l0,0.1c0,0,0.2,0.1,0.7,0.2c1.3,0.5,4.4,1.8,7.7,3.9
	l0.1-0.1l-0.1-0.1c-1.2,1.7-2.7,3.3-4.5,4.6L386.2,384.8l0.1,0.1c1.8-1.3,3.4-2.9,4.6-4.7l0.1-0.1l-0.1-0.1
	c-4.4-2.9-8.5-4.2-8.5-4.2l0,0h0c-0.2,0-0.3,0-0.5,0c-0.6,0-1.2,0.2-1.8,0.6c-0.7,0.5-1.1,1.2-1.2,2l0,0l0,0v0c0,0.5,0,4.6,1.4,9.3
	l0,0.1l0.1,0c2.1-0.6,4.1-1.5,5.9-2.9L386.2,384.8"/>
<path fill="#07030B" d="M390.6,380.3c0,0,2.4,1.7,3.5,2.4l0.2-0.2c-1.1-0.7-3.5-2.4-3.5-2.4L390.6,380.3"/>
<path fill="#07030B" d="M380.2,387.8c0,0,0.9,2.8,1.3,4l0.3-0.1c-0.4-1.2-1.3-4-1.3-4L380.2,387.8"/>
<path fill="#07030B" d="M393,363.9l-0.1,0c0.6,1.9,0.9,3.8,0.9,5.7c0,0.2,0,0.4,0,0.7l0.1,0l0-0.1c-2.6-0.1-4.9-0.5-6.6-0.9
	c-0.8-0.2-1.5-0.4-2-0.5c-0.5-0.1-0.7-0.2-0.7-0.2l0,0.1l0.1-0.1c-0.6-0.3-1.1-0.9-1.3-1.6c-0.1-0.3-0.1-0.6-0.1-0.8
	c0-0.4,0.1-0.9,0.3-1.2l-0.1-0.1l0.1,0.1c0,0,0.2-0.2,0.4-0.6c0.9-1.1,3-3.7,6.1-6.1l-0.1-0.1l-0.1,0.1c1.3,1.7,2.3,3.6,3,5.7
	L393,363.9l0.1,0c-0.7-2.2-1.8-4.1-3.1-5.8l-0.1-0.1l-0.1,0.1c-4.1,3.3-6.6,6.8-6.6,6.8l0,0l0,0c-0.2,0.4-0.3,0.9-0.3,1.4
	c0,0.3,0,0.6,0.1,0.9c0.3,0.8,0.8,1.4,1.5,1.8l0,0l0,0c0,0,4.1,1.4,9.3,1.6l0.2,0l0-0.2c0-0.2,0-0.5,0-0.7c0-1.9-0.3-3.9-0.9-5.8
	L393,363.9"/>
<path fill="#07030B" d="M390,358.3c0,0,2.4-1.8,3.4-2.5l-0.2-0.2c-1,0.8-3.4,2.5-3.4,2.5L390,358.3"/>
<path fill="#07030B" d="M393.9,370.5c0,0,2.9,0,4.2,0.1l0-0.3c-1.3,0-4.2-0.1-4.2-0.1L393.9,370.5"/>
<path fill="#07030B" d="M375.2,351v0.2c2.2,0,4.4,0.4,6.3,1.1l0.1-0.1l-0.1-0.1c-0.9,2.5-2,4.5-2.9,6c-0.4,0.7-0.8,1.3-1.1,1.7
	c-0.3,0.4-0.4,0.6-0.4,0.6l0.1,0.1l-0.1-0.1c-0.5,0.5-1.2,0.8-1.9,0.8c-0.7,0-1.4-0.3-1.9-0.8l-0.1,0.1l0.1-0.1c0,0-0.2-0.2-0.4-0.6
	c-0.8-1.2-2.6-4-3.9-7.7l-0.1,0.1l0.1,0.1c2-0.7,4.1-1.1,6.4-1.1v-0.3c-2.3,0-4.4,0.4-6.5,1.1l-0.1,0.1l0.1,0.1
	c1.8,5,4.4,8.4,4.4,8.4l0,0l0,0c0.5,0.5,1.3,0.9,2.1,0.9c0.8,0,1.6-0.3,2.1-0.9l0,0l0,0c0,0,2.6-3.4,4.4-8.4l0.1-0.1l-0.1-0.1
	c-2-0.7-4.2-1.1-6.5-1.1V351"/>
<path fill="#07030B" d="M368.9,352.1c0,0-0.9-2.8-1.4-4l-0.3,0.1c0.4,1.2,1.4,4,1.4,4L368.9,352.1"/>
<path fill="#07030B" d="M381.8,352.1c0,0,0.9-2.8,1.4-4l-0.3-0.1c-0.4,1.2-1.4,4-1.4,4L381.8,352.1"/>
<path fill="#07030B" d="M357.4,363.9l0.1,0c0.7-2.1,1.7-4,3-5.7l-0.1-0.1l-0.1,0.1c2.1,1.6,3.7,3.3,4.8,4.6c0.6,0.6,1,1.2,1.3,1.5
	s0.4,0.6,0.4,0.6l0.1-0.1l-0.1,0.1c0.2,0.4,0.3,0.8,0.3,1.2c0,0.3,0,0.6-0.1,0.8c-0.2,0.7-0.7,1.3-1.3,1.6l0.1,0.1l0-0.1
	c0,0-0.2,0.1-0.7,0.2c-1.4,0.4-4.6,1.2-8.6,1.4l0,0.2l0.1,0c0-0.2,0-0.4,0-0.7c0-1.9,0.3-3.8,0.9-5.7L357.4,363.9l-0.1,0
	c-0.6,1.9-0.9,3.9-0.9,5.8c0,0.2,0,0.5,0,0.7l0,0.2l0.2,0c5.3-0.2,9.3-1.6,9.3-1.6l0,0l0,0c0.7-0.3,1.2-1,1.5-1.8
	c0.1-0.3,0.1-0.6,0.1-0.9c0-0.5-0.1-0.9-0.3-1.4l0,0l0,0c0,0-2.5-3.5-6.6-6.8l-0.1-0.1l-0.1,0.1c-1.3,1.7-2.4,3.6-3.1,5.8
	L357.4,363.9"/>
<path fill="#07030B" d="M356.5,370.2c0,0-2.9,0-4.2,0.1l0,0.3c1.3,0,4.2-0.1,4.2-0.1L356.5,370.2"/>
<path fill="#07030B" d="M360.5,358c0,0-2.4-1.8-3.4-2.5l-0.2,0.2c1,0.8,3.4,2.5,3.4,2.5L360.5,358"/>
<path fill="#07030B" d="M367.1,367.1c0,0,0,0.1-0.1,0.2c-0.4,0.9-2.2,5.1-9.3,11.5l0.2,0.2c8.1-7.3,9.4-11.8,9.4-11.8L367.1,367.1"
	/>
<path fill="#07030B" d="M370,376.7c0,0,0.1,0,0.2,0.1c0.8,0.6,4.2,3.7,8.1,12.4l0.3-0.1c-4.5-9.9-8.3-12.6-8.4-12.6L370,376.7"/>
<path fill="#07030B" d="M380.1,376.8c0,0,0.1,0,0.2-0.1c0.8-0.5,4.8-2.9,14.3-3.9l0-0.3c-10.8,1.2-14.6,4-14.6,4L380.1,376.8"/>
<path fill="#07030B" d="M383.4,367.3c0,0,0-0.1-0.1-0.3c-0.1-0.6-0.4-2-0.4-4.6c0-2.4,0.3-5.7,1.2-10.1l-0.3-0.1
	c-0.9,4.4-1.2,7.8-1.2,10.2c0,3.4,0.5,4.9,0.5,4.9L383.4,367.3"/>
<path fill="#07030B" d="M375.3,361.2L375.3,361.2c-0.4,0-5.1-0.1-14-5.3l-0.1,0.3c9,5.2,13.7,5.3,14.1,5.3h0L375.3,361.2"/>
<path fill="#07030B" d="M104.6,369.7h-0.1c0,1.5-1.2,2.7-2.7,2.7c-1.5,0-2.7-1.2-2.7-2.7c0-1.5,1.2-2.7,2.7-2.7
	c1.5,0,2.7,1.2,2.7,2.7h0.3c0-1.7-1.3-3-3-3c-1.7,0-3,1.3-3,3c0,1.7,1.3,3,3,3c1.6,0,3-1.3,3-3H104.6"/>
<path fill="#07030B" d="M103.3,364.3h-0.1c0,0.8-0.6,1.4-1.4,1.4c-0.8,0-1.4-0.6-1.4-1.4c0-0.8,0.6-1.4,1.4-1.4
	c0.8,0,1.4,0.6,1.4,1.4h0.3c0-1-0.8-1.7-1.7-1.7c-1,0-1.7,0.8-1.7,1.7c0,1,0.8,1.7,1.7,1.7c1,0,1.7-0.8,1.7-1.7H103.3"/>
<path fill="#07030B" d="M124.6,369.7h-0.1c0,6.3-2.5,12-6.7,16.1c-4.1,4.1-9.8,6.7-16.1,6.7c-6.3,0-12-2.5-16.1-6.7
	c-4.1-4.1-6.7-9.8-6.7-16.1c0-6.3,2.5-12,6.7-16.1c4.1-4.1,9.8-6.7,16.1-6.7c6.3,0,12,2.5,16.1,6.7c4.1,4.1,6.7,9.8,6.7,16.1h0.3
	c0-12.7-10.3-23-23-23c-12.7,0-23,10.3-23,23c0,12.7,10.3,23,23,23c12.7,0,23-10.3,23-23H124.6"/>
<path fill="#07030B" d="M37,380.8h23c1,0,1.6-0.6,1.9-1.2c0.3-0.6,0.4-1.1,0.4-1.2V368h-0.1l0.1,0c0.9-20.3,18.5-36.5,40-36.5
	c21.6,0,39.2,16.3,40,36.8l0.1,0h-0.1v15.4h0.3v-15.4c-0.8-20.6-18.5-37.1-40.3-37.1c-21.7,0-39.3,16.3-40.3,36.8l0,0v10.4h0.2
	l-0.1,0c0,0,0,0.1-0.1,0.3c-0.1,0.3-0.2,0.7-0.5,1.1c-0.3,0.4-0.7,0.6-1.4,0.6H37V380.8"/>
<path fill="#07030B" d="M60.8,373.2v-4.2h-0.1l0.1,0c1-22.1,19.5-39.6,42.1-39.6c22.8,0,41.3,17.8,42.1,40l0.1,0H145v0.4h0.3v-0.4
	c-0.8-22.4-19.5-40.3-42.4-40.3c-22.8,0-41.4,17.7-42.4,39.9v4.2H60.8"/>
<path fill="#07030B" d="M156.5,361.1c-6.2-24.1-27.8-41.9-53.4-41.9c-26.1,0-47.9,18.4-53.7,43.2l0.1,0l-0.1,0c0,0-0.2,0.7-0.5,1.8
	c-0.5,1.7-1.2,4.1-2.1,6.2c-0.4,1-0.8,2-1.3,2.6c-0.4,0.7-0.8,1-1.1,1v0.3c0.3,0,0.6-0.2,0.9-0.6c1-1.2,2.1-4,2.9-6.5
	c0.8-2.5,1.4-4.8,1.4-4.8l0,0l0,0c5.7-24.6,27.5-42.9,53.4-42.9c25.5,0,46.9,17.7,53.1,41.6L156.5,361.1"/>
<path fill="#07030B" d="M134.7,369.7h-0.5c0,9-3.6,17.1-9.5,23c-5.9,5.9-14,9.5-23,9.5c-9,0-17.1-3.6-23-9.5c-5.9-5.9-9.5-14-9.5-23
	c0-9,3.6-17.1,9.5-23c5.9-5.9,14-9.5,23-9.5c9,0,17.1,3.6,23,9.5c5.9,5.9,9.5,14,9.5,23h1c0-18.5-15-33.5-33.5-33.5
	c-18.5,0-33.5,15-33.5,33.5c0,18.5,15,33.5,33.5,33.5c18.5,0,33.5-15,33.5-33.5H134.7"/>
<path fill="#07030B" d="M97,366.5l0,0.1c0.6,0.2,1,0.8,1,1.4c0,0.1,0,0.3-0.1,0.4c-0.2,0.6-0.8,1-1.4,1c-0.1,0-0.3,0-0.4-0.1
	c-0.6-0.2-1-0.8-1-1.4c0-0.1,0-0.3,0.1-0.4c0.2-0.6,0.8-1,1.4-1c0.1,0,0.3,0,0.4,0.1L97,366.5l0-0.1c-0.2-0.1-0.4-0.1-0.5-0.1
	c-0.7,0-1.4,0.5-1.7,1.2c-0.1,0.2-0.1,0.4-0.1,0.5c0,0.7,0.5,1.4,1.2,1.7c0.2,0.1,0.4,0.1,0.5,0.1c0.7,0,1.4-0.5,1.7-1.2
	c0.1-0.2,0.1-0.4,0.1-0.5c0-0.7-0.5-1.4-1.2-1.7L97,366.5"/>
<path fill="#07030B" d="M97.3,373.2l0.1,0.1c0.3-0.4,0.7-0.6,1.2-0.6c0.3,0,0.6,0.1,0.9,0.3c0.4,0.3,0.6,0.7,0.6,1.2
	c0,0.3-0.1,0.6-0.3,0.8c-0.3,0.4-0.7,0.6-1.2,0.6c-0.3,0-0.6-0.1-0.8-0.3c-0.4-0.3-0.6-0.7-0.6-1.2c0-0.3,0.1-0.6,0.3-0.8
	L97.3,373.2l-0.1-0.1c-0.2,0.3-0.3,0.7-0.3,1c0,0.5,0.2,1.1,0.7,1.4c0.3,0.2,0.7,0.3,1,0.3c0.5,0,1.1-0.2,1.4-0.7
	c0.2-0.3,0.3-0.7,0.3-1c0-0.5-0.2-1.1-0.7-1.4c-0.3-0.2-0.7-0.3-1-0.3c-0.5,0-1.1,0.2-1.4,0.7L97.3,373.2"/>
<path fill="#07030B" d="M103.7,375.1l0.1-0.1c-0.2-0.3-0.3-0.6-0.3-0.8c0-0.4,0.2-0.9,0.6-1.2c0.3-0.2,0.6-0.3,0.8-0.3
	c0.4,0,0.9,0.2,1.2,0.6c0.2,0.3,0.3,0.6,0.3,0.8c0,0.4-0.2,0.9-0.6,1.2c-0.3,0.2-0.6,0.3-0.8,0.3c-0.4,0-0.9-0.2-1.2-0.6
	L103.7,375.1l-0.1,0.1c0.3,0.5,0.9,0.7,1.4,0.7c0.4,0,0.7-0.1,1-0.3c0.5-0.3,0.7-0.9,0.7-1.4c0-0.4-0.1-0.7-0.3-1
	c-0.3-0.5-0.9-0.7-1.4-0.7c-0.4,0-0.7,0.1-1,0.3c-0.5,0.3-0.7,0.9-0.7,1.4c0,0.4,0.1,0.7,0.3,1L103.7,375.1"/>
<g id="c1-07" display="none">
	<path display="inline" fill="#8FCBE3" d="M262.2,41.3c-1,0-1.8-0.5-1.8-1.2v-2.7c0-0.7,0.8-1.2,1.8-1.2h14.9c1,0,1.8,0.5,1.8,1.2
		v2.7c0,0.7-0.8,1.2-1.8,1.2H262.2"/>
	<path display="inline" fill="#415BA9" d="M262.2,41.3v-0.8c-0.4,0-0.7-0.1-0.9-0.2c-0.1-0.1-0.1-0.1-0.2-0.2l0-0.1v-2.7l0-0.1
		c0-0.1,0.1-0.2,0.3-0.2c0.2-0.1,0.4-0.1,0.7-0.1h14.9c0.4,0,0.7,0.1,0.9,0.2c0.1,0.1,0.1,0.1,0.2,0.2l0,0.1v2.7l0,0.1
		c0,0.1-0.1,0.2-0.3,0.2c-0.2,0.1-0.4,0.1-0.7,0.1h-14.9V42h14.9c0.6,0,1.2-0.2,1.7-0.5c0.2-0.2,0.4-0.4,0.6-0.6
		c0.2-0.2,0.3-0.6,0.3-0.9v-2.7c0-0.3-0.1-0.6-0.3-0.9c-0.2-0.4-0.6-0.6-1-0.8c-0.4-0.2-0.8-0.3-1.3-0.3h-14.9
		c-0.6,0-1.2,0.2-1.7,0.5c-0.2,0.2-0.4,0.4-0.6,0.6c-0.2,0.2-0.3,0.6-0.3,0.9v2.7c0,0.3,0.1,0.6,0.3,0.9c0.2,0.4,0.6,0.6,1,0.8
		c0.4,0.2,0.8,0.3,1.3,0.3V41.3"/>
</g>
<g id="c1-06" display="none">
	<path display="inline" fill="#8FCBE3" d="M262.2,173.1c-1,0-1.8,0.5-1.8,1.2v2.7c0,0.7,0.8,1.2,1.8,1.2h14.9c1,0,1.8-0.5,1.8-1.2
		v-2.7c0-0.7-0.8-1.2-1.8-1.2H262.2"/>
	<path display="inline" fill="#415BA9" d="M262.2,173.1v-0.8c-0.6,0-1.2,0.2-1.7,0.5c-0.2,0.2-0.4,0.4-0.6,0.6
		c-0.2,0.2-0.3,0.5-0.3,0.9v2.7c0,0.3,0.1,0.6,0.3,0.9c0.2,0.4,0.6,0.6,1,0.8c0.4,0.2,0.8,0.3,1.3,0.3h14.9c0.6,0,1.2-0.2,1.7-0.5
		c0.2-0.2,0.4-0.4,0.6-0.6c0.2-0.2,0.3-0.5,0.3-0.9v-2.7c0-0.3-0.1-0.6-0.3-0.9c-0.2-0.4-0.6-0.6-1-0.8c-0.4-0.2-0.8-0.3-1.3-0.3
		h-14.9v1.5h14.9c0.4,0,0.7,0.1,0.9,0.2c0.1,0.1,0.1,0.1,0.2,0.2l0,0.1v2.7l0,0.1c0,0.1-0.1,0.2-0.3,0.2c-0.2,0.1-0.4,0.1-0.7,0.1
		h-14.9c-0.4,0-0.7-0.1-0.9-0.2c-0.1-0.1-0.1-0.1-0.2-0.2l0-0.1v-2.7l0-0.1c0-0.1,0.1-0.2,0.3-0.2c0.2-0.1,0.4-0.1,0.7-0.1V173.1"/>
</g>
<path fill="#07030B" d="M107.5,369.5l0-0.1c-0.1,0-0.3,0.1-0.4,0.1c-0.6,0-1.2-0.4-1.4-1c0-0.1-0.1-0.3-0.1-0.4c0-0.6,0.4-1.2,1-1.4
	c0.1,0,0.3-0.1,0.4-0.1c0.6,0,1.2,0.4,1.4,1c0,0.1,0.1,0.3,0.1,0.4c0,0.6-0.4,1.2-1,1.4L107.5,369.5l0,0.1c0.7-0.2,1.2-0.9,1.2-1.7
	c0-0.2,0-0.4-0.1-0.5c-0.2-0.7-0.9-1.2-1.7-1.2c-0.2,0-0.4,0-0.5,0.1c-0.7,0.2-1.2,0.9-1.2,1.7c0,0.2,0,0.4,0.1,0.5
	c0.2,0.7,0.9,1.2,1.7,1.2c0.2,0,0.4,0,0.5-0.1L107.5,369.5"/>
<path fill="#07030B" d="M90.8,384.8l0.1-0.1c-1.8-1.3-3.3-2.9-4.5-4.6l-0.1,0.1l0.1,0.1c2.2-1.5,4.3-2.5,5.9-3.2
	c0.8-0.3,1.4-0.6,1.9-0.8c0.4-0.2,0.7-0.2,0.7-0.2l0-0.1l0,0.1c0.1,0,0.3,0,0.4,0c0.6,0,1.1,0.2,1.6,0.5c0.6,0.4,1,1.1,1.1,1.8
	l0.1,0l-0.1,0v0c0,0.5,0,4.5-1.4,9.3l0.1,0l0-0.1c-2-0.6-4-1.5-5.8-2.8L90.8,384.8l-0.1,0.1c1.8,1.3,3.8,2.3,5.9,2.9l0.1,0l0-0.1
	c1.3-4.8,1.4-8.8,1.4-9.3v-0.1l0,0c-0.1-0.8-0.5-1.5-1.2-2c-0.5-0.4-1.2-0.6-1.8-0.6c-0.2,0-0.3,0-0.5,0l0,0l0,0
	c0,0-4.1,1.3-8.5,4.2l-0.1,0.1l0.1,0.1c1.2,1.8,2.7,3.4,4.6,4.7L90.8,384.8"/>
<path fill="#07030B" d="M96.5,387.6c0,0-0.9,2.8-1.3,4.1l0.3,0.1c0.4-1.2,1.3-4,1.3-4L96.5,387.6"/>
<path fill="#07030B" d="M86.1,380.1c0,0-2.4,1.7-3.5,2.4l0.2,0.2c1.1-0.7,3.5-2.4,3.5-2.4L86.1,380.1"/>
<path fill="#07030B" d="M112.8,384.8l-0.1-0.1c-1.8,1.3-3.8,2.3-5.8,2.8l0,0.1l0.1,0c-1.3-4.7-1.4-8.8-1.4-9.3v0l-0.2,0l0.1,0
	c0.1-0.7,0.5-1.3,1.1-1.8c0.5-0.3,1-0.5,1.6-0.5c0.1,0,0.3,0,0.4,0l0-0.1l0,0.1c0,0,0.2,0.1,0.7,0.2c1.3,0.5,4.4,1.8,7.7,3.9
	l0.1-0.1l-0.1-0.1c-1.2,1.7-2.7,3.3-4.5,4.6L112.8,384.8l0.1,0.1c1.8-1.3,3.4-2.9,4.6-4.7l0.1-0.1l-0.1-0.1
	c-4.4-2.9-8.5-4.2-8.5-4.2l0,0h0c-0.2,0-0.3,0-0.5,0c-0.6,0-1.2,0.2-1.8,0.6c-0.7,0.5-1.1,1.2-1.2,2l0,0v0.1c0,0.5,0,4.6,1.4,9.3
	l0,0.1l0.1,0c2.1-0.6,4.1-1.5,5.9-2.9L112.8,384.8"/>
<path fill="#07030B" d="M117.2,380.3c0,0,2.4,1.7,3.5,2.4l0.2-0.2c-1.1-0.7-3.5-2.4-3.5-2.4L117.2,380.3"/>
<path fill="#07030B" d="M106.8,387.8c0,0,0.9,2.8,1.3,4l0.3-0.1c-0.4-1.2-1.3-4-1.3-4L106.8,387.8"/>
<path fill="#07030B" d="M119.6,363.9l-0.1,0c0.6,1.9,0.9,3.8,0.9,5.7c0,0.2,0,0.4,0,0.7l0.1,0l0-0.1c-2.6-0.1-4.9-0.5-6.6-0.9
	c-0.8-0.2-1.5-0.4-2-0.5c-0.5-0.1-0.7-0.2-0.7-0.2l0,0.1l0.1-0.1c-0.6-0.3-1.1-0.9-1.3-1.6c-0.1-0.3-0.1-0.6-0.1-0.8
	c0-0.4,0.1-0.8,0.3-1.2l-0.1-0.1l0.1,0.1c0,0,0.2-0.2,0.4-0.6c0.9-1.1,3-3.7,6.1-6.1l-0.1-0.1l-0.1,0.1c1.3,1.7,2.3,3.6,3,5.7
	L119.6,363.9l0.1,0c-0.7-2.2-1.8-4.1-3.1-5.8l-0.1-0.1l-0.1,0.1c-4.1,3.3-6.6,6.8-6.6,6.8l0,0l0,0c-0.2,0.4-0.3,0.9-0.3,1.4
	c0,0.3,0,0.6,0.1,0.9c0.3,0.8,0.8,1.4,1.5,1.8l0,0l0,0c0,0,4.1,1.4,9.3,1.6l0.2,0l0-0.2c0-0.2,0-0.5,0-0.7c0-1.9-0.3-3.9-0.9-5.8
	L119.6,363.9"/>
<path fill="#07030B" d="M116.6,358.3c0,0,2.4-1.8,3.4-2.5l-0.2-0.2c-1,0.8-3.4,2.5-3.4,2.5L116.6,358.3"/>
<path fill="#07030B" d="M120.5,370.5c0,0,2.9,0,4.2,0.1l0-0.3c-1.3,0-4.2-0.1-4.2-0.1L120.5,370.5"/>
<path fill="#07030B" d="M101.8,351v0.2c2.2,0,4.4,0.4,6.4,1.1l0.1-0.1l-0.1-0.1c-0.9,2.5-2,4.5-2.9,6c-0.4,0.7-0.8,1.3-1.1,1.7
	c-0.3,0.4-0.4,0.6-0.4,0.6l0.1,0.1l-0.1-0.1c-0.5,0.5-1.2,0.8-1.9,0.8c-0.7,0-1.4-0.3-1.9-0.8l-0.1,0.1l0.1-0.1c0,0-0.2-0.2-0.4-0.6
	c-0.8-1.2-2.6-4-3.9-7.7l-0.1,0.1l0.1,0.1c2-0.7,4.1-1.1,6.4-1.1v-0.3c-2.3,0-4.4,0.4-6.5,1.1l-0.1,0.1l0.1,0.1
	c1.8,5,4.4,8.4,4.4,8.4l0,0l0,0c0.5,0.5,1.3,0.9,2.1,0.9c0.8,0,1.6-0.3,2.1-0.9l0,0l0,0c0,0,2.6-3.4,4.4-8.4l0.1-0.1l-0.1-0.1
	c-2-0.7-4.2-1.1-6.5-1.1V351"/>
<path fill="#07030B" d="M95.5,352.1c0,0-0.9-2.8-1.4-4l-0.3,0.1c0.4,1.2,1.4,4,1.4,4L95.5,352.1"/>
<path fill="#07030B" d="M108.4,352.1c0,0,0.9-2.8,1.4-4l-0.3-0.1c-0.4,1.2-1.4,4-1.4,4L108.4,352.1"/>
<path fill="#07030B" d="M84,363.9l0.1,0c0.7-2.1,1.7-4,3-5.7l-0.1-0.1l-0.1,0.1c2.1,1.6,3.7,3.3,4.8,4.6c0.6,0.6,1,1.2,1.3,1.5
	c0.3,0.4,0.4,0.6,0.4,0.6l0.1-0.1l-0.1,0.1c0.2,0.4,0.3,0.8,0.3,1.2c0,0.3,0,0.6-0.1,0.8c-0.2,0.7-0.7,1.3-1.3,1.6l0.1,0.1l0-0.1
	c0,0-0.2,0.1-0.7,0.2c-1.4,0.4-4.6,1.2-8.6,1.4l0,0.2l0.1,0c0-0.2,0-0.4,0-0.7c0-1.9,0.3-3.8,0.9-5.7L84,363.9l-0.1,0
	c-0.6,1.9-0.9,3.9-0.9,5.8c0,0.2,0,0.5,0,0.7l0,0.2l0.2,0c5.3-0.2,9.3-1.6,9.3-1.6l0,0l0,0c0.7-0.3,1.2-1,1.5-1.8
	c0.1-0.3,0.1-0.6,0.1-0.9c0-0.5-0.1-0.9-0.3-1.4l0,0l0,0c0,0-2.5-3.5-6.6-6.8L87,358l-0.1,0.1c-1.3,1.7-2.4,3.6-3.1,5.8L84,363.9"/>
<path fill="#07030B" d="M83.1,370.2c0,0-2.9,0-4.2,0.1l0,0.3c1.3,0,4.2-0.1,4.2-0.1L83.1,370.2"/>
<path fill="#07030B" d="M87.1,358c0,0-2.4-1.8-3.4-2.5l-0.2,0.2c1,0.8,3.4,2.5,3.4,2.5L87.1,358"/>
<path fill="#07030B" d="M93.7,367.1c0,0,0,0.1-0.1,0.2c-0.4,0.9-2.2,5.1-9.3,11.5l0.2,0.2c8.1-7.3,9.4-11.8,9.4-11.8L93.7,367.1"/>
<path fill="#07030B" d="M96.6,376.7c0,0,0.1,0,0.2,0.1c0.8,0.6,4.2,3.7,8.1,12.4l0.3-0.1c-4.5-9.9-8.3-12.6-8.4-12.6L96.6,376.7"/>
<path fill="#07030B" d="M106.7,376.8c0,0,0.1,0,0.2-0.1c0.8-0.5,4.8-2.9,14.3-3.9l0-0.3c-10.8,1.2-14.6,4-14.6,4L106.7,376.8"/>
<path fill="#07030B" d="M110,367.3c0,0,0-0.1-0.1-0.3c-0.1-0.6-0.4-2-0.4-4.6c0-2.4,0.3-5.7,1.2-10.1l-0.3-0.1
	c-0.9,4.4-1.2,7.8-1.2,10.2c0,3.4,0.5,4.9,0.5,4.9L110,367.3"/>
<path fill="#07030B" d="M101.9,361.2L101.9,361.2c-0.4,0-5.1-0.1-14-5.3l-0.2,0.3c9,5.2,13.7,5.3,14.1,5.3h0L101.9,361.2"/>
<path fill="#07030B" d="M74.1,387.2c0,0-0.5,0-1.3-0.1c-3-0.3-10.4-1-17.9-2.2c-3.7-0.6-7.5-1.3-10.6-2.1c-3.1-0.8-5.7-1.7-7-2.7
	l-0.1-0.1H21.9v0.5l0-0.5c0,0-0.2,0-0.7,0c-1.5-0.1-5.1-0.3-8.4-0.9c-1.6-0.3-3.2-0.8-4.2-1.3c-0.5-0.3-1-0.6-1.2-0.9
	C7.1,376.6,7,376.3,7,376H6.5l0.5,0.1l-0.2,0l0.2,0.1l0,0l-0.2,0l0.2,0.1c0,0,0.1-0.4,0.7-0.8c0.6-0.4,1.6-0.9,3.5-1.2l0.4-0.1
	v-14.7h-5v3.5H4.3v-13l-0.1,0h0.1v0l-0.1,0h0.1c0-0.1,0-2.4,4.8-6.2l0.1-0.1l0-0.2l0-0.1c0.2-0.9,1.8-8.9,7.3-14.3l0.1-0.1l0-0.1
	l0-0.1c0.1-0.3,0.3-1.1,0.7-1.9c0.4-0.8,0.9-1.7,1.6-2.2c1.6-1.2,23.4-15.6,113.8-20.9l0.1,0l0.1-0.1c0,0,0.4-0.2,1.2-0.7
	c5.2-3,27.2-15.3,42.1-22.5c17-8.2,36.9-19.3,71.9-21.8c13.3-0.9,26.5-1.3,38.8-1.3c20.2,0,37.7,1,48.1,1.9
	c16.6,1.4,45.3,10.7,73.9,23.4l0.2-0.5l-0.2,0.5c0,0,5,2.3,10.4,4.7c2.7,1.2,5.6,2.4,8.1,3.4c2.5,1,4.5,1.7,5.6,2
	c0.6,0.1,1.5,0.2,2.8,0.3c8.9,0.8,32.9,1.6,34.4,1.6c0.3,0,0.5,0,0.7,0c0.7,0,1.3,0,1.6,0.2c0.2,0.1,0.3,0.2,0.4,0.3
	c0.1,0.1,0.1,0.3,0.1,0.5c0,1.6,0,10.1,0,10.1v0c0,0.1,0,0.4-0.2,0.8c-0.1,0.2-0.3,0.3-0.5,0.4c-0.2,0.1-0.5,0.2-1,0.2h-0.6l0.1,0.6
	c0,0,0.1,0.2,0.1,0.6c0.2,1.1,0.7,3.5,0.7,4.9c0,1,0.1,4.8,0.4,8.7c0.1,2,0.3,4,0.6,5.8c0.2,1.8,0.5,3.2,0.8,4.1
	c0.6,1.7,1.6,3.4,2.6,4.8c0.5,0.7,1,1.3,1.5,1.8c0.5,0.5,0.9,0.8,1.3,1.1c0.5,0.3,0.9,0.8,1.1,1.4c0.2,0.6,0.3,1.4,0.3,2.3v15.9l0,0
	l0,0.1c0,0.5-0.1,2.9-1.9,4.7c-1.1,1.1-3.3,3-5.3,4.6c-1,0.8-1.9,1.6-2.6,2.1c-0.7,0.5-1.1,0.9-1.1,0.9l-0.2,0.2v4.1h-11.1l-1.3,1.3
	l-38.9,3.6l-0.8,0.8h-0.5v-5.6l-0.6,0.2c0,0-0.9,0.2-2,0.7c-1.1,0.5-2.4,1.3-3.3,2.4c-0.8,1-1.8,2-2.9,2.8c-0.5,0.4-1.1,0.7-1.5,0.9
	c-0.5,0.2-0.9,0.3-1.2,0.3v1c0.5,0,1-0.2,1.6-0.4c1.7-0.8,3.5-2.4,4.8-4c0.7-0.9,1.9-1.6,2.9-2.1c0.5-0.2,1-0.4,1.3-0.5
	c0.2-0.1,0.3-0.1,0.4-0.1l0.1,0l-0.1-0.5h-0.5v6h2l0.8-0.8l38.9-3.6l1.2-1.2h11.7v-4.9h-0.5l0.3,0.4c0,0,1.7-1.4,3.7-3
	c2-1.6,4.2-3.5,5.3-4.7c2.1-2.1,2.2-4.8,2.2-5.4l0-0.1l-0.5,0h0.5V343c0-0.9-0.1-1.8-0.3-2.6c-0.3-0.8-0.7-1.5-1.5-1.9
	c-0.3-0.1-0.7-0.5-1.1-0.9c-1.3-1.3-3-3.7-3.8-6.2c-0.3-0.8-0.5-2.2-0.7-3.9c-0.7-5.2-1-13-1-14.4c0-1-0.2-2.4-0.4-3.6
	c-0.2-1.2-0.4-2.1-0.4-2.1l-0.5,0.1v0.5c0.6,0,1.1-0.1,1.5-0.4c0.6-0.3,0.9-0.9,1-1.3c0.1-0.4,0.1-0.7,0.1-0.8c0,0,0-8.5,0-10.1
	c0-0.4-0.1-0.8-0.3-1.1c-0.3-0.5-0.8-0.7-1.3-0.8c-0.5-0.1-1-0.1-1.5-0.1c-0.3,0-0.5,0-0.7,0c-0.8,0-9-0.3-17.5-0.6
	c-4.3-0.2-8.6-0.4-12.2-0.6c-1.8-0.1-3.3-0.2-4.6-0.3c-1.3-0.1-2.2-0.2-2.7-0.3c-1-0.2-3-0.9-5.5-1.9c-3.7-1.5-8.3-3.5-12-5.1
	c-1.8-0.8-3.5-1.6-4.6-2.1c-1.2-0.5-1.9-0.8-1.9-0.8l0,0c-28.6-12.8-57.4-22-74.2-23.5c-10.4-0.9-27.9-1.9-48.2-1.9
	c-12.3,0-25.5,0.4-38.8,1.3c-35.3,2.5-55.3,13.7-72.3,21.9c-17,8.2-43.3,23.2-43.3,23.2l0.2,0.4l0-0.5
	c-90.5,5.3-112.4,19.6-114.3,21.1c-1,0.8-1.6,2-2.1,3c-0.4,1-0.6,1.8-0.6,1.9l0.5,0.1l-0.3-0.4c-6.2,6-7.6,14.9-7.6,14.9l0.5,0.1
	l-0.3-0.4c-4.9,3.9-5.2,6.5-5.2,7l0,0.1l0.5,0H3.3v14h4.2v-3.5h3v13.3H11l-0.1-0.5c-2.1,0.3-3.3,0.9-4.1,1.5
	c-0.7,0.6-0.9,1.1-0.9,1.2l0,0.1v0.1c0,0.7,0.3,1.3,0.8,1.8c0.9,0.8,2.2,1.4,3.8,1.8c4.7,1.3,11.3,1.4,11.3,1.4H37v-0.5l-0.3,0.4
	c1.8,1.3,4.9,2.3,8.8,3.2c11.4,2.7,28.6,4.1,28.6,4.1L74.1,387.2"/>
<path fill="#07030B" d="M343.8,358.1c0,0-2,1.3-4.2,2.7c-2.1,1.4-4.4,2.9-4.9,3.3l-0.2,0.2v17.9l-192.4,1l0,0.5l0.1-0.5
	c0,0-0.4-0.1-1-0.3c-0.9-0.3-2.4-0.7-3.9-1.3c-1.5-0.5-3-1.2-3.9-1.7l-0.5,0.9c1.4,0.8,3.6,1.7,5.6,2.3c1.9,0.6,3.5,1.1,3.5,1.1
	l0.1,0l193.5-1v-18.7H335l0.3,0.4c0.5-0.3,2.8-1.9,4.9-3.3c1.1-0.7,2.1-1.4,2.9-1.9c0.8-0.5,1.3-0.8,1.3-0.8L343.8,358.1"/>
<rect x="10.4" y="374.1" fill="#07030B" width="51.5" height="0.3"/>
<rect x="16" y="359.7" fill="#07030B" width="0.3" height="14.4"/>
<path fill="#07030B" d="M11,360c0,0,8.2-0.6,11.6-1c1.4-0.2,3.1-0.5,4.5-0.5c0.7,0,1.2,0.1,1.6,0.3c0.4,0.2,0.6,0.5,0.6,1
	c0,0.3-0.1,0.8-0.4,1.4c-0.9,2-2.3,5.2-3.8,7.9c-0.8,1.4-1.6,2.6-2.4,3.5c-0.8,0.9-1.6,1.4-2.4,1.4v0.3c0.9,0,1.7-0.6,2.6-1.5
	c2.5-2.7,5-8.5,6.3-11.5c0.3-0.6,0.4-1.1,0.4-1.5c0-0.6-0.3-1-0.7-1.3c-0.5-0.2-1.1-0.3-1.7-0.3c-1.4,0-3.1,0.3-4.5,0.5
	c-1.7,0.2-4.6,0.5-7,0.7c-2.5,0.2-4.5,0.3-4.5,0.3L11,360"/>
<path fill="#07030B" d="M26.7,367.3c0,0,1.3-0.1,3.3-0.2c5.9-0.4,17.9-1.2,18.4-1.2v-0.3c-0.8,0-21.7,1.5-21.7,1.5L26.7,367.3"/>
<path fill="#07030B" d="M47.5,367.6c0,0-0.6,0.3-1.8,0.8c-3.4,1.4-11.4,4.3-20.3,4.5l0,0.3c11.9-0.3,22.2-5.3,22.2-5.3L47.5,367.6"
	/>
<polyline fill="#07030B" points="67.7,332.7 74.5,339.7 74.8,339.5 67.9,332.5 "/>
<path fill="#07030B" d="M5.3,349.2c0,0,0.1-0.1,0.3-0.3c1.4-1.5,8.3-7.7,25.1-11.1c19.2-3.8,33.4-5.9,40.8-9.5l-0.1-0.3
	c-7.3,3.6-21.5,5.7-40.7,9.5C11.4,341.4,5.1,349,5,349L5.3,349.2"/>
<path fill="#07030B" d="M9.5,342.8c0,0,0.7-0.9,2-2.3c3.7-4.3,11.9-13.4,18.2-17.1c8.5-5,24.4-12,90.4-18.9l0-0.3
	c-66,6.9-82,13.9-90.5,18.9c-8.5,5-20.3,19.5-20.3,19.5L9.5,342.8"/>
<path fill="#07030B" d="M24.4,327.1c0,0,1.9-0.3,5-0.8c9.2-1.5,28.7-4.5,37.5-5.5c2.4-0.3,4.2-0.4,5.5-0.4c1.1,0,1.8,0.1,2.3,0.2
	c0.2,0.1,0.4,0.2,0.5,0.2c0.1,0.1,0.1,0.2,0.1,0.3c0,0.1-0.1,0.4-0.3,0.6c-0.6,0.8-2.2,1.8-4.2,3c-5.7,3.4-10.8,5-19.7,6.7
	c-4.5,0.9-11.2,2.2-17.1,3.4c-3,0.6-5.7,1.2-7.9,1.7c-2.2,0.5-3.8,1-4.4,1.3c-0.8,0.4-1.8,0.7-2.7,0.7c-0.5,0-1-0.1-1.3-0.3
	c-0.3-0.2-0.5-0.6-0.5-1.2c0-0.9,0.6-2.5,2.1-4.7l-0.2-0.2c-1.6,2.3-2.2,3.8-2.2,4.9c0,0.7,0.2,1.1,0.7,1.4c0.4,0.3,0.9,0.4,1.5,0.4
	c1,0,2.1-0.3,2.9-0.8c0.6-0.3,2.2-0.8,4.3-1.3c6.5-1.6,18.2-3.8,24.9-5.1c8.9-1.8,14.1-3.4,19.8-6.8c1.4-0.8,2.5-1.5,3.3-2.2
	c0.4-0.3,0.7-0.6,1-0.9c0.2-0.3,0.4-0.5,0.4-0.8c0-0.2-0.1-0.4-0.2-0.5c-0.4-0.4-1.4-0.5-3-0.6c-1.3,0-3.1,0.1-5.5,0.4
	c-11.7,1.3-42.5,6.3-42.5,6.3L24.4,327.1"/>
<path fill="#07030B" d="M36.5,321.2c0,0,0.4-0.1,1.3-0.3c5.8-1.4,31.3-7.1,63.4-7.1c11.2,0,23.2,0.7,35.4,2.5l0-0.3
	c-12.3-1.8-24.3-2.5-35.5-2.5c-36.7,0-64.7,7.4-64.7,7.4L36.5,321.2"/>
<rect x="17.3" y="326" fill="#07030B" width="8.1" height="0.3"/>
<rect x="16.3" y="328.5" fill="#07030B" width="6" height="0.3"/>
<path fill="#07030B" d="M132.9,303.2c0,0,4.3-0.1,9.4-0.8c5.2-0.7,11.3-1.9,15.1-4.2c7.5-4.4,43.4-24.2,57.2-29.3
	c13.8-5.1,33.2-8.9,53.8-9.4c4-0.1,8.7-0.1,14-0.1c22.1,0,53,1,67,5.3c17.4,5.3,59.1,21.7,68.2,25.5c9.1,3.8,20,5.7,28.1,5.7
	c2.3,0,4.9,0,7.4,0c3.2,0,6.3,0,8.8-0.2c2.5-0.2,4.5-0.5,5.4-1l-0.2-0.3c-0.8,0.5-2.7,0.8-5.3,1c-2.5,0.2-5.7,0.2-8.8,0.2
	c-2.5,0-5.1,0-7.4,0c-8,0-18.9-1.9-27.9-5.7c-9.1-3.8-50.7-20.2-68.2-25.5c-14.1-4.3-44.9-5.3-67.1-5.3c-5.3,0-10.1,0.1-14,0.1
	c-20.5,0.4-40.1,4.3-53.9,9.4c-13.8,5.1-49.7,24.9-57.2,29.3c-3.7,2.2-9.8,3.4-15,4.1c-2.6,0.3-4.9,0.6-6.7,0.7
	c-1.7,0.1-2.8,0.2-2.8,0.2L132.9,303.2"/>
<path fill="#07030B" d="M470.9,294.4c0,0-9.1,1.3-14.7,4.3c-5.6,2.9-13.6,6.1-25,6.1c-11.4,0-83,2.5-83,2.5l0,0.3c0,0,1.1,0,3.1-0.1
	c13.8-0.5,69.9-2.4,79.9-2.4c11.5,0,19.6-3.2,25.1-6.2c2.8-1.5,6.4-2.5,9.4-3.2c1.5-0.3,2.8-0.6,3.7-0.8c0.9-0.2,1.5-0.3,1.5-0.3
	L470.9,294.4"/>
<polyline fill="#07030B" points="326.2,308.4 261.4,312.2 261.4,312.5 326.2,308.7 "/>
<polyline fill="#07030B" points="234,315.3 126.2,323.9 126.3,324.2 234,315.6 "/>
<path fill="#07030B" d="M152.2,374.1c0,0-0.1-0.1-0.2-0.3c-0.8-1.4-4.2-7.8-4.9-18.2c-0.3-4-0.4-8.7-0.4-13.3
	c0-9.2,0.5-18.3,0.8-21.6c0.6-4.9,4.1-12.4,10.6-16.6c6.6-4.3,38.9-27,60.2-33c21.4-6,40-7,60.4-7c20.4,0,51.7,1,66.8,9.2
	c6.8,3.7,12.9,7,17.2,10.3c4.4,3.3,7,6.7,7,10.4c0,0.8-0.1,1.7-0.4,2.6c-2.8,8.9-13.9,22.8-21.5,34.3c-7.6,11.4-15.2,24.1-18.8,29
	c-1.8,2.5-3.8,5.9-6.7,8.7c-2.9,2.8-6.5,4.9-11.3,4.9c-9.8,0-168.4,0.7-168.4,0.7l0,0.3c0,0,2.5,0,6.8,0c30.5-0.1,153-0.7,161.6-0.7
	c5,0,8.7-2.2,11.6-5c2.9-2.8,5-6.2,6.7-8.7c3.5-5,11.1-17.6,18.8-29c7.6-11.4,18.8-25.3,21.6-34.3c0.3-0.9,0.4-1.8,0.4-2.7
	c0-3.9-2.7-7.3-7.1-10.6c-4.4-3.3-10.5-6.7-17.3-10.3c-15.2-8.2-46.5-9.2-66.9-9.3c-20.4,0-39,1-60.4,7c-21.5,6-53.7,28.8-60.3,33
	c-6.6,4.3-10.2,11.8-10.8,16.8c-0.4,3.3-0.8,12.4-0.8,21.6c0,4.6,0.1,9.3,0.4,13.3c0.9,12.1,5.1,18.7,5.2,18.7L152.2,374.1"/>
<polyline fill="#07030B" points="148,363.6 329.2,360.1 329.1,359.8 147.9,363.3 "/>
<path fill="#07030B" d="M277,264.1l-7.5,38.4l0.1,0l-0.1-0.1c0,0-1,1.9-2,4.4c-1,2.4-2,5.3-2,7.3c0,2.7-0.7,20-0.7,33.5
	c0,5.4,0.1,10.3,0.5,13.4c0.6,5.4,1.3,8.6,2,10.3c0.4,0.9,0.8,1.5,1.2,1.8c0.4,0.3,0.8,0.5,1.2,0.5v-0.3c-0.3,0-0.7-0.1-1-0.4
	c-1.1-0.9-2.2-3.8-3.1-11.9c-0.3-3.1-0.5-7.9-0.5-13.4c0-13.6,0.7-30.8,0.7-33.5c0-1.9,1-4.8,2-7.2c0.5-1.2,1-2.3,1.4-3.1
	c0.4-0.8,0.6-1.3,0.6-1.3l0,0l7.5-38.4L277,264.1"/>
<path fill="#07030B" d="M151.2,311.3c0,0,1.7-0.1,4.4-0.3c8.2-0.5,25.9-1.5,35.7-1.9c13.1-0.6,71.6-5.7,79.2-5.7
	c7.6,0,81.1-4.5,97.9-4.5v-0.3c-16.9,0-90.3,4.5-97.9,4.5c-7.6,0-66.1,5.1-79.2,5.7c-13,0.6-40.2,2.2-40.2,2.2L151.2,311.3"/>
<path fill="#07030B" d="M185.5,307.5c2.1-0.1,4.1-0.2,5.9-0.3c13.1-0.6,71.6-5.7,79.2-5.7c6.5,0,60.5-3.3,86.9-4.3h0
	c0,0,2-0.1,3.9-0.8c1-0.3,2-0.8,2.7-1.4c0.8-0.6,1.3-1.5,1.3-2.5c0-0.6-0.3-1.2-0.9-2.1c-2-2.8-7.2-7.3-14.4-11.5
	c-7.2-4.2-16.3-8.1-26-9.8c-11.5-2.1-28.6-3-45.2-3c-15.3,0-30.3,0.8-40.3,2.3c-21,3.1-34.4,9.4-59.1,24.4l0.2,0.3
	c24.8-15,38.1-21.2,59-24.3c10-1.5,25-2.3,40.3-2.3c16.6,0,33.6,0.9,45.2,3c11,2,21.3,6.8,28.8,11.6c3.8,2.4,6.8,4.8,8.9,6.8
	c1.1,1,1.9,1.9,2.4,2.7c0.6,0.8,0.8,1.4,0.8,1.9c0,0.9-0.5,1.7-1.2,2.3c-1.1,0.9-2.7,1.4-4,1.7c-0.7,0.2-1.3,0.2-1.7,0.3
	c-0.4,0.1-0.7,0.1-0.7,0.1l0,0.2l0-0.2c-26.4,1-80.5,4.3-86.9,4.3c-7.6,0-66.1,5.1-79.2,5.7c-1.7,0.1-3.7,0.2-5.9,0.3L185.5,307.5"
	/>
<path fill="#07030B" d="M174.6,293.9c0,0,0.4,0,1-0.1c0.6,0,1.4-0.1,2.4-0.1c1.5,0,3.1,0.1,4.4,0.4c0.7,0.2,1.2,0.4,1.6,0.7
	c0.4,0.3,0.6,0.6,0.7,1.1c0.1,1.4,0.5,3.6,0.5,5.9c0,2.9-0.6,5.8-2.9,7.2l0.2,0.3c2.5-1.5,3-4.5,3-7.4c0-2.3-0.4-4.5-0.5-5.9
	c0-0.5-0.4-1-0.8-1.3c-1.4-1-4-1.2-6.2-1.2c-1.9,0-3.4,0.2-3.4,0.2L174.6,293.9"/>
<path fill="#07030B" d="M165.8,299.1c0,0-0.6,1.5-0.6,3.4c0,1.3,0.3,2.9,1.3,4.2c1,1.3,2.8,2.4,5.7,2.8l0-0.3
	c-2.8-0.4-4.5-1.5-5.5-2.7c-1-1.3-1.3-2.7-1.3-4c0-0.9,0.1-1.7,0.3-2.3c0.1-0.3,0.1-0.5,0.2-0.7c0.1-0.2,0.1-0.3,0.1-0.3
	L165.8,299.1"/>
<path fill="#07030B" d="M166.6,304.1c0,0,0.1,0,0.2-0.1c1.1-0.3,6.1-1.4,18.1-1.5l0-0.3c-13.6,0.1-18.3,1.6-18.4,1.6L166.6,304.1"/>
<polyline fill="#07030B" points="270.5,266.4 261.4,301.6 261.7,301.7 270.8,266.5 "/>
<polyline fill="#07030B" points="282.2,266.3 278.3,301 278.6,301.1 282.5,266.3 "/>
<polyline fill="#07030B" points="342.1,275.2 340,297.7 340.3,297.7 342.4,275.2 "/>
<polyline fill="#07030B" points="344,276.1 342,297.4 342.3,297.4 344.3,276.1 "/>
<path fill="#07030B" d="M392,306.3h-0.1c0,2.3-1.1,4.3-2.8,5.8c-1.7,1.5-4.1,2.4-6.7,2.4c-2.6,0-5-0.9-6.7-2.4
	c-1.7-1.5-2.8-3.5-2.8-5.8c0-2.3,1.1-4.3,2.8-5.8c1.7-1.5,4.1-2.4,6.7-2.4c2.6,0,5,0.9,6.7,2.4c1.7,1.5,2.8,3.5,2.8,5.8h0.3
	c0-2.4-1.1-4.5-2.9-6c-1.8-1.5-4.2-2.5-6.9-2.5c-2.7,0-5.2,0.9-6.9,2.5c-1.8,1.5-2.9,3.7-2.9,6c0,2.4,1.1,4.5,2.9,6
	c1.8,1.5,4.2,2.5,6.9,2.5c2.7,0,5.2-0.9,6.9-2.5c1.8-1.5,2.9-3.7,2.9-6H392"/>
<path fill="#07030B" d="M234.7,316.9l0.1-0.1l-0.1-0.1c-0.2-0.2-0.5-0.5-0.5-0.9c0-0.2,0.1-0.4,0.3-0.6c0.2-0.2,0.6-0.4,1.2-0.6
	c1.3-0.4,6.1-1.1,11.1-1.7c5.1-0.6,10.4-1.1,12.7-1.1c0.6,0,1,0,1.1,0.1c0.1,0,0.1,0.1,0.1,0.3c0,0.4-0.4,1.1-1,1.9
	c-2.1,2.6-7.1,6.2-13.4,6.4c-0.3,0-0.6,0-1,0c-4.3,0-7-1-8.6-1.9c-0.8-0.5-1.3-0.9-1.6-1.3c-0.2-0.2-0.3-0.3-0.3-0.4l-0.1-0.1l0,0
	l0,0l0,0L234.7,316.9l-0.1,0.1c0,0,2.1,3.9,10.9,3.9c0.3,0,0.6,0,1,0c4.3-0.1,8-1.8,10.6-3.7c1.3-0.9,2.3-1.9,3-2.8
	c0.7-0.9,1.1-1.6,1.1-2.1c0-0.2-0.1-0.5-0.3-0.5c-0.2-0.1-0.6-0.1-1.2-0.1c-2.4,0-7.7,0.5-12.8,1.1c-5.1,0.6-9.9,1.3-11.2,1.7
	c-0.7,0.2-1.1,0.4-1.4,0.7c-0.3,0.3-0.4,0.6-0.4,0.8c0,0.7,0.7,1.2,0.7,1.2L234.7,316.9l-0.1,0.1L234.7,316.9"/>
<path fill="#07030B" d="M238.8,318.6c0,0,0.2-0.1,0.6-0.3c1.2-0.6,4.2-1.9,8.2-2.1c0.3,0,0.7,0,1,0c2.3,0,3.6,0.5,4.3,0.9
	c0.4,0.2,0.6,0.5,0.7,0.6l0.1,0.2l0,0.1l0,0l0.3-0.1c0-0.1-0.9-2-5.5-2c-0.3,0-0.6,0-1,0c-5.5,0.3-9,2.5-9,2.5L238.8,318.6"/>
<path fill="#07030B" d="M327.7,309.8l0.1-0.1l-0.1-0.1c-0.1-0.2-0.3-0.5-0.3-0.9c0-0.4,0.2-0.9,1.2-1.2c0.8-0.2,3.4-0.5,6.4-0.7
	c3-0.2,6.5-0.3,9.1-0.3c1,0,1.9,0,2.6,0.1c0.3,0,0.6,0.1,0.8,0.1c0.2,0,0.4,0.1,0.4,0.1c0.1,0,0.1,0.1,0.1,0.2c0,0.3-0.3,1-0.8,1.8
	c-1.6,2.3-5.5,5.6-10.1,5.6c-0.2,0-0.4,0-0.6,0c-3.6-0.2-5.8-1.4-7-2.5c-0.6-0.5-1-1.1-1.3-1.5c-0.1-0.2-0.2-0.4-0.3-0.5
	c-0.1-0.1-0.1-0.2-0.1-0.2l0,0l0,0L327.7,309.8l-0.1,0c0,0,1.5,4.4,8.9,4.8c0.2,0,0.4,0,0.6,0c3.2,0,6-1.5,8-3.2
	c1-0.8,1.8-1.7,2.4-2.5c0.6-0.8,0.9-1.5,0.9-1.9c0-0.2-0.1-0.4-0.2-0.5c-0.1-0.1-0.3-0.1-0.5-0.1c-0.7-0.1-1.9-0.2-3.4-0.2
	c-2.6,0-6.1,0.1-9.1,0.3c-3,0.2-5.6,0.4-6.5,0.7c-1.1,0.3-1.5,0.9-1.4,1.5c0,0.6,0.4,1.2,0.4,1.2L327.7,309.8l-0.1,0L327.7,309.8"/>
<path fill="#07030B" d="M330.7,311.9l0.1-0.1c0.5-0.3,3-1.7,6.4-1.7c0.1,0,0.2,0,0.4,0c2.1,0.1,3.2,0.6,3.8,1.2
	c0.3,0.3,0.5,0.5,0.6,0.7c0.1,0.1,0.1,0.2,0.1,0.2l0,0.1l0,0l0.3-0.1c0,0-0.6-2.4-4.9-2.5c-0.1,0-0.3,0-0.4,0c-4,0-6.7,1.8-6.7,1.8
	L330.7,311.9"/>
<path fill="#07030B" d="M417.4,380.1L417.4,380.1L417.4,380.1L417.4,380.1L417.4,380.1L417.4,380.1c0-0.1,1.2-2.6,13.2-3.9
	c6.2-0.7,14.1-1.4,20.7-2.1c3.3-0.4,6.3-0.8,8.7-1.2c2.4-0.4,4.1-0.8,4.8-1.3c1.4-0.9,4-4,6.9-6.8c2.8-2.9,6-5.5,8.3-5.5v-0.3
	c-2.5,0-5.6,2.7-8.5,5.5c-2.9,2.9-5.5,6-6.8,6.8c-0.6,0.4-2.4,0.8-4.7,1.2c-7.1,1.2-20,2.3-29.4,3.3c-6.2,0.7-9.6,1.7-11.4,2.5
	c-1.8,0.8-2.1,1.5-2.1,1.6L417.4,380.1"/>
<path fill="#07030B" d="M321.5,357.1c0,0,0.2-0.6,0.6-1.6c1.4-3.6,5.5-12.6,13.5-20.8c8-8.2,19.9-15.6,36.9-15.9c0.5,0,1,0,1.5,0
	c18.9,0,32.2,8,41.1,16.7c8.8,8.7,13.2,18.1,14.1,21.1c0.9,2.9,2.2,5.8,4.3,7.9c2.1,2.2,5,3.6,9.2,3.6c0.4,0,0.8,0,1.2,0
	c9.1-0.6,25.7-1.9,25.7-1.9l0-0.3c0,0-1,0.1-2.7,0.2c-5.1,0.4-16.1,1.2-22.9,1.7c-0.4,0-0.8,0-1.2,0c-4.1,0-6.9-1.4-8.9-3.5
	c-2-2.1-3.3-5-4.2-7.8c-1-3-5.3-12.5-14.2-21.2c-8.9-8.7-22.3-16.7-41.3-16.7c-0.5,0-1,0-1.5,0c-19.5,0.4-32.4,10.1-40.3,19.6
	c-7.9,9.5-11,18.9-11,18.9L321.5,357.1"/>
<polyline fill="#07030B" points="429.4,356.6 480.7,355.4 480.7,355.1 429.4,356.3 "/>
<path fill="#07030B" d="M460.5,320.7c0,0-0.1,1.9-0.4,4.9c-0.4,4.4-1,11.2-1.7,17.2c-0.4,3-0.8,5.8-1.2,8.1
	c-0.4,2.2-0.9,3.9-1.3,4.6l0.3,0.2c0.6-1,1.2-3.7,1.7-7.2c1.6-10.4,2.8-27.8,2.8-27.8L460.5,320.7"/>
<path fill="#07030B" d="M416.2,335.9c0,0,1.2-1.3,3.1-3.2c5.7-5.9,17.3-17.8,19-19.2c2.2-1.9,6.3-6.1,14.4-6.1
	c4.1,0,8.8,0.1,12.5,0.1c1.8,0,3.4,0.1,4.5,0.1c1.1,0,1.8,0,1.8,0l0-0.3c0,0-10.6-0.3-18.8-0.3c-8.3,0-12.4,4.3-14.6,6.2
	c-1.1,1-6.6,6.6-11.9,11.9c-5.3,5.4-10.2,10.5-10.2,10.5L416.2,335.9"/>
<path fill="#07030B" d="M464.6,296.7c0,0,0.4,2.3,1.1,4.8c0.3,1.2,0.7,2.5,1.1,3.6c0.4,1.1,0.8,1.9,1.2,2.3l0.2-0.2
	c-0.4-0.3-0.8-1.2-1.2-2.2c-0.6-1.6-1.1-3.7-1.5-5.4c-0.4-1.7-0.6-3-0.6-3L464.6,296.7"/>
<path fill="#07030B" d="M436,315.7c0,0,20.7,3.4,22.3,3.5c1.5,0.1,3.1,1.3,5.3,4c2.2,2.8,7.3,12,14.7,15.7l0.1-0.3
	c-7.3-3.6-12.4-12.8-14.6-15.6c-2.2-2.8-3.8-4-5.5-4.2c-0.8-0.1-6.4-1-11.7-1.8c-2.7-0.4-5.3-0.9-7.3-1.2c-2-0.3-3.3-0.5-3.3-0.5
	L436,315.7"/>
<path fill="#07030B" d="M463.5,322.6c0,0,0.4-0.2,0.9-0.6c1.8-1.1,5.6-3.3,8-4.1l-0.1-0.3c-3.3,1-9,4.7-9,4.7L463.5,322.6"/>
<path fill="#07030B" d="M402.4,15.4c0,0,0.7,0.2,1.9,0.5c3.7,1,12.1,3.2,20.4,6.2c5.5,2,11.8,4.9,16.9,7.6c2.5,1.4,4.8,2.7,6.5,3.8
	c1.7,1.1,2.9,2,3.3,2.6l0.2-0.2c-0.4-0.6-1.6-1.5-3.3-2.7c-5.2-3.4-15.1-8.5-23.5-11.5c-11.1-3.9-22.4-6.7-22.4-6.7L402.4,15.4"/>
<path fill="#07030B" d="M474.9,54.3c0,0-3.7-3.7-9-5.3l-0.1,0.3c2.6,0.8,4.9,2.1,6.4,3.2c0.8,0.6,1.4,1.1,1.8,1.4
	c0.4,0.4,0.7,0.6,0.7,0.6L474.9,54.3"/>
<path fill="#07030B" d="M456.7,26.4L456.7,26.4c0.9,0.6,7.6,5.9,11.5,23.2l0.3-0.1c-4.2-18.5-11.6-23.3-11.6-23.4L456.7,26.4"/>
<path fill="#07030B" d="M443.9,30.8c0,0,0.3,0,0.9,0.2c2,0.4,7,1.5,11.6,4.1c4.6,2.6,8.7,6.7,9,12.8l0.3,0
	c-0.3-7.2-5.8-11.6-11.2-14.1c-5.4-2.5-10.6-3.3-10.6-3.3L443.9,30.8"/>
<path fill="#07030B" d="M460.4,31.5c-0.1-0.1-0.3-0.2-0.6-0.4c-2.3-1.2-10.2-4.2-24.3-5.6l0,0.3c8.1,0.8,14.1,2.1,18.2,3.3
	c2.1,0.6,3.6,1.2,4.7,1.6c0.5,0.2,1,0.4,1.3,0.6c0.3,0.2,0.5,0.3,0.6,0.4L460.4,31.5"/>
<path fill="#07030B" d="M358.6,51.7c-9,0.7-30,2.1-59.2,2.1c-33.2,0-72.8-3.2-84.1-6.4c-11.3-3.2-44.2-12.4-64.8-15.9
	c-1.6-0.3-3.2-0.4-4.6-0.4l-0.2,0l0,0.1v-0.1h0c-0.9,0-63.7,0.1-117.5,17.2l0.1,0.3C82,31.4,144.9,31.4,145.7,31.4h0l0.2,0
	c1.4,0,3,0.1,4.6,0.4c20.5,3.5,53.4,12.7,64.7,15.9c11.3,3.2,50.9,6.5,84.1,6.5c29.2,0,50.2-1.4,59.2-2.1L358.6,51.7"/>
<path fill="#07030B" d="M348.3,14c0,0,0.4,0.1,1,0.3c1.9,0.5,6.1,1.7,8.8,3.4c1.8,1.1,4.2,2.9,6.2,4.8c2,1.9,3.6,3.9,3.9,5.5
	c0.1,0.7,0.2,1.2,0.2,1.8c0,1-0.3,1.7-1.3,2.5c-1,0.8-2.6,1.5-5.3,2.5c-6.7,2.3-22.3,7.1-37.3,8.3c-5.5,0.4-17.4,0.7-31.4,0.7
	c-24.2,0-54.4-0.8-67.2-3c-20.3-3.5-60.8-12.7-65.4-14.1c-1.4-0.4-3-0.8-4.3-1.2c-0.6-0.2-1.2-0.3-1.5-0.5c-0.2-0.1-0.3-0.2-0.4-0.2
	l-0.1-0.1l0,0l0,0c0.1-0.1,0.6-0.3,1.4-0.4c0.9-0.2,2.1-0.3,3.9-0.5l0-0.3c-2,0.2-3.4,0.4-4.3,0.5c-0.4,0.1-0.8,0.2-1,0.3
	c-0.1,0.1-0.2,0.1-0.3,0.2c-0.1,0.1-0.1,0.2-0.1,0.2c0,0.2,0.1,0.3,0.2,0.4c0.4,0.3,1.4,0.6,2.5,0.9c1.2,0.3,2.5,0.6,3.8,1
	c4.6,1.4,45.2,10.6,65.5,14.1c12.9,2.2,43,3,67.2,3c14,0,25.9-0.3,31.4-0.7c15-1.2,30.7-6,37.4-8.3c2.7-0.9,4.3-1.7,5.4-2.5
	c1-0.8,1.4-1.7,1.4-2.8c0-0.6-0.1-1.1-0.2-1.8c-0.4-1.7-2-3.7-4-5.6c-2-1.9-4.4-3.7-6.2-4.9c-3.7-2.3-9.9-3.7-10-3.7L348.3,14"/>
<path fill="#07030B" d="M173.9,23.2c0,0,2.4,0,6.6,0c29.8,0.1,151.3,0.6,187.8,4.8l0-0.3c-41.7-4.8-194.5-4.8-194.5-4.8V23.2"/>
<path fill="#07030B" d="M173.9,25.1c0,0,2.4,0,6.6,0c29.8,0.1,151.3,0.6,187.8,4.8l0-0.3c-41.7-4.8-194.5-4.8-194.5-4.8V25.1"/>
<path fill="#07030B" d="M262.9,14.2c0,0,0.3,0.5,0.8,1.3c1.5,2.3,4.4,7.4,4.9,10.7l0,0l0,0c0,0,0.4,0.7,1,1.8
	c1.8,3.4,5.7,10.8,7.3,15.7l0.3-0.1c-2.1-6.5-8.3-17.5-8.3-17.5l-0.1,0.1l0.1,0c-0.7-4.4-5.8-12-5.8-12L262.9,14.2"/>
<path fill="#07030B" d="M260.4,25.5c0,0,0.5,0.9,1.2,2.2c1,2,2.6,5.2,4,8.2c1.4,3,2.5,5.9,2.7,7.3l0.3,0c-0.2-2-2.2-6.4-4.1-10.4
	c-1.9-3.9-3.7-7.4-3.7-7.4L260.4,25.5"/>
<path fill="#07030B" d="M277.4,26.4c0,0,0.2,0.7,0.5,1.8c1,3.4,2.9,10.7,2.9,15.2h0.3c0-6-3.5-17.1-3.5-17.1L277.4,26.4"/>
<path fill="#07030B" d="M338.5,28c0,0,0.1,0.5,0.3,1.4c0.6,2.5,1.7,8,1.7,11h0.3c0-4.2-2.1-12.5-2.1-12.5L338.5,28"/>
<path fill="#07030B" d="M340.5,28.2c0,0,0.1,0.4,0.4,1c0.7,2,2,6.5,2.2,11.1l0.3,0c-0.2-6.3-2.5-12.3-2.5-12.3L340.5,28.2"/>
<path fill="#07030B" d="M326.7,14.8L326.7,14.8c0,0.2,0.1,1.4,1.4,2.7c1.3,1.3,3.9,2.6,8.9,3.2c0.9,0.1,1.7,0.1,2.3,0.1
	c1.8,0,2.9-0.3,3.6-0.8c0.7-0.5,1-1.2,1-1.8c0-1.4-1-2.8-1-2.8l-0.2,0.2c0,0,0.1,0.1,0.2,0.2c0.3,0.4,0.8,1.5,0.8,2.4
	c0,0.6-0.2,1.2-0.8,1.6c-0.6,0.4-1.7,0.7-3.5,0.7c-0.7,0-1.4,0-2.3-0.1c-4.9-0.6-7.4-1.9-8.7-3.1c-1.3-1.2-1.3-2.3-1.3-2.5v0
	L326.7,14.8"/>
<path fill="#07030B" d="M234.6,14.9c0,0,2.2,4,9.8,4c2.5,0,3.9-0.4,4.8-0.9c0.9-0.5,1.1-1.3,1.1-1.9c0-0.6-0.3-1.1-0.3-1.1l-0.3,0.1
	l0,0.1c0.1,0.1,0.2,0.5,0.2,0.9c0,0.5-0.2,1.1-1,1.6c-0.8,0.5-2.2,0.9-4.7,0.9c-3.8,0-6.2-1-7.6-1.9c-0.7-0.5-1.2-1-1.5-1.3
	c-0.2-0.2-0.3-0.3-0.3-0.4l-0.1-0.1l0,0L234.6,14.9"/>
<path fill="#07030B" d="M250.8,17.5c0,0,0.7,0,2,0c9.2,0,47.7,0.1,75.1,1.1l0-0.3c-31.3-1.2-77.2-1.2-77.2-1.2V17.5"/>
<path fill="#07030B" d="M144.7,15.8c0,0,1.4,1.9,3.3,4c1.9,2.1,4.2,4.5,5.9,5.4l0.1-0.3c-1.7-0.9-4-3.3-5.9-5.4
	c-0.9-1.1-1.8-2.1-2.4-2.8c-0.6-0.7-0.9-1.2-1-1.2L144.7,15.8"/>
<polyline fill="#07030B" points="155.5,26 153.2,28.7 153.5,28.9 155.8,26.2 "/>
<path fill="#07030B" d="M24.8,60.3c0,0,0.3-0.1,0.9-0.3c4.3-1.3,26.1-7,97.5-12.8l0-0.1l-0.1-0.1c0,0-0.2,0.1-0.5,0.2
	c-2.5,0.9-13.9,4.4-33.3,6C67.2,55,54,55.4,41.6,57.3l0,0.3c12.4-1.8,25.6-2.3,47.7-4.1c22.1-1.8,33.9-6.2,33.9-6.2l-0.1-0.3
	C41.6,53.6,24.8,60,24.7,60L24.8,60.3"/>
<path fill="#07030B" d="M29.9,44.6c0,0,0.4-0.2,1.3-0.7c6.3-3,35.7-15.6,103-23.3l0-0.3c-77,8.8-104.4,24-104.4,24L29.9,44.6"/>
<path fill="#07030B" d="M142.3,16.9c0,0-6.1-0.1-15.1-0.1c-20.9,0-57.3,0.3-67.7,2.6C44.8,22.7,36.2,29.7,30,37
	c-6.2,7.4-13.2,16.2-13.2,28h0.3c0-11.7,6.9-20.4,13.1-27.8c6.2-7.4,14.7-14.2,29.4-17.5c10.3-2.3,46.7-2.6,67.6-2.6
	c4.5,0,8.3,0,10.9,0c2.6,0,4.2,0,4.2,0L142.3,16.9"/>
<path fill="#07030B" d="M479.6,107h-0.5c0,11-0.6,21.2-1.2,29.2c-0.6,8-1.2,13.7-1.4,15.9c-0.1,2.1-0.7,3.9-1.2,5.2
	c-0.3,0.6-0.5,1.1-0.7,1.5c-0.1,0.2-0.2,0.3-0.2,0.4l-0.1,0.1l0,0l-0.1,0.1l0,0.1c-0.5,8.9-2.8,14.9-5.5,18.9
	c-2.7,4-5.8,6.2-7.9,7.4c-0.9,0.6-2.9,1.3-5.5,2c-7.7,2.2-20.5,4.8-28.5,6.7c-10.6,2.5-18.9,4.8-29.8,4.8c-11.1,0-135.9,0-150.5-0.2
	c-7.3-0.1-24.1-0.4-39.2-0.7c-7.5-0.1-14.6-0.3-19.8-0.3c-2.6,0-4.7-0.1-6.2-0.1c-1.5,0-2.3,0-2.3,0l-0.7,0l0.2,0.7
	c0,0,0.6,2.2,1.4,4.7c0.4,1.3,0.9,2.6,1.3,3.8c0.4,1.2,0.9,2.2,1.2,2.9c0.4,0.7,0.6,1.3,0.5,1.7c0,0.5-0.2,0.7-0.4,0.9
	c-0.3,0.2-0.7,0.3-1.3,0.3c-0.2,0-0.5,0-0.7,0c-0.9,0-1.9,0-3-0.4c-1.1-0.4-2.3-1.1-3.5-2.4c-1.5-1.6-3.8-4.7-5.8-7.4
	c-1-1.4-1.9-2.6-2.5-3.5c-0.6-0.9-1.1-1.5-1.1-1.5l-0.2-0.2l-0.3,0c-10.9,0.5-47.8,1.2-73.9,1.2c-8.7,0-16.2-0.1-21-0.2
	c-9.7-0.3-18.2-2.5-24.7-5.1c-6.5-2.5-11.1-5.5-13-7.2c-0.9-0.9-2.5-2.7-4.3-4.9c-5.5-6.7-13.7-17.6-16.8-22.4
	c-2-3.2-3.2-6.2-3.8-8.7c-0.6-2.5-0.8-4.4-1-5.3c-0.1-0.4-0.1-1.3-0.2-2.4c-0.1-1.7-0.2-3.9-0.3-5.7c-0.1-1.8-0.1-3.1-0.1-3.1l0-0.5
	H1.9L1,107l0.9-26.1h3.5l0-0.5c0,0,0.1-2.4,0.2-5c0.1-1.3,0.1-2.6,0.2-3.8c0.1-1.1,0.1-2.1,0.2-2.4c0.1-0.9,0.3-2.8,1-5.3
	c0.6-2.5,1.8-5.5,3.8-8.7c2.1-3.2,6.4-9.1,10.7-14.7c2.1-2.8,4.3-5.5,6.1-7.7c1.8-2.2,3.4-4,4.3-4.9c1.9-1.8,6.5-4.7,13-7.2
	c6.5-2.5,15-4.7,24.7-5.1c4.9-0.2,12.4-0.2,21-0.2c26,0,63,0.6,73.9,1.2l0.3,0l0.2-0.2c0,0,0.4-0.6,1.1-1.5c1-1.4,2.5-3.5,4.1-5.6
	c1.6-2.1,3.2-4.1,4.3-5.3c1.3-1.4,2.5-2.1,3.5-2.4c1.1-0.4,2.1-0.4,3-0.4c0.3,0,0.5,0,0.7,0c0.6,0,1,0.1,1.3,0.3
	c0.3,0.2,0.4,0.4,0.4,0.9c0,0.4-0.1,1-0.5,1.7c-0.4,0.7-0.8,1.7-1.2,2.9c-1.3,3.6-2.7,8.5-2.7,8.5l-0.2,0.7l0.7,0c0,0,0.8,0,2.3,0
	c10.3-0.2,52.5-0.9,65.2-1.1c14.5-0.2,139.4-0.2,150.5-0.2c11,0,19.2,2.3,29.8,4.8c5.3,1.3,12.8,2.8,19.5,4.4c3.3,0.8,6.5,1.6,9,2.3
	c2.5,0.7,4.5,1.4,5.5,2c2,1.3,5.1,3.4,7.9,7.4c2.7,4,5,10,5.5,18.9l0,0.1l0.1,0.1l0,0c0.2,0.3,2,3.1,2.2,7.1c0.1,2.2,0.8,8,1.4,15.9
	c0.6,8,1.2,18.2,1.2,29.2h1c0-11.1-0.6-21.3-1.2-29.3c-0.6-8-1.2-13.8-1.4-15.9c-0.2-4.5-2.4-7.6-2.4-7.6l-0.4,0.3l0.5,0
	c-0.5-9.1-2.9-15.2-5.7-19.4c-2.8-4.2-6.1-6.4-8.2-7.7c-1.1-0.7-3.1-1.4-5.7-2.1c-7.7-2.2-20.6-4.8-28.5-6.7
	c-10.6-2.5-18.9-4.9-30.1-4.9c-11.1,0-135.9,0-150.5,0.2c-14.5,0.2-67.5,1.2-67.5,1.2l0,0.5l0.5,0.1c0,0,0.2-0.5,0.4-1.4
	c0.4-1.3,1-3.3,1.6-5.2c0.6-1.9,1.3-3.7,1.8-4.6l0,0.1l0-0.1c0.4-0.8,0.7-1.5,0.7-2.2c0-0.7-0.3-1.4-0.8-1.7
	c-0.5-0.4-1.2-0.5-1.9-0.5c-0.2,0-0.5,0-0.7,0c-0.9,0-2,0-3.3,0.5c-1.2,0.4-2.6,1.2-3.9,2.7c-1.5,1.6-3.9,4.8-5.9,7.5
	c-2,2.7-3.6,5-3.6,5l0.4,0.3l0-0.5c-10.9-0.5-47.8-1.2-73.9-1.2c-8.7,0-16.2,0.1-21.1,0.2c-9.9,0.3-18.4,2.6-25,5.1
	c-6.6,2.6-11.3,5.5-13.3,7.4c-1,1-2.6,2.7-4.4,5C21.1,38.8,13,49.7,9.8,54.6c-2.1,3.3-3.3,6.4-3.9,9c-0.7,2.6-0.9,4.5-1,5.4
	c-0.1,0.5-0.1,1.4-0.2,2.5c-0.2,3.4-0.4,8.8-0.4,8.8l0.5,0v-0.5h-4L0,107l0.9,27.1h4v-0.5l-0.5,0c0,0,0.1,2.4,0.2,5
	c0.1,1.3,0.1,2.7,0.2,3.8c0.1,1.1,0.1,2.1,0.2,2.5c0.1,0.8,0.3,2.8,1,5.4c0.7,2.6,1.8,5.7,3.9,9c2.1,3.3,6.4,9.2,10.7,14.8
	c2.1,2.8,4.3,5.5,6.1,7.8c1.9,2.2,3.4,4,4.4,5c2,1.9,6.7,4.9,13.3,7.4c6.6,2.6,15.2,4.8,25,5.1c4.9,0.2,12.4,0.2,21.1,0.2
	c26.1,0,63-0.6,73.9-1.2l0-0.5l-0.4,0.3c0,0,1.6,2.3,3.6,5c2,2.7,4.4,5.8,5.9,7.5c1.4,1.5,2.7,2.3,3.9,2.7c1.2,0.4,2.4,0.5,3.3,0.5
	c0.3,0,0.5,0,0.7,0c0.7,0,1.4-0.1,1.9-0.5c0.5-0.4,0.8-1,0.8-1.7c0-0.6-0.2-1.4-0.7-2.2c-0.3-0.6-0.7-1.6-1.2-2.8
	c-0.6-1.8-1.3-3.9-1.8-5.5c-0.3-0.8-0.5-1.6-0.6-2.1c-0.2-0.5-0.2-0.8-0.2-0.8l-0.5,0.1l0,0.5c0,0,53,0.9,67.5,1.2
	c14.5,0.2,139.4,0.2,150.5,0.2c11.1,0,19.5-2.3,30.1-4.9c5.3-1.3,12.8-2.8,19.5-4.4c3.3-0.8,6.5-1.6,9.1-2.3
	c2.6-0.8,4.6-1.4,5.7-2.1c2.1-1.3,5.3-3.5,8.2-7.7c2.8-4.2,5.2-10.3,5.7-19.4l-0.5,0l0.4,0.3c0,0,2.1-3.1,2.4-7.6
	c0.1-2.2,0.7-7.9,1.4-15.9c0.6-8,1.2-18.2,1.2-29.3H479.6"/>
<path fill="#07030B" d="M402.5,198.8c0,0,11.3-2.8,22.4-6.7c5.5-2,11.8-4.9,16.9-7.6c2.6-1.4,4.8-2.7,6.5-3.8c1.7-1.1,2.9-2,3.3-2.7
	l-0.2-0.2c-0.4,0.5-1.5,1.5-3.3,2.6c-5.1,3.3-15.1,8.5-23.4,11.4c-5.5,2-11.1,3.6-15.3,4.8c-2.1,0.6-3.9,1.1-5.1,1.4
	c-1.2,0.3-1.9,0.5-1.9,0.5L402.5,198.8"/>
<path fill="#07030B" d="M343.9,194.9c0,0,49.1-2.5,84.1-9c7.1-1.3,15.7-3.8,23-7.6c7.4-3.8,13.5-8.9,15.6-15.6
	c4.2-13.2,5.3-41.5,5.3-55.8c0-14.3-1.1-42.6-5.3-55.8c-2.1-6.6-8.2-11.8-15.6-15.6c-7.4-3.8-15.9-6.3-23-7.6c-35-6.5-84.1-9-84.1-9
	l0,0.3c0,0,0.8,0,2.2,0.1c9.9,0.6,51.3,3.2,81.9,8.9c7.1,1.3,15.6,3.8,22.9,7.6c7.3,3.8,13.4,8.9,15.4,15.4
	c4.1,13.1,5.3,41.4,5.3,55.7c0,14.3-1.2,42.6-5.3,55.7c-2.1,6.5-8.1,11.6-15.4,15.4c-7.3,3.8-15.9,6.3-22.9,7.6
	c-17.5,3.2-38.5,5.5-55.2,6.9c-8.3,0.7-15.5,1.2-20.7,1.6c-2.6,0.2-4.6,0.3-6,0.4c-1.4,0.1-2.2,0.1-2.2,0.1L343.9,194.9"/>
<path fill="#07030B" d="M474.7,159.4c0,0-0.2,0.2-0.7,0.6c-1.3,1.1-4.3,3.5-8.3,4.7l0.1,0.3c5.3-1.6,9-5.3,9-5.3L474.7,159.4"/>
<path fill="#07030B" d="M456.9,187.7c0,0,7.4-4.9,11.6-23.4l-0.3-0.1c-2.1,9.2-4.9,15-7.3,18.5c-1.2,1.8-2.2,2.9-3,3.7
	c-0.4,0.4-0.7,0.6-0.9,0.8c-0.1,0.1-0.2,0.1-0.2,0.2l-0.1,0.1L456.9,187.7"/>
<path fill="#07030B" d="M443.9,183.4c0,0,5.3-0.8,10.6-3.3c5.3-2.5,10.8-6.9,11.2-14.1l-0.3,0c-0.3,7.1-5.7,11.3-11,13.9
	c-2.7,1.3-5.3,2.1-7.3,2.6c-1,0.3-1.8,0.4-2.4,0.5c-0.6,0.1-0.9,0.2-0.9,0.2L443.9,183.4"/>
<path fill="#07030B" d="M460.2,182.2c-0.1,0.1-0.3,0.2-0.6,0.4c-2.2,1.2-10.1,4.2-24.2,5.6l0,0.3c8.1-0.8,14.1-2.1,18.3-3.3
	c2.1-0.6,3.6-1.2,4.8-1.7c0.6-0.2,1-0.4,1.3-0.6c0.3-0.2,0.5-0.3,0.6-0.4L460.2,182.2"/>
<path fill="#07030B" d="M463.4,167.9c0,0-1.1,0.3-3.2,0.9c-6.1,1.6-20,4.7-35.1,4.7c-10,0-23.6-2-35.5-4.1
	c-11.9-2.1-22.1-4.2-25.3-4.4c-6.5-0.5-29-2.3-62.2-2.3c-33.2,0-72.8,3.2-84.1,6.5c-11.3,3.2-44.2,12.4-64.7,15.9
	c-1.6,0.3-3.1,0.4-4.6,0.4c-8.3,0-13.7-4.3-17.4-9.3c-3.7-5-5.6-10.8-6.9-13.8c-1.5-3.2-3.7-11.8-5.6-22.3
	c-1.9-10.4-3.4-22.6-3.4-33c0-10.4,1.5-22.6,3.4-33c1.9-10.4,4.1-19.1,5.6-22.3c1.4-3,3.3-8.8,6.9-13.8c3.7-5,9-9.3,17.4-9.3
	c1.4,0,3,0.1,4.6,0.4c20.5,3.5,53.4,12.7,64.7,15.9c11.3,3.2,50.9,6.5,84.1,6.5c33.2,0,55.8-1.8,62.2-2.3c3.3-0.2,13.4-2.4,25.3-4.4
	c11.9-2.1,25.5-4.1,35.5-4.1c10,0,19.6,1.4,26.6,2.8c3.5,0.7,6.4,1.4,8.4,1.9c2,0.5,3.1,0.9,3.2,0.9l0.1-0.3c0,0-18.2-5.5-38.3-5.5
	c-10,0-23.6,2-35.5,4.1c-11.9,2.1-22.1,4.2-25.3,4.4c-6.5,0.5-29,2.3-62.2,2.3c-33.2,0-72.8-3.2-84.1-6.4
	c-11.3-3.2-44.2-12.4-64.8-15.9c-1.6-0.3-3.2-0.4-4.6-0.4c-8.4,0-13.9,4.4-17.6,9.4c-3.7,5.1-5.6,10.9-7,13.9
	c-1.5,3.3-3.8,11.9-5.6,22.3c-1.9,10.4-3.4,22.6-3.4,33c0,10.4,1.5,22.6,3.4,33c1.9,10.4,4.1,19.1,5.6,22.3c1.4,3,3.3,8.8,7,13.9
	c3.7,5.1,9.2,9.4,17.6,9.4c1.5,0,3-0.1,4.6-0.4c20.5-3.5,53.5-12.7,64.8-15.9c11.2-3.2,50.9-6.4,84.1-6.4c33.2,0,55.7,1.8,62.2,2.3
	c3.2,0.2,13.4,2.4,25.3,4.4c11.9,2.1,25.5,4.1,35.5,4.1c20.1,0,38.3-5.5,38.3-5.5L463.4,167.9"/>
<path fill="#07030B" d="M358.6,161.9c-9-0.7-30-2.1-59.2-2.1c-33.2,0-72.8,3.2-84.1,6.5c-11.3,3.2-44.2,12.4-64.7,15.9
	c-1.6,0.3-3.1,0.4-4.6,0.4h-0.2h0c-0.9,0-63.7-0.1-117.5-17.2l-0.1,0.3c53.8,17.2,116.7,17.2,117.5,17.2h0l0.2,0
	c1.5,0,3-0.1,4.6-0.4c20.5-3.5,53.5-12.7,64.8-15.9c11.2-3.2,50.9-6.4,84.1-6.4c29.2,0,50.1,1.4,59.2,2.1L358.6,161.9"/>
<path fill="#07030B" d="M358.1,164.8c0,0,6.7-25.4,6.7-57.9c0-32.5-6.7-57.9-6.7-57.9l-0.3,0.1c0,0,0.1,0.4,0.3,1.1
	c1.3,5.3,6.4,28.2,6.4,56.6c0,16.2-1.7,30.7-3.3,41.1c-0.8,5.2-1.7,9.4-2.3,12.3c-0.3,1.4-0.6,2.6-0.8,3.3c-0.2,0.8-0.3,1.1-0.3,1.1
	L358.1,164.8"/>
<path fill="#07030B" d="M423.5,173.6c0,0,11.8-28.6,11.8-66.6c0-38-11.8-66.6-11.8-66.6l-0.3,0.1c0,0,0.2,0.4,0.5,1.3
	c2.2,6,11.2,32,11.2,65.2c0,19-2.9,35.6-5.9,47.5c-1.5,5.9-2.9,10.7-4,14c-0.6,1.6-1,2.9-1.3,3.8c-0.3,0.9-0.5,1.3-0.5,1.3
	L423.5,173.6"/>
<path fill="#07030B" d="M426.1,173.6c0,0,11.8-28.6,11.8-66.6c0-38-11.8-66.6-11.8-66.6l-0.3,0.1c0,0,0.2,0.4,0.5,1.3
	c2.2,6,11.2,32,11.2,65.2c0,19-2.9,35.6-5.9,47.5c-1.5,5.9-2.9,10.7-4,14c-0.6,1.6-1,2.9-1.3,3.8c-0.3,0.9-0.5,1.3-0.5,1.3
	L426.1,173.6"/>
<path fill="#07030B" d="M428.5,127.1c0,0-0.2,0-0.5-0.1c-1.1-0.3-3.9-1.2-6.4-3c-2.5-1.8-4.7-4.3-4.7-8V98c0-4.2,2.9-7,5.8-8.7
	c1.5-0.9,2.9-1.5,4-1.9c0.5-0.2,1-0.3,1.3-0.4c0.3-0.1,0.5-0.1,0.5-0.1l-0.1-0.3c0,0-3,0.7-5.9,2.5c-3,1.8-5.9,4.6-5.9,9v18
	c0,4.3,3,7.2,5.9,9c3,1.8,5.9,2.5,5.9,2.5L428.5,127.1"/>
<path fill="#07030B" d="M422.1,124.6c0,0,1.1-0.5,2.1-1.6c1.1-1.1,2.1-2.7,2.1-5V95.9c0-2.2-1.1-3.9-2.1-5c-1.1-1.1-2.1-1.6-2.1-1.6
	l-0.1,0.3c0,0,0.1,0,0.2,0.1c0.8,0.4,3.9,2.5,3.9,6.2V118c0,2.1-1,3.7-2,4.8c-0.5,0.5-1,0.9-1.4,1.2c-0.2,0.1-0.3,0.2-0.5,0.3
	c-0.1,0.1-0.2,0.1-0.2,0.1L422.1,124.6"/>
<path fill="#07030B" d="M348.3,200.2c0,0,6.2-1.4,10-3.7c1.9-1.2,4.2-2.9,6.2-4.9c2-1.9,3.6-3.9,4-5.6c0.1-0.7,0.2-1.3,0.2-1.8
	c0-1.1-0.4-2-1.4-2.8c-1-0.8-2.7-1.6-5.4-2.5c-6.7-2.3-22.4-7.1-37.4-8.3c-5.5-0.4-17.5-0.7-31.4-0.7c-24.2,0-54.4,0.8-67.2,3
	c-20.3,3.5-60.8,12.7-65.5,14.1c-1.4,0.4-3,0.8-4.3,1.2c-0.6,0.2-1.2,0.3-1.6,0.5c-0.2,0.1-0.4,0.2-0.5,0.3
	c-0.1,0.1-0.2,0.2-0.2,0.3c0,0.1,0,0.2,0.1,0.2c0.2,0.2,0.7,0.4,1.6,0.5c0.9,0.2,2.2,0.3,3.9,0.5l0-0.3c-2-0.2-3.4-0.4-4.2-0.5
	c-0.4-0.1-0.7-0.2-0.9-0.3c-0.1,0-0.1-0.1-0.2-0.1l0,0l0,0c0.1-0.1,0.3-0.2,0.7-0.4c1.2-0.5,3.6-1,5.6-1.6
	c4.6-1.4,45.2-10.6,65.4-14.1c12.8-2.2,43-3,67.2-3c14,0,25.9,0.3,31.4,0.7c15,1.1,30.6,6,37.3,8.3c2.6,0.9,4.3,1.7,5.3,2.5
	c1,0.8,1.3,1.5,1.3,2.5c0,0.5-0.1,1.1-0.2,1.8c-0.3,1.5-1.9,3.6-3.9,5.5c-2,1.9-4.3,3.7-6.2,4.8c-1.8,1.1-4.3,2.1-6.3,2.7
	c-1,0.3-1.9,0.6-2.5,0.7c-0.6,0.2-1,0.2-1,0.2L348.3,200.2"/>
<path fill="#07030B" d="M173.9,191c0,0,152.8,0,194.5-4.8l0-0.3c-20.8,2.4-69.5,3.6-112.9,4.2c-21.7,0.3-42.1,0.5-57.1,0.5
	c-7.5,0-13.6,0.1-17.9,0.1c-4.3,0-6.6,0-6.6,0V191"/>
<path fill="#07030B" d="M173.9,189.1c0,0,152.8,0,194.5-4.8l0-0.3c-20.8,2.4-69.5,3.6-112.9,4.2c-21.7,0.3-42.1,0.5-57.1,0.5
	c-7.5,0-13.6,0.1-17.9,0.1c-4.3,0-6.6,0-6.6,0V189.1"/>
<path fill="#07030B" d="M263.2,199.9c0,0,5.1-7.6,5.8-12l-0.1,0l0.1,0.1c0,0,6.2-11.1,8.3-17.5l-0.3-0.1c-1,3.2-3.1,7.6-4.9,11.2
	c-0.9,1.8-1.7,3.4-2.4,4.5c-0.6,1.1-1,1.8-1,1.8l0,0l0,0c-0.3,2.2-1.8,5.1-3.1,7.6c-0.7,1.2-1.3,2.3-1.8,3.1
	c-0.5,0.8-0.8,1.2-0.8,1.3L263.2,199.9"/>
<path fill="#07030B" d="M260.6,188.6c0,0,1.8-3.5,3.7-7.4c1.9-4,3.9-8.4,4.1-10.4l-0.3,0c-0.2,1.9-2.2,6.4-4.1,10.3
	c-0.9,2-1.9,3.8-2.6,5.2c-0.7,1.4-1.2,2.2-1.2,2.2L260.6,188.6"/>
<path fill="#07030B" d="M277.7,187.6c0,0,3.5-11.1,3.5-17.1h-0.3c0,3-0.9,7.2-1.7,10.7c-0.4,1.8-0.9,3.3-1.2,4.5
	c-0.3,1.1-0.5,1.8-0.5,1.8L277.7,187.6"/>
<path fill="#07030B" d="M338.8,186c0,0,2.1-8.3,2.1-12.5h-0.3c0,2.1-0.5,5.2-1,7.7c-0.3,1.3-0.5,2.5-0.7,3.3
	c-0.2,0.8-0.3,1.4-0.3,1.4L338.8,186"/>
<path fill="#07030B" d="M340.8,185.8c0,0,2.3-6,2.5-12.3l-0.3,0c-0.1,3.1-0.7,6.1-1.3,8.4c-0.3,1.1-0.6,2.1-0.8,2.7
	c-0.2,0.7-0.4,1-0.4,1L340.8,185.8"/>
<path fill="#07030B" d="M327,199.1L327,199.1c0-0.2,0-1.3,1.3-2.5c1.3-1.2,3.8-2.6,8.7-3.1c0.9-0.1,1.6-0.1,2.3-0.1
	c1.8,0,2.8,0.3,3.5,0.7c0.6,0.4,0.8,1,0.8,1.6c0,0.6-0.2,1.3-0.5,1.8c-0.1,0.2-0.2,0.5-0.3,0.6c-0.1,0.1-0.2,0.2-0.2,0.2l0.2,0.2
	c0,0,1-1.4,1-2.8c0-0.7-0.2-1.4-1-1.8c-0.7-0.5-1.9-0.8-3.6-0.8c-0.7,0-1.5,0-2.3,0.1c-5,0.6-7.6,1.9-8.9,3.2
	c-1.3,1.3-1.4,2.5-1.4,2.7l0,0L327,199.1"/>
<path fill="#07030B" d="M234.8,199.2L234.8,199.2c0.3-0.4,2.5-3.8,9.5-3.8c2.4,0,3.9,0.4,4.7,0.9c0.8,0.5,1,1.1,1,1.6
	c0,0.3-0.1,0.5-0.1,0.7l-0.1,0.2l0,0.1l0.3,0.1c0,0,0.3-0.5,0.3-1.1c0-0.6-0.2-1.3-1.1-1.9c-0.9-0.5-2.3-0.9-4.8-0.9
	c-7.7,0-9.8,4-9.8,4L234.8,199.2"/>
<path fill="#07030B" d="M250.8,196.7c0,0,45.9,0,77.2-1.2l0-0.3c-15.7,0.6-35,0.9-50.3,1c-7.7,0.1-14.4,0.1-19.2,0.1
	c-2.4,0-4.3,0-5.6,0c-1.3,0-2,0-2,0V196.7"/>
<path fill="#07030B" d="M144.9,198.3c0,0,0.4-0.5,1-1.2c1.8-2.2,5.7-6.8,8.2-8.2l-0.1-0.3c-1.8,0.9-4.1,3.3-5.9,5.4
	c-1.9,2.1-3.3,4-3.3,4L144.9,198.3"/>
<polyline fill="#07030B" points="155.8,187.7 153.5,185 153.2,185.2 155.5,187.9 "/>
<path fill="#07030B" d="M24.7,153.9c0,0,16.9,6.5,98.4,13.1l0.1-0.3c0,0-11.8-4.4-33.9-6.2c-22.1-1.8-35.3-2.3-47.7-4.1l0,0.3
	c12.5,1.8,25.6,2.3,47.7,4.1c11.1,0.9,19.5,2.5,25.2,3.8c2.8,0.7,5,1.3,6.4,1.7c1.4,0.4,2.2,0.7,2.2,0.7l0.1-0.1l0-0.2
	c-40.8-3.3-65.4-6.6-79.8-9.1c-7.2-1.2-11.8-2.2-14.7-2.9c-1.4-0.4-2.4-0.6-3-0.8c-0.6-0.2-0.9-0.3-0.9-0.3L24.7,153.9"/>
<path fill="#07030B" d="M29.8,169.5c0,0,27.5,15.2,104.4,24l0-0.3c-38.5-4.4-64.6-10.4-81-15.3c-8.2-2.4-14.1-4.6-17.8-6.2
	c-1.9-0.8-3.3-1.4-4.1-1.8c-0.9-0.4-1.3-0.7-1.3-0.7L29.8,169.5"/>
<path fill="#07030B" d="M142.3,196.7c0,0-1.5,0-4.2,0c-2.7,0-6.4,0-10.9,0c-20.9,0-57.3-0.3-67.6-2.6c-14.7-3.2-23.2-10.1-29.4-17.5
	c-6.2-7.4-13.1-16.1-13.1-27.8h-0.3c0,11.8,6.9,20.6,13.2,28c6.2,7.4,14.8,14.3,29.6,17.6c10.4,2.3,46.7,2.6,67.7,2.6
	c9,0,15.1-0.1,15.1-0.1L142.3,196.7"/>
<path fill="#07030B" d="M59.6,194.4c0,0,0.8,0,2,0c1.8,0,4.6,0,7.1-0.2c1.2-0.1,2.4-0.2,3.2-0.4c0.9-0.2,1.5-0.3,1.8-0.7
	c0.1-0.1,0.1-0.2,0.1-0.3c0-0.3-0.2-0.5-0.5-0.7c-1.1-0.7-3.8-1.5-7.5-2.6c-3.7-1.1-8.3-2.5-13.1-4.3c-11.5-4.4-23.2-9.4-29.6-33.5
	c-3.2-12.1-4.9-23.3-5.9-31.5c-0.5-4.1-0.7-7.4-0.9-9.8c-0.1-2.3-0.2-3.6-0.2-3.6l-0.1,0l0.1,0c0,0,0-1.3,0.2-3.6
	c0.4-7,1.9-23.2,6.7-41.3c6.5-24.1,18.1-29.2,29.6-33.5c5.5-2.1,10.7-3.6,14.6-4.7c1.9-0.6,3.6-1.1,4.7-1.5c0.6-0.2,1-0.4,1.3-0.6
	c0.3-0.2,0.5-0.4,0.5-0.7c0-0.1,0-0.2-0.1-0.3c-0.3-0.3-0.9-0.5-1.8-0.7c-2.7-0.5-7.6-0.5-10.3-0.5c-1.2,0-2,0-2,0l0,0.3
	c0,0,0.8,0,2,0c1.8,0,4.6,0,7.1,0.2c1.2,0.1,2.3,0.2,3.2,0.4c0.9,0.1,1.5,0.4,1.6,0.6l0.1,0.1c0,0.1-0.1,0.2-0.4,0.4
	c-1,0.6-3.8,1.5-7.5,2.5c-3.7,1.1-8.3,2.5-13.1,4.3C41.1,32.6,29.2,37.7,22.8,62c-6.5,24.2-6.9,45-6.9,45v0c0,0,0.5,20.8,6.9,45
	c6.5,24.2,18.3,29.4,29.8,33.7c5.5,2.1,10.7,3.6,14.6,4.7c1.9,0.6,3.6,1.1,4.7,1.5c0.6,0.2,1,0.4,1.3,0.6c0.3,0.2,0.4,0.3,0.4,0.4
	l-0.1,0.1c-0.1,0.2-0.8,0.4-1.6,0.6c-2.6,0.5-7.5,0.5-10.3,0.5c-1.2,0-2,0-2,0L59.6,194.4"/>
<path fill="#07030B" d="M22.3,152.1c0,0-0.2-0.1-0.5-0.3c-2.2-1.4-11.2-7.8-14-17.6c-1.6-5.6-2.4-12.4-2.8-17.8
	c-0.2-2.7-0.3-5.1-0.4-6.8C4.5,108,4.5,107,4.5,107s0-1,0.1-2.7C4.7,99.2,5.3,88,7.7,79.7c1.6-5.6,5.2-10,8.5-13.1
	c1.6-1.5,3.1-2.7,4.2-3.5c0.6-0.4,1-0.7,1.3-0.9c0.3-0.2,0.5-0.3,0.5-0.3l-0.2-0.3c0,0-11.4,6.8-14.7,18.1
	C4.2,90.8,4.2,106.9,4.2,107c0,0,0,16.1,3.2,27.4c3.3,11.3,14.6,18,14.7,18.1L22.3,152.1"/>
<path fill="#07030B" d="M9.6,89.3l-0.1,0c0,0,0,0.4-0.1,0.9c-0.1,0.8-0.3,2-0.6,3c-0.2,0.5-0.4,0.9-0.6,1.2
	c-0.2,0.3-0.5,0.5-0.8,0.5c-0.4,0-0.6-0.2-0.9-0.6c-0.7-1.2-0.8-3.8-0.8-4.6c0-0.2,0-0.3,0-0.3v0c0,0,0-0.1,0-0.3
	c0-0.6,0-1.9,0.3-3.1c0.1-0.6,0.3-1.1,0.5-1.5c0.2-0.4,0.5-0.6,0.9-0.6c0.4,0,0.8,0.3,1.1,0.8c0.4,0.8,0.7,2,0.9,2.9
	c0.2,1,0.2,1.8,0.2,1.8L9.6,89.3l-0.1,0L9.6,89.3l0.1,0c0,0-0.1-1.4-0.4-2.9c-0.2-0.7-0.4-1.4-0.7-2c-0.3-0.6-0.8-1-1.3-1
	c-0.5,0-0.9,0.3-1.1,0.8c-0.8,1.3-0.8,3.9-0.9,4.8c0,0.2,0,0.3,0,0.3l0.1,0l-0.1,0c0,0,0,0.1,0,0.3c0,0.6,0,1.9,0.3,3.2
	c0.1,0.6,0.3,1.2,0.6,1.6c0.3,0.4,0.6,0.8,1.1,0.8c0.6,0,1-0.4,1.3-1c1-1.7,1.1-4.9,1.1-4.9l0,0l0,0L9.6,89.3"/>
<path fill="#07030B" d="M215.5,166.4c0,0-0.1-0.4-0.4-1.3c-1.8-5.8-8.8-30.9-8.8-58.1c0-15.5,2.3-30.4,4.6-41.4
	c1.2-5.5,2.3-10,3.2-13.1c0.4-1.6,0.8-2.8,1-3.6c0.3-0.8,0.4-1.3,0.4-1.3l-0.3-0.1c0,0-9.2,28.4-9.2,59.5c0,31.1,9.2,59.5,9.2,59.5
	L215.5,166.4"/>
<path fill="#07030B" d="M213.2,167.3c0,0-0.1-0.5-0.4-1.3c-1.8-6-9-31.8-9-59c0-15.5,2.4-30.6,4.7-41.8c1.2-5.6,2.4-10.2,3.2-13.5
	c0.4-1.6,0.8-2.9,1.1-3.7c0.3-0.9,0.4-1.3,0.4-1.3l-0.3-0.1c0,0-9.5,29.3-9.5,60.4c0,31.1,9.5,60.4,9.5,60.4L213.2,167.3"/>
<path fill="#07030B" d="M164.5,197.9c0,0-0.2-0.3-0.4-0.7c-0.7-1.3-2.1-4.2-2.1-6.5c0-1.1,0.3-2.1,1.2-2.7c0.9-0.6,1.9-0.8,3-0.8
	c1.4,0,2.9,0.4,4,0.8c0.5,0.2,1,0.4,1.3,0.6c0.3,0.2,0.5,0.3,0.5,0.3l0.1-0.1l-0.1,0.1l0.1,0.1c0.6,0.5,3.1,2.8,6.8,9.5l0.3-0.1
	c-4.3-7.7-7-9.7-7-9.7l0,0l0,0c0,0-3-1.7-6-1.7c-1.1,0-2.2,0.2-3.1,0.9c-1,0.7-1.4,1.8-1.3,2.9c0,3.2,2.5,7.3,2.5,7.3L164.5,197.9"
	/>
<path fill="#07030B" d="M164.3,15.8c0,0-2.5,4.1-2.5,7.3c0,1.2,0.4,2.3,1.3,2.9c1,0.6,2.1,0.9,3.1,0.9c3,0,6-1.7,6-1.7l0,0l0,0
	c0,0,2.8-2,7-9.7l-0.3-0.1c-2.1,3.8-3.9,6.2-5.1,7.7c-0.6,0.7-1.1,1.2-1.4,1.5c-0.2,0.2-0.3,0.3-0.4,0.3l-0.1,0.1l0.1,0.1l-0.1-0.1
	c0,0-0.2,0.1-0.5,0.3c-1,0.5-3.2,1.4-5.3,1.4c-1,0-2.1-0.2-3-0.8c-0.9-0.6-1.2-1.6-1.2-2.7c0-1.5,0.6-3.3,1.2-4.7
	c0.3-0.7,0.6-1.3,0.8-1.8c0.2-0.4,0.4-0.7,0.4-0.7L164.3,15.8"/>
<g id="c4-02">
	<polyline fill="#45669C" points="398.4,173.5 397.9,173.5 397.4,178.1 398.5,179.4 416.6,181.4 418.1,180.4 418.6,175.5
		417.4,174.3 399.3,172.3 398,173.2 397.9,173.5 398.4,173.5 398.7,173.9 399.6,173.3 417,175.3 417.6,175.9 417.1,179.8
		416.4,180.4 399,178.4 398.5,177.8 398.9,173.6 398.4,173.5 398.7,173.9 398.4,173.5 	"/>
	<polyline fill="#45669C" points="417.5,180.6 422.1,181.1 422.7,175.7 418.1,175.2 418,176.2 421.6,176.6 421.2,180 417.7,179.6
		417.5,180.6 	"/>
	<polyline fill="#ADBED5" points="398.4,173.5 398,177.9 398.8,178.9 416.5,180.9 417.6,180.1 418.1,175.7 417.2,174.8 399.4,172.8
		398.4,173.5 	"/>
	<polyline fill="#ADBED5" points="417.6,180.1 421.7,180.5 422.2,176.2 418.1,175.7 	"/>
	<polyline fill="#45669C" points="416.8,175 416.2,180.9 416.6,180.9 417.2,175 	"/>
	<polyline fill="#45669C" points="399.5,173 398.9,178.9 399.3,179 399.9,173.1 	"/>
	<polyline fill="#EF4337" points="425.3,173.1 425.4,172.4 394.2,169 392.8,181.6 424.8,185.1 426.2,172.5 425.4,172.4 425.3,173.1
		424.6,173 423.4,183.4 394.5,180.2 395.5,170.6 425.2,173.9 425.3,173.1 424.6,173 425.3,173.1 	"/>
</g>
<g id="c4-01">
	<polyline fill="#ADBED5" points="398.4,40.8 397.9,36.4 398.7,35.4 416.4,33.3 417.5,34.1 418.1,38.5 417.2,39.4 399.4,41.5
		398.4,40.8 	"/>
	<polyline fill="#ADBED5" points="417.5,34.1 421.6,33.6 422.1,38 418.1,38.5 	"/>
	<polyline fill="#45669C" points="417.6,34.6 421.2,34.1 421.6,37.5 418,38 418.1,39 422.7,38.4 422.1,33 417.5,33.6 417.6,34.6
		"/>
	<polyline fill="#45669C" points="398.4,40.8 398.9,40.7 398.4,36.5 399,35.8 416.3,33.8 417.1,34.3 417.5,38.3 416.9,38.9
		399.6,40.9 398.7,40.4 398.4,40.8 398.9,40.7 398.4,40.8 398.1,41.2 399.3,42 417.4,39.9 418.6,38.6 418,33.8 416.6,32.8
		398.4,34.9 397.4,36.2 398,41.1 398.1,41.2 398.4,40.8 	"/>
	<polyline fill="#45669C" points="417.2,39.1 416.5,33.3 416.1,33.3 416.8,39.2 	"/>
	<polyline fill="#EF4337" points="425.3,41 425.2,40.2 395.5,43.7 394.4,34.1 423.4,30.7 424.6,41.1 425.3,41 425.2,40.2 425.3,41
		426.1,40.9 424.7,29 392.7,32.8 394.2,45.4 426.1,41.6 426.1,40.9 425.3,41 	"/>
	<line fill="#45669C" x1="399.4" y1="35.1" x2="400.1" y2="41.6"/>
	<line fill="none" stroke="#44669E" stroke-width="0.5" x1="399.4" y1="35.1" x2="400.1" y2="41.6"/>
</g>
<g id="c4-03">
	<polyline fill="#ADBED5" points="417.1,296.2 420.9,297.8 422.6,293.7 418.8,292.1 	"/>
	<polyline fill="#45669C" points="416.9,296.6 421.1,298.4 423.3,293.5 419,291.6 418.6,292.6 422,294 420.6,297.1 417.3,295.7
		416.9,296.6 	"/>
	<polyline fill="#ADBED5" points="400.7,284.3 398.9,288.4 399.4,289.6 415.8,296.6 417.1,296.2 418.8,292.1 418.2,291 401.8,283.9
		400.7,284.3 	"/>
	<polyline fill="#45669C" points="417.8,291 415.5,296.5 415.9,296.6 418.2,291.2 	"/>
	<polyline fill="#45669C" points="401.8,284.2 399.5,289.6 399.9,289.8 402.2,284.3 	"/>
	<polyline fill="#45669C" points="400.7,284.3 400.2,284.1 398.4,288.3 399,289.9 415.8,297.2 417.5,296.6 419.4,292.1 418.6,290.6
		401.9,283.4 400.3,283.9 400.2,284.1 400.7,284.3 400.8,284.8 401.8,284.5 417.9,291.4 418.3,292.1 416.7,295.8 415.8,296.1
		399.8,289.2 399.5,288.4 401.1,284.5 400.7,284.3 400.8,284.8 400.7,284.3 	"/>
	<polyline fill="#EF4337" points="426.5,291.8 426.8,291.1 398,278.7 393,290.4 422.5,303 427.5,291.4 426.8,291.1 426.5,291.8
		425.8,291.5 421.7,301 394.9,289.6 398.7,280.7 426.2,292.4 426.5,291.8 425.8,291.5 426.5,291.8 	"/>
</g>
<g id="c1-09">
	<path fill="none" stroke="#415BA9" stroke-width="5" stroke-linecap="round" stroke-linejoin="round" d="M170.3,180.1l43-11.2
		c0,0,19.8-3.5,28-4.2s35.2-2,35.2-2l35.8,0.5l29.8,3.5l33.5,5l17.5,3.2"/>
	<path fill="none" stroke="#8EC9E3" stroke-width="3" stroke-linecap="round" stroke-linejoin="round" d="M170.3,180.1l43-11.2
		c0,0,19.8-3.5,28-4.2s35.2-2,35.2-2l35.8,0.5l29.8,3.5l33.5,5l17.5,3.2"/>
</g>
<g id="c1-08">
	<path fill="none" stroke="#415BA9" stroke-width="5" stroke-linecap="round" stroke-linejoin="round" d="M170.3,34.2l43,11.2
		c0,0,19.8,3.5,28,4.2s35.2,2,35.2,2l35.8-0.5l29.8-3.5l33.5-5l17.5-3.2"/>
	<path fill="none" stroke="#8EC9E3" stroke-width="3" stroke-linecap="round" stroke-linejoin="round" d="M170.3,34.2l43,11.2
		c0,0,19.8,3.5,28,4.2s35.2,2,35.2,2l35.8-0.5l29.8-3.5l33.5-5l17.5-3.2"/>
</g>
<g id="c1-05">
	<path fill="#8FCBE3" d="M271.5,332.6c-0.3,0.9-1.1,1.6-1.7,1.4l-2.6-0.8c-0.6-0.2-0.9-1.1-0.6-2.1l4.5-14.2
		c0.3-0.9,1.1-1.6,1.7-1.4l2.6,0.8c0.6,0.2,0.9,1.1,0.6,2.1L271.5,332.6"/>
	<path fill="#415BA9" d="M271.5,332.6l-0.7-0.2c-0.1,0.3-0.3,0.5-0.4,0.7c-0.2,0.2-0.3,0.2-0.3,0.2l0,0l-2.6-0.8c0,0,0,0-0.1-0.1
		c-0.1-0.1-0.1-0.3-0.1-0.5c0-0.2,0-0.3,0.1-0.5l4.5-14.2c0.1-0.3,0.3-0.5,0.4-0.7c0.2-0.2,0.3-0.2,0.3-0.2l0,0l2.6,0.8
		c0,0,0,0,0.1,0.1c0.1,0.1,0.1,0.3,0.1,0.5c0,0.2,0,0.3-0.1,0.5l-4.5,14.2L271.5,332.6l0.7,0.2l4.5-14.2c0.1-0.3,0.2-0.7,0.2-1
		c0-0.4-0.1-0.8-0.3-1.2c-0.2-0.4-0.5-0.7-1-0.8l-2.6-0.8c-0.2,0-0.3-0.1-0.5-0.1c-0.5,0-1,0.3-1.4,0.6c-0.4,0.3-0.6,0.8-0.8,1.3
		l-4.5,14.2c-0.1,0.3-0.2,0.7-0.2,1c0,0.4,0.1,0.8,0.3,1.2c0.2,0.4,0.5,0.7,1,0.8l2.6,0.8h0c0.2,0.1,0.3,0.1,0.5,0.1
		c0.5,0,1-0.3,1.4-0.6c0.4-0.3,0.6-0.8,0.8-1.3L271.5,332.6"/>
</g>
<g id="c1-04">
	<path fill="#8FCBE3" d="M211.6,297.3c3.8,10,4,19.1,0.5,20.4c-3.5,1.3-9.4-5.7-13.2-15.6c-3.8-10-4-19.1-0.5-20.4
		C201.9,280.3,207.8,287.3,211.6,297.3"/>
	<path fill="#415BA9" d="M211.6,297.3l-0.7,0.3c2,5.2,2.9,10.1,2.9,13.7c0,1.6-0.2,3-0.6,4c-0.2,0.5-0.4,0.9-0.6,1.2
		c-0.2,0.3-0.5,0.5-0.8,0.6c-0.2,0.1-0.4,0.1-0.6,0.1c-0.6,0-1.5-0.3-2.5-1c-1.5-1.1-3.1-2.9-4.7-5.4c-1.6-2.5-3.1-5.5-4.4-8.9
		c-2-5.2-2.9-10.1-2.9-13.7c0-1.6,0.2-3,0.6-4c0.2-0.5,0.4-0.9,0.6-1.2c0.2-0.3,0.5-0.5,0.8-0.6c0.2-0.1,0.4-0.1,0.6-0.1
		c0.6,0,1.5,0.3,2.5,1c1.5,1.1,3.1,2.9,4.7,5.4c1.6,2.5,3.1,5.5,4.4,8.9L211.6,297.3l0.7-0.3c-1.8-4.6-4-8.6-6.2-11.5
		c-1.1-1.4-2.3-2.6-3.4-3.4c-1.1-0.8-2.2-1.3-3.4-1.3c-0.4,0-0.8,0.1-1.2,0.2c-0.5,0.2-1,0.6-1.4,1c-0.6,0.7-0.9,1.5-1.2,2.6
		c-0.2,1-0.4,2.2-0.4,3.5c0,3.9,1,9,3,14.3c1.8,4.6,4,8.6,6.2,11.5c1.1,1.4,2.3,2.6,3.4,3.4c1.1,0.8,2.2,1.3,3.4,1.3
		c0.4,0,0.8-0.1,1.2-0.2c0.5-0.2,1-0.6,1.4-1c0.6-0.7,1-1.5,1.2-2.6c0.2-1,0.4-2.2,0.4-3.5c0-3.9-1-9-3-14.3L211.6,297.3"/>
</g>
<g id="c1-03">
	<path fill="#8FCBE3" d="M192.3,309.2c0,1.6-1.3,2.8-2.8,2.8h-6.3c-1.6,0-2.8-1.3-2.8-2.8v-15.6c0-1.6,1.3-2.8,2.8-2.8h6.3
		c1.6,0,2.8,1.3,2.8,2.8V309.2"/>
	<path fill="#415BA9" d="M192.3,309.2h-0.8c0,0.6-0.2,1.1-0.6,1.5c-0.4,0.4-0.9,0.6-1.5,0.6h-6.3c-0.6,0-1.1-0.2-1.5-0.6
		c-0.4-0.4-0.6-0.9-0.6-1.5v-15.6c0-0.6,0.2-1.1,0.6-1.5c0.4-0.4,0.9-0.6,1.5-0.6h6.3c0.6,0,1.1,0.2,1.5,0.6
		c0.4,0.4,0.6,0.9,0.6,1.5v15.6h1.5v-15.6c0-2-1.6-3.6-3.6-3.6h-6.3c-2,0-3.6,1.6-3.6,3.6v15.6c0,2,1.6,3.6,3.6,3.6h6.3
		c2,0,3.6-1.6,3.6-3.6H192.3"/>
</g>
<g id="c1-02">
	<path fill="#8FCBE3" d="M202.1,147.3c0.4,10.6-2.3,19.4-6.1,19.5c-3.7,0.1-7.1-8.4-7.5-19c-0.4-10.6,2.3-19.4,6.1-19.5
		C198.4,128.1,201.7,136.6,202.1,147.3"/>
	<path fill="#415BA9" d="M202.1,147.3l-0.7,0c0,0.7,0,1.3,0,2c0,4.8-0.6,9.1-1.7,12.1c-0.5,1.5-1.1,2.7-1.8,3.5
		c-0.3,0.4-0.7,0.7-1,0.9c-0.3,0.2-0.6,0.3-0.9,0.3l-0.1,0c-0.3,0-0.6-0.1-1-0.3c-0.6-0.3-1.3-1.1-1.9-2.1c-1-1.6-1.8-3.8-2.5-6.6
		c-0.6-2.7-1.1-5.9-1.2-9.4c0-0.7,0-1.3,0-2c0-4.8,0.6-9.1,1.7-12.1c0.5-1.5,1.2-2.7,1.8-3.5c0.3-0.4,0.7-0.7,1-0.9
		c0.3-0.2,0.6-0.3,0.9-0.3l0.1,0c0.3,0,0.6,0.1,1,0.3c0.6,0.3,1.3,1.1,1.9,2.1c1,1.6,1.8,3.8,2.5,6.6c0.6,2.7,1.1,5.9,1.2,9.4
		l1.5-0.1c-0.2-5.4-1.1-10.2-2.5-13.7c-0.7-1.8-1.5-3.2-2.4-4.3c-0.5-0.5-1-1-1.5-1.3c-0.5-0.3-1.1-0.5-1.7-0.5l-0.1,0
		c-0.6,0-1.1,0.2-1.6,0.5c-0.9,0.5-1.6,1.4-2.2,2.5c-0.9,1.6-1.7,3.8-2.2,6.5c-0.5,2.6-0.8,5.6-0.8,8.9c0,0.7,0,1.3,0,2
		c0.2,5.4,1.1,10.2,2.5,13.7c0.7,1.8,1.5,3.2,2.4,4.3c0.5,0.5,1,1,1.5,1.3c0.5,0.3,1.1,0.5,1.7,0.5l0.1,0c0.6,0,1.1-0.2,1.6-0.5
		c0.9-0.5,1.6-1.4,2.2-2.5c0.9-1.6,1.7-3.8,2.2-6.5c0.5-2.6,0.8-5.6,0.8-8.9c0-0.7,0-1.3,0-2L202.1,147.3"/>
</g>
<g id="c1-01">
	<path fill="#8FCBE3" d="M192.3,85c0,1.6-1.3,2.8-2.8,2.8h-6.3c-1.6,0-2.8-1.3-2.8-2.8V46.5c0-1.6,1.3-2.8,2.8-2.8h6.3
		c1.6,0,2.8,1.3,2.8,2.8V85"/>
	<path fill="#415BA9" d="M192.3,85h-0.8c0,0.6-0.2,1.1-0.6,1.5c-0.4,0.4-0.9,0.6-1.5,0.6h-6.3c-0.6,0-1.1-0.2-1.5-0.6
		c-0.4-0.4-0.6-0.9-0.6-1.5V46.5c0-0.6,0.2-1.1,0.6-1.5c0.4-0.4,0.9-0.6,1.5-0.6h6.3c0.6,0,1.1,0.2,1.5,0.6c0.4,0.4,0.6,0.9,0.6,1.5
		V85h1.5V46.5c0-2-1.6-3.6-3.6-3.6h-6.3c-2,0-3.6,1.6-3.6,3.6V85c0,2,1.6,3.6,3.6,3.6h6.3c2,0,3.6-1.6,3.6-3.6H192.3"/>
</g>
<g id="c1-10">
	<path fill="none" stroke="#415BA9" stroke-width="5" stroke-linecap="round" stroke-linejoin="round" d="M168.3,294.2
		c0,0,35.2-20,40.5-22.2c5.9-2.5,19.8-7.2,34.8-9s24.8-2.2,27.8-2.5s24,0,30.2,0.2s31.2,3.5,35.5,4.5s24.2,5.8,26,6.5
		s32,12.5,32,12.5"/>
	<path fill="none" stroke="#8EC9E3" stroke-width="3" stroke-linecap="round" stroke-linejoin="round" d="M168.3,294.2
		c0,0,35.2-20,40.5-22.2c5.9-2.5,19.8-7.2,34.8-9s24.8-2.2,27.8-2.5s24,0,30.2,0.2s31.2,3.5,35.5,4.5s24.2,5.8,26,6.5
		s32,12.5,32,12.5"/>
</g>
</svg>
