<svg xmlns="http://www.w3.org/2000/svg" width="30.06" height="80.17" viewBox="0 0 30.06 80.17"><title>l01</title><path d="M28.56,40.11c0,21.31-6.09,38.57-13.57,38.55S1.48,61.36,1.5,40.06,7.6,1.48,15.07,1.5,28.58,18.8,28.56,40.11" fill="#8fcbe3"/><path d="M28.56,40.11h-1.5c0,1.32,0,2.63-.07,3.91-.35,9.59-2,18.12-4.29,24.11A23,23,0,0,1,18.84,75a7.77,7.77,0,0,1-2,1.66,3.78,3.78,0,0,1-1.84.5h-.12a3.92,3.92,0,0,1-2-.65A11.89,11.89,0,0,1,9.2,72.17,46,46,0,0,1,4.72,58.84,96.72,96.72,0,0,1,3,40.06c0-1.32,0-2.62.08-3.91C3.42,26.56,5,18,7.36,12a22.74,22.74,0,0,1,3.87-6.88,7.6,7.6,0,0,1,2-1.66A3.73,3.73,0,0,1,15.07,3h.11a4.1,4.1,0,0,1,2,.65A11.89,11.89,0,0,1,20.86,8a46.24,46.24,0,0,1,4.48,13.33A96.72,96.72,0,0,1,27.06,40.1h3c0-10.72-1.48-20.43-4-27.62a29.28,29.28,0,0,0-4.49-8.75A11.33,11.33,0,0,0,18.72,1.1,6.94,6.94,0,0,0,15.29,0h-.22a6.89,6.89,0,0,0-3.28.86A13.25,13.25,0,0,0,7.17,5.63,43.12,43.12,0,0,0,2.32,18.38,92.3,92.3,0,0,0,.08,36c0,1.32-.08,2.65-.08,4C0,50.77,1.48,60.48,4,67.68a29.53,29.53,0,0,0,4.49,8.75,11.71,11.71,0,0,0,2.89,2.64,7,7,0,0,0,3.43,1.09H15a6.75,6.75,0,0,0,3.28-.86,13.32,13.32,0,0,0,4.63-4.76,43,43,0,0,0,4.84-12.75A92.4,92.4,0,0,0,30,44.13c.05-1.33.08-2.67.08-4h-1.5" fill="#415ba9"/></svg>