<svg xmlns="http://www.w3.org/2000/svg" width="101.84" height="73.77" viewBox="0 0 101.84 73.77"><title>l12</title><path d="M87.52,70H29.11a14.31,14.31,0,0,1-10.4-4.49A15.58,15.58,0,0,1,14.4,54.69V45.33a15.58,15.58,0,0,1,4.31-10.85A14.36,14.36,0,0,1,29.11,30H68.68a6,6,0,0,0,5.92-6.15v-.15a6,6,0,0,0-5.92-6.16H14.4v-2.1l10.71-3.05L14,9.27l.43-.11V3.75H72.8A14.4,14.4,0,0,1,83.21,8.23a15.53,15.53,0,0,1,4.31,10.83v9.39a15.55,15.55,0,0,1-4.31,10.83A14.4,14.4,0,0,1,72.8,43.76H33.23A5.79,5.79,0,0,0,29,45.57a6.35,6.35,0,0,0-1.72,4.37v.13A6.37,6.37,0,0,0,29,54.44a5.79,5.79,0,0,0,4.2,1.81H87.52v2.1l-10.79,3L88,64.49l-.5.14V70" fill="#ecc66d"/><path d="M29.11,28.11C20,28.11,12.6,35.82,12.6,45.33v9.36c0,9.5,7.38,17.2,16.51,17.2H89.32V66.06l5.61-1.59L83.71,61.35l5.61-1.56V54.37H33.23a4.2,4.2,0,0,1-4.12-4.3v-.13a4.21,4.21,0,0,1,4.12-4.31H72.8c9.12,0,16.52-7.67,16.52-17.18V19.06c0-9.51-7.4-17.18-16.52-17.18H12.6V7.71L7,9.27,18.2,12.39,12.6,14V19.4H68.68a4.21,4.21,0,0,1,4.12,4.28v.15a4.21,4.21,0,0,1-4.12,4.28H29.11m62,45.66h-62C19,73.77,10.8,65.23,10.8,54.69V45.33c0-10.55,8.18-19.1,18.31-19.1H68.68A2.37,2.37,0,0,0,71,23.83v-.15a2.37,2.37,0,0,0-2.32-2.41H10.8V12.55l.49-.14L0,9.27l10.8-3V0h62A17.93,17.93,0,0,1,85.75,5.57a19.4,19.4,0,0,1,5.37,13.49v9.39a19.37,19.37,0,0,1-5.37,13.48,17.9,17.9,0,0,1-12.94,5.58H33.23a2.36,2.36,0,0,0-2.32,2.43v.13a2.37,2.37,0,0,0,2.32,2.43H91.12v8.73l-.43.12,11.15,3.1-10.72,3v6.28" fill="#6f6f6e"/><path d="M29.11,30a14.36,14.36,0,0,0-10.4,4.5A15.58,15.58,0,0,0,14.4,45.33v9.36a15.58,15.58,0,0,0,4.31,10.84A14.31,14.31,0,0,0,29.11,70H87.52V64.63l.5-.14L76.73,61.35l10.79-3v-2.1H33.23A5.79,5.79,0,0,1,29,54.44a6.37,6.37,0,0,1-1.72-4.37v-.13A6.35,6.35,0,0,1,29,45.57a5.79,5.79,0,0,1,4.2-1.81H72.8a14.4,14.4,0,0,0,10.41-4.48,15.55,15.55,0,0,0,4.31-10.83V19.06A15.53,15.53,0,0,0,83.21,8.23,14.4,14.4,0,0,0,72.8,3.75H14.4V9.16L14,9.27l11.14,3.1L14.4,15.42v2.1H68.68a6,6,0,0,1,5.92,6.16v.15A6,6,0,0,1,68.68,30H29.11M89.32,71.89H29.11c-9.13,0-16.51-7.7-16.51-17.2V45.33c0-9.51,7.38-17.22,16.51-17.22H68.68a4.21,4.21,0,0,0,4.12-4.28v-.15a4.21,4.21,0,0,0-4.12-4.28H12.6V14l5.6-1.59L7,9.27,12.6,7.71V1.88H72.8c9.12,0,16.52,7.67,16.52,17.18v9.39c0,9.51-7.4,17.18-16.52,17.18H33.23a4.21,4.21,0,0,0-4.12,4.31v.13a4.2,4.2,0,0,0,4.12,4.3H89.32v5.42l-5.61,1.56,11.22,3.12-5.61,1.59v5.83" fill="#6b685e"/></svg>