<svg xmlns="http://www.w3.org/2000/svg" width="82.39" height="82.37" viewBox="0 0 82.39 82.37"><title>l13</title><path d="M41.2,39h0a9.83,9.83,0,1,0-9.82-9.84A9.84,9.84,0,0,0,41.2,39m29.65,7.79H11.56V11.54H70.85ZM25.75,69.1h0a3.87,3.87,0,1,0-3.86-3.87,3.86,3.86,0,0,0,3.86,3.87m4.64,1.74H21.12l-2.72-2.7V49.29H33.11V68.14l-2.72,2.7M56.63,69.1h0a3.87,3.87,0,1,0-3.84-3.87,3.88,3.88,0,0,0,3.84,3.87m4.65,1.74H52l-2.71-2.7V49.29H64V68.14l-2.71,2.7M51.5,72.08v1.24H61.79V72.08l.87.88,3.44-3.43-.87-.88h1.23V49.29h5.63V48.05h1.24V10.3H72.09V9.06H10.31V10.3H9.07V48.05h1.24v1.24h5.61V68.65h1.24l-.87.88L19.73,73l.87-.88v1.24H30.9V72.08l.88.88,3.44-3.43-.88-.88h1.24V49.29H46.82V68.65h1.24l-.87.88L50.62,73l.88-.88m24,9.06H6.87a5.62,5.62,0,0,1-5.63-5.61V6.87A5.65,5.65,0,0,1,6.87,1.24H75.51v0a5.64,5.64,0,0,1,5.64,5.63V75.53a5.62,5.62,0,0,1-5.64,5.61" fill="#ecc66d"/><path d="M75.51,82.37H6.87A6.85,6.85,0,0,1,0,75.53V6.87A6.88,6.88,0,0,1,6.87,0H75.51V1.24H6.87A5.65,5.65,0,0,0,1.24,6.87V75.53a5.62,5.62,0,0,0,5.63,5.61H75.51a5.62,5.62,0,0,0,5.64-5.61V6.87a5.64,5.64,0,0,0-5.64-5.63V0a6.88,6.88,0,0,1,6.88,6.87V75.53a6.85,6.85,0,0,1-6.88,6.84" fill="#6b685e"/><path d="M25.75,67.85V66.62a1.39,1.39,0,0,1,0-2.78,1.39,1.39,0,0,1,0,2.78v1.23" fill="#e5b53d"/><path d="M25.75,69.09a3.86,3.86,0,1,1,3.84-3.86,3.86,3.86,0,0,1-3.84,3.86V67.85a2.62,2.62,0,1,0-2.62-2.62,2.61,2.61,0,0,0,2.62,2.62v1.24" fill="#6b685e"/><path d="M25.75,67.85a2.62,2.62,0,1,1,2.61-2.62,2.62,2.62,0,0,1-2.61,2.62V66.62a1.39,1.39,0,1,0-1.38-1.39,1.38,1.38,0,0,0,1.38,1.39v1.23" fill="#6b6658"/><path d="M56.63,67.85V66.62A1.39,1.39,0,1,1,58,65.23a1.39,1.39,0,0,1-1.39,1.39v1.23" fill="#e5b53d"/><path d="M56.63,69.09a3.86,3.86,0,1,1,3.87-3.86,3.85,3.85,0,0,1-3.87,3.86V67.85A2.62,2.62,0,1,0,54,65.23a2.62,2.62,0,0,0,2.6,2.62v1.24" fill="#6b685e"/><path d="M56.63,67.85a2.62,2.62,0,1,1,2.63-2.62,2.61,2.61,0,0,1-2.63,2.62V66.62a1.39,1.39,0,1,0-1.36-1.39,1.39,1.39,0,0,0,1.36,1.39v1.23" fill="#6b6658"/><path d="M41.21,37.78V36.54a7.35,7.35,0,1,1,7.34-7.36,7.37,7.37,0,0,1-7.34,7.36v1.24" fill="#e5b53d"/><path d="M41.21,39A9.83,9.83,0,1,1,51,29.18,9.84,9.84,0,0,1,41.21,39V37.78a8.59,8.59,0,1,0-8.6-8.6,8.6,8.6,0,0,0,8.6,8.6V39" fill="#6b685e"/><path d="M41.21,37.78a8.59,8.59,0,1,1,8.58-8.6,8.61,8.61,0,0,1-8.58,8.6V36.54a7.34,7.34,0,1,0-7.36-7.36,7.36,7.36,0,0,0,7.36,7.36v1.24" fill="#6b6658"/><polygon points="66.46 68.65 65.22 68.65 64.35 67.78 63.99 68.14 63.99 49.29 65.22 49.29 65.22 68.65 65.22 49.29 66.46 49.29 66.46 68.65" fill="#6b685e"/><path d="M65.22,68.65v0Z" fill="#6b6658"/><path d="M61.79,72.08V70.84h-.51L64,68.14v.51h1.24Zm.87.88-.87-.88,3.44-3.43.87.88L62.66,73" fill="#6b685e"/><polygon points="65.22 68.65 63.99 68.65 63.99 68.14 64.35 67.78 65.22 68.65" fill="#3a3937"/><polygon points="61.79 72.08 61.79 72.08 65.22 68.66 61.79 72.08" fill="#6b6658"/><path d="M61.79,72.08H51.5l.88-.88L52,70.84h9.27l-.37.36Zm0,1.24H51.5V72.08H61.79Z" fill="#6b685e"/><polygon points="61.79 72.08 61.79 72.08 60.91 71.2 61.27 70.84 61.79 70.84 61.79 72.08" fill="#3a3937"/><path d="M61.79,72.08h0Z" fill="#6b6658"/><path d="M51.5,72.08l-3.44-3.43H49.3v-.51L52,70.84H51.5Zm-.88.88-3.43-3.43.87-.88,3.44,3.43-.88.88" fill="#6b685e"/><polygon points="51.5 72.08 51.5 70.84 52.01 70.84 52.38 71.2 51.5 72.08" fill="#3a3937"/><path d="M51.5,72.08l-3.44-3.42Z" fill="#6b6658"/><path d="M48.06,68.65V49.29H49.3V68.14l-.36-.36Zm0,0H46.83V49.29h1.23Z" fill="#6b685e"/><path d="M49.3,68.65H48.06l.88-.87.36.36v.51" fill="#3a3937"/><path d="M48.06,68.65v0Z" fill="#6b6658"/><path d="M64,49.29H49.3V48.05H64Zm8.1,0H66.46V48.05h5.63v1.24" fill="#6b685e"/><path d="M65.22,49.29H64V48.05h1.23Zm1.24,0H65.22V48.05h1.24Z" fill="#3a3937"/><polygon points="65.22 49.29 65.22 49.29 65.22 48.05 65.22 49.29" fill="#393835"/><path d="M70.85,48.05H11.55V46.81h59.3Zm-24,1.24H35.58V48.05H33.1v1.24H18.4V48.05H15.92v1.24H10.31V48.05H46.82v1.24" fill="#6b685e"/><path d="M48.06,49.29H46.83V48.05h1.23Zm1.24,0H48.06V48.05H49.3Z" fill="#3a3937"/><polygon points="48.06 49.29 48.06 49.29 48.06 48.05 48.06 49.29" fill="#393835"/><path d="M64,48.05h0Zm6.87,0h0" fill="#6b6658"/><path d="M65.22,48.05h0Zm1.24,0h0" fill="#5e5950"/><path d="M46.82,48.05h0Z" fill="#6b6658"/><path d="M48.06,48.05h0Zm1.24,0h0" fill="#5e5950"/><polygon points="73.33 48.05 72.09 48.05 72.09 46.81 70.85 46.81 70.85 11.54 72.09 11.54 72.09 48.05 72.09 11.54 72.09 10.3 73.33 10.3 73.33 48.05" fill="#6b685e"/><polygon points="72.09 48.05 70.85 48.05 72.09 48.05 70.85 48.05 70.85 46.81 72.09 46.81 72.09 48.05" fill="#3a3937"/><path d="M72.09,48.05h0Z" fill="#393835"/><path d="M72.09,48.05v0Z" fill="#6b6658"/><path d="M72.09,10.3H10.31V9.06H72.09Zm-1.24,1.24H11.55V10.3h59.3v1.24" fill="#6b685e"/><rect x="70.85" y="10.3" width="1.24" height="1.24" fill="#3a3937"/><polygon points="72.09 11.54 72.09 11.54 72.09 10.3 72.09 11.54" fill="#393835"/><path d="M70.85,10.3h0Z" fill="#6b6658"/><path d="M72.09,10.3h0Z" fill="#5e5950"/><path d="M11.55,46.81H10.31V11.54h1.24Zm-1.24,1.24H9.07V10.3h1.24V48.05" fill="#6b685e"/><rect x="10.31" y="46.81" width="1.24" height="1.24" fill="#3a3937"/><path d="M11.55,48.05h0Z" fill="#393835"/><rect x="10.31" y="10.3" width="1.24" height="1.24" fill="#3a3937"/><polygon points="10.31 46.81 10.31 46.81 10.31 11.54 10.31 46.81" fill="#6b6658"/><polygon points="10.31 48.05 10.31 48.05 10.31 46.81 10.31 48.05" fill="#5e5950"/><polygon points="10.31 11.54 10.31 11.54 10.31 10.3 10.31 11.54" fill="#5e5950"/><rect x="15.92" y="49.29" width="1.24" height="19.36" fill="#6b685e"/><rect x="15.92" y="48.05" width="1.24" height="1.24" fill="#3a3937"/><polygon points="17.16 68.65 17.16 49.29 18.4 49.29 18.4 68.14 18.03 67.78 17.16 68.65" fill="#6b685e"/><rect x="17.16" y="48.05" width="1.24" height="1.24" fill="#3a3937"/><path d="M17.16,68.65v0Z" fill="#6b6658"/><polygon points="17.16 49.29 17.16 49.29 17.16 48.05 17.16 49.29" fill="#5e5950"/><path d="M17.16,68.65l3.44,3.43ZM19.73,73l-3.44-3.43.87-.88H18.4v-.51l2.71,2.7H20.6v1.24l-.87.88" fill="#6b685e"/><polygon points="18.4 68.65 17.16 68.65 18.04 67.78 18.4 68.14 18.4 68.65" fill="#3a3937"/><path d="M20.6,72.08l-3.44-3.42Z" fill="#6b6658"/><path d="M30.9,72.08H20.6l.88-.88-.37-.36h9.28L30,71.2Zm0,1.24H20.6V72.08H30.9Z" fill="#6b685e"/><path d="M20.6,72.08h0V70.84h.52l.36.36Z" fill="#3a3937"/><path d="M30.9,72.08h0Z" fill="#6b6658"/><polygon points="31.78 72.96 30.9 72.08 30.9 70.84 30.39 70.84 33.1 68.14 33.1 68.65 34.34 68.65 30.9 72.08 34.34 68.65 35.22 69.53 31.78 72.96" fill="#6b685e"/><polygon points="30.9 72.08 30.9 72.08 30.03 71.2 30.39 70.84 30.9 70.84 30.9 72.08" fill="#3a3937"/><path d="M30.9,72.08l3.44-3.42Z" fill="#6b6658"/><rect x="34.34" y="49.29" width="1.24" height="19.36" fill="#6b685e"/><rect x="34.34" y="48.05" width="1.24" height="1.24" fill="#3a3937"/><polygon points="34.34 68.65 34.34 68.65 33.47 67.78 33.1 68.14 33.1 49.29 34.34 49.29 34.34 68.65" fill="#6b685e"/><rect x="33.1" y="48.05" width="1.24" height="1.24" fill="#3a3937"/><polygon points="34.34 68.65 33.1 68.65 33.1 68.14 33.47 67.78 34.34 68.65" fill="#3a3937"/><polygon points="34.34 68.65 34.34 68.65 34.34 49.29 34.34 68.65" fill="#6b6658"/><polygon points="34.34 49.29 34.34 49.29 34.34 48.05 34.34 49.29" fill="#5e5950"/></svg>