<svg xmlns="http://www.w3.org/2000/svg" width="87.68" height="74" viewBox="0 0 87.68 74"><title>l17</title><path d="M71.72,56.67,49.42,46.31l22.3-10.53V56.67M16,56.67V35.77L38.34,46.31,16,56.67m-2.35,3.67,1,2.13L43.88,48.91l29.2,13.56,1-2.13h2.35V32.07H74.07l-1-2.12L46.23,42.62V16h6.54V11.31H34.91V16h6.63V42.62L14.65,30l-1,2.12H11.31V60.34h2.34m60.42,9H13.65a9,9,0,0,1-9-9V13.66a9,9,0,0,1,9-9H74.07a8.92,8.92,0,0,1,8.92,9V60.34a8.92,8.92,0,0,1-8.92,9" fill="#c2d8ad"/><path d="M13.65,2.35A11.3,11.3,0,0,0,2.35,13.66V60.34a11.3,11.3,0,0,0,11.3,11.31H74.07A11.27,11.27,0,0,0,85.34,60.34V13.66A11.27,11.27,0,0,0,74.07,2.35H13.65M74.08,74H13.65A13.65,13.65,0,0,1,0,60.34V13.66A13.65,13.65,0,0,1,13.65,0H74.08a13.61,13.61,0,0,1,13.6,13.66V60.34A13.61,13.61,0,0,1,74.08,74" fill="#729a51"/><path d="M13.65,4.69a9,9,0,0,0-9,9v46.7a9,9,0,0,0,9,8.95H74.07A8.92,8.92,0,0,0,83,60.35V13.65a8.92,8.92,0,0,0-8.92-9H13.65m60.42,67H13.65a11.3,11.3,0,0,1-11.3-11.3V13.65a11.29,11.29,0,0,1,11.3-11.3H74.07a11.26,11.26,0,0,1,11.27,11.3v46.7a11.27,11.27,0,0,1-11.27,11.3" fill="#729a51"/><polygon points="52.77 16 46.23 16 46.23 13.66 43.88 13.66 41.54 13.66 41.54 16 34.91 16 34.91 13.66 52.77 13.66 43.88 13.66 34.91 13.66 34.91 11.31 43.88 11.31 52.77 11.31 52.77 16" fill="#729a51"/><polygon points="52.77 13.65 34.91 13.65 43.88 13.65 52.77 13.65" fill="#6d984b"/><path d="M43.88,43.73V16h2.35V42.62Zm0,0-2.34-1.1V16h2.34V43.73" fill="#729a51"/><path d="M43.88,16H41.54V13.66h2.34Zm2.35,0H43.89V13.66h2.34Z" fill="#5d8b3c"/><path d="M43.88,43.73v0Z" fill="#6d984b"/><polygon points="43.88 16 43.88 16 43.88 13.66 43.88 16" fill="#669345"/><path d="M71.72,59.25,46.66,47.61l2.76-1.3,22.3,10.36Zm1.36,3.22L43.88,48.91l1-.45-1-2.13,1,2.12,1.77-.84L71.72,59.25v1.1h2.35l-1,2.12" fill="#729a51"/><path d="M71.72,59.25,46.66,47.61Z" fill="#6d984b"/><path d="M74.07,57.76l-2.35-1.09V35.78l2.35-1.11V57.76m2.35,2.58H74.07l1-2.12-1-.46V34.67l1-.48-1-2.12h2.35V60.34" fill="#729a51"/><path d="M74.07,60.34V57.76l1,.46Zm0,0H71.72V59.26l2.35,1.08-2.35-1.08V56.67l2.35,1.09v2.58" fill="#5d8b3c"/><path d="M74.07,60.34l-2.35-1.08Z" fill="#5b893a"/><path d="M74.07,57.76h0v0" fill="#6d984b"/><path d="M74.07,60.34v0Z" fill="#669345"/><path d="M49.42,46.31,46.65,45,71.72,33.18v2.59Z" fill="#729a51"/><path d="M46.65,47.61l-2.77-1.29h2.35v-1.1l.42-.2,2.77,1.29Zm-1.76.84-1-2.13,2.77,1.29-1.76.84" fill="#5d8b3c"/><polygon points="46.23 46.33 43.88 46.33 46.23 45.22 46.23 46.33" fill="#568636"/><path d="M46.66,47.61l-2.78-1.28Z" fill="#5b893a"/><path d="M74.07,34.67v-2.6l1,2.12Zm-2.35,1.1V33.18l2.35-1.11v2.6l-2.35,1.1" fill="#5d8b3c"/><path d="M74.07,34.67v0Z" fill="#5b893a"/><polygon points="46.65 45.02 46.23 44.83 46.23 42.62 73.07 29.95 74.07 32.07 71.72 32.07 71.72 33.18 46.65 45.02" fill="#729a51"/><path d="M43.89,43.73h0Zm2.34,1.1-1.35-.63-1-.47,2.34-1.11v2.21" fill="#5d8b3c"/><polygon points="46.23 45.22 46.23 44.83 46.65 45.02 46.23 45.22" fill="#5d8b3c"/><polygon points="43.88 46.33 44.88 44.2 44.88 44.2 46.23 44.83 46.23 45.22 43.88 46.33" fill="#568636"/><polygon points="71.72 33.18 71.72 32.07 74.07 32.07 71.72 33.18" fill="#5d8b3c"/><polygon points="46.65 45.02 46.65 45.02 71.72 33.18 46.65 45.02" fill="#6d984b"/><polygon points="46.23 45.22 46.23 45.22 46.65 45.02 46.23 45.22" fill="#669345"/><polygon points="43.88 46.33 43.88 46.33 46.23 45.22 43.88 46.33" fill="#649243"/><polygon points="71.72 33.18 71.72 33.18 74.07 32.07 71.72 33.18" fill="#669345"/><path d="M41.12,45,16,33.18V32.07H13.65l1-2.12L41.54,42.62v2.21Zm-2.78,1.29L16,35.77V33.18L41.12,45l-2.78,1.29" fill="#729a51"/><polygon points="41.54 44.83 41.54 42.62 43.88 43.73 42.89 44.2 41.54 44.83" fill="#5d8b3c"/><path d="M43.88,46.33l-1-2.13h0l1-.47Zm0,0h0v-2.6l1,.47h0l-1,2.13" fill="#568636"/><polygon points="43.88 46.33 43.88 46.33 43.88 43.73 43.88 46.33" fill="#568636"/><polygon points="43.88 46.33 44.87 44.2 44.88 44.2 44.88 44.2 43.88 46.33" fill="#558535"/><path d="M41.12,45,16,33.18Z" fill="#6d984b"/><path d="M13.65,60.34H11.31V32.07h2.34l-1,2.12,1,.48V57.76l-1,.46Z" fill="#729a51"/><polygon points="13.65 34.66 12.65 34.19 13.65 32.07 13.65 34.66" fill="#5d8b3c"/><path d="M13.65,57.76V34.67L16,35.77v20.9l-2.35,1.09" fill="#729a51"/><path d="M16,33.18l-2.34-1.11H16Zm0,2.59-2.34-1.11V32.07L16,33.18v2.59" fill="#5d8b3c"/><path d="M16,33.18l-2.34-1.11Z" fill="#5b893a"/><path d="M13.65,57.76v0" fill="#6d984b"/><polygon points="13.65 34.66 13.65 34.66 13.65 32.07 13.65 34.66" fill="#669345"/><path d="M16,59.26V56.67L38.34,46.31l2.77,1.3Zm-1.36,3.21-1-2.12H16V59.26L41.11,47.61l1.77.84,1-2.12-1,2.13,1,.45L14.64,62.47" fill="#729a51"/><polygon points="43.88 48.91 42.9 48.46 43.88 46.33 44.87 48.46 43.88 48.91" fill="#5d8b3c"/><path d="M41.54,45.22l-.42-.2.42-.19Zm1.34,3.23-1.77-.84,2.77-1.29-2.77,1.29-2.77-1.3L41.12,45l.42.2v1.1h2.34l-1,2.13" fill="#5d8b3c"/><path d="M43.88,46.33H41.53V45.22Zm0,0h0l-2.35-1.11v-.39l1.36-.63h0l1,2.13" fill="#568636"/><path d="M43.88,46.33l-1-2.13h0Z" fill="#558535"/><path d="M41.54,45.22l-.42-.2Z" fill="#5b893a"/><polygon points="43.88 46.33 43.88 46.33 41.53 45.22 43.88 46.33" fill="#598839"/><path d="M13.66,60.34l-1-2.12,1-.46Zm0,0h0V57.76L16,56.67v2.59l-2.34,1.08m2.34,0H13.66L16,59.26v1.08" fill="#5d8b3c"/><polygon points="13.65 60.34 13.65 60.34 13.65 57.76 13.65 60.34" fill="#5b893a"/><polygon points="16 59.26 16 59.26 41.11 47.61 16 59.26" fill="#6d984b"/><polygon points="41.11 47.61 41.11 47.61 43.88 46.33 41.11 47.61" fill="#669345"/><polygon points="13.65 60.34 13.65 60.34 16 59.26 13.65 60.34" fill="#669345"/></svg>