<svg xmlns="http://www.w3.org/2000/svg" width="102.28" height="41.77" viewBox="0 0 102.28 41.77"><title>l18</title><path d="M57.12,18.59A3.14,3.14,0,0,0,55,17.72h0a3.21,3.21,0,0,0-1.2.24V3.69H64.86V18a3.06,3.06,0,0,0-1.2-.24h0a3.14,3.14,0,0,0-2.18.87,3.1,3.1,0,0,0-2.17-.87h0a3.13,3.13,0,0,0-2.17.87m-16.55,0a3.13,3.13,0,0,0-2.16-.87h0A3,3,0,0,0,37.2,18V3.69H48.31V18a3,3,0,0,0-1.2-.24h0a3.13,3.13,0,0,0-2.17.87,3.13,3.13,0,0,0-2.17-.87h0a3.14,3.14,0,0,0-2.18.87m-12.6,0a3.16,3.16,0,0,0-2.18-.87h0a3.13,3.13,0,0,0-2.17.87,3.11,3.11,0,0,0-2.17-.87h0a3,3,0,0,0-1.2.24V3.69H31.36V18a3.21,3.21,0,0,0-1.2-.24h0a3.18,3.18,0,0,0-2.19.87m-16.54,0a3.18,3.18,0,0,0-2.18-.87h0a3.1,3.1,0,0,0-2.17.87,3.14,3.14,0,0,0-2.18-.87h0a3.06,3.06,0,0,0-1.2.24V3.69H14.8V18a3.1,3.1,0,0,0-1.18-.23h0a3.14,3.14,0,0,0-2.18.87m62.88,0a3.18,3.18,0,0,0-2.18-.87h0a3.06,3.06,0,0,0-1.2.24V9.78h4.29A2.71,2.71,0,0,0,77.9,7.15V3.69h4.15V18a3.26,3.26,0,0,0-1.21-.24h0a3.13,3.13,0,0,0-2.16.87,3.13,3.13,0,0,0-2.16-.87h0a3.18,3.18,0,0,0-2.18.87m16.54,0a3.12,3.12,0,0,0-2.17-.88h0a3.14,3.14,0,0,0-1.18.23V3.69h4.15V7.07A2.77,2.77,0,0,0,92.43,9a2.7,2.7,0,0,0,1.89.78h0V7.07h0v2.7H98.6V18a3.21,3.21,0,0,0-1.2-.24h0a3.16,3.16,0,0,0-2.18.87,3.13,3.13,0,0,0-2.16-.87h0a3.17,3.17,0,0,0-2.19.88m-76,16.87H3.68V23.77A3,3,0,0,0,4.89,24a3.15,3.15,0,0,0,2.18-.87A3.13,3.13,0,0,0,9.24,24a3.17,3.17,0,0,0,2.19-.88,3.12,3.12,0,0,0,2.19.88,3.07,3.07,0,0,0,1.18-.24v11.7m16.56,0H20.23V23.77a3,3,0,0,0,1.21.24,3.15,3.15,0,0,0,2.17-.87,3.15,3.15,0,0,0,4.36,0,3.19,3.19,0,0,0,2.19.88,3.13,3.13,0,0,0,1.2-.24v11.7m17,0H37.2V23.77a3.13,3.13,0,0,0,1.2.24h0a3.14,3.14,0,0,0,2.17-.88,3.12,3.12,0,0,0,2.18.88,3.15,3.15,0,0,0,2.18-.87A3.15,3.15,0,0,0,47.1,24a3.18,3.18,0,0,0,1.21-.24v11.7m16.55,0H53.74V23.77a3.17,3.17,0,0,0,1.2.24,3.13,3.13,0,0,0,2.18-.88,3.14,3.14,0,0,0,4.35,0,3.17,3.17,0,0,0,2.18.87,3.22,3.22,0,0,0,1.21-.24v11.7m17.19,0H70.92V23.77a3,3,0,0,0,1.2.24,3.12,3.12,0,0,0,2.19-.88A3.12,3.12,0,0,0,76.5,24h0a3.14,3.14,0,0,0,2.17-.88,3.1,3.1,0,0,0,2.16.88,3.06,3.06,0,0,0,1.22-.25V35.47m16.55,0H87.48V23.78a3.1,3.1,0,0,0,1.18.23h0a3.12,3.12,0,0,0,2.18-.88A3.19,3.19,0,0,0,93,24h0a3.11,3.11,0,0,0,2.16-.88A3.12,3.12,0,0,0,97.4,24a3.17,3.17,0,0,0,1.2-.24v11.7" fill="#ecc66d"/><path d="M65.83,1.84H52.77V0A2.67,2.67,0,0,0,51,.64,2.71,2.71,0,0,0,49.29,0V1.84H36.23V0h0a2.71,2.71,0,0,0-1.9.77.12.12,0,0,1,0,0l0,0A2.69,2.69,0,0,0,32.33,0h0V1.84H19.26V0a2.67,2.67,0,0,0-1.74.63A2.77,2.77,0,0,0,15.77,0V1.84H2.71V0H70a2.69,2.69,0,0,0-1.89.77L67.89,1A2.74,2.74,0,0,0,65.83,0V1.84M15.77,41.76H2.69A2.71,2.71,0,0,1,.77,41,2.74,2.74,0,0,1,0,39.05V2.71A2.71,2.71,0,0,1,2.71,0V1.84a.87.87,0,0,0-.87.87V20.13a3.05,3.05,0,0,0-.08.74,3.38,3.38,0,0,0,.08.72V39.05a.87.87,0,0,0,.85.87H15.77v1.84m3.47,0H15.79a2.72,2.72,0,0,0,1.73-.62,2.71,2.71,0,0,0,1.72.62m13.08,0H19.26V39.92H32.32l-.14,1.84h.14m3.88,0H32.49a2.67,2.67,0,0,0,1.79-.8,2.71,2.71,0,0,0,1.92.8m13.09,0H36.23V39.92H49.29Zm3.46,0H49.3A2.72,2.72,0,0,0,51,41.14a2.71,2.71,0,0,0,1.72.62m13.08,0H52.77V39.92H65.83Zm4.1,0H65.85A2.72,2.72,0,0,0,67.74,41l.16-.17.1.12a2.68,2.68,0,0,0,1.93.82m13.1,0H70V39.92H83Zm3.46,0H83a2.7,2.7,0,0,0,1.73-.62,2.69,2.69,0,0,0,1.73.62m13.08,0H86.51V39.92H99.57a.86.86,0,0,0,.87-.87V21.56a3.1,3.1,0,0,0,.08-.69,2.84,2.84,0,0,0-.08-.72V2.71a.88.88,0,0,0-.87-.87H97.74a3.27,3.27,0,0,0-.78-.1h0a3.77,3.77,0,0,0-.77.1H86.51V0a2.69,2.69,0,0,0-1.75.64A2.67,2.67,0,0,0,83,0V1.84h-9.7a3.77,3.77,0,0,0-.77-.1,3.86,3.86,0,0,0-.77.1H70V0h29.6a2.66,2.66,0,0,1,1.91.8,2.68,2.68,0,0,1,.8,1.91V39.05a2.71,2.71,0,0,1-.81,2,2.75,2.75,0,0,1-1.9.76" fill="#6f6f6e"/><path d="M70.29,2.71H70V1.84h1.82a3.19,3.19,0,0,0-1.5.87m-.16.18L70,2.73l.16.16m12.21.52L83,2.72l-.69.69m-51,.28H20.23v-1h-1V1.84H32.32v.87h-1v1m4.87,0h0v-1l.67.69-.67-.69v1m12.08,0H37.2v-1h-1V1.84H49.29v.87h-1v1m4.46,0h0v-1l.68.69-.68-.69v1m12.09,0H53.74v-1h-1V1.84H65.83v.87h-1v1m17.19,0H77.9V1.84H74.22v.38a3.07,3.07,0,0,0-.89-.38H83v.87h-1v1m9.58,0H87.48v-1h-1V1.84h9.68a3.09,3.09,0,0,0-.87.37V1.84H91.63V3.69m8.81,2.4h-.58a3.21,3.21,0,0,0,.24-1.2,3.19,3.19,0,0,0-2.36-3h1.83a.88.88,0,0,1,.87.87V6.09m-98.6,14V2.71a.87.87,0,0,1,.87-.87v0H15.77v.87h-1v1H3.68V18a3,3,0,0,0-1,.68,3.19,3.19,0,0,0-.83,1.49m98.6,0A3.16,3.16,0,0,0,98.6,18V9.78h1.84V20.15M15.77,39.92H2.69a.87.87,0,0,1-.85-.87V21.59a3.13,3.13,0,0,0,1.84,2.18v11.7h-1v3.68H15.77v.77m16.55,0H19.26v-.77H32.32v.77m17,0H36.23v-.77H49.29v.77m16.54,0H52.77v-.77H65.83v.77m17.2,0H70v-.77H83v.77m16.54,0H86.51v-.77H99.57V35.47h-1V23.77a3.12,3.12,0,0,0,1.84-2.21V39.05a.86.86,0,0,1-.87.87" fill="#6b685e"/><path d="M94.32,9.78A2.66,2.66,0,0,1,92.43,9a2.71,2.71,0,0,1-.8-1.92h1.85a.84.84,0,0,0,.85.86l-.85-.86h.85V9.78h0" fill="#6b685e"/><path d="M94.33,7.93a.84.84,0,0,1-.85-.86l.85.86" fill="#6b6658"/><path d="M75.21,9.78h0V7.07h.89l-.89.87a.87.87,0,0,0,.89-.84v0H77.9v.08a2.71,2.71,0,0,1-2.69,2.63" fill="#6b685e"/><path d="M75.17,7.93l.89-.86v0a.86.86,0,0,1-.89.83" fill="#6b6658"/><path d="M98.6,37.31H87.48V35.47H98.6Zm0,.77H87.48v-.77H98.6Z" fill="#6b685e"/><polygon points="99.57 39.15 86.51 39.15 86.51 39.09 87.48 39.13 87.48 39.09 87.48 38.08 98.6 38.08 98.6 37.31 99.57 37.31 98.6 37.31 98.6 35.47 99.57 35.47 99.57 39.15" fill="#3a3937"/><path d="M98.6,37.31h0Z" fill="#6b6658"/><path d="M99.57,37.31h0Z" fill="#5e5950"/><path d="M48.31,37.31H37.19V35.47H48.31Zm0,.77H37.19v-.77H48.31Z" fill="#6b685e"/><path d="M49.28,39.15H36.22v-.07l1,0v-1H48.31v1h1v.1" fill="#3a3937"/><path d="M48.31,37.31h0Z" fill="#6b6658"/><path d="M64.85,37.31H53.74V35.47H64.85Zm0,.77H53.74v-.77H64.85Z" fill="#6b685e"/><polygon points="65.83 39.15 52.77 39.15 52.77 39.05 53.74 39.05 53.74 38.08 64.86 38.08 64.86 39.05 65.83 39.05 65.83 39.15" fill="#3a3937"/><path d="M64.86,37.31h0Z" fill="#6b6658"/><path d="M82.05,37.31H70.92V35.47H82.05Zm0,.77H70.92v-.77H82.05Z" fill="#6b685e"/><polygon points="83.03 39.15 69.97 39.15 69.97 39.05 70.92 39.05 70.92 38.08 82.06 38.08 82.06 39.03 82.06 39.05 83.03 39.05 83.03 39.15" fill="#3a3937"/><path d="M82.05,37.31h0Z" fill="#6b6658"/><path d="M32.38,39.06h0l.07-1Zm0,0h0m-.06.82h0v-.83h0l0,0-.06.81" fill="#c4a352"/><path d="M32.39,41.77h0" fill="#6f6f6e"/><path d="M33.51,38.08h-.3V21.56a3.1,3.1,0,0,0,.08-.69,3.55,3.55,0,0,0-.08-.73V3.69h.3V38.08" fill="#6b685e"/><path d="M33.65,1.84H32.32V0h0a2.74,2.74,0,0,1,1.92.79s0,0,0,0a2.72,2.72,0,0,0-.62,1M32.49,41.76h-.31l.14-1.84h1.33a2.77,2.77,0,0,0,.63,1,2.67,2.67,0,0,1-1.79.8" fill="#3a3a39"/><path d="M33.51,3.69h-.3v-1a.89.89,0,0,0-.88-.87h1.32a2.83,2.83,0,0,0-.14.87v1m.14,36.23H32.44a.85.85,0,0,0,.77-.83v-1h.3v1a2.6,2.6,0,0,0,.14.84" fill="#3a3937"/><path d="M32.32,18.58a3.31,3.31,0,0,0-.95-.62V3.69h.95V18.58m0,16.89h-.95V23.77a3.35,3.35,0,0,0,.95-.63V35.47" fill="#6b685e"/><rect x="31.37" y="2.71" width="0.95" height="0.97" fill="#3a3937"/><path d="M33.21,20.14a3.18,3.18,0,0,0-.84-1.51l0-.05V3.69h.89V20.14m0,17.94h-.89V23.14a3.12,3.12,0,0,0,.89-1.58V38.08" fill="#6b6658"/><path d="M32.38,39.92h0" fill="#5d5950"/><path d="M33.21,3.69h-.89V1.84h0a.89.89,0,0,1,.87.87v1m-.83,35.37h0v0m0,0h0l.07-1-.07,1m0,0h0m.06.83h-.12l.06-.81,0,0h0v-1h.89v1a.86.86,0,0,1-.77.83" fill="#5e5950"/><path d="M36.22,18.59V3.69h1V18a3,3,0,0,0-1,.63m1,16.88h-1V23.14a3.12,3.12,0,0,0,1,.63v11.7m-1.84,2.61h-.3V3.69h.3V20.06a3.1,3.1,0,0,0-.1.81,3.33,3.33,0,0,0,.1.78V38.08" fill="#6b685e"/><path d="M36.22,1.84H34.9a2.62,2.62,0,0,0-.63-1l.06,0A2.67,2.67,0,0,1,36.22,0V1.84m0,39.92h0a2.7,2.7,0,0,1-1.93-.8h0a2.72,2.72,0,0,0,.63-1h1.31v1.84" fill="#3a3a39"/><path d="M37.19,3.69h-1v-1l.68.69-.68-.69V1.84a.86.86,0,0,0-.87.87v1h-.3v-1a2.49,2.49,0,0,0-.15-.87h1.32v.87h1v1m-1,36.23H34.91a2.76,2.76,0,0,0,.14-.76V38.08h.3v1a.85.85,0,0,0,.85.87" fill="#3a3937"/><path d="M37.19,37.31h-1V35.47h1Zm0,.77h-1v-.77h1Z" fill="#3a3937"/><path d="M36.22,39.08h0m0,.07h0V38.08h1v1l-1,0v.07" fill="#1f1e1d"/><path d="M37.19,37.31h0Z" fill="#393835"/><rect x="33.51" y="3.69" width="1.54" height="34.39" fill="#3a3937"/><path d="M34.9,1.84H33.65a2.72,2.72,0,0,1,.62-1,2.62,2.62,0,0,1,.63,1M34.28,41a2.65,2.65,0,0,1-.63-1h1.26a2.73,2.73,0,0,1-.63,1h0" fill="#1f1f1e"/><path d="M35.05,3.69H33.51v-1a2.83,2.83,0,0,1,.14-.87H34.9a2.49,2.49,0,0,1,.15.87v1m-.14,36.23H33.65a2.6,2.6,0,0,1-.14-.84v-1h1.54v1.08a2.76,2.76,0,0,1-.14.76" fill="#1f1e1d"/><path d="M35.35,20.06V3.69h.87v14.9l0,0a3.17,3.17,0,0,0-.83,1.43m.87,18h-.87V21.65a3.21,3.21,0,0,0,.87,1.49V38.08" fill="#6b6658"/><path d="M36.22,3.69h-.87v-1a.86.86,0,0,1,.87-.87V3.69m0,36.23h0a.86.86,0,0,1-.86-.87v-1h.87v1.84" fill="#5e5950"/><path d="M52.77,18.6V3.69h1V18a3,3,0,0,0-1,.64m1,16.87h-1V23.13a3.27,3.27,0,0,0,1,.64v11.7" fill="#6b685e"/><path d="M52.77,1.84h-.92A2.72,2.72,0,0,0,51,.64,2.67,2.67,0,0,1,52.77,0V1.84m0,39.92h0A2.71,2.71,0,0,1,51,41.14l.16-.15a2.7,2.7,0,0,0,.67-1.07h.91v1.84" fill="#3a3a39"/><path d="M53.74,3.69h-1v-1l.68.69-.68-.69V1.84a.9.9,0,0,0-.8.52,2.31,2.31,0,0,0-.12-.52h.92v.87h1v1m-1,36.23h-.89a3.81,3.81,0,0,0,.12-.51.85.85,0,0,0,.77.51" fill="#3a3937"/><path d="M53.74,37.31h-1V35.47h1Zm0,.77h-1v-.77h1Z" fill="#3a3937"/><path d="M52.77,39.15h0V38.08h1v1h-1v.1" fill="#1f1e1d"/><path d="M53.74,37.31h0Z" fill="#393835"/><path d="M52,19.79V3.69h.77V18.6l0,0A3.18,3.18,0,0,0,52,19.79m.77,18.29H52V21.92a3.13,3.13,0,0,0,.77,1.21v15" fill="#6b6658"/><path d="M52.77,3.69H52v-1a2.07,2.07,0,0,0,0-.35.9.9,0,0,1,.8-.52V3.69m0,36.23h0a.87.87,0,0,1-.78-.51,2.19,2.19,0,0,0,0-.36v-1h.77v1.84" fill="#5e5950"/><polygon points="49.29 41.76 49.28 41.76 49.3 41.76 49.29 41.76" fill="#6f6f6e"/><path d="M50.2,1.84h-.92V0A2.72,2.72,0,0,1,51,.64l-.17.15a2.8,2.8,0,0,0-.66,1.05m-.9,39.92h0V39.92h.92A2.72,2.72,0,0,0,51,41.14a2.72,2.72,0,0,1-1.73.62" fill="#3a3a39"/><path d="M50.08,2.35a.89.89,0,0,0-.8-.51h.92a2.36,2.36,0,0,0-.12.51m.12,37.57h-.92a.87.87,0,0,0,.8-.5,2.15,2.15,0,0,0,.12.5" fill="#3a3937"/><path d="M51.89,38.08h-.43V35.47h-.87v2.61h-.43V21.64a3.31,3.31,0,0,0,.09-.77,3,3,0,0,0-.09-.8V3.69h1.73V20.14a3.47,3.47,0,0,0-.08.73,3.27,3.27,0,0,0,.08.7V38.08" fill="#3a3937"/><path d="M51.85,1.84H50.2a2.8,2.8,0,0,1,.66-1L51,.64a2.64,2.64,0,0,1,.82,1.2M51,41.14a2.72,2.72,0,0,1-.83-1.22h1.66A2.7,2.7,0,0,1,51.19,41l-.16.15" fill="#1f1f1e"/><path d="M51.89,3.69H50.16v-1a.86.86,0,0,0-.08-.36,2.36,2.36,0,0,1,.12-.51h1.65a2.31,2.31,0,0,1,.12.52.85.85,0,0,0-.08.35v1m0,36.23H50.2a2.15,2.15,0,0,1-.12-.5.91.91,0,0,0,.08-.37v-1h.43v1.07h.87V38.08h.43v1a.86.86,0,0,0,.08.36,2.71,2.71,0,0,1-.11.51" fill="#1f1e1d"/><polygon points="51.46 38.08 50.59 38.08 50.59 37.31 51.46 37.31 50.59 37.31 50.59 35.47 51.46 35.47 51.46 38.08" fill="#1f1e1d"/><rect x="50.59" y="38.08" width="0.87" height="1.07" fill="#111110"/><path d="M51.46,37.31h0Z" fill="#1f1e1d"/><path d="M51.89,20.14V3.69H52v16.1a3.58,3.58,0,0,0-.11.35M52,38.08h-.11V21.57a3.58,3.58,0,0,0,.11.35V38.08" fill="#393835"/><path d="M52,3.69h-.11v-1A.85.85,0,0,1,52,2.36a2.07,2.07,0,0,1,0,.35v1m0,35.72a.86.86,0,0,1-.08-.36v-1H52v1a2.19,2.19,0,0,1,0,.36" fill="#353432"/><path d="M49.28,18.59a3.12,3.12,0,0,0-1-.63V3.69h1v14.9m0,19.49h0V35.47h-1V23.77a3.18,3.18,0,0,0,1-.63V38.08" fill="#6b685e"/><rect x="48.31" y="2.71" width="0.97" height="0.97" fill="#3a3937"/><polygon points="49.28 38.08 48.31 38.08 48.31 37.31 49.28 37.31 48.31 37.31 48.31 35.47 49.28 35.47 49.28 38.08" fill="#3a3937"/><path d="M49.28,39.05h-1v-1h1v1" fill="#1f1e1d"/><path d="M49.28,37.31h0Z" fill="#393835"/><path d="M50.05,19.75a3,3,0,0,0-.73-1.12.08.08,0,0,0,0,0V3.69h.77V19.75m0,18.33h-.77V23.14A3.06,3.06,0,0,0,50.05,22V38.08" fill="#6b6658"/><path d="M50.05,3.69h-.77V1.84a.89.89,0,0,1,.8.51,2.19,2.19,0,0,0,0,.36v1m-.77,35.36h0v0m0,.87h0V38.08h.77v1a2.31,2.31,0,0,0,0,.37.87.87,0,0,1-.8.5" fill="#5e5950"/><path d="M50.15,20.07a1.7,1.7,0,0,0-.1-.32V3.69h.1V20.07m0,18h-.1V22a2.07,2.07,0,0,0,.1-.33V38.08" fill="#5e5950"/><path d="M50.15,3.69h-.1v-1a2.19,2.19,0,0,1,0-.36.89.89,0,0,1,.07.36v1m-.07,35.73a2.22,2.22,0,0,1,0-.37v-1h.1v1a.87.87,0,0,1-.07.37" fill="#58554c"/><path d="M87.48,35.47h-1V23.15a3.18,3.18,0,0,0,1,.63V35.47" fill="#6b685e"/><path d="M86.51,41.76h0a2.69,2.69,0,0,1-1.73-.62l.16-.14a2.69,2.69,0,0,0,.68-1.08h.91v1.84" fill="#3a3a39"/><path d="M86.49,39.92H85.6a2.68,2.68,0,0,0,.11-.49.86.86,0,0,0,.78.49" fill="#3a3937"/><path d="M87.48,37.31h-1V35.47h1Zm0,.77h-1v-.77h1Z" fill="#3a3937"/><path d="M86.51,39.09h0m0,.06h0V38.08h1v1.05l-1,0v.06" fill="#1f1e1d"/><path d="M87.48,37.31h0Z" fill="#393835"/><path d="M86.51,18.58V3.68h1V18a3.12,3.12,0,0,0-1,.63" fill="#6b685e"/><path d="M86.51,1.84h-.92a2.66,2.66,0,0,0-.65-1L84.76.64A2.74,2.74,0,0,1,86.51,0V1.84" fill="#3a3a39"/><path d="M86.51,3.69h0V1.84a.89.89,0,0,0-.8.52,2.31,2.31,0,0,0-.12-.52h.92V3.69m1,0h-1v-1h1Z" fill="#3a3937"/><path d="M86.51,38.08h-.77V22a3,3,0,0,0,.7,1.1l.07.08V38.08" fill="#6b6658"/><path d="M86.51,39.92h0a.86.86,0,0,1-.78-.49,2.43,2.43,0,0,0,0-.38v-1h.77v1.84" fill="#5e5950"/><path d="M85.74,19.75V3.69h.77V18.58l-.06.06a3.15,3.15,0,0,0-.71,1.11" fill="#6b6658"/><path d="M86.51,3.68h-.77v-1c0-.12,0-.24,0-.35a.86.86,0,0,1,.79-.52V3.68" fill="#5e5950"/><path d="M83,41.76h0V39.92h.9a2.72,2.72,0,0,0,.83,1.22,2.7,2.7,0,0,1-1.73.62" fill="#3a3a39"/><path d="M83.93,39.92H83a.88.88,0,0,0,.79-.5,2.78,2.78,0,0,0,.11.5" fill="#3a3937"/><path d="M83.94,1.84H83V0a2.67,2.67,0,0,1,1.74.64,2.72,2.72,0,0,0-.82,1.2" fill="#3a3a39"/><path d="M83.82,2.36A.89.89,0,0,0,83,1.84h.91a2.31,2.31,0,0,0-.12.52" fill="#3a3937"/><path d="M85.64,38.08h-.46V35.47h-.86v2.61H83.9V21.58a3.36,3.36,0,0,0,.08-.71,3.57,3.57,0,0,0-.08-.74V3.69h1.74V20.07a3.08,3.08,0,0,0-.1.8,2.93,2.93,0,0,0,.1.78V38.08" fill="#3a3937"/><path d="M85.59,1.84H83.94a2.72,2.72,0,0,1,.82-1.2l.18.16a2.78,2.78,0,0,1,.65,1m-.83,39.3a2.72,2.72,0,0,1-.83-1.22H85.6A2.69,2.69,0,0,1,84.92,41l-.16.14" fill="#1f1f1e"/><path d="M85.64,3.69H83.9v-1a.85.85,0,0,0-.08-.35,2.31,2.31,0,0,1,.12-.52h1.65a2.31,2.31,0,0,1,.12.52,1,1,0,0,0-.07.35v1m0,36.23H83.93a2.78,2.78,0,0,1-.11-.5.87.87,0,0,0,.08-.37v-1h.42v1.07h.87V38.08h.45v1a.81.81,0,0,0,.07.38,2.68,2.68,0,0,1-.11.49" fill="#1f1e1d"/><polygon points="85.19 38.08 84.32 38.08 84.32 37.31 85.19 37.31 84.32 37.31 84.32 35.47 85.19 35.47 85.19 38.08" fill="#1f1e1d"/><rect x="84.32" y="38.08" width="0.87" height="1.07" fill="#111110"/><path d="M85.19,37.31h0Z" fill="#1f1e1d"/><path d="M85.74,38.08h-.1V21.65c0,.11.06.21.1.32V38.08" fill="#393835"/><path d="M85.71,39.43a.78.78,0,0,1-.07-.38v-1h.1v1a2.34,2.34,0,0,1,0,.38" fill="#353432"/><path d="M85.64,20.08V3.68h.1V19.75a3.18,3.18,0,0,0-.1.33" fill="#393835"/><path d="M85.74,3.68h-.1v-1a1,1,0,0,1,.07-.35,2,2,0,0,1,0,.35v1" fill="#353432"/><path d="M83,18.6a3.34,3.34,0,0,0-1-.64V3.69h1V18.6m0,19.48h0V35.47h-1V23.76a3.15,3.15,0,0,0,1-.64v15" fill="#6b685e"/><polygon points="83.03 3.69 82.06 3.69 82.06 2.71 83.03 2.71 83.03 2.71 82.34 3.4 83.03 2.71 83.03 3.69" fill="#3a3937"/><polygon points="83.03 38.08 82.06 38.08 82.06 37.31 83.03 37.31 82.06 37.31 82.06 35.47 83.03 35.47 83.03 38.08" fill="#3a3937"/><polygon points="83.03 39.05 82.06 39.05 82.06 39.02 82.06 38.08 83.03 38.08 83.03 39.05" fill="#1f1e1d"/><path d="M83,37.31h0Z" fill="#393835"/><path d="M83.8,19.79a3,3,0,0,0-.75-1.16l0,0V3.69h.77v16.1m0,18.29H83v-15a3.22,3.22,0,0,0,.77-1.2V38.08" fill="#6b6658"/><path d="M83.8,3.69H83v-1h0V1.84a.89.89,0,0,1,.79.52c0,.12,0,.23,0,.35v1M83,39.05h0v0m0,.87h0V38.08h.77v1a1.83,1.83,0,0,0,0,.33.88.88,0,0,1-.79.5" fill="#5e5950"/><path d="M83.9,20.13a3.37,3.37,0,0,0-.1-.34V3.69h.1V20.13m0,18h-.1V21.92a3.37,3.37,0,0,0,.1-.34v16.5" fill="#5e5950"/><path d="M83.9,3.69h-.1v-1c0-.12,0-.23,0-.35a.85.85,0,0,1,.08.35v1m-.08,35.73a1.83,1.83,0,0,1,0-.33v-1h.1v1a.87.87,0,0,1-.08.37" fill="#58554c"/><path d="M19.26,18.59V3.69h1V18a2.9,2.9,0,0,0-1,.63m0,19.49h0V23.13a2.93,2.93,0,0,0,1,.64v11.7h-1v2.61" fill="#6b685e"/><path d="M19.26,1.84h-.92A2.81,2.81,0,0,0,17.52.63,2.67,2.67,0,0,1,19.26,0V1.84m0,39.92h0a2.73,2.73,0,0,1-1.72-.62l.16-.15a2.7,2.7,0,0,0,.67-1.07h.91v1.84" fill="#3a3a39"/><path d="M19.26,3.69h0V1.84a.89.89,0,0,0-.8.52,2.31,2.31,0,0,0-.12-.52h.92V3.69m1,0h-1v-1h1Zm-1,36.23h-.89a2.89,2.89,0,0,0,.11-.51.87.87,0,0,0,.78.51" fill="#3a3937"/><path d="M18.49,19.79V3.69h.77v14.9l-.05.05a3,3,0,0,0-.72,1.15m.77,18.29h-.77V21.93a3,3,0,0,0,.77,1.2v15" fill="#6b6658"/><path d="M19.26,3.69h-.77v-1a2,2,0,0,0,0-.35.89.89,0,0,1,.8-.52V3.69m0,36.23h0a.87.87,0,0,1-.78-.51,2.19,2.19,0,0,0,0-.36v-1h.77v1.84" fill="#5e5950"/><polygon points="15.78 41.76 15.77 41.76 15.79 41.76 15.78 41.76" fill="#6f6f6e"/><path d="M15.79,41.76h0V39.92h.92a2.73,2.73,0,0,0,.63,1l.2.19a2.72,2.72,0,0,1-1.73.62" fill="#3a3a39"/><path d="M16.69,39.92h-.92a.87.87,0,0,0,.8-.5,2.15,2.15,0,0,0,.12.5" fill="#3a3937"/><path d="M16.69,1.84h-.92V0a2.79,2.79,0,0,1,1.75.63,2.75,2.75,0,0,0-.83,1.21" fill="#3a3a39"/><path d="M16.57,2.36a.89.89,0,0,0-.8-.52h.92a2.31,2.31,0,0,0-.12.52" fill="#3a3937"/><path d="M18.39,38.08H16.64V21.63a2.73,2.73,0,0,0,.1-.76,3.08,3.08,0,0,0-.1-.8V3.69h1.75V20.13a3,3,0,0,0-.09.74,2.84,2.84,0,0,0,.09.72V38.08" fill="#3a3937"/><path d="M18.34,1.84H16.69A2.81,2.81,0,0,1,17.51.63a2.75,2.75,0,0,1,.83,1.21m-.82,39.3-.2-.19a2.73,2.73,0,0,1-.63-1h1.66A2.7,2.7,0,0,1,17.68,41l-.16.15" fill="#1f1f1e"/><path d="M18.39,3.69H16.64v-1a.84.84,0,0,0-.07-.35,2.31,2.31,0,0,1,.12-.52h1.65a2.31,2.31,0,0,1,.12.52.84.84,0,0,0-.07.35v1m0,36.23H16.69a2.15,2.15,0,0,1-.12-.5.87.87,0,0,0,.07-.37v-1h1.75v1a.86.86,0,0,0,.07.36,2.89,2.89,0,0,1-.11.51" fill="#1f1e1d"/><path d="M18.39,20.13V3.69h.1v16.1a1.91,1.91,0,0,0-.1.34m.1,18h-.1V21.59a1.91,1.91,0,0,0,.1.34V38.08" fill="#393835"/><path d="M18.49,3.69h-.11v-1a.85.85,0,0,1,.08-.35,2,2,0,0,1,0,.35v1m0,35.72a1.05,1.05,0,0,1-.08-.36v-1h.11v1a2.19,2.19,0,0,1,0,.36" fill="#353432"/><path d="M15.77,18.59a3,3,0,0,0-1-.64V3.69h1v14.9m0,16.88h-1V23.77a2.9,2.9,0,0,0,1-.63V35.47" fill="#6b685e"/><rect x="14.8" y="2.71" width="0.97" height="0.97" fill="#3a3937"/><path d="M16.54,19.76a3,3,0,0,0-.72-1.13l-.05,0V3.69h.77V19.76m0,18.32h-.77V23.14A3.1,3.1,0,0,0,16.54,22V38.08" fill="#6b6658"/><path d="M16.54,3.69h-.77V1.84a.89.89,0,0,1,.8.52,2,2,0,0,0,0,.35v1m-.77,36.23h0V38.08h.77v1a2.22,2.22,0,0,0,0,.37.87.87,0,0,1-.8.5" fill="#5e5950"/><path d="M16.64,20.07a1.6,1.6,0,0,0-.1-.31V3.69h.1V20.07m0,18h-.1V22a1.59,1.59,0,0,0,.1-.33V38.08" fill="#5e5950"/><path d="M16.65,3.68h-.11v-1a2,2,0,0,1,0-.35.82.82,0,0,1,.08.35v1m-.08,35.74a2.22,2.22,0,0,1,0-.37v-1h.11v1a.91.91,0,0,1-.08.37" fill="#58554c"/><path d="M31.37,37.31H20.23V35.47H31.37Zm0,.77H20.23v-.77H31.37Z" fill="#6b685e"/><path d="M32.31,39.05h0l-.68-.66Zm0,.1H19.26v-.09h1v-1H31.37v1h.95v.06" fill="#3a3937"/><path d="M32.32,37.31h-.95V35.47h.95Zm0,.77h-.95v-.77h.95Z" fill="#3a3937"/><path d="M32.31,39.05h0l-.68-.66.68.66m0,0h-.95v-1h.95v1" fill="#1f1e1d"/><polygon points="32.32 38.08 32.32 38.08 32.32 37.31 32.32 35.47 32.32 38.08" fill="#393835"/><rect x="19.26" y="37.31" width="0.97" height="0.77" fill="#3a3937"/><path d="M19.26,39.06v-1h1v1h-1" fill="#1f1e1d"/><rect x="19.26" y="35.47" width="0.97" height="1.84" fill="#3a3937"/><path d="M31.36,37.31h0Z" fill="#6b6658"/><path d="M32.32,37.31h0Z" fill="#5e5950"/><path d="M20.23,37.31h0Z" fill="#5e5950"/><rect x="3.68" y="37.31" width="11.12" height="0.77" fill="#6b685e"/><polygon points="15.77 39.15 2.71 39.15 2.71 37.31 3.68 37.31 3.68 38.08 14.8 38.08 14.8 39.05 15.77 39.05 15.77 39.15" fill="#3a3937"/><rect x="3.68" y="35.47" width="11.12" height="1.84" fill="#6b685e"/><rect x="2.71" y="35.47" width="0.97" height="1.84" fill="#3a3937"/><rect x="14.8" y="37.31" width="0.97" height="0.77" fill="#3a3937"/><rect x="14.8" y="38.08" width="0.97" height="0.97" fill="#1f1e1d"/><rect x="14.8" y="35.47" width="0.97" height="1.84" fill="#3a3937"/><polygon points="15.77 38.08 15.77 38.08 15.77 37.31 15.77 35.47 15.77 38.08" fill="#393835"/><path d="M15.77,39.05h0v0Zm0,.1h0v0" fill="#353432"/><path d="M14.8,37.31h0Z" fill="#6b6658"/><path d="M3.68,37.31h0Z" fill="#5e5950"/><path d="M15.77,37.31h0Z" fill="#5e5950"/><path d="M70,0h0Zm0,41.76h0" fill="#6f6f6e"/><path d="M70,18.57V9.78h1V18a3,3,0,0,0-1,.61m1,16.9H70V23.16a3,3,0,0,0,1,.61v11.7m-1.84,2.61h-.54V3.69h.54V20.06a3.1,3.1,0,0,0-.1.81,3.33,3.33,0,0,0,.1.78V38.08" fill="#6b685e"/><path d="M70,1.84H68.4A2.72,2.72,0,0,0,67.89,1l.17-.18A2.7,2.7,0,0,1,70,0h0V1.84m0,39.92h0A2.68,2.68,0,0,1,68,40.94l-.1-.12a2.74,2.74,0,0,0,.5-.9H70v1.84" fill="#3a3a39"/><path d="M69.08,3.69h-.54v-1a2.83,2.83,0,0,0-.14-.87H70v.87h.32l-.16.18L70,2.73l.16.16a1.77,1.77,0,0,0-.16.22V1.84a.87.87,0,0,0-.89.87v1m.85,36.23H68.4a2.56,2.56,0,0,0,.14-.87v-1h.54v1a.87.87,0,0,0,.85.87" fill="#3a3937"/><path d="M70.92,37.31H70V35.47h1Zm0,.77H70v-.77h1Z" fill="#3a3937"/><path d="M70,39.15h0V38.08h1v1H70v.1" fill="#1f1e1d"/><path d="M70.92,37.31h0Z" fill="#393835"/><path d="M69.08,20.06V3.69h.58a3.14,3.14,0,0,0-.25,1.2,3,3,0,0,0,.24,1.2h-.57V9.78H70v8.79l-.07.06a3.2,3.2,0,0,0-.82,1.43m.89,18h-.89V21.65A3.1,3.1,0,0,0,70,23.16V38.08" fill="#6b6658"/><path d="M69.66,3.69h-.58v-1A.87.87,0,0,1,70,1.84V3.11a2.93,2.93,0,0,0-.31.58M70,39.92h0a.87.87,0,0,1-.85-.87v-1H70v1.84" fill="#5e5950"/><polygon points="65.84 41.76 65.83 41.76 65.85 41.76 65.84 41.76" fill="#6f6f6e"/><path d="M67.24,38.08H66.7V21.65a3.33,3.33,0,0,0,.1-.78,3.1,3.1,0,0,0-.1-.81V3.69h.54V38.08" fill="#6b685e"/><path d="M67.38,1.84H65.83V0a2.74,2.74,0,0,1,2.06,1,2.82,2.82,0,0,0-.51.89M65.85,41.76h0V39.92h1.55a2.66,2.66,0,0,0,.51.9,1.14,1.14,0,0,1-.15.17,2.72,2.72,0,0,1-1.89.77" fill="#3a3a39"/><path d="M67.24,3.69H66.7v-1a.87.87,0,0,0-.87-.87h1.55a2.89,2.89,0,0,0-.14.83v1m.14,36.23H65.83a.85.85,0,0,0,.87-.87v-1h.54v1a2.74,2.74,0,0,0,.14.87" fill="#3a3937"/><rect x="67.24" y="3.69" width="1.3" height="34.39" fill="#3a3937"/><path d="M68.4,1.84h-1a2.69,2.69,0,0,1,.5-.89,2.72,2.72,0,0,1,.51.89m-.5,39a2.69,2.69,0,0,1-.52-.9h1a2.74,2.74,0,0,1-.5.9" fill="#1f1f1e"/><path d="M68.54,3.69h-1.3v-1a2.59,2.59,0,0,1,.15-.83h1a2.83,2.83,0,0,1,.14.87v1M68.4,39.92h-1a2.74,2.74,0,0,1-.14-.87v-1h1.3v1a2.83,2.83,0,0,1-.14.87" fill="#1f1e1d"/><path d="M65.83,18.59a3.12,3.12,0,0,0-1-.63V3.69h1v14.9m0,19.49h0V35.47h-1V23.77a3.31,3.31,0,0,0,1-.63V38.08" fill="#6b685e"/><rect x="64.86" y="2.71" width="0.97" height="0.97" fill="#3a3937"/><polygon points="65.83 38.08 64.86 38.08 64.86 37.31 65.83 37.31 64.86 37.31 64.86 35.47 65.83 35.47 65.83 38.08" fill="#3a3937"/><rect x="64.86" y="38.08" width="0.97" height="0.97" fill="#1f1e1d"/><path d="M65.83,37.31h0Z" fill="#393835"/><path d="M66.7,20.06a3.17,3.17,0,0,0-.83-1.43l0,0V3.69h.87V20.06m0,18h-.87V23.14a3.12,3.12,0,0,0,.87-1.49V38.08" fill="#6b6658"/><path d="M66.7,3.69h-.87V1.84a.87.87,0,0,1,.87.87v1m-.87,35.36h0v0m0,.87h0V38.08h.87v1a.85.85,0,0,1-.87.87" fill="#5e5950"/><path d="M89.07,21.23l-.37-.36Zm-.78,0,.38-.37-.38.37" fill="#e5b53d"/><path d="M89.92,20.48a1.3,1.3,0,0,0-1.25-.92,1.27,1.27,0,0,0-1.19.79V18a3.14,3.14,0,0,1,1.18-.23h0a3.13,3.13,0,0,1,2.18.88s0,0,0,0a3.12,3.12,0,0,0-.9,1.85M88.67,24V22.17a1.31,1.31,0,0,0,1.25-.93,3.18,3.18,0,0,0,.93,1.89,3.15,3.15,0,0,1-2.18.89m0,0a3.12,3.12,0,0,1-1.19-.24V21.36a1.29,1.29,0,0,0,1.19.81V24h0" fill="#6b685e"/><path d="M87.48,23.78a3.21,3.21,0,0,1-1-.64V18.58a3.12,3.12,0,0,1,1-.63v2.4a1.46,1.46,0,0,0-.1.52,1.34,1.34,0,0,0,.1.49v2.42" fill="#3a3937"/><path d="M86.51,23.14l-.07-.07a3,3,0,0,1-.7-1.1V19.75a3,3,0,0,1,.71-1.11l.06-.06v4.56" fill="#393835"/><path d="M85.64,21.65a2.88,2.88,0,0,1-.1-.78,3.08,3.08,0,0,1,.1-.8v1.58" fill="#1f1e1d"/><path d="M85.74,22c0-.11-.07-.21-.1-.32V20.08c0-.11.06-.22.1-.33V22" fill="#1f1e1d"/><path d="M88.7,20.87h0m0,0,.36.36-.36-.36m0,0-.38.38.38-.38m0,1.3a1.29,1.29,0,0,1-1.19-.81v-1a1.27,1.27,0,0,1,1.19-.79,1.3,1.3,0,0,1,1.25.92,2.56,2.56,0,0,0,0,.39,2.4,2.4,0,0,0,0,.37,1.31,1.31,0,0,1-1.25.93v0" fill="#6b6658"/><path d="M87.48,21.36a1.34,1.34,0,0,1-.1-.49,1.36,1.36,0,0,1,.1-.51v1" fill="#5e5950"/><polygon points="5.28 21.24 4.91 20.86 5.44 20.86 4.91 20.86 5.28 21.24" fill="#e5b53d"/><path d="M6.12,20.43a1.3,1.3,0,0,0-1.23-.87,1.28,1.28,0,0,0-1.21.83V18a3.06,3.06,0,0,1,1.2-.24h0a3.09,3.09,0,0,1,2.16.87l0,0a3.16,3.16,0,0,0-.9,1.8M4.89,24a3.44,3.44,0,0,1-1.21-.25V21.33a1.31,1.31,0,0,0,1.21.84V24" fill="#6b685e"/><path d="M1.84,21.59a3.45,3.45,0,0,1-.08-.72,3.65,3.65,0,0,1,.08-.74v1.46" fill="#3a3a39"/><path d="M3.68,23.77a3.13,3.13,0,0,1-1.84-2.18V20.13a3.1,3.1,0,0,1,.83-1.49,3,3,0,0,1,1-.68v2.43a1.51,1.51,0,0,0-.08.48,1.44,1.44,0,0,0,.08.46v2.44" fill="#3a3937"/><path d="M4.89,24V22.17a1.31,1.31,0,0,0,1.23-.89,3.17,3.17,0,0,0,.94,1.86A3.16,3.16,0,0,1,4.89,24" fill="#6b685e"/><path d="M4.91,20.87l.37.37-.37-.37h0m0,1.3a1.31,1.31,0,0,1-1.21-.84v-.94a1.28,1.28,0,0,1,1.21-.83,1.3,1.3,0,0,1,1.23.87,3.25,3.25,0,0,0,0,.44,2.73,2.73,0,0,0,0,.41,1.31,1.31,0,0,1-1.23.89v0" fill="#6b6658"/><path d="M3.68,21.33a1.44,1.44,0,0,1-.08-.46,1.51,1.51,0,0,1,.08-.48v.94" fill="#5e5950"/><path d="M38,21.24l.37-.37Z" fill="#e5b53d"/><path d="M39.63,20.47a1.27,1.27,0,0,0-1.23-.91,1.31,1.31,0,0,0-1.21.79V18a3.06,3.06,0,0,1,1.2-.24h0a3.13,3.13,0,0,1,2.16.87l0,0a3.15,3.15,0,0,0-.9,1.84M38.4,24a3.44,3.44,0,0,1-1.21-.25v-2.4a1.33,1.33,0,0,0,1.21.8V24m0,0h0V22.17a1.3,1.3,0,0,0,1.23-.92,3.11,3.11,0,0,0,.94,1.88A3.1,3.1,0,0,1,38.4,24" fill="#6b685e"/><path d="M35.35,21.65a3.33,3.33,0,0,1-.1-.78,3.1,3.1,0,0,1,.1-.81v1.59m1.84,2.12a3.12,3.12,0,0,1-1-.63V18.58a3.09,3.09,0,0,1,1-.62v2.39a1.46,1.46,0,0,0-.1.52,1.44,1.44,0,0,0,.1.5v2.4" fill="#3a3937"/><path d="M36.22,23.14a3.21,3.21,0,0,1-.87-1.49V20.06a3.17,3.17,0,0,1,.83-1.43l0-.05v4.56" fill="#393835"/><path d="M38.4,20.87h0m0,0-.37.37.37-.37m0,1.3a1.33,1.33,0,0,1-1.21-.8v-1a1.31,1.31,0,0,1,1.21-.79,1.27,1.27,0,0,1,1.23.91,2.6,2.6,0,0,0,0,.4,2.43,2.43,0,0,0,0,.38,1.3,1.3,0,0,1-1.23.92v0" fill="#6b6658"/><path d="M37.19,21.37a1.44,1.44,0,0,1-.1-.5,1.46,1.46,0,0,1,.1-.52v1" fill="#5e5950"/><path d="M72.5,21.25l-.38-.38Zm-.75,0,.37-.38-.37.38" fill="#e5b53d"/><path d="M73.37,20.47a1.31,1.31,0,0,0-2.45-.12V18a3.24,3.24,0,0,1,1.2-.23h0a3.15,3.15,0,0,1,2.18.88l0,0a3.11,3.11,0,0,0-.91,1.84M72.12,24a3.38,3.38,0,0,1-1.2-.25v-2.4a1.32,1.32,0,0,0,1.2.8V24" fill="#6b685e"/><path d="M69.08,21.65a3.33,3.33,0,0,1-.1-.78,3.1,3.1,0,0,1,.1-.81v1.59m1.84,2.12a2.87,2.87,0,0,1-1-.61V18.57a3.18,3.18,0,0,1,1-.62v2.4a1.46,1.46,0,0,0-.1.52,1.44,1.44,0,0,0,.1.5v2.4" fill="#3a3937"/><path d="M70,23.16a3.14,3.14,0,0,1-.89-1.51V20.06a3.15,3.15,0,0,1,.82-1.43l.07-.06v4.59" fill="#393835"/><path d="M72.12,24V22.17a1.31,1.31,0,0,0,1.25-.93,3.14,3.14,0,0,0,.94,1.89,3.18,3.18,0,0,1-2.19.89" fill="#6b685e"/><path d="M72.12,20.87h0m0,0,.38.38-.38-.38m0,0-.37.38.37-.38m0,1.3a1.32,1.32,0,0,1-1.2-.8v-1a1.31,1.31,0,0,1,2.45.12,2.69,2.69,0,0,0,0,.4l0,.37a1.31,1.31,0,0,1-1.25.93v0" fill="#6b6658"/><path d="M70.92,21.37a1.44,1.44,0,0,1-.1-.5,1.46,1.46,0,0,1,.1-.52v1" fill="#5e5950"/><path d="M72.05,6.09H70.92V3.68h1.14a1.34,1.34,0,0,0-.81,1.21,1.28,1.28,0,0,0,.8,1.2m2.17,0H73.07a1.28,1.28,0,0,0,.8-1.2,1.34,1.34,0,0,0-.81-1.21h1.16V6.09" fill="#6b685e"/><path d="M73.33,1.84H71.79a3.25,3.25,0,0,1,.77-.1,3.18,3.18,0,0,1,.77.1" fill="#3a3a39"/><path d="M70.63,3.41l-.5-.51.5.51m3.59.27H73.06a1.35,1.35,0,0,0-.5-.1,1.44,1.44,0,0,0-.5.1H70.92v-1h-.63a3.19,3.19,0,0,1,1.5-.87h1.54a3.07,3.07,0,0,1,.89.38V3.68" fill="#3a3937"/><rect x="69.97" y="3.69" width="0.96" height="2.41" fill="#3a3937"/><path d="M70.92,3.68H70V3.11a1.16,1.16,0,0,1,.16-.21l.5.51-.5-.51c.05-.07.11-.13.16-.19h.63v1" fill="#1f1e1d"/><path d="M70,6.09h-.32a3,3,0,0,1-.24-1.2,3.27,3.27,0,0,1,.25-1.21H70V6.09" fill="#393835"/><path d="M70,3.68h-.31A3.15,3.15,0,0,1,70,3.11v.57" fill="#353432"/><path d="M72.56,4.89h0m.52,1.2h-.52v0H72a1.29,1.29,0,0,1-.79-1.2,1.34,1.34,0,0,1,.81-1.21h1a1.34,1.34,0,0,1,.81,1.21,1.29,1.29,0,0,1-.79,1.2" fill="#6b6658"/><path d="M73.06,3.68h-1a1.3,1.3,0,0,1,1,0" fill="#5e5950"/><path d="M46.73,21.25l.38-.38Zm.75,0-.37-.38.37.38" fill="#e5b53d"/><path d="M45.87,20.43a3.1,3.1,0,0,0-.9-1.8l0,0a3.13,3.13,0,0,1,2.17-.87h0a3,3,0,0,1,1.2.24v2.4a1.28,1.28,0,0,0-1.2-.8,1.3,1.3,0,0,0-1.24.87M47.11,24V22.17a1.3,1.3,0,0,0,1.2-.81v2.41a3.38,3.38,0,0,1-1.2.25m0,0a3.26,3.26,0,0,1-2.18-.88,3.2,3.2,0,0,0,.94-1.86,1.31,1.31,0,0,0,1.24.89V24" fill="#6b685e"/><path d="M50.15,21.64V20.07a3,3,0,0,1,.11.8,3.33,3.33,0,0,1-.11.77" fill="#1f1e1d"/><path d="M48.31,23.77V21.36a1.16,1.16,0,0,0,.1-.49,1.19,1.19,0,0,0-.1-.51V18a3.12,3.12,0,0,1,1,.63v4.55a3.07,3.07,0,0,1-1,.63" fill="#3a3937"/><path d="M49.28,23.14V18.59a.08.08,0,0,1,0,0,3,3,0,0,1,.73,1.12V22a3.06,3.06,0,0,1-.77,1.17" fill="#393835"/><path d="M50.05,22V19.75a3,3,0,0,1,.11.32v1.57c0,.11-.07.22-.11.33" fill="#353432"/><path d="M47.11,20.87h0m0,0,.37.38-.37-.38-.38.38.38-.38m0,1.3a1.31,1.31,0,0,1-1.24-.89,2.83,2.83,0,0,0,0-.41,3.25,3.25,0,0,0,0-.44,1.3,1.3,0,0,1,1.24-.87,1.28,1.28,0,0,1,1.2.8v1a1.3,1.3,0,0,1-1.2.81v0" fill="#6b6658"/><path d="M48.31,21.36v-1a1.19,1.19,0,0,1,.1.51,1.16,1.16,0,0,1-.1.49" fill="#5e5950"/><path d="M8.87,21.25l.37-.38Z" fill="#e5b53d"/><path d="M10.49,20.47a1.31,1.31,0,0,0-2.48,0,3.16,3.16,0,0,0-.9-1.8s0,0,0,0a3.1,3.1,0,0,1,2.17-.87h0a3.15,3.15,0,0,1,2.18.88l0,0a3.11,3.11,0,0,0-.91,1.84M9.24,24a3.25,3.25,0,0,1-2.17-.88A3.26,3.26,0,0,0,8,21.28a1.31,1.31,0,0,0,1.23.89V24" fill="#6b685e"/><path d="M7.06,23.14a3.17,3.17,0,0,1-.94-1.86,1.14,1.14,0,0,0,.07-.41,1.27,1.27,0,0,0-.07-.44,3.19,3.19,0,0,1,.9-1.8l0,0a.1.1,0,0,1,.05,0,3.16,3.16,0,0,1,.9,1.8,1.32,1.32,0,0,0-.08.44,1.41,1.41,0,0,0,.07.41,3.06,3.06,0,0,1-.94,1.86" fill="#3a3937"/><path d="M6.12,21.28a2.73,2.73,0,0,1,0-.41,3.15,3.15,0,0,1,0-.44,1.27,1.27,0,0,1,.07.44,1.14,1.14,0,0,1-.07.41" fill="#393835"/><path d="M9.24,24V22.17a1.31,1.31,0,0,0,1.25-.92,3.11,3.11,0,0,0,.94,1.88A3.22,3.22,0,0,1,9.24,24" fill="#6b685e"/><path d="M9.24,20.87h0m0,0-.37.38.37-.38m0,1.3A1.31,1.31,0,0,1,8,21.28l0-.41a3.25,3.25,0,0,0,0-.44,1.31,1.31,0,0,1,2.48,0,2.6,2.6,0,0,0,0,.4c0,.13,0,.26,0,.38a1.31,1.31,0,0,1-1.25.92v0" fill="#6b6658"/><path d="M8,21.28a1.15,1.15,0,0,1-.08-.41A1.32,1.32,0,0,1,8,20.43a3.25,3.25,0,0,1,0,.44l0,.41" fill="#5e5950"/><path d="M13.22,21.24l.37-.37Zm.76,0-.36-.37.36.37" fill="#e5b53d"/><path d="M12.37,20.47a3.08,3.08,0,0,0-.91-1.84l0,0a3.15,3.15,0,0,1,2.18-.88h0A3.1,3.1,0,0,1,14.8,18v2.41a1.29,1.29,0,0,0-2.43.11M13.62,24V22.17a1.3,1.3,0,0,0,1.18-.81v2.41a3.27,3.27,0,0,1-1.18.25m0,0a3.18,3.18,0,0,1-2.19-.89,3.22,3.22,0,0,0,.94-1.88,1.31,1.31,0,0,0,1.25.92V24" fill="#6b685e"/><path d="M16.64,21.63V20.08a2.56,2.56,0,0,1,.1.79,2.73,2.73,0,0,1-.1.76" fill="#1f1e1d"/><path d="M14.8,23.77V21.36a1.16,1.16,0,0,0,.1-.49,1.22,1.22,0,0,0-.1-.51V18a3.18,3.18,0,0,1,1,.63v4.56a2.9,2.9,0,0,1-1,.63" fill="#3a3937"/><path d="M15.77,23.14V18.58l.06.06a3.15,3.15,0,0,1,.71,1.11V22a3,3,0,0,1-.77,1.18" fill="#393835"/><path d="M16.54,22V19.75a2.33,2.33,0,0,1,.1.32v1.57a2,2,0,0,1-.1.32" fill="#353432"/><path d="M11.43,23.13a3.11,3.11,0,0,1-.94-1.88,1.21,1.21,0,0,0,.06-.38,1.4,1.4,0,0,0-.06-.41,3.15,3.15,0,0,1,.9-1.83s0,0,0,0l0,0a3.11,3.11,0,0,1,.91,1.83,1.4,1.4,0,0,0-.06.41,1.58,1.58,0,0,0,0,.38,3.15,3.15,0,0,1-.93,1.88" fill="#3a3937"/><path d="M10.49,21.25c0-.12,0-.25,0-.38a2.6,2.6,0,0,1,0-.4,1.29,1.29,0,0,1,.06.4,1.21,1.21,0,0,1-.06.38" fill="#393835"/><path d="M13.62,20.87h0m0,0-.37.37.37-.37m0,0,.36.37-.36-.37m0,1.29a1.31,1.31,0,0,1-1.25-.92c0-.12,0-.25,0-.38s0-.27,0-.4a1.29,1.29,0,0,1,2.43-.11v1a1.3,1.3,0,0,1-1.18.81v0" fill="#6b6658"/><path d="M14.8,21.36v-1a1.22,1.22,0,0,1,.1.51,1.16,1.16,0,0,1-.1.49" fill="#5e5950"/><path d="M12.37,21.25a1.21,1.21,0,0,1-.06-.38,1.4,1.4,0,0,1,.06-.41c0,.14,0,.27,0,.41s0,.26,0,.38" fill="#5e5950"/><path d="M22.67,20.44a1.3,1.3,0,0,0-1.23-.88,1.28,1.28,0,0,0-1.21.83V18a3,3,0,0,1,1.2-.24h0a3.13,3.13,0,0,1,2.17.87s0,0,0,0a3.1,3.1,0,0,0-.9,1.81M21.44,24a3.39,3.39,0,0,1-1.21-.25V21.33a1.3,1.3,0,0,0,1.21.84V24" fill="#6b685e"/><path d="M20.23,23.77a2.93,2.93,0,0,1-1-.64V18.59a3.18,3.18,0,0,1,1-.63v2.43a1.28,1.28,0,0,0-.09.48,1.22,1.22,0,0,0,.09.46v2.44" fill="#3a3937"/><path d="M19.26,23.13a3,3,0,0,1-.77-1.2V19.79a3,3,0,0,1,.72-1.15l.05-.05v4.54" fill="#393835"/><path d="M18.39,21.59a2.9,2.9,0,0,1-.09-.72,3.06,3.06,0,0,1,.09-.74v1.46" fill="#1f1e1d"/><path d="M18.49,21.93a1.91,1.91,0,0,1-.1-.34V20.13a1.91,1.91,0,0,1,.1-.34v2.14" fill="#1f1e1d"/><path d="M21.44,24V22.17a1.32,1.32,0,0,0,1.23-.89,3.2,3.2,0,0,0,.94,1.86,3.25,3.25,0,0,1-2.17.88" fill="#6b685e"/><path d="M21.45,20.87h0m0,1.3a1.3,1.3,0,0,1-1.21-.84v-.94a1.28,1.28,0,0,1,1.21-.83,1.3,1.3,0,0,1,1.23.88,3,3,0,0,0,0,.43,2.83,2.83,0,0,0,0,.41,1.32,1.32,0,0,1-1.23.89v0" fill="#6b6658"/><path d="M20.23,21.33a1.22,1.22,0,0,1-.09-.46,1.28,1.28,0,0,1,.09-.48v.94" fill="#5e5950"/><path d="M26.16,21.25l-.37-.38Zm-.74,0,.37-.38-.37.38" fill="#e5b53d"/><path d="M27,20.46a1.31,1.31,0,0,0-2.48,0,3.15,3.15,0,0,0-.89-1.81l-.05,0a3.13,3.13,0,0,1,2.17-.87h0a3.18,3.18,0,0,1,2.18.87l0,0A3.19,3.19,0,0,0,27,20.46M25.79,24V22.17A1.34,1.34,0,0,0,27,21.26,3.13,3.13,0,0,0,28,23.13a3.22,3.22,0,0,1-2.18.89m0,0a3.21,3.21,0,0,1-2.18-.88,3.2,3.2,0,0,0,.94-1.86,1.32,1.32,0,0,0,1.24.89V24" fill="#6b685e"/><path d="M23.61,23.14a3.2,3.2,0,0,1-.94-1.86,1.41,1.41,0,0,0,.07-.41,1.43,1.43,0,0,0-.07-.43,3.1,3.1,0,0,1,.9-1.81l0,0,0,0a3.1,3.1,0,0,1,.9,1.81,1.43,1.43,0,0,0-.07.43,1.41,1.41,0,0,0,.07.41,3.2,3.2,0,0,1-.94,1.86" fill="#3a3937"/><path d="M22.67,21.28a2.83,2.83,0,0,1,0-.41,3,3,0,0,1,0-.43,1.43,1.43,0,0,1,.07.43,1.41,1.41,0,0,1-.07.41" fill="#393835"/><path d="M25.79,20.87h0m0,0,.37.38-.37-.38m0,0-.37.38.37-.38m0,1.3a1.32,1.32,0,0,1-1.24-.89,2.83,2.83,0,0,0,0-.41,3,3,0,0,0,0-.43,1.31,1.31,0,0,1,2.48,0,2.75,2.75,0,0,0,0,.41,2.56,2.56,0,0,0,0,.39,1.34,1.34,0,0,1-1.25.91v0" fill="#6b6658"/><path d="M24.55,21.28a1.41,1.41,0,0,1-.07-.41,1.49,1.49,0,0,1,.07-.43,3,3,0,0,1,0,.43,2.83,2.83,0,0,1,0,.41" fill="#5e5950"/><path d="M29.77,21.24l.37-.37Zm.76,0-.37-.37.37.37" fill="#e5b53d"/><path d="M28.91,20.46a3.13,3.13,0,0,0-.9-1.83l0,0a3.19,3.19,0,0,1,2.19-.87h0a3.21,3.21,0,0,1,1.2.24V20.4a1.27,1.27,0,0,0-1.2-.84,1.32,1.32,0,0,0-1.25.9M30.16,24V22.17a1.29,1.29,0,0,0,1.2-.85v2.45a3.34,3.34,0,0,1-1.2.25m0,0A3.24,3.24,0,0,1,28,23.13a3.09,3.09,0,0,0,.94-1.87,1.33,1.33,0,0,0,1.25.91V24" fill="#6b685e"/><path d="M33.21,21.56V20.14a3.55,3.55,0,0,1,.08.73,3.1,3.1,0,0,1-.08.69" fill="#3a3937"/><path d="M31.36,23.77V21.32a1.17,1.17,0,0,0,.09-.45,1.23,1.23,0,0,0-.09-.47V18a3.23,3.23,0,0,1,1,.62v4.56a3.26,3.26,0,0,1-1,.63" fill="#3a3937"/><path d="M32.32,23.14V18.58l0,.06a3.19,3.19,0,0,1,.84,1.5v1.42a3.19,3.19,0,0,1-.89,1.58" fill="#393835"/><path d="M28,23.13A3.2,3.2,0,0,1,27,21.26a1.34,1.34,0,0,0,.07-.39,1.35,1.35,0,0,0-.07-.41,3.26,3.26,0,0,1,.91-1.84l0,0s0,0,0,0a3.13,3.13,0,0,1,.9,1.83,1.35,1.35,0,0,0-.06.41,1.32,1.32,0,0,0,.06.39A3.09,3.09,0,0,1,28,23.13" fill="#3a3937"/><path d="M27,21.26c0-.13,0-.26,0-.39s0-.28,0-.41a1.35,1.35,0,0,1,.07.41,1.34,1.34,0,0,1-.07.39" fill="#393835"/><path d="M30.16,20.87h0m0,0-.38.37.38-.37m0,0,.37.37-.37-.37m0,1.29a1.33,1.33,0,0,1-1.25-.91,2.56,2.56,0,0,0,0-.39,2.73,2.73,0,0,0,0-.41,1.32,1.32,0,0,1,1.25-.9,1.27,1.27,0,0,1,1.2.84v.92a1.29,1.29,0,0,1-1.2.85v0" fill="#6b6658"/><path d="M31.36,21.32V20.4a1.19,1.19,0,0,1,.09.47,1.17,1.17,0,0,1-.09.45" fill="#5e5950"/><path d="M28.91,21.26a1.32,1.32,0,0,1-.06-.39,1.35,1.35,0,0,1,.06-.41,2.73,2.73,0,0,1,0,.41,2.56,2.56,0,0,1,0,.39" fill="#5e5950"/><path d="M42.38,21.25l.37-.38Zm.75,0-.38-.38.38.38" fill="#e5b53d"/><path d="M41.5,20.47a3.1,3.1,0,0,0-.88-1.83l0-.05a3.18,3.18,0,0,1,2.18-.87h0a3.13,3.13,0,0,1,2.17.87l0,0a3.07,3.07,0,0,0-.9,1.8,1.32,1.32,0,0,0-2.49,0M42.75,24V22.17A1.32,1.32,0,0,0,44,21.28a3.14,3.14,0,0,0,.94,1.86,3.21,3.21,0,0,1-2.18.88m0,0a3.22,3.22,0,0,1-2.18-.89l.06-.06a3.19,3.19,0,0,0,.88-1.82,1.31,1.31,0,0,0,1.24.92V24" fill="#6b685e"/><path d="M40.57,23.13a3.11,3.11,0,0,1-.94-1.88,1.21,1.21,0,0,0,.06-.38,1.29,1.29,0,0,0-.06-.4,3.11,3.11,0,0,1,.91-1.84l0,0,0,.05a3.17,3.17,0,0,1,.89,1.83,1.29,1.29,0,0,0-.06.4,1.21,1.21,0,0,0,.06.38,3.19,3.19,0,0,1-.88,1.82l-.06.06" fill="#3a3937"/><path d="M39.63,21.25a2.48,2.48,0,0,1,0-.38,1.76,1.76,0,0,1,0-.4,1.29,1.29,0,0,1,.06.4,1.21,1.21,0,0,1-.06.38" fill="#393835"/><path d="M44.93,23.14A3.11,3.11,0,0,1,44,21.28a1.41,1.41,0,0,0,.07-.41,1.43,1.43,0,0,0-.07-.43,3.1,3.1,0,0,1,.9-1.81l0,0,0,0a3.1,3.1,0,0,1,.9,1.81,1.18,1.18,0,0,0-.07.43,1.14,1.14,0,0,0,.07.41,3.17,3.17,0,0,1-.94,1.86" fill="#3a3937"/><path d="M45.87,21.28a1.14,1.14,0,0,1-.07-.41,1.21,1.21,0,0,1,.07-.43,3,3,0,0,1,0,.43,2.73,2.73,0,0,1,0,.41" fill="#393835"/><path d="M42.75,20.87h0m0,0-.37.38.37-.38m0,0,.38.38-.38-.38m0,1.3a1.31,1.31,0,0,1-1.24-.92c0-.13,0-.25,0-.38a2.6,2.6,0,0,0,0-.4,1.32,1.32,0,0,1,2.49,0,3.27,3.27,0,0,0,0,.44c0,.14,0,.27,0,.41a1.32,1.32,0,0,1-1.24.89v0" fill="#6b6658"/><path d="M41.51,21.25a1.21,1.21,0,0,1-.06-.38,1.29,1.29,0,0,1,.06-.4c0,.13,0,.26,0,.4s0,.25,0,.38" fill="#5e5950"/><path d="M44,21.28a2.73,2.73,0,0,1,0-.41,3.24,3.24,0,0,1,0-.44,1.27,1.27,0,0,1,.08.44,1.41,1.41,0,0,1-.07.41" fill="#5e5950"/><path d="M55.33,21.24,55,20.87h0Zm-.76,0,.37-.37-.37.37" fill="#e5b53d"/><path d="M56.19,20.47a1.3,1.3,0,0,0-2.45-.07V18a3.21,3.21,0,0,1,1.2-.24h0a3.16,3.16,0,0,1,2.17.87l0,.05a3.1,3.1,0,0,0-.88,1.83M55,24a3.35,3.35,0,0,1-1.21-.25V21.32a1.3,1.3,0,0,0,1.21.85V24" fill="#6b685e"/><path d="M53.74,23.77a3.27,3.27,0,0,1-1-.64V18.6a3,3,0,0,1,1-.64V20.4a1.19,1.19,0,0,0-.09.47,1.17,1.17,0,0,0,.09.45v2.45" fill="#3a3937"/><path d="M52.77,23.13A3.21,3.21,0,0,1,52,21.92V19.79a3.18,3.18,0,0,1,.73-1.16l0,0v4.53" fill="#393835"/><path d="M51.89,21.57a3.27,3.27,0,0,1-.08-.7,3.47,3.47,0,0,1,.08-.73v1.43" fill="#1f1e1d"/><path d="M52,21.92a3.58,3.58,0,0,1-.11-.35V20.14a3.58,3.58,0,0,1,.11-.35v2.13" fill="#1f1e1d"/><path d="M55,24V22.17a1.31,1.31,0,0,0,1.24-.92,3.18,3.18,0,0,0,.93,1.88A3.17,3.17,0,0,1,55,24" fill="#6b685e"/><path d="M55,20.87l.38.37L55,20.87h0m0,0-.38.38.38-.38m0,1.3a1.3,1.3,0,0,1-1.21-.85V20.4a1.3,1.3,0,0,1,2.45.07,2.6,2.6,0,0,0,0,.4,2.34,2.34,0,0,0,0,.38,1.31,1.31,0,0,1-1.24.92v0" fill="#6b6658"/><path d="M53.74,21.32a1.13,1.13,0,0,1-.09-.45,1.19,1.19,0,0,1,.09-.47v.92" fill="#5e5950"/><path d="M62.42,20.43a3.16,3.16,0,0,0-.9-1.8l-.05,0a3.14,3.14,0,0,1,2.18-.87h0a3,3,0,0,1,1.19.24v2.39a1.31,1.31,0,0,0-2.43.08M63.65,24V22.17a1.31,1.31,0,0,0,1.2-.8v2.4a3.34,3.34,0,0,1-1.2.25m0,0a3.23,3.23,0,0,1-2.18-.88,3.09,3.09,0,0,0,.94-1.85,1.34,1.34,0,0,0,1.24.88V24" fill="#6b685e"/><path d="M66.7,21.65V20.06a3.1,3.1,0,0,1,.1.81,3.33,3.33,0,0,1-.1.78" fill="#3a3937"/><path d="M64.86,23.77v-2.4a1.44,1.44,0,0,0,.1-.5,1.46,1.46,0,0,0-.1-.52V18a3.12,3.12,0,0,1,1,.63v4.55a3.31,3.31,0,0,1-1,.63" fill="#3a3937"/><path d="M65.83,23.14V18.59l0,0a3.17,3.17,0,0,1,.83,1.43v1.59a3.26,3.26,0,0,1-.87,1.49" fill="#393835"/><path d="M63.65,20.87h0m0,1.3a1.34,1.34,0,0,1-1.24-.88,3,3,0,0,0,0-.42c0-.15,0-.29,0-.44a1.31,1.31,0,0,1,2.43-.08v1a1.31,1.31,0,0,1-1.2.8v0" fill="#6b6658"/><path d="M64.86,21.37v-1a1.46,1.46,0,0,1,.1.52,1.44,1.44,0,0,1-.1.5" fill="#5e5950"/><path d="M59.68,21.24l-.37-.37h0Zm-.76,0,.38-.38-.38.38" fill="#e5b53d"/><path d="M58.06,20.47a3.12,3.12,0,0,0-.9-1.84s0,0,0,0a3.18,3.18,0,0,1,2.17-.87h0a3.1,3.1,0,0,1,2.17.87l0,0a3.13,3.13,0,0,0-.9,1.8,1.3,1.3,0,0,0-1.23-.87,1.28,1.28,0,0,0-1.24.91M59.3,24V22.17a1.31,1.31,0,0,0,1.23-.88,3.2,3.2,0,0,0,.94,1.85A3.18,3.18,0,0,1,59.3,24m0,0a3.17,3.17,0,0,1-2.18-.89,3.09,3.09,0,0,0,.94-1.88,1.31,1.31,0,0,0,1.24.92V24" fill="#6b685e"/><path d="M57.12,23.13a3.13,3.13,0,0,1-.93-1.88,1.2,1.2,0,0,0,.05-.38,1.29,1.29,0,0,0-.05-.4,3.1,3.1,0,0,1,.88-1.83l0-.05,0,0a3.18,3.18,0,0,1,.9,1.84,1.68,1.68,0,0,0-.06.4,1.59,1.59,0,0,0,.06.38,3.11,3.11,0,0,1-.94,1.88" fill="#3a3937"/><path d="M56.19,21.25a2.34,2.34,0,0,1,0-.38,2.6,2.6,0,0,1,0-.4,1.29,1.29,0,0,1,.05.4,1.2,1.2,0,0,1-.05.38" fill="#393835"/><path d="M61.47,23.14a3.17,3.17,0,0,1-.94-1.86,1.14,1.14,0,0,0,.07-.41,1.27,1.27,0,0,0-.07-.44,3.22,3.22,0,0,1,.9-1.8l0,0,.05,0a3.16,3.16,0,0,1,.9,1.8,1.27,1.27,0,0,0-.08.44,1.41,1.41,0,0,0,.07.41,3.06,3.06,0,0,1-.94,1.86" fill="#3a3937"/><path d="M62.41,21.28a1.41,1.41,0,0,1-.07-.41,1.56,1.56,0,0,1,.07-.44,2.12,2.12,0,0,1,0,.44c0,.14,0,.28,0,.41" fill="#393835"/><path d="M59.31,20.87l.37.37-.37-.37h0m0,0-.38.38.38-.38m0,1.3a1.31,1.31,0,0,1-1.24-.92,2.43,2.43,0,0,0,0-.38,2.6,2.6,0,0,0,0-.4,1.28,1.28,0,0,1,1.24-.91,1.3,1.3,0,0,1,1.23.87,3.25,3.25,0,0,0,0,.44,3,3,0,0,0,0,.42,1.31,1.31,0,0,1-1.23.88v0" fill="#6b6658"/><path d="M58.06,21.25a1.59,1.59,0,0,1-.06-.38,1.29,1.29,0,0,1,.07-.4c0,.13,0,.26,0,.4a2.43,2.43,0,0,1,0,.38" fill="#5e5950"/><path d="M60.53,21.28a2.73,2.73,0,0,1,0-.41,3.15,3.15,0,0,1,0-.44,1.27,1.27,0,0,1,.07.44,1.14,1.14,0,0,1-.07.41" fill="#5e5950"/><path d="M76.1,21.23l.37-.36Zm.77,0-.37-.38.37.38" fill="#e5b53d"/><path d="M75.25,20.47a3.17,3.17,0,0,0-.91-1.84l0,0a3.15,3.15,0,0,1,2.19-.88h0a3.13,3.13,0,0,1,2.16.87,3.17,3.17,0,0,0-.94,1.88,1.28,1.28,0,0,0-1.23-.91,1.3,1.3,0,0,0-1.25.91M76.5,24a3.24,3.24,0,0,1-2.19-.89,3.19,3.19,0,0,0,.94-1.89,1.31,1.31,0,0,0,1.25.93V24m0,0h0V22.17a1.3,1.3,0,0,0,1.23-.92,3.09,3.09,0,0,0,.94,1.88A3.1,3.1,0,0,1,76.5,24" fill="#6b685e"/><path d="M74.31,23.13a3.14,3.14,0,0,1-.94-1.89,1.15,1.15,0,0,0,.06-.37,1.34,1.34,0,0,0-.06-.4,3.11,3.11,0,0,1,.91-1.84l0,0,0,0a3.17,3.17,0,0,1,.91,1.84,1.34,1.34,0,0,0-.06.4,1.15,1.15,0,0,0,.06.37,3.19,3.19,0,0,1-.94,1.89" fill="#3a3937"/><path d="M73.37,21.24c0-.12,0-.25,0-.37a2.61,2.61,0,0,1,0-.4,1.34,1.34,0,0,1,.06.4,1.15,1.15,0,0,1-.06.37" fill="#393835"/><path d="M76.5,20.87h0m0,0-.37.36.37-.36m0,0,.37.37-.37-.37m0,1.29a1.31,1.31,0,0,1-1.25-.93c0-.12,0-.25,0-.37s0-.27,0-.4a1.3,1.3,0,0,1,1.25-.91,1.28,1.28,0,0,1,1.23.91,2.6,2.6,0,0,0,0,.4,2.43,2.43,0,0,0,0,.38,1.3,1.3,0,0,1-1.23.92v0" fill="#6b6658"/><path d="M75.25,21.24a1.15,1.15,0,0,1-.06-.37,1.34,1.34,0,0,1,.06-.4c0,.13,0,.26,0,.4s0,.25,0,.37" fill="#5e5950"/><path d="M79.6,20.47a3.1,3.1,0,0,0-.88-1.83l0-.05a3.13,3.13,0,0,1,2.16-.87h0a3.4,3.4,0,0,1,1.22.24v2.43a1.31,1.31,0,0,0-1.23-.83,1.3,1.3,0,0,0-1.23.91M80.83,24V22.17a1.34,1.34,0,0,0,1.23-.84v2.43a3.34,3.34,0,0,1-1.23.26m0,0a3.15,3.15,0,0,1-2.16-.89l.06-.06a3.15,3.15,0,0,0,.87-1.82,1.32,1.32,0,0,0,1.23.92V24" fill="#6b685e"/><path d="M83.9,21.58V20.13a3,3,0,0,1,.08.74,3.36,3.36,0,0,1-.08.71" fill="#1f1e1d"/><path d="M82.05,23.76V21.33a1.22,1.22,0,0,0,.09-.46,1.28,1.28,0,0,0-.09-.48V18a2.93,2.93,0,0,1,1,.64v4.52a2.93,2.93,0,0,1-1,.64" fill="#3a3937"/><path d="M83,23.12V18.6l0,0a3.23,3.23,0,0,1,.75,1.16v2.13a3.22,3.22,0,0,1-.77,1.2" fill="#393835"/><path d="M83.8,21.92V19.79c0,.11.07.23.1.34v1.45c0,.11-.06.23-.1.34" fill="#353432"/><path d="M78.67,23.13a3.09,3.09,0,0,1-.94-1.88,1.2,1.2,0,0,0,0-.38,1.68,1.68,0,0,0,0-.4,3.11,3.11,0,0,1,.94-1.88l0,.05a3.1,3.1,0,0,1,.88,1.83,1.29,1.29,0,0,0-.06.4,1.21,1.21,0,0,0,.06.38,3.15,3.15,0,0,1-.87,1.82l-.06.06" fill="#3a3937"/><path d="M77.73,21.25a2.53,2.53,0,0,1,0-.38c0-.14,0-.27,0-.4a1.29,1.29,0,0,1,.06.4,1.58,1.58,0,0,1,0,.38" fill="#393835"/><path d="M80.83,20.87h0m0,1.3a1.32,1.32,0,0,1-1.23-.92,2.34,2.34,0,0,0,0-.38,2.6,2.6,0,0,0,0-.4,1.3,1.3,0,0,1,1.23-.91,1.31,1.31,0,0,1,1.23.83v.94a1.34,1.34,0,0,1-1.23.84v0" fill="#6b6658"/><path d="M82.05,21.33V20.4a1.19,1.19,0,0,1,.09.47,1.22,1.22,0,0,1-.09.46" fill="#5e5950"/><path d="M79.6,21.25a1.21,1.21,0,0,1-.06-.38,1.29,1.29,0,0,1,.06-.4,2.6,2.6,0,0,1,0,.4,2.34,2.34,0,0,1,0,.38" fill="#5e5950"/><path d="M97,4.89h0l.37-.38Zm-.4.37.38-.37-.38.37" fill="#e5b53d"/><path d="M96.45,6.09H95.32V3.68h1.14a1.34,1.34,0,0,0-.81,1.21,1.28,1.28,0,0,0,.8,1.2m2.15,0H97.47a1.28,1.28,0,0,0,.78-1.2,1.32,1.32,0,0,0-.79-1.21H98.6V6.09" fill="#6b685e"/><path d="M97.75,1.84H96.19a3.18,3.18,0,0,1,.77-.1h0a3.33,3.33,0,0,1,.78.1" fill="#3a3a39"/><path d="M99.86,6.09H98.6V3.68H97.46a1.3,1.3,0,0,0-1,0H95.32V2.21a3.21,3.21,0,0,1,.87-.37h1.56a3.18,3.18,0,0,1,2.34,3.05,3,3,0,0,1-.23,1.2" fill="#3a3937"/><path d="M97,4.89h0l.37-.38L97,4.89m0,0h0m0,0-.38.37.38-.37m.53,1.2H97v0h-.52a1.28,1.28,0,0,1-.78-1.2,1.33,1.33,0,0,1,.8-1.21h1a1.33,1.33,0,0,1,.8,1.21,1.28,1.28,0,0,1-.78,1.2" fill="#6b6658"/><path d="M97.46,3.68h-1a1.44,1.44,0,0,1,.5-.1,1.39,1.39,0,0,1,.5.1" fill="#5e5950"/><path d="M97.77,21.25l-.37-.38Z" fill="#e5b53d"/><path d="M96.15,20.47a3.17,3.17,0,0,0-.89-1.83l-.05-.05a3.18,3.18,0,0,1,2.18-.87h0a3.21,3.21,0,0,1,1.2.24V20.4a1.3,1.3,0,0,0-2.45.07M97.4,24V22.17a1.31,1.31,0,0,0,1.2-.85v2.45a3.38,3.38,0,0,1-1.2.25m0,0a3.24,3.24,0,0,1-2.19-.89s.05,0,.06-.06a3.19,3.19,0,0,0,.88-1.82,1.31,1.31,0,0,0,1.25.92V24" fill="#6b685e"/><path d="M100.44,21.57V20.14a3,3,0,0,1,.08.73,3.27,3.27,0,0,1-.08.7" fill="#3a3a39"/><path d="M98.6,23.77V21.32a1.38,1.38,0,0,0,.08-.45,1.4,1.4,0,0,0-.08-.47V18a3.16,3.16,0,0,1,1.84,2.18v1.42a3.12,3.12,0,0,1-1.84,2.21" fill="#3a3937"/><path d="M97.4,20.87h0m0,0,.37.38-.37-.38m0,1.3a1.31,1.31,0,0,1-1.25-.92c0-.12,0-.25,0-.38s0-.27,0-.4a1.3,1.3,0,0,1,2.45-.07v.92a1.31,1.31,0,0,1-1.2.85v0" fill="#6b6658"/><path d="M98.6,21.32V20.4a1.4,1.4,0,0,1,.08.47,1.33,1.33,0,0,1-.08.45" fill="#5e5950"/><path d="M92.65,21.24l.37-.37Zm.76,0L93,20.87h0l.37.38" fill="#e5b53d"/><path d="M91.79,20.48a3.09,3.09,0,0,0-.9-1.85l0,0A3.13,3.13,0,0,1,93,17.72h0a3.13,3.13,0,0,1,2.16.87l0,0a3.11,3.11,0,0,0-.91,1.84A1.27,1.27,0,0,0,93,19.56a1.3,1.3,0,0,0-1.25.92M93,24a3.2,3.2,0,0,1-2.18-.89,3.21,3.21,0,0,0,.93-1.89,1.32,1.32,0,0,0,1.25.93V24m0,0h0V22.17a1.29,1.29,0,0,0,1.23-.92,3.22,3.22,0,0,0,.94,1.88A3.08,3.08,0,0,1,93,24" fill="#6b685e"/><path d="M90.85,23.13a3.18,3.18,0,0,1-.93-1.89,1.57,1.57,0,0,0,0-.37,1.23,1.23,0,0,0-.06-.39,3.16,3.16,0,0,1,.91-1.85s0,0,0,0l0,0a3.15,3.15,0,0,1,.9,1.85,1.23,1.23,0,0,0-.05.39,1.18,1.18,0,0,0,.05.37,3.17,3.17,0,0,1-.94,1.89" fill="#3a3937"/><path d="M89.92,21.23a2.19,2.19,0,0,1,0-.36c0-.13,0-.26,0-.39a1.23,1.23,0,0,1,.06.39,1.42,1.42,0,0,1,0,.36" fill="#393835"/><path d="M95.21,23.13a3.22,3.22,0,0,1-.94-1.88,1.21,1.21,0,0,0,.06-.38,1.29,1.29,0,0,0-.06-.4,3.08,3.08,0,0,1,.91-1.84l0,0,0,.05a3.17,3.17,0,0,1,.89,1.83,1.34,1.34,0,0,0-.06.4,1.21,1.21,0,0,0,.06.38,3.16,3.16,0,0,1-.88,1.82s0,0-.06.06" fill="#3a3937"/><path d="M96.15,21.25a1.21,1.21,0,0,1-.06-.38,1.29,1.29,0,0,1,.06-.4c0,.13,0,.26,0,.4s0,.26,0,.38" fill="#393835"/><path d="M93,20.87h0m0,0-.37.37.37-.37m0,0,.37.38L93,20.87m0,1.3a1.32,1.32,0,0,1-1.25-.93c0-.13,0-.25,0-.37a2.55,2.55,0,0,0,0-.39A1.3,1.3,0,0,1,93,19.56a1.27,1.27,0,0,1,1.23.91,2.61,2.61,0,0,0,0,.4c0,.13,0,.25,0,.38a1.29,1.29,0,0,1-1.23.92v0" fill="#6b6658"/><path d="M91.79,21.24a1.19,1.19,0,0,1-.06-.37,1.23,1.23,0,0,1,.06-.39,2.55,2.55,0,0,1,0,.39,2.3,2.3,0,0,1,0,.37" fill="#5e5950"/><path d="M94.27,21.25l0-.38a2.6,2.6,0,0,1,0-.4,1.29,1.29,0,0,1,.06.4,1.21,1.21,0,0,1-.06.38" fill="#5e5950"/><path d="M76.06,7.07h-.89V6.65a3.08,3.08,0,0,0,.29-3h.6V7.07m1.84,0H76.06V3.69H77.9V7.07" fill="#6b685e"/><path d="M76.06,3.69h-.6a3,3,0,0,0-1.24-1.47V1.84h1.84V3.69m1.84,0H76.06V1.84H77.9Z" fill="#3a3937"/><path d="M75.17,6.66V6.09h-1V3.68h1.24a3.27,3.27,0,0,1,.25,1.21,3.19,3.19,0,0,1-.54,1.77" fill="#3a3937"/><path d="M75.46,3.68H74.22V2.22a3.05,3.05,0,0,1,1.24,1.46" fill="#1f1e1d"/><path d="M75.17,6.09h0" fill="#1f1e1d"/><polygon points="76.06 7.07 76.06 7.07 76.06 3.69 76.06 7.07" fill="#6b6658"/><polygon points="76.06 3.69 76.06 3.69 76.06 1.84 76.06 3.69" fill="#5e5950"/><path d="M71.76,7.93h-.84V7.58a2.82,2.82,0,0,0,.84.35m3.41,0h-1.8a3.21,3.21,0,0,0,1.41-.8l0,0h.36v.83m0,1.85H70.92V7.93h.84a3,3,0,0,0,.8.11h0V8h0a3.1,3.1,0,0,0,.81-.11h1.8V9.78" fill="#6b685e"/><path d="M75.17,9.78h0V7.1h-.36l0,0h.33V9.78" fill="#3a3937"/><path d="M70.92,7.94H70V6.69a2.61,2.61,0,0,0,.37.44,3.11,3.11,0,0,0,.58.45v.36m0,1.84H70V7.94h1Z" fill="#3a3937"/><path d="M70,7.94h-.89V6.09h.57a2.89,2.89,0,0,0,.32.6V7.94m0,1.84h-.89V7.94H70Z" fill="#393835"/><path d="M72.56,7.93h-.8a2.82,2.82,0,0,1-.84-.35V6.09H72a1.31,1.31,0,0,0,.52.11V7.93m.8,0h-.8V6.2a1.31,1.31,0,0,0,.52-.11h1.14v1h.59l0,0a3.18,3.18,0,0,1-1.42.8M72.57,8h0V7.93h.8a3,3,0,0,1-.79.11m0,0a3,3,0,0,1-.8-.11h.8V8h0" fill="#3a3937"/><path d="M74.81,7.1h-.59v0h.62l0,0" fill="#1f1e1d"/><path d="M70.92,7.58a3.6,3.6,0,0,1-.58-.45A2.61,2.61,0,0,1,70,6.69v-.6h1V7.58" fill="#1f1e1d"/><path d="M70,6.69a2.89,2.89,0,0,1-.32-.6H70v.6" fill="#1f1e1d"/><path d="M72.56,6.2V6.09h.51a1.23,1.23,0,0,1-.51.11m0,0a1.23,1.23,0,0,1-.51-.11h.51V6.2" fill="#393835"/><path d="M75.17,7.07h0v0m0,0h-.33a3.39,3.39,0,0,0,.33-.42v.42" fill="#1f1e1d"/><path d="M74.75,7.07h-.53v-1h.92a1,1,0,0,0-.92,1l.53,0" fill="#1f1e1d"/><path d="M75.17,6.65v0m-.33.42h-.09l-.53,0a1,1,0,0,1,.92-1h0v.56a3.39,3.39,0,0,1-.33.42" fill="#111110"/><path d="M71.76,7.93h0Zm3.41,0h0" fill="#6b6658"/><path d="M70.92,7.93h0Z" fill="#5e5950"/><path d="M70,7.93h0Z" fill="#5d594f"/><path d="M72.56,7.93h0Zm.8,0h0" fill="#5e5950"/><path d="M93.48,7.07H91.63V3.69h1.85Zm.85,0h-.85V3.69h.58a3,3,0,0,0-.25,1.2,3.18,3.18,0,0,0,.52,1.74v.44" fill="#6b685e"/><path d="M93.47,3.68H91.63V1.84h1.84Zm.59,0h-.59V1.84h1.85v.37a3.06,3.06,0,0,0-1.26,1.47" fill="#3a3937"/><path d="M94.33,6.63h0v0a3.18,3.18,0,0,1-.52-1.74,3.08,3.08,0,0,1,.25-1.21h1.26V6.09h-1v.54" fill="#3a3937"/><path d="M95.32,3.68H94.06a3.06,3.06,0,0,1,1.26-1.47V3.68" fill="#1f1e1d"/><path d="M94.33,6.63h0v0Zm0,0h0V6.09h0v.54" fill="#1f1e1d"/><polygon points="93.48 7.07 93.48 7.07 93.48 3.69 93.48 7.07" fill="#6b6658"/><polygon points="93.48 3.69 93.48 3.69 93.48 1.84 93.48 3.69" fill="#5e5950"/><path d="M98.6,7.93h-.84a2.82,2.82,0,0,0,.84-.35v.35m0,1.85H94.33V7.93h1.83A3,3,0,0,0,97,8h0V8h0a3,3,0,0,0,.79-.11h.84V9.78" fill="#6b685e"/><path d="M100.44,7.94H98.6V7.58a2.86,2.86,0,0,0,.58-.46,3.13,3.13,0,0,0,.68-1h.58V7.94m0,1.84H98.6V7.94h1.84Z" fill="#3a3937"/><path d="M96.16,7.93H94.33V7.08h.35l.06.06a3.18,3.18,0,0,0,1.42.8" fill="#6b685e"/><polygon points="94.33 7.08 94.33 7.07 94.35 7.07 94.33 7.08" fill="#3a3937"/><path d="M97.77,7.93H97V6.2a1.23,1.23,0,0,0,.51-.11H98.6V7.58a2.88,2.88,0,0,1-.83.35M97,8a3,3,0,0,1-.79-.11H97V8h0m0,0h0V7.93h.81A3.09,3.09,0,0,1,97,8" fill="#3a3937"/><path d="M98.6,7.58V6.09h1.26a3.13,3.13,0,0,1-.68,1,3.26,3.26,0,0,1-.58.46" fill="#1f1e1d"/><path d="M97,7.93h-.8a3.18,3.18,0,0,1-1.42-.8l-.06-.06h.64v-1h1.13A1.23,1.23,0,0,0,97,6.2V7.93" fill="#3a3937"/><path d="M95.32,7.07v0Z" fill="#1f1e1d"/><path d="M97,6.2V6.09h.51A1.23,1.23,0,0,1,97,6.2m0,0a1.23,1.23,0,0,1-.51-.11H97V6.2" fill="#393835"/><path d="M94.35,7.07h0V6.63a2.48,2.48,0,0,0,.19.26l-.17.18m0,0h0l.17-.18-.17.18m.33,0h-.33l.17-.18.16.18" fill="#1f1e1d"/><path d="M95.32,7A1,1,0,0,0,95,6.38l-.51.51L95,6.38l-.51.51L95,6.38a1.05,1.05,0,0,0-.69-.29h1V7" fill="#1f1e1d"/><path d="M94.52,6.89a2.48,2.48,0,0,1-.19-.26V6.09h0a1,1,0,0,1,.69.29l-.51.51m0,0h0L95,6.38l-.51.51m.8.18h-.64l-.16-.18L95,6.38a1,1,0,0,1,.29.66v0" fill="#111110"/><path d="M98.6,7.93h0Z" fill="#6b6658"/><path d="M100.44,7.93h0Z" fill="#5e5950"/><path d="M96.16,7.93h0Z" fill="#6b6658"/><path d="M97,7.93h0Zm.8,0h0" fill="#5e5950"/></svg>