<svg xmlns="http://www.w3.org/2000/svg" width="69.63" height="85.35" viewBox="0 0 69.63 85.35"><title>l03</title><rect x="1.4" y="1.4" width="66.83" height="82.56" fill="#e1e782"/><polyline points="68.23 83.95 68.23 82.55 2.8 82.55 2.8 2.8 66.82 2.8 66.82 83.95 68.23 83.95 68.23 82.55 68.23 83.95 69.63 83.95 69.63 1.4 69.22 0.41 68.23 0 1.4 0 0.41 0.41 0 1.4 0 83.95 0.41 84.94 1.4 85.35 68.23 85.35 69.22 84.94 69.63 83.95 68.23 83.95" fill="#1c181c"/><path d="M2.41,64.92H13.35a1.4,1.4,0,0,0,1.28-.81l3.6-7.92,3.89,17a1.39,1.39,0,0,0,2.72,0l3.44-15.1,3.44,15.1a1.4,1.4,0,0,0,2.73,0l3.44-15.1,3.43,15.1a1.41,1.41,0,0,0,1.37,1.09,1.39,1.39,0,0,0,1.36-1.09l3.5-15.39,1.51,6a1.41,1.41,0,0,0,1.36,1.06H68a1.4,1.4,0,1,0,0-2.8H51.51L48.83,51.5a1.4,1.4,0,0,0-1.37-1.07,1.43,1.43,0,0,0-1.35,1.1L42.69,66.62,39.25,51.53a1.4,1.4,0,0,0-2.73,0l-3.44,15.1-3.43-15.1a1.4,1.4,0,0,0-2.74,0l-3.43,15.1L20,51.53a1.4,1.4,0,0,0-2.64-.27L12.45,62.13H2.4a1.4,1.4,0,1,0,0,2.79" fill="#1c181c"/><polyline points="26.95 34.87 26.95 36.27 59.03 36.27 60.01 35.86 60.43 34.87 60.43 20.44 60.01 19.45 59.03 19.04 26.95 19.04 25.96 19.45 25.55 20.44 25.55 34.87 25.96 35.86 26.95 36.27 26.95 34.87 28.34 34.87 28.34 21.83 57.63 21.83 57.63 33.47 26.95 33.47 26.95 34.87 28.34 34.87 26.95 34.87" fill="#1c181c"/><path d="M59.72,29.06H68.2a1.4,1.4,0,0,0,0-2.8H59.72a1.4,1.4,0,0,0,0,2.8" fill="#1c181c"/><path d="M18.47,29.06H27a1.4,1.4,0,0,0,0-2.8H18.47a1.4,1.4,0,1,0,0,2.8" fill="#1c181c"/><path d="M2.18,29.06H13a1.4,1.4,0,1,0,0-2.8H2.18a1.4,1.4,0,0,0,0,2.8" fill="#1c181c"/><path d="M20,38.37V16.94a1.4,1.4,0,1,0-2.8,0V38.37a1.4,1.4,0,0,0,2.8,0" fill="#1c181c"/><path d="M14.7,38.37V16.94a1.4,1.4,0,0,0-2.8,0V38.37a1.4,1.4,0,0,0,2.8,0" fill="#1c181c"/></svg>