<svg xmlns="http://www.w3.org/2000/svg" width="99.16" height="41.69" viewBox="0 0 99.16 41.69"><title>l010</title><path d="M98.41,8.48A7.78,7.78,0,0,0,90.62.75H8.56A7.78,7.78,0,0,0,.75,8.48V33.21a7.79,7.79,0,0,0,7.81,7.73H90.62a7.79,7.79,0,0,0,7.79-7.73V8.48" fill="#f8af82"/><path d="M98.41,8.48A7.78,7.78,0,0,0,90.62.75H8.56A7.78,7.78,0,0,0,.75,8.48V33.21a7.79,7.79,0,0,0,7.81,7.73H90.62a7.79,7.79,0,0,0,7.79-7.73Z" fill="none" stroke="#f36c24" stroke-linecap="round" stroke-linejoin="round" stroke-width="1.5"/></svg>