<svg xmlns="http://www.w3.org/2000/svg" width="169.43mm" height="141.19mm" viewBox="0 0 480.27 400.24"><title>emergency</title><path d="M193.31,19.77,217.17,10l8.11-2.49L244.17,3c2.11.34,4.05-.38,6-1l17-1.94,5-.08,15,0,5,.12a63.87,63.87,0,0,0,12.94,1.19c1.58,1,3.32.88,5.06.78L323.1,4.42c1.14,1,2.59.82,3.95,1A52.37,52.37,0,0,0,338.12,8.3c1.12,1.14,2.71,1.06,4.07,1.55l10.86,3.76c1.3.71,2.55,1.57,4.12,1.58l9,4a3.51,3.51,0,0,0,2.68,1.29l11.24,6.05a5.29,5.29,0,0,0,3.07,1.73L393,34.72l2.15,1.41L404,42.74l3.12,2.5,7,5.95,3.11,2.88,7,7a7,7,0,0,0,2.93,3.06l6.09,6.94a7,7,0,0,0,2.69,3.11,39.38,39.38,0,0,0,6.1,8,10.27,10.27,0,0,0,3,4.27l5.06,7.71a4.73,4.73,0,0,0,1.91,3l5.44,9.93c.4,1.1.63,2.29,1.69,3q2.3,5.09,4.57,10.17l2.34,5.13a33.21,33.21,0,0,0,3.21,8.68,10.38,10.38,0,0,0,1.69,5.08q1.57,5.47,3.16,10.93c0,1.42,0,2.84,1,4q1.1,6,2.21,12c-.24,1.78.42,3.39.95,5l1.26,13a9.5,9.5,0,0,0,.59,5l.12,15,0,5-1.62,16.12q-.48,3.45-.95,6.9-1.82,9-3.61,18a16.44,16.44,0,0,0-1.87,7q-4,11-8,21.95l-5.08,11c-11.44,21.14-25.38,40.36-43.1,56.76C402.13,359.67,386.59,370,370.13,379l-11,5.09-21.95,8a16.41,16.41,0,0,0-7,1.87l-19,4-5.84.6-16.14,1.63-5,0-15-.12a9.37,9.37,0,0,0-5-.61l-13-1.26a10.92,10.92,0,0,0-5-.94l-12-2.21c-1.16-1-2.58-1-4-1l-10.92-3.17-4.1-1.5L205.5,386l-5.13-2.34-10.18-4.56c-.73-1.06-1.92-1.3-3-1.7L177.23,372a4.73,4.73,0,0,0-3-1.91L166.5,365a10.06,10.06,0,0,0-4.26-3,40.13,40.13,0,0,0-8-6.12,7,7,0,0,0-3.11-2.68l-6.94-6.09a7.15,7.15,0,0,0-3.06-2.93c-2-2.44-4.56-4.6-5-8a13.11,13.11,0,0,1,3.92-7.29q27-26.85,53.86-53.85a12.54,12.54,0,0,1,7.25-3.95c3.84.36,6,3.44,8.88,5.4a6.2,6.2,0,0,0,3.07,2.8,27.88,27.88,0,0,0,8,6.14,4.6,4.6,0,0,0,2.95,2,33.78,33.78,0,0,0,10.12,5.76,6.56,6.56,0,0,0,4,1.93,30.53,30.53,0,0,0,10,3.91,6.3,6.3,0,0,0,4,1.18,38.16,38.16,0,0,0,12,2.78l4.76.78a56.18,56.18,0,0,0,14.25.39l5-.13a56.38,56.38,0,0,0,18-3c2.9-.11,5.49-1.31,8.15-2.25q47.48-17,64.5-64.51c.95-2.66,2.13-5.26,2.25-8.15a57,57,0,0,0,3-18l.12-5a56.12,56.12,0,0,0-.4-14.24c-.25-1.59-.51-3.18-.76-4.76a39,39,0,0,0-2.79-12,6.35,6.35,0,0,0-1.18-4,30.53,30.53,0,0,0-3.91-10,6.47,6.47,0,0,0-1.92-4A34.31,34.31,0,0,0,367.46,144a4.56,4.56,0,0,0-2-3,27.9,27.9,0,0,0-6.13-7.94,6.18,6.18,0,0,0-2.82-3.08c-1.94-2.87-5-5-5.38-8.88.35-3.37,2.37-5.71,4.67-8Q380,89.06,404.28,64.77c-3.64-3.38-7-6.61-10.95-9.13l-2.1-1.59a34.49,34.49,0,0,0-8.17-5.86l-3.9-2.72A31.73,31.73,0,0,0,371.54,41a13,13,0,0,0-5.31-3,25.94,25.94,0,0,0-7.92-4,17.59,17.59,0,0,0-6.14-2.81A28.86,28.86,0,0,0,343.63,28c-.79-1.11-2.06-.91-3.16-1.17a63.17,63.17,0,0,0-13.17-4.14l-3.65-.74a43.69,43.69,0,0,0-13.47-2.71,7.17,7.17,0,0,0-4-.86c-4.59-.45-9.21-.71-13.75-1.44-3.51-.56-4.54.49-4.3,4s1.18,8.21-.6,10.5-6.8.25-10.33.94l-5-.31L272,20.15c1.05-5.27-2.29-3.51-4.84-3a57.7,57.7,0,0,0-17,2,10.53,10.53,0,0,0-6,1.06,81.55,81.55,0,0,0-20,5.09,21.09,21.09,0,0,0-8,2.83c-8.86,2.6-17,6.71-25,11.28-1.75.23-1.91-1.6-2.95-2.28l-5.41-9.77c-.15-.68-.29-1.35-.43-2l0,0ZM435.56,297.26c3.61-3.75,5.85-8.32,7.91-13a116.3,116.3,0,0,0,11-26.13,25.08,25.08,0,0,0,2.52-8,83.56,83.56,0,0,0,4.22-19,10.68,10.68,0,0,0,.92-6c1.43-5.29,1.37-10.73,1.69-16.14l.15-5.87a63.1,63.1,0,0,0-.35-14.14c-.16-1.62-.33-3.23-.49-4.85a32,32,0,0,0-2-13c.78-1.77.11-3.46-.3-5.16a57.37,57.37,0,0,0-2.76-11.84l-1.05-4a39.2,39.2,0,0,0-3.72-11,11.29,11.29,0,0,0-1.9-5.37c-.83-3.12-1.78-6.18-4-8.68a8.48,8.48,0,0,0-2.06-5.24l-4.43-8.65a9.33,9.33,0,0,0-2.58-4.33,50.9,50.9,0,0,0-5.81-9.42l-1-1.36a50.41,50.41,0,0,0-6.46-8.9A6.17,6.17,0,0,0,422.43,84c-1.1-1.44-2.31-2.81-3.28-4.34-2.14-3.38-3.8-3.71-6.91-.49-11.74,12.19-23.85,24-35.82,36-6.1,6.1-6.1,6.1-.17,12.91l2.95,4q2.54,4,5.05,8a5.4,5.4,0,0,0,1.81,3l4.78,10.1,2.13,5.31,3.12,9.56a5.67,5.67,0,0,0,1,4q1.11,6.5,2.21,13a6.11,6.11,0,0,0,.68,4q.15,7.48.31,15c0,1.67-.09,3.34-.13,5q-1.4,8.63-2.78,17.24L395.88,233a195.81,195.81,0,0,1-10.94,26.12q-4.57,6.93-9.16,13.84A167.5,167.5,0,0,1,353,295.74l-13.84,9.17a197.7,197.7,0,0,1-26.12,10.94l-6.65,1.53-17.24,2.77-5,.13-15-.31a6.24,6.24,0,0,0-4-.68l-13-2.21c-1.16-1-2.58-1-4-1l-9.56-3.11-5.32-2.13L223.21,306a5.26,5.26,0,0,0-3-1.81l-8-5.05-4-2.95a21.76,21.76,0,0,1-2.2-2c-3.19-3.68-5.61-3.28-9,.33-11.24,11.76-22.91,23.1-34.42,34.6-7.22,7.22-7.22,7.22,1.55,13.35l3.18,2.53a46,46,0,0,0,8.83,6.61l1.32.84a39.79,39.79,0,0,0,9.35,5.85,10.74,10.74,0,0,0,4.48,2.64,32.47,32.47,0,0,0,8.51,4.36,9.57,9.57,0,0,0,4.34,2.07,45.06,45.06,0,0,0,11.14,4.62L219,373.5A45.92,45.92,0,0,0,230.17,377l2.06.59A80.8,80.8,0,0,0,246,380.86l4,.51a48.37,48.37,0,0,0,14.11,1.74l4.84.49c4.7.8,9.42.56,14.15.35l5.86-.15c5.41-.31,10.85-.27,16.15-1.7a10.51,10.51,0,0,0,6-.92,82.4,82.4,0,0,0,19-4.21,23.09,23.09,0,0,0,8-2.65,108,108,0,0,0,26.08-11c4.74-2,9.52-4,13-8.05a31.84,31.84,0,0,0,7.66-4A172.21,172.21,0,0,0,420,319.6C425.83,312.67,432,305.84,435.56,297.26Z" fill="#040504"/><path d="M0,287.14l0-15Q1,264.93,8.19,264c8.24.41,8.24.41,7.83-7.84l0-5q0-7.5,0-15l0-5q0-7.5,0-15l0-5q0-7.5,0-15l0-5,0-15,0-5c0-8.3,5.45-14.68,7.8-22.15l3.72-8.71L39.8,113l3.72-8.71a78.11,78.11,0,0,0,3.76-8c2-5.79,5.68-8.75,11.89-8.27l5,0,15,0c9.38.54,9.38.54,8.83-8.84q0-7.48,0-15,1-7.22,8.17-8.16l15,0,5,0,15,0,5,0c3.56.31,6,2.31,7.72,5.28l.45,3.88,0,15,0,5c-.69,2.38.22,3.15,2.63,3,4-.21,8.12-.16,12.18-.21l5,0,15,0,5,0,15,0,5,0,15,0,5,.3q.1,5.94.2,11.87c.29,3.17-.87,4.69-4.3,4a17,17,0,0,0-3.83.12l-65.38-.14c-6.8,0-6.8,0-6.61,7,0,.33.08.66.12,1q0,6.49,0,13,0,7.48,0,15l0,5c-.06,4.06,0,8.13-.22,12.18-.12,2.41.65,3.32,3,2.64l5,0,15,0,5,0c3.2-.31,4.66.92,4,4.31a17.72,17.72,0,0,0,.1,3.84l0,5c.2,2.32-.86,3.37-3.17,3.17l-5,0-15,0c-9.38-.55-9.38-.55-8.83,8.83l0,15,0,5,0,15,0,5c-.06,4.06,0,8.13-.22,12.18-.12,2.41.66,3.32,3,2.64l5,0a18.35,18.35,0,0,0,3.84.11c3.39-.63,4.61.83,4.3,4l0,5c-.4,6.78-.4,6.78-7.17,7.17l-5,0c-2.47-.05-4.94-.13-7.4-.14-5.46,0-6.37,1.41-4,6.3a38.05,38.05,0,0,0,2.36,3.71c.64,1.38,1.27,2.77,1.91,4.15q1.41,5,2.83,10c.14,1.62.28,3.25.43,4.88q-.61,7.46-1.21,14.91-2,5-3.92,10.08l0,.05-.62.92c-4.93,8.59-11.95,15.07-20.39,20.1l-10.07,3.89-14.92,1.21-4.91-.39-10-2.84-4.93-2.42-7-4.59-4.2-3.72q-3-3.62-6-7.22c-.66-1.9-1.5-3.55-4-2.83l-15,0-5,0-15,0-5,0c-3.38-.19-6.88.1-9.77-2.25l-2-3Q.24,299.62,0,292.15Zm74.34,23.95a8.16,8.16,0,0,0,3.82,3.09,16.62,16.62,0,0,0,8.65,4.13c1.94,1.3,4.19,1.27,6.38,1.52a31.71,31.71,0,0,0,34.67-34.67c-.24-2.19-.22-4.44-1.51-6.38a16.76,16.76,0,0,0-4.13-8.66,8.13,8.13,0,0,0-3.1-3.82,20,20,0,0,0-8.83-6.5c-.48-.88-1.4-.81-2.2-1a25.21,25.21,0,0,0-14.9-2.3c-16.33,2.17-26.5,12.33-28.67,28.67A25.23,25.23,0,0,0,66.82,300c.21.8.14,1.74,1,2.23A19.92,19.92,0,0,0,74.34,311.09Zm6.23-134.94H44.08c-11.9,0-11.9,0-11.9,11.87,0,12.11,0,12.11,12.16,12.13,12.9,0,12.82,0,11.9,12.93-.18,2.41-1,3.14-3.29,3.09-5.16-.1-10.36.33-15.49-.13-4.66-.42-5.44,1.41-5.38,5.61.24,16.33.13,32.66.09,49,0,5.95-2.69,9.1-7.9,9.5-8.08.63-8.08.63-8.08,8.7a37.91,37.91,0,0,1,0,4c-.3,2.73,1,3.39,3.5,3.35,7.49-.12,15-.3,22.49.05,4.75.23,6.44-.6,6.22-6.11-1.11-27.76,20.57-49.89,48.38-50,9.16,0,18.33-.1,27.49.07,3,0,4-.77,4-3.91q-.21-28,0-56c0-3.25-.87-4.28-4.18-4.24C109.57,176.24,95.07,176.15,80.57,176.15Zm2.14-16c13.65,0,27.3-.1,41,.06,3.27,0,4.66-.52,4.61-4.26-.21-16-.17-32,0-47.95,0-3-.81-3.94-3.91-3.92-19.81.14-39.62.11-59.43,0-2.47,0-3.83.64-4.88,3.06q-10.79,24.68-21.92,49.2c-1.5,3.31-.6,3.87,2.65,3.84C54.74,160.07,68.72,160.14,82.71,160.15Zm33.72-88c-12.61,0-12.52,0-12.31,12.36,0,2.75.66,3.81,3.58,3.7,5.48-.22,11-.27,16.46,0,3.37.17,4.1-1,4.09-4.21C128.23,72.12,128.34,72.12,116.43,72.15Z" fill="#020202"/><path d="M232.17,232.3c-3.56-.31-6-2.31-7.72-5.27l-.45-3.89q0-7.5,0-15c0-1.67,0-3.34,0-5q0-7.5,0-15c0-1.67,0-3.34,0-5,0-13.82,1.35-15.14,15.17-15.16,9.38.54,9.38.54,8.83-8.84.4-6.77.4-6.77,7.17-7.16l5,0,4,.32c0,7.16,0,14.32,0,21.48,0,7.59-2.67,10.31-10.07,10.35-3.5,0-7,.14-10.49,0-2.51-.12-3.53.57-3.48,3.3q.24,12.74,0,25.48c-.06,2.73,1,3.41,3.47,3.3,3.82-.17,7.66-.11,11.49,0,6.16.12,9,3.08,9.1,9.33,0,3.5.18,7-.06,10.49-.21,3.13.6,4.48,4.05,4.24,4.48-.31,9,0,13.49-.08s10.64,1.51,13.52-.8c3.06-2.45.62-8.73,1-13.31,0-.33,0-.67,0-1,.19-5.85,3.12-8.75,9.06-8.86,3.83-.07,7.67-.14,11.49,0,2.47.1,3.56-.5,3.51-3.27q-.25-12.73,0-25.48c0-2.68-.86-3.33-3.42-3.37-4.09-.08-9.81,2-11.85-.86s-.68-8.28-.77-12.58c0-.83.1-1.66.16-2.49l14.82-.17,5,0c3.38.19,6.88-.11,9.76,2.25l2,3q.21,7.46.41,14.92l0,5,0,15,0,5c-.94,5.38,1.35,11.15-1.94,16.25l-1.23,1.2C328,233.46,322.42,232,317,232c-3.68,0-5.06.68-5,4.77.1,5.39,1.31,11-1.25,16.21l-1.74,1.74c-5.08,2.65-10.61.72-15.87,1.56l-5,0-15,0-5,0-14.92-.42-3-2c-2.35-2.89-2.05-6.38-2.25-9.77,0-1.67,0-3.34,0-5,.41-7,.41-7-6.45-7-1.45,0-2.91.11-4.36.17Z" fill="#020202"/><path d="M112,20.15q-.54-4.69,4.17-4.16l11.86.21c.1,1.65.21,3.3.31,4.95l0,15c.36,3.13-1,4.52-4.16,4.16l-11.86-.21c-.11-1.65-.21-3.3-.31-5Q112,27.64,112,20.15Z" fill="#020202"/><path d="M156.87,28.3A8.2,8.2,0,0,0,160,31.46c1.3,2.7,4.8,3.67,5.43,6.9L150.15,53.58c-2.88-1.08-4.07-4.18-6.68-5.59a8.08,8.08,0,0,0-3.15-3.15c-1.27-1.5-1.89-2.73,0-4.5,4.17-3.82,8.18-7.83,12-12C154.12,26.43,155.35,27,156.87,28.3Z" fill="#040504"/><path d="M92.05,32.21a13.62,13.62,0,0,0,4.07,4.07l5.61,6A96.22,96.22,0,0,1,90.35,53.69l-6-5.6A13.73,13.73,0,0,0,80.24,44l-5.67-6A91,91,0,0,1,86,26.54Z" fill="#040504"/><path d="M138.57,311.11l.62-.92C139,310.5,138.78,310.81,138.57,311.11Z" fill="#f2f2f2"/><path d="M80.57,176.15c14.5,0,29,.09,43.49-.07,3.31,0,4.21,1,4.18,4.24q-.19,28,0,56c0,3.14-1,4-4,3.91-9.16-.17-18.33-.09-27.49-.07-27.81.09-49.49,22.22-48.38,50,.22,5.51-1.47,6.34-6.22,6.11-7.48-.35-15-.17-22.49-.05-2.5,0-3.8-.62-3.5-3.35a37.91,37.91,0,0,0,0-4c0-8.07,0-8.07,8.08-8.7,5.21-.4,7.89-3.55,7.9-9.5,0-16.33.15-32.66-.09-49-.06-4.2.72-6,5.38-5.61,5.13.46,10.33,0,15.49.13,2.29.05,3.11-.68,3.29-3.09.92-12.92,1-12.92-11.9-12.93-12.15,0-12.15,0-12.16-12.13,0-11.88,0-11.87,11.9-11.87Zm-.29,24c-9.06.12-8-1-8.09,5.65-.09,10.35,0,10.35,6.89,10.36,9.1,0,9.1,0,9.1-6.15C88.19,200.14,88.19,200.14,80.28,200.14Z" fill="#519520"/><path d="M82.71,160.14c-14,0-28-.07-42,.06-3.25,0-4.15-.53-2.65-3.84Q49.25,131.83,60,107.16c1-2.42,2.41-3.07,4.88-3.06,19.81.09,39.62.12,59.43,0,3.1,0,3.94.87,3.91,3.92-.14,16-.18,32,0,47.95,0,3.74-1.34,4.3-4.61,4.26C110,160.05,96.36,160.15,82.71,160.14Z" fill="#68bf29"/><path d="M192.17,112.29l-15,0-5,0-15,.06-12.86-.18c0-.33-.11-.66-.12-1-.19-7-.19-7.05,6.61-7l65.38.14a22.21,22.21,0,0,0,0,3.91c.55,3.32-1,4.38-4,4.09l-15,0Z" fill="#68bf29"/><path d="M116.43,72.15c11.91,0,11.8,0,11.82,11.86,0,3.17-.72,4.38-4.09,4.21-5.48-.28-11-.23-16.46,0-2.92.11-3.54-.95-3.58-3.7C103.91,72.19,103.82,72.19,116.43,72.15Z" fill="#f00f34"/><path d="M304.37,165.22c0,1,0,1.95,0,2.92s-.18,1.66-.16,2.49c.09,4.3-1.31,9.71.77,12.58s7.76.78,11.85.86c2.56,0,3.47.69,3.42,3.37q-.24,12.74,0,25.48c.05,2.77-1,3.37-3.51,3.27-3.82-.17-7.66-.1-11.49,0-5.94.11-8.87,3-9.06,8.86,0,.33,0,.67,0,1-.38,4.58,2.06,10.86-1,13.31-2.88,2.31-8.89.75-13.52.8s-9-.23-13.49.08c-3.45.24-4.26-1.11-4.05-4.24.24-3.48.1-7,.06-10.49-.08-6.25-2.94-9.21-9.1-9.33-3.83-.07-7.67-.13-11.49,0-2.51.11-3.53-.57-3.47-3.3q.24-12.73,0-25.48c0-2.73,1-3.42,3.48-3.3,3.49.17,7,0,10.49,0,7.4,0,10.06-2.76,10.07-10.35,0-7.16,0-14.32,0-21.48l7.85-.17c.05,15.78.05,31.56.18,47.34,0,6.08,4.71,9.93,10.07,8.47,3.15-.86,4.78-3.23,6-6.14,5.16-12.19,10.44-24.33,15.68-36.48l.15-.25Z" fill="#f00f34"/><path d="M187.17,240l5,.3.2,11.87q.54,4.7-4.16,4.16l-11.87-.21-.3-4.95c.19-3.54-.93-8.38.93-10.24S183.64,240.15,187.17,240Z" fill="#020202"/><path d="M256.05,88.2c.1,1.65.21,3.3.31,5-.06,1-.17,1.94-.17,2.91-.07,7.85-.07,7.85-8,8.24-7.82-.38-7.82-.38-8.16-8.17a17.72,17.72,0,0,0,.11-3.84c-.66-3.42.86-4.58,4-4.3Z" fill="#020202"/><path d="M193.19,176.32,192,175.14l.25-14.92,14.92-.25,1.19,1.18-.29,14.93,0,0Z" fill="#020202"/><path d="M240,96.13c.34,7.79.34,7.79,8.16,8.17-.06,7.75-.06,7.75-8.06,7.85-1,0-2,.12-2.94.18l-5-.32L232,100.15C231.91,93.26,237.25,97.24,240,96.13Z" fill="#68bf29"/><path d="M80.28,200.14c7.91,0,7.91,0,7.9,9.86,0,6.16,0,6.16-9.1,6.15-6.92,0-7,0-6.89-10.36C72.25,199.11,71.22,200.26,80.28,200.14Z" fill="#020202"/><path d="M104.05,280.2l.3,4.95c-.74,3.56,1.54,8.34-1,10.44-2.15,1.75-6.67.6-10.14.73l-5-.3q-.11-5.94-.2-11.87c-.36-3.13,1-4.51,4.16-4.16Z" fill="#020202"/><path d="M127.86,285.16c-.24-2.19-.22-4.44-1.51-6.38a16.76,16.76,0,0,0-4.13-8.66h0a8.13,8.13,0,0,0-3.1-3.82,20,20,0,0,0-8.83-6.5c-.48-.88-1.4-.81-2.21-1a25.16,25.16,0,0,0-14.89-2.3c-16.33,2.17-26.5,12.33-28.67,28.67A25.23,25.23,0,0,0,66.82,300h0c.21.8.14,1.74,1,2.23a19.92,19.92,0,0,0,6.49,8.82,8.16,8.16,0,0,0,3.82,3.09,16.62,16.62,0,0,0,8.65,4.13c1.94,1.3,4.19,1.27,6.38,1.52A31.71,31.71,0,0,0,127.86,285.16ZM88.23,296,88,284.15c-.36-3.13,1-4.51,4.16-4.16l11.86.21.3,4.95c-.74,3.56,1.54,8.34-1,10.44-2.15,1.75-6.67.6-10.14.73Z" fill="#e9e3db"/><path d="M463.62,189h0c-.16-1.62-.33-3.23-.49-4.85a32,32,0,0,0-2-13c.78-1.77.11-3.46-.3-5.16a57.37,57.37,0,0,0-2.76-11.84l-1.05-4a39.31,39.31,0,0,0-3.72-11,11.29,11.29,0,0,0-1.9-5.37c-.83-3.12-1.78-6.18-4-8.68a8.48,8.48,0,0,0-2.06-5.24l-4.43-8.65a9.33,9.33,0,0,0-2.58-4.33,50.9,50.9,0,0,0-5.81-9.42c0,.14-.11.27-.16.4.05-.13.11-.26.16-.4l-1-1.36a50.41,50.41,0,0,0-6.46-8.9A6.17,6.17,0,0,0,422.43,84c-.69.59-1.4,1.15-2.11,1.72.71-.57,1.42-1.13,2.11-1.72-1.1-1.44-2.31-2.81-3.28-4.34-2.14-3.38-3.8-3.71-6.91-.49-11.74,12.19-23.85,24-35.82,36-6.1,6.1-6.1,6.1-.17,12.91l2.95,4q2.54,4,5.05,8a5.4,5.4,0,0,0,1.81,3q2.4,5,4.78,10.1l2.13,5.31,3.12,9.56a5.67,5.67,0,0,0,1,4q1.11,6.5,2.21,13a6.11,6.11,0,0,0,.68,4l.31,15-.13,5q-1.4,8.63-2.78,17.24L395.88,233a195.81,195.81,0,0,1-10.94,26.12q-4.57,6.93-9.16,13.84A167.5,167.5,0,0,1,353,295.74h0l-13.84,9.17a197.7,197.7,0,0,1-26.12,10.94c0,.16,0,.32,0,.47,0-.15,0-.31,0-.47l-6.65,1.53-17.24,2.77-5,.13-15-.31h0a6.24,6.24,0,0,0-4-.68l-13-2.21c-1.16-1-2.58-1-4-1l-9.56-3.12h0l-5.32-2.13L223.21,306a5.26,5.26,0,0,0-3-1.81l-8-5.05-4-2.95a21.76,21.76,0,0,1-2.2-2c-3.19-3.68-5.61-3.28-9,.33-11.24,11.76-22.91,23.1-34.42,34.6-7.22,7.22-7.22,7.22,1.55,13.35l3.18,2.53a46,46,0,0,0,8.83,6.61l1.32.84a39.79,39.79,0,0,0,9.35,5.85,10.74,10.74,0,0,0,4.48,2.64,32.47,32.47,0,0,0,8.51,4.36,9.57,9.57,0,0,0,4.34,2.07,45.06,45.06,0,0,0,11.14,4.62L219,373.5A45.92,45.92,0,0,0,230.17,377l2.06.59A80.8,80.8,0,0,0,246,380.86l4,.51c.65-.75,1.27-1.52,1.91-2.28-.64.76-1.26,1.53-1.91,2.28a48.37,48.37,0,0,0,14.11,1.74l4.84.49h0c4.7.8,9.42.56,14.15.35l5.86-.15c5.41-.31,10.85-.27,16.15-1.7a10.51,10.51,0,0,0,6-.92,82.4,82.4,0,0,0,19-4.21,23.09,23.09,0,0,0,8-2.65,108,108,0,0,0,26.08-11c4.74-2,9.52-4,13-8.05a31.84,31.84,0,0,0,7.66-4A172.21,172.21,0,0,0,420,319.6c5.85-6.93,12-13.76,15.58-22.34,3.61-3.75,5.85-8.32,7.91-13a116.3,116.3,0,0,0,11-26.13,25.08,25.08,0,0,0,2.52-8,83.56,83.56,0,0,0,4.22-19,10.68,10.68,0,0,0,.92-6c1.43-5.29,1.37-10.73,1.69-16.14l.15-5.87A63.1,63.1,0,0,0,463.62,189Zm-.94.13a5.31,5.31,0,0,0-2.25,1.22A5.31,5.31,0,0,1,462.68,189.12Zm-30.8-90.41q.12-.18.24-.39Q432,98.53,431.88,98.71Zm-194,214.59a9,9,0,0,0-1.86,1.43A9,9,0,0,1,237.88,313.3ZM236,314.78Z" fill="#5aa9e6"/><path d="M272,140.15c0-1.67,0-3.34,0-5q0-7.5,0-15c0-1.67,0-3.34,0-5l0-15c-.36-3.14,1-4.52,4.17-4.16l11.86.21.31,5,0,15c0,1.67,0,3.34,0,5l0,15,0,5c-.06,2.81-.22,5.62-.12,8.42,0,1.17-.89,3.07.81,3.39,1.26.23,2.62-.82,3.24-2.38,2.27-5.81,4.63-11.58,7-17.37v0c.21-.34.42-.69.64-1,1.07-2.69,2.15-5.37,3.22-8.06a239.16,239.16,0,0,0,10.09-24,37.27,37.27,0,0,0,4.13-9.93,255.84,255.84,0,0,0,11-26,31.58,31.58,0,0,0,3.83-9c1.24-2.67,2.52-5.31,3.7-8,.47-1.08.8-2.19,2.32-2l1,.61,1.94.64,3.1,1.47c2.09,2.07,6.69.79,7,5.25a35.85,35.85,0,0,0-3.85,9Q342,74.68,336.67,87.2c-1.38,2.89-2.89,5.73-3.53,8.91h0l-.63,1q-5.19,12.51-10.36,25a30.15,30.15,0,0,0-3.4,7.84c-5.24,11.66-10.35,23.37-14.79,35.36-5.24,12.15-10.52,24.29-15.68,36.48-1.23,2.91-2.86,5.28-6,6.14-5.36,1.46-10-2.39-10.07-8.47-.13-15.78-.13-31.56-.18-47.34Z" fill="#030402"/></svg>